<svg width="1070" height="178" viewBox="0 0 1070 178" fill="none" xmlns="http://www.w3.org/2000/svg">
<g clip-path="url(#clip0)">
<g filter="url(#filter0_b)">
<path d="M1060 0H10C4.47715 0 0 4.47715 0 10V168C0 173.523 4.47715 178 10 178H1060C1065.52 178 1070 173.523 1070 168V10C1070 4.47715 1065.52 0 1060 0Z" fill="white" fill-opacity="0.2"/>
</g>
<path d="M2 29H0V149H2V29Z" fill="url(#paint0_linear)"/>
<path d="M1070 29H1068V149H1070V29Z" fill="url(#paint1_linear)"/>
<g filter="url(#filter1_f)">
<path d="M235.413 99.0166C241.509 98.9249 247.554 100.143 253.139 102.588C259.305 105.253 265.005 108.887 270.022 113.354C275.423 118.11 280.128 123.603 283.999 129.67C287.984 135.864 291.018 142.62 292.999 149.714C294.851 156.153 295.53 162.872 295.005 169.552C294.578 175.139 292.892 180.558 290.074 185.401C287.51 189.747 283.807 193.31 279.365 195.706C274.63 198.162 269.33 199.324 264.001 199.074C258.025 198.806 252.164 197.342 246.764 194.767C240.934 192.022 235.55 188.416 230.791 184.071C225.741 179.502 221.32 174.282 217.644 168.549C213.854 162.68 210.914 156.304 208.909 149.612C207.014 143.428 206.173 136.97 206.42 130.508C206.616 124.977 207.984 119.55 210.434 114.587C212.682 110.073 216.095 106.241 220.319 103.487C224.846 100.642 230.067 99.0956 235.413 99.0166Z" fill="#F2CA6B" fill-opacity="0.1"/>
</g>
<path opacity="0.2" d="M260.032 177.549C259.648 177.535 259.261 177.509 258.87 177.472C258.48 177.434 258.087 177.385 257.691 177.324C257.296 177.263 256.899 177.19 256.499 177.105C256.1 177.021 255.7 176.925 255.299 176.819C254.908 176.715 254.515 176.599 254.12 176.472C253.726 176.346 253.33 176.211 252.932 176.067C252.536 175.919 252.14 175.761 251.742 175.592C251.345 175.424 250.948 175.245 250.552 175.057C250.164 174.872 249.775 174.677 249.385 174.472C248.996 174.268 248.608 174.053 248.22 173.829C247.833 173.605 247.447 173.372 247.061 173.13C246.676 172.887 246.293 172.636 245.911 172.377C245.534 172.121 245.158 171.854 244.783 171.577C244.409 171.301 244.037 171.018 243.667 170.73C243.298 170.44 242.931 170.142 242.567 169.836C242.203 169.53 241.842 169.217 241.482 168.896C241.126 168.576 240.772 168.249 240.422 167.915C240.072 167.58 239.726 167.238 239.384 166.89C239.042 166.542 238.705 166.188 238.371 165.828C238.038 165.468 237.71 165.102 237.387 164.729C237.061 164.354 236.74 163.973 236.424 163.586C236.108 163.2 235.798 162.808 235.492 162.411C235.187 162.015 234.887 161.615 234.592 161.211C234.298 160.808 234.011 160.399 233.732 159.983C233.447 159.562 233.168 159.136 232.895 158.706C232.623 158.275 232.356 157.841 232.095 157.405C231.837 156.968 231.585 156.528 231.34 156.084C231.096 155.641 230.859 155.196 230.63 154.749C230.396 154.289 230.169 153.827 229.949 153.361C229.73 152.896 229.519 152.429 229.316 151.961C229.116 151.491 228.922 151.02 228.733 150.546C228.545 150.073 228.368 149.599 228.202 149.125C228.034 148.65 227.875 148.176 227.725 147.701C227.575 147.227 227.435 146.754 227.304 146.281C227.171 145.809 227.05 145.338 226.94 144.869C226.831 144.401 226.729 143.934 226.635 143.469C226.546 143.017 226.466 142.567 226.395 142.118C226.325 141.67 226.263 141.224 226.211 140.781C226.159 140.337 226.117 139.897 226.084 139.459C226.052 139.022 226.028 138.589 226.014 138.16C226.001 137.738 225.997 137.32 226.002 136.906C226.008 136.493 226.022 136.083 226.045 135.677C226.069 135.271 226.103 134.871 226.145 134.477C226.188 134.083 226.24 133.692 226.3 133.306C226.361 132.924 226.431 132.549 226.509 132.179C226.588 131.809 226.679 131.443 226.782 131.083C226.879 130.725 226.985 130.373 227.099 130.028C227.214 129.682 227.337 129.344 227.469 129.014C227.603 128.68 227.744 128.357 227.892 128.043C228.041 127.729 228.199 127.419 228.367 127.115C228.535 126.814 228.71 126.521 228.893 126.237C229.077 125.952 229.269 125.676 229.469 125.409C229.669 125.142 229.88 124.881 230.1 124.626C230.321 124.37 230.548 124.128 230.78 123.898C231.015 123.664 231.257 123.441 231.507 123.227C231.757 123.013 232.015 122.809 232.279 122.615C232.546 122.415 232.823 122.229 233.111 122.057C233.399 121.884 233.692 121.717 233.988 121.557C234.288 121.403 234.595 121.259 234.908 121.127C235.222 120.995 235.541 120.875 235.867 120.766C236.201 120.654 236.542 120.554 236.892 120.466C237.242 120.378 237.598 120.302 237.958 120.239C238.32 120.172 238.687 120.12 239.058 120.084C239.43 120.049 239.81 120.024 240.199 120.011C240.583 119.997 240.972 119.997 241.365 120.011C241.759 120.025 242.156 120.048 242.556 120.082C242.956 120.118 243.36 120.167 243.768 120.229C244.176 120.29 244.586 120.364 244.996 120.451C245.396 120.535 245.8 120.632 246.208 120.739C246.616 120.847 247.025 120.968 247.434 121.1C247.845 121.234 248.257 121.378 248.67 121.532C249.084 121.687 249.497 121.854 249.911 122.033C250.318 122.208 250.726 122.394 251.134 122.592C251.543 122.789 251.951 122.997 252.359 123.217C252.768 123.436 253.176 123.665 253.582 123.905C253.989 124.145 254.395 124.396 254.799 124.656C255.199 124.914 255.599 125.181 255.999 125.457C256.399 125.732 256.794 126.019 257.182 126.319C257.576 126.615 257.967 126.921 258.355 127.236C258.744 127.55 259.129 127.873 259.509 128.205C259.891 128.538 260.268 128.878 260.642 129.224C261.016 129.571 261.387 129.927 261.753 130.293C262.119 130.658 262.481 131.029 262.837 131.408C263.194 131.786 263.546 132.172 263.892 132.566C264.241 132.962 264.584 133.364 264.922 133.773C265.26 134.181 265.594 134.596 265.922 135.017C266.248 135.437 266.568 135.863 266.88 136.295C267.193 136.726 267.498 137.161 267.796 137.601C268.1 138.049 268.396 138.503 268.684 138.961C268.973 139.419 269.254 139.881 269.527 140.347C269.8 140.813 270.065 141.282 270.321 141.754C270.578 142.226 270.825 142.701 271.063 143.178C271.308 143.668 271.544 144.16 271.77 144.656C271.997 145.151 272.214 145.648 272.422 146.148C272.63 146.647 272.829 147.147 273.017 147.648C273.206 148.148 273.384 148.65 273.552 149.153C273.72 149.656 273.878 150.156 274.025 150.653C274.173 151.151 274.309 151.651 274.434 152.153C274.56 152.65 274.674 153.145 274.778 153.637C274.882 154.129 274.975 154.616 275.056 155.1C275.136 155.572 275.205 156.042 275.263 156.507C275.322 156.973 275.37 157.436 275.408 157.896C275.446 158.354 275.474 158.808 275.49 159.258C275.507 159.708 275.513 160.153 275.509 160.591C275.505 161.022 275.491 161.448 275.466 161.87C275.442 162.292 275.408 162.708 275.366 163.118C275.322 163.528 275.267 163.933 275.203 164.331C275.139 164.729 275.065 165.12 274.981 165.504C274.899 165.884 274.806 166.257 274.703 166.625C274.601 166.992 274.489 167.351 274.368 167.703C274.248 168.056 274.118 168.4 273.978 168.736C273.839 169.073 273.691 169.401 273.535 169.721C273.379 170.04 273.212 170.351 273.035 170.653C272.859 170.956 272.676 171.25 272.487 171.535C272.297 171.82 272.097 172.096 271.887 172.362C271.678 172.629 271.463 172.886 271.242 173.132C271.018 173.382 270.784 173.621 270.542 173.85C270.3 174.08 270.052 174.299 269.798 174.508C269.543 174.718 269.281 174.918 269.011 175.109C268.742 175.299 268.466 175.474 268.182 175.634C267.895 175.804 267.601 175.964 267.299 176.111C266.998 176.259 266.69 176.396 266.376 176.521C266.062 176.647 265.743 176.761 265.417 176.865C265.092 176.968 264.761 177.059 264.425 177.139C264.081 177.221 263.73 177.291 263.373 177.348C263.017 177.406 262.655 177.452 262.287 177.486C261.921 177.521 261.549 177.543 261.172 177.554C260.796 177.564 260.416 177.562 260.032 177.549ZM245.724 151.916L243.976 155.884L243.982 155.889L256.305 166.854L261.311 156.043L256.682 151.958L253.551 158.858L245.727 151.917L245.724 151.916ZM248.761 144.966L247.426 148.008L247.273 148.357L246.96 149.075V149.08L246.968 149.087L251.597 153.187L253.431 149.087L248.761 144.966ZM259.847 144.978L257.982 149.089L262.636 153.188L264.536 149.094L259.85 144.983L259.847 144.978ZM238.015 145.077L236.323 149.077L240.804 153.067L242.525 149.083L238.014 145.083L238.015 145.077ZM246.782 139.228L254.711 146.208L256.554 142.09L243.954 131.036L239.221 142.226L243.753 146.237L246.782 139.228Z" fill="#F3BA2F"/>
<g filter="url(#filter2_f)">
<path d="M335.474 -15.8719C341.435 -15.7692 347.37 -15.0671 353.191 -13.7761C359.333 -12.4432 365.358 -10.6194 371.209 -8.32238C376.897 -6.1145 382.386 -3.42476 387.616 -0.28248C392.287 2.47791 396.601 5.80132 400.462 9.61318C403.423 12.4039 405.704 15.8371 407.129 19.6482C407.633 20.9993 407.843 22.4424 407.744 23.8811C407.645 25.3197 407.24 26.7206 406.556 27.9901C404.801 30.724 402.149 32.7618 399.055 33.7535C394.53 35.3186 389.766 36.0769 384.979 35.9939C378.834 35.9869 372.707 35.3259 366.702 34.022C360.283 32.665 353.989 30.7716 347.887 28.3618C341.976 26.0575 336.285 23.2277 330.88 19.9063C326.151 17.0558 321.816 13.596 317.988 9.61576C315.132 6.79748 313.032 3.30431 311.884 -0.540583C311.497 -1.91364 311.419 -3.35538 311.656 -4.76207C311.893 -6.16877 312.439 -7.50546 313.254 -8.67598C315.316 -11.2755 318.152 -13.1506 321.351 -14.029C325.929 -15.4006 330.698 -16.023 335.474 -15.8719Z" fill="#F2CA6B" fill-opacity="0.1"/>
</g>
<path opacity="0.2" d="M371.739 20C371.482 20 371.22 19.9966 370.953 19.9897C370.686 19.9828 370.414 19.9707 370.137 19.9535C369.862 19.9369 369.582 19.9163 369.296 19.8914C369.009 19.8666 368.721 19.837 368.432 19.8025C368.147 19.7694 367.86 19.7322 367.569 19.6909C367.278 19.6495 366.983 19.604 366.685 19.5544C366.387 19.5048 366.087 19.4513 365.784 19.3941C365.481 19.3369 365.176 19.2756 364.868 19.2101C364.567 19.146 364.263 19.0771 363.957 19.0033C363.651 18.9296 363.342 18.8541 363.03 18.7769C362.721 18.6976 362.412 18.6149 362.103 18.5287C361.795 18.4426 361.483 18.353 361.166 18.2599C360.857 18.1676 360.548 18.0721 360.239 17.9735C359.931 17.875 359.62 17.7716 359.305 17.6634C358.994 17.5579 358.684 17.4497 358.373 17.3387C358.063 17.2277 357.754 17.1137 357.446 16.9965C357.138 16.88 356.831 16.7604 356.525 16.6377C356.219 16.515 355.914 16.3899 355.611 16.2624C355.309 16.1349 355.007 16.005 354.708 15.8726C354.409 15.7403 354.113 15.6059 353.819 15.4694C353.523 15.3315 353.229 15.1913 352.938 15.0486C352.647 14.9059 352.359 14.7615 352.074 14.6154C351.789 14.4693 351.507 14.3214 351.229 14.1718C350.951 14.0223 350.677 13.8713 350.406 13.719C350.131 13.5639 349.86 13.4071 349.594 13.2486C349.328 13.09 349.066 12.9301 348.809 12.7688C348.553 12.6075 348.3 12.4455 348.052 12.2829C347.805 12.1202 347.564 11.9565 347.331 11.7918C347.089 11.6229 346.852 11.4533 346.621 11.2831C346.39 11.1128 346.164 10.9405 345.944 10.7661C345.725 10.5945 345.511 10.4222 345.304 10.2492C345.096 10.0762 344.896 9.90385 344.702 9.73222C344.509 9.5599 344.322 9.38758 344.141 9.21526C343.961 9.04294 343.789 8.87062 343.626 8.6983C343.461 8.52805 343.303 8.35884 343.152 8.19065C343.002 8.02247 342.856 7.85773 342.714 7.69644C342.583 7.53515 342.459 7.37455 342.342 7.21464C342.225 7.05473 342.116 6.89654 342.014 6.74007C341.913 6.58292 341.819 6.42749 341.732 6.27378C341.646 6.12007 341.567 5.96809 341.495 5.81782C341.427 5.67032 341.364 5.52454 341.308 5.38048C341.252 5.23642 341.204 5.09409 341.166 4.95347C341.126 4.81562 341.092 4.67776 341.063 4.53991C341.038 4.40722 341.021 4.27331 341.01 4.13875C341 4.01115 340.998 3.88308 341.002 3.75517C341.007 3.63151 341.019 3.50825 341.038 3.38606C341.057 3.26663 341.084 3.14852 341.117 3.03246C341.151 2.91757 341.192 2.80498 341.24 2.69541C341.288 2.58547 341.344 2.47876 341.406 2.37593C341.468 2.27119 341.537 2.17037 341.612 2.07403C341.69 1.97487 341.773 1.88028 341.862 1.79074C341.954 1.69773 342.052 1.60972 342.153 1.52709C342.258 1.44162 342.369 1.35959 342.488 1.28102C342.607 1.20244 342.732 1.12696 342.863 1.05459C342.995 0.985663 343.132 0.916736 343.275 0.847808C343.418 0.778881 343.571 0.718224 343.735 0.665839C343.895 0.607251 344.061 0.552454 344.234 0.501447C344.407 0.450441 344.585 0.403226 344.769 0.359801C344.954 0.316377 345.144 0.276744 345.341 0.240902C345.537 0.205059 345.74 0.174387 345.949 0.148883C346.162 0.120623 346.381 0.0961538 346.605 0.0754756C346.83 0.0547973 347.06 0.0385994 347.296 0.0268817C347.532 0.015164 347.772 0.00723739 348.017 0.00310174C348.262 -0.00103391 348.514 -0.00103391 348.771 0.00310174C349.027 0.00792666 349.287 0.0165426 349.552 0.0289496C349.816 0.0413565 350.085 0.0582437 350.357 0.0796112C350.632 0.100289 350.906 0.125103 351.181 0.154053C351.456 0.183002 351.737 0.217466 352.025 0.257444C352.3 0.293286 352.581 0.33292 352.867 0.376344C353.153 0.419768 353.439 0.466984 353.725 0.51799C354.013 0.568996 354.304 0.623794 354.597 0.682382C354.89 0.74097 355.185 0.803005 355.481 0.868486C355.771 0.932589 356.063 1.00152 356.358 1.07527C356.652 1.14902 356.948 1.22346 357.246 1.29859C357.543 1.37648 357.841 1.45747 358.14 1.54156C358.438 1.62565 358.739 1.71285 359.042 1.80314C359.338 1.89275 359.635 1.98546 359.932 2.08127C360.23 2.17707 360.527 2.27564 360.825 2.37696C361.123 2.47829 361.42 2.58168 361.716 2.68714C362.013 2.7926 362.308 2.90185 362.603 3.01489C362.897 3.12655 363.191 3.24097 363.483 3.35815C363.776 3.47532 364.067 3.59457 364.357 3.71588C364.646 3.83788 364.934 3.96195 365.221 4.08809C365.507 4.21423 365.791 4.34243 366.072 4.4727C366.357 4.60367 366.638 4.73704 366.918 4.87283C367.197 5.00862 367.474 5.14647 367.749 5.28639C368.024 5.42425 368.294 5.56521 368.561 5.70926C368.828 5.85332 369.093 5.99704 369.354 6.14041C369.619 6.2886 369.881 6.43817 370.14 6.58912C370.399 6.74007 370.653 6.8924 370.903 7.04611C371.154 7.19982 371.4 7.35456 371.641 7.51034C371.882 7.66611 372.118 7.82258 372.351 7.97973C372.589 8.14103 372.823 8.30369 373.05 8.46774C373.278 8.63179 373.502 8.79618 373.721 8.96092C373.939 9.12634 374.152 9.29212 374.359 9.45823C374.567 9.62435 374.768 9.79081 374.963 9.95761C375.159 10.1244 375.348 10.2912 375.53 10.458C375.713 10.6248 375.889 10.7909 376.06 10.9564C376.229 11.1225 376.392 11.2879 376.548 11.4526C376.704 11.6174 376.852 11.7811 376.994 11.9438C377.131 12.1023 377.262 12.2601 377.387 12.4173C377.512 12.5744 377.63 12.7309 377.74 12.8867C377.851 13.0425 377.954 13.1969 378.049 13.3499C378.145 13.5029 378.234 13.6545 378.317 13.8048C378.397 13.9523 378.471 14.0984 378.538 14.2432C378.606 14.3879 378.665 14.5313 378.718 14.6733C378.77 14.8153 378.815 14.9552 378.854 15.0931C378.892 15.2309 378.923 15.367 378.946 15.5014C378.969 15.6311 378.985 15.7619 378.995 15.8933C379.002 16.0197 379.002 16.1464 378.995 16.2727C378.989 16.3954 378.977 16.5176 378.957 16.6388C378.937 16.7572 378.91 16.8743 378.875 16.9892C378.841 17.1035 378.799 17.2154 378.751 17.3242C378.701 17.4342 378.645 17.5409 378.582 17.6437C378.518 17.7486 378.447 17.8494 378.371 17.9456C378.292 18.0449 378.207 18.1395 378.117 18.2289C378.023 18.3231 377.923 18.4122 377.819 18.4957C377.711 18.5811 377.598 18.6635 377.478 18.7428C377.358 18.822 377.232 18.8965 377.102 18.9661C376.965 19.035 376.823 19.1039 376.679 19.1729C376.534 19.2418 376.376 19.3038 376.206 19.359C376.041 19.4176 375.869 19.472 375.691 19.5223C375.512 19.5726 375.328 19.6195 375.138 19.6629C374.947 19.7057 374.75 19.7443 374.548 19.7787C374.345 19.8132 374.13 19.8446 373.903 19.8728C373.681 19.8997 373.453 19.9225 373.218 19.9411C372.984 19.9597 372.743 19.9738 372.497 19.9835C372.25 19.9945 371.997 20 371.739 20ZM357.498 10.7982L356.962 12.2053L367.242 16.1053L368.554 12.2612L364.821 10.8447L363.97 13.2568L357.498 10.7982ZM358.394 8.40157L358.002 9.43548L357.956 9.55542L357.864 9.80356H357.87L361.673 11.251L362.188 9.83561L358.398 8.3964L358.394 8.40157ZM365.648 8.48532L365.164 9.86766L368.886 11.28L369.354 9.89661L365.647 8.48945L365.648 8.48532ZM351.072 8.36332L350.512 9.76427L354.296 11.2004L354.839 9.79529L351.072 8.36332ZM356.134 6.43817L362.538 8.8689L363.035 7.49586L352.951 3.66419L351.459 7.38627L355.214 8.811L356.129 6.44127L356.134 6.43817Z" fill="#F3BA2F"/>
<g filter="url(#filter3_f)">
<path d="M651.129 -3.91641C659.419 -3.90718 667.669 -2.76167 675.648 -0.511868C682.987 1.5328 689.988 4.64283 696.425 8.71896C702.248 12.3643 707.346 17.0557 711.461 22.5564C715.249 27.6084 717.686 33.5436 718.54 39.8003C719.299 45.8256 718.309 51.942 715.688 57.4201C712.851 63.1948 708.706 68.2274 703.581 72.117C697.692 76.6234 691.046 80.043 683.956 82.2151C675.807 84.7472 667.32 86.0233 658.787 85.9995C650.03 86.0349 641.314 84.8004 632.912 82.3346C625.265 80.1225 618.011 76.7314 611.41 72.2834C605.561 68.3906 600.54 63.3791 596.636 57.5376C593.115 52.2601 591.07 46.1367 590.712 39.8023C590.445 33.7347 591.904 27.7158 594.921 22.4448C598.129 16.9334 602.509 12.1951 607.753 8.56625C613.65 4.44737 620.194 1.34271 627.115 -0.619545C634.92 -2.86256 643.007 -3.97285 651.129 -3.91641Z" fill="#F2CA6B" fill-opacity="0.1"/>
</g>
<path opacity="0.2" d="M656.916 63C656.393 63 655.869 62.9899 655.345 62.9698C654.822 62.9498 654.299 62.9223 653.777 62.8875C653.255 62.8514 652.734 62.8066 652.214 62.753C651.695 62.6995 651.178 62.6376 650.664 62.5673C650.162 62.5004 649.661 62.4234 649.163 62.3364C648.664 62.2494 648.167 62.1561 647.673 62.0564C647.179 61.9553 646.688 61.8462 646.2 61.7291C645.712 61.612 645.228 61.4872 644.748 61.3547C644.277 61.2242 643.809 61.0864 643.344 60.9411C642.879 60.7959 642.418 60.6433 641.961 60.4834C641.505 60.3235 641.053 60.1562 640.606 59.9815C640.159 59.8068 639.718 59.6258 639.282 59.4384C638.851 59.2524 638.425 59.0593 638.004 58.8592C637.583 58.6592 637.167 58.4527 636.755 58.2399C636.346 58.0271 635.944 57.8079 635.548 57.5824C635.152 57.3569 634.765 57.126 634.387 56.8898C634.005 56.6529 633.632 56.41 633.265 56.161C632.898 55.9121 632.539 55.6578 632.188 55.3981C631.838 55.1385 631.495 54.8735 631.161 54.6031C630.827 54.3327 630.502 54.0577 630.186 53.778C629.867 53.4956 629.557 53.2081 629.256 52.9157C628.955 52.6232 628.664 52.3265 628.382 52.0253C628.1 51.7242 627.829 51.419 627.568 51.1098C627.307 50.8007 627.056 50.4878 626.816 50.1713C626.572 49.8494 626.338 49.5235 626.115 49.1936C625.892 48.8636 625.681 48.529 625.481 48.1898C625.281 47.8552 625.092 47.5155 624.916 47.1709C624.739 46.8263 624.574 46.4816 624.422 46.137C624.265 45.781 624.121 45.4223 623.989 45.0609C623.857 44.6995 623.738 44.3355 623.632 43.9687C623.527 43.6027 623.434 43.2346 623.354 42.8646C623.275 42.4945 623.208 42.1237 623.155 41.7523C623.102 41.3803 623.063 41.0082 623.037 40.6361C623.011 40.264 622.998 39.8933 623 39.5239C623 39.1525 623.015 38.7821 623.045 38.4127C623.074 38.0433 623.117 37.6752 623.171 37.3085C623.226 36.9518 623.294 36.5961 623.374 36.2414C623.454 35.8867 623.548 35.5341 623.655 35.1834C623.762 34.8327 623.881 34.4844 624.011 34.1384C624.142 33.7925 624.288 33.4495 624.448 33.1095C624.603 32.7749 624.77 32.444 624.951 32.1168C625.131 31.7895 625.323 31.4643 625.528 31.1411C625.733 30.8192 625.95 30.5013 626.179 30.1875C626.407 29.8736 626.647 29.5641 626.898 29.2589C627.147 28.9564 627.408 28.6586 627.68 28.3655C627.953 28.0724 628.236 27.7837 628.53 27.4993C628.824 27.2155 629.129 26.9371 629.444 26.6641C629.759 26.391 630.085 26.1234 630.42 25.861C630.755 25.6 631.101 25.3447 631.456 25.0951C631.812 24.8455 632.178 24.6026 632.554 24.3664C632.928 24.1295 633.312 23.8993 633.704 23.6757C634.097 23.4522 634.497 23.2361 634.906 23.0273C635.318 22.8165 635.739 22.613 636.169 22.417C636.599 22.2209 637.038 22.0342 637.485 21.8568C637.93 21.6762 638.382 21.5035 638.84 21.3389C639.299 21.1743 639.763 21.0183 640.235 20.8711C640.715 20.7205 641.201 20.5787 641.695 20.4455C642.188 20.3123 642.687 20.1875 643.192 20.0711C643.694 19.956 644.202 19.8486 644.716 19.7488C645.23 19.6491 645.749 19.5628 646.271 19.4899C646.806 19.4096 647.346 19.339 647.892 19.2781C648.438 19.2172 648.987 19.1666 649.539 19.1265C650.091 19.0857 650.647 19.0545 651.205 19.0331C651.763 19.0117 652.323 19.0007 652.883 19C653.444 19 654.006 19.009 654.568 19.0271C655.13 19.0452 655.691 19.0743 656.251 19.1144C656.812 19.1539 657.371 19.2031 657.928 19.262C658.485 19.3209 659.04 19.3898 659.592 19.4688C660.127 19.5457 660.662 19.6317 661.197 19.7268C661.732 19.8218 662.263 19.9265 662.789 20.0409C663.317 20.1547 663.84 20.2775 664.361 20.4093C664.881 20.5412 665.396 20.6817 665.905 20.8309C666.405 20.9775 666.901 21.1328 667.394 21.2967C667.886 21.4607 668.372 21.6323 668.852 21.8117C669.333 21.9917 669.809 22.1794 670.279 22.3748C670.75 22.5702 671.211 22.7733 671.663 22.9841C672.113 23.1922 672.556 23.4081 672.993 23.6316C673.43 23.8551 673.859 24.0853 674.28 24.3222C674.701 24.5591 675.114 24.8024 675.519 25.052C675.924 25.3016 676.319 25.5572 676.706 25.8189C677.092 26.0805 677.47 26.3482 677.838 26.6219C678.207 26.8956 678.566 27.175 678.915 27.4601C679.264 27.7445 679.604 28.0343 679.934 28.3294C680.264 28.6245 680.582 28.9237 680.889 29.2268C681.199 29.5326 681.499 29.8435 681.788 30.1593C682.077 30.4752 682.355 30.7948 682.621 31.118C682.887 31.4412 683.142 31.7681 683.385 32.0987C683.628 32.4293 683.859 32.7622 684.078 33.0975C684.301 33.4388 684.511 33.7838 684.709 34.1324C684.907 34.4811 685.093 34.8317 685.266 35.1844C685.439 35.5371 685.599 35.8918 685.747 36.2484C685.894 36.6051 686.028 36.9628 686.149 37.3215C686.273 37.6896 686.384 38.0597 686.481 38.4317C686.577 38.8038 686.661 39.1766 686.731 39.55C686.801 39.9234 686.857 40.2975 686.9 40.6722C686.942 41.047 686.972 41.4214 686.989 41.7955C687.004 42.1689 687.004 42.5417 686.989 42.9137C686.974 43.2858 686.948 43.6559 686.911 44.024C686.872 44.392 686.819 44.7581 686.753 45.1221C686.686 45.4862 686.607 45.8469 686.514 46.2042C686.424 46.5529 686.321 46.8992 686.205 47.2432C686.089 47.5871 685.961 47.9284 685.821 48.2671C685.681 48.605 685.529 48.9396 685.365 49.2709C685.201 49.6021 685.025 49.9294 684.837 50.2526C684.653 50.5698 684.457 50.8836 684.249 51.1942C684.042 51.5047 683.824 51.8108 683.595 52.1126C683.366 52.4145 683.126 52.7119 682.876 53.005C682.626 53.2981 682.366 53.5859 682.096 53.8683C681.828 54.148 681.55 54.4231 681.263 54.6934C680.975 54.9638 680.678 55.2288 680.371 55.4885C680.065 55.7481 679.749 56.0024 679.425 56.2514C679.1 56.5003 678.768 56.7429 678.428 56.9791C678.087 57.2153 677.738 57.4459 677.38 57.6707C677.022 57.8956 676.657 58.1138 676.284 58.3252C675.911 58.5374 675.531 58.7428 675.143 58.9416C674.756 59.1403 674.362 59.332 673.962 59.5167C673.558 59.7034 673.147 59.8831 672.728 60.0558C672.31 60.2284 671.886 60.3941 671.457 60.5527C671.027 60.7113 670.591 60.8622 670.151 61.0054C669.71 61.1486 669.265 61.2844 668.813 61.4129C668.355 61.5434 667.892 61.6662 667.423 61.7813C666.954 61.8964 666.481 62.0035 666.004 62.1026C665.528 62.2016 665.047 62.2923 664.56 62.3746C664.073 62.4569 663.586 62.5315 663.098 62.5984C662.595 62.6654 662.088 62.7246 661.576 62.7761C661.065 62.8276 660.551 62.8698 660.035 62.9026C659.519 62.9361 659 62.9608 658.479 62.9769C657.958 62.9929 657.437 63.0006 656.916 63ZM647.423 43.9055L643.29 46.9521H643.296L656.138 55.1221L667.514 46.9752L662.812 43.9155L655.588 49.1444L647.423 43.9065V43.9055ZM654.619 38.5853L651.462 40.9162L651.101 41.1832L650.358 41.7333H650.351L650.359 41.7393L655.195 44.8591L659.468 41.7393L654.62 38.5833L654.619 38.5853ZM670.102 38.6365L665.809 41.7483L670.517 44.832L674.817 41.7533L670.103 38.6415L670.102 38.6365ZM639.191 38.6204L635.077 41.7242L639.909 44.7989L644.03 41.7323L639.191 38.6204ZM654.212 34.1435L662.462 39.547L666.751 36.4161L653.626 27.7472L642.122 36.4121L646.967 39.5389L654.21 34.1445L654.212 34.1435Z" fill="#F3BA2F"/>
<g filter="url(#filter4_f)">
<path d="M740.271 116.428C747.568 116.364 754.844 117.201 761.936 118.918C767.972 120.347 773.746 122.712 779.05 125.928C783.482 128.556 787.226 132.2 789.974 136.56C792.422 140.551 793.43 145.261 792.83 149.905C792.035 154.994 789.784 159.744 786.349 163.581C782.263 168.218 777.371 172.076 771.91 174.969C765.496 178.438 758.654 181.047 751.559 182.728C743.716 184.627 735.673 185.57 727.603 185.538C719.909 185.562 712.245 184.568 704.811 182.581C698.655 180.979 692.819 178.335 687.554 174.765C683.28 171.922 679.818 168.018 677.506 163.436C675.491 159.222 674.995 154.442 676.102 149.905C677.417 144.906 680.039 140.347 683.698 136.696C687.94 132.389 692.866 128.814 698.275 126.115C704.456 122.974 710.998 120.602 717.756 119.051C725.138 117.328 732.691 116.448 740.271 116.428Z" fill="#F2CA6B" fill-opacity="0.1"/>
</g>
<path opacity="0.2" d="M729.949 170C729.423 170 728.898 169.996 728.376 169.988C727.854 169.981 727.334 169.962 726.818 169.932C726.302 169.906 725.79 169.872 725.281 169.831C724.773 169.79 724.269 169.741 723.771 169.685C723.285 169.63 722.801 169.568 722.32 169.499C721.839 169.43 721.368 169.354 720.905 169.27C720.436 169.186 719.972 169.096 719.513 169C719.054 168.903 718.602 168.8 718.159 168.689C717.72 168.58 717.288 168.465 716.86 168.344C716.433 168.223 716.008 168.094 715.586 167.956C715.172 167.822 714.764 167.681 714.363 167.533C713.962 167.385 713.569 167.232 713.183 167.074C712.802 166.915 712.427 166.751 712.06 166.581C711.692 166.411 711.333 166.235 710.982 166.053C710.631 165.871 710.288 165.684 709.954 165.491C709.62 165.298 709.295 165.1 708.979 164.896C708.664 164.693 708.357 164.484 708.06 164.271C707.763 164.057 707.475 163.838 707.197 163.614C706.919 163.39 706.651 163.16 706.394 162.925C706.136 162.69 705.889 162.453 705.653 162.214C705.414 161.969 705.186 161.721 704.969 161.469C704.752 161.216 704.546 160.959 704.352 160.698C704.159 160.437 703.976 160.173 703.804 159.905C703.632 159.637 703.472 159.366 703.326 159.091C703.176 158.811 703.038 158.528 702.913 158.242C702.788 157.956 702.675 157.666 702.576 157.373C702.476 157.08 702.389 156.784 702.314 156.487C702.241 156.191 702.18 155.89 702.132 155.587C702.082 155.277 702.047 154.964 702.025 154.649C702.004 154.332 701.996 154.014 702.002 153.696C702.009 153.374 702.029 153.053 702.063 152.733C702.097 152.41 702.146 152.087 702.208 151.762C702.271 151.438 702.347 151.113 702.437 150.788C702.528 150.462 702.632 150.137 702.75 149.813C702.868 149.489 702.999 149.165 703.145 148.842C703.291 148.519 703.45 148.198 703.622 147.878C703.794 147.558 703.976 147.247 704.166 146.946C704.36 146.639 704.567 146.331 704.788 146.022C705.009 145.712 705.242 145.406 705.486 145.103C705.731 144.797 705.989 144.498 706.26 144.204C706.531 143.911 706.807 143.622 707.09 143.337C707.378 143.05 707.678 142.766 707.989 142.485C708.301 142.204 708.623 141.927 708.956 141.653C709.29 141.379 709.633 141.109 709.986 140.843C710.339 140.578 710.7 140.32 711.068 140.07C711.44 139.814 711.82 139.563 712.21 139.316C712.6 139.068 713 138.826 713.409 138.589C713.817 138.352 714.233 138.12 714.658 137.892C715.083 137.665 715.516 137.443 715.958 137.226C716.399 137.01 716.848 136.799 717.305 136.594C717.761 136.389 718.225 136.19 718.695 135.996C719.165 135.802 719.64 135.615 720.122 135.435C720.604 135.254 721.096 135.077 721.599 134.904C722.097 134.735 722.601 134.573 723.11 134.416C723.62 134.26 724.133 134.112 724.65 133.971C725.166 133.83 725.686 133.696 726.213 133.569C726.739 133.443 727.276 133.322 727.826 133.205C728.367 133.091 728.911 132.985 729.458 132.888C730.005 132.79 730.553 132.699 731.102 132.617C731.654 132.535 732.205 132.462 732.757 132.399C733.323 132.331 733.89 132.272 734.46 132.222C735.029 132.171 735.598 132.129 736.168 132.095C736.737 132.063 737.306 132.038 737.874 132.022C738.443 132.006 739.008 131.999 739.57 132C740.134 132 740.695 132.01 741.254 132.03C741.813 132.05 742.368 132.077 742.918 132.112C743.468 132.148 744.013 132.192 744.553 132.245C745.093 132.298 745.627 132.359 746.154 132.428C746.67 132.496 747.179 132.573 747.681 132.658C748.184 132.743 748.681 132.835 749.175 132.935C749.666 133.034 750.149 133.142 750.625 133.257C751.101 133.373 751.571 133.496 752.034 133.626C752.485 133.753 752.932 133.888 753.373 134.031C753.814 134.173 754.244 134.322 754.665 134.478C755.087 134.632 755.501 134.794 755.906 134.966C756.312 135.139 756.707 135.314 757.093 135.493C757.475 135.673 757.848 135.859 758.213 136.052C758.577 136.245 758.932 136.443 759.276 136.647C759.621 136.851 759.955 137.061 760.278 137.276C760.602 137.491 760.915 137.711 761.216 137.936C761.518 138.161 761.808 138.39 762.087 138.625C762.365 138.859 762.634 139.099 762.893 139.344C763.151 139.588 763.397 139.837 763.631 140.089C763.865 140.342 764.088 140.598 764.298 140.858C764.511 141.121 764.711 141.389 764.899 141.662C765.087 141.935 765.263 142.208 765.426 142.481C765.589 142.758 765.74 143.037 765.878 143.319C766.016 143.602 766.141 143.887 766.254 144.173C766.368 144.466 766.469 144.761 766.558 145.058C766.646 145.356 766.721 145.656 766.783 145.957C766.844 146.257 766.893 146.561 766.929 146.866C766.964 147.171 766.987 147.477 766.996 147.785C767.005 148.101 767 148.417 766.981 148.733C766.962 149.053 766.93 149.372 766.884 149.688C766.839 150.007 766.779 150.326 766.705 150.646C766.632 150.966 766.545 151.286 766.445 151.605C766.345 151.924 766.232 152.243 766.106 152.561C765.98 152.879 765.84 153.196 765.688 153.51C765.536 153.825 765.372 154.138 765.195 154.449C765.018 154.761 764.829 155.07 764.627 155.376C764.434 155.674 764.226 155.971 764.003 156.265C763.781 156.56 763.55 156.852 763.31 157.142C763.068 157.431 762.815 157.718 762.551 158.003C762.287 158.288 762.013 158.569 761.728 158.846C761.449 159.118 761.159 159.386 760.858 159.649C760.557 159.912 760.247 160.176 759.928 160.439C759.609 160.698 759.281 160.954 758.944 161.207C758.607 161.459 758.261 161.707 757.906 161.951C757.555 162.192 757.196 162.429 756.828 162.664C756.46 162.898 756.084 163.127 755.7 163.352C755.317 163.577 754.926 163.797 754.528 164.012C754.13 164.227 753.726 164.438 753.315 164.644C752.904 164.849 752.485 165.049 752.057 165.244C751.63 165.439 751.2 165.63 750.766 165.818C750.33 166.002 749.889 166.181 749.442 166.355C748.996 166.529 748.544 166.697 748.089 166.859C747.629 167.023 747.164 167.18 746.694 167.332C746.224 167.483 745.75 167.629 745.273 167.769C744.796 167.909 744.315 168.043 743.831 168.17C743.346 168.297 742.86 168.418 742.37 168.533C741.872 168.649 741.371 168.759 740.866 168.862C740.362 168.965 739.856 169.062 739.347 169.151C738.839 169.241 738.329 169.324 737.817 169.399C737.306 169.475 736.794 169.544 736.281 169.605C735.755 169.668 735.227 169.724 734.699 169.772C734.17 169.821 733.641 169.862 733.111 169.895C732.581 169.929 732.051 169.955 731.523 169.974C730.994 169.994 730.47 170.002 729.949 170ZM726.307 153.547L721.167 156.203H721.172L731.617 163.198L745.552 156.11L741.794 153.5L732.92 158.043L726.308 153.549L726.307 153.547ZM735.228 148.92L731.322 150.943L730.874 151.172L729.953 151.65H729.944H729.951L733.856 154.33L739.121 151.622L735.229 148.911L735.228 148.92ZM750.712 148.931L745.469 151.617L749.211 154.258L754.433 151.599L750.708 148.937L750.712 148.931ZM719.603 148.989L714.439 151.694L718.404 154.349L723.551 151.671L719.605 148.989H719.603ZM736.198 145.086L742.801 149.735L748.058 147.031L737.599 139.56L723.274 147.072L727.209 149.774L736.202 145.095L736.198 145.086Z" fill="#F3BA2F"/>
<g filter="url(#filter5_f)">
<path d="M1046.75 -0.243795C1053.58 -0.621826 1060.37 1.04471 1066.25 4.54295C1071.95 8.12039 1076.52 13.2403 1079.43 19.3094C1082.83 26.4234 1084.7 34.1717 1084.92 42.0538C1085.24 51.6688 1084.02 61.2728 1081.31 70.5026C1078.43 80.5876 1074.2 90.2365 1068.73 99.1864C1063.56 107.74 1057.26 115.566 1050.02 122.459C1043.53 128.712 1036.08 133.871 1027.94 137.735C1020.86 141.154 1013.07 142.86 1005.21 142.715C998.385 142.554 991.775 140.299 986.275 136.254C980.933 132.143 976.798 126.667 974.306 120.404C971.422 113.191 969.963 105.488 970.011 97.7205C970.023 88.4942 971.409 79.321 974.122 70.5026C976.968 61.0264 981.008 51.951 986.145 43.4952C991.025 35.3997 996.898 27.9457 1003.63 21.3064C1009.78 15.1727 1016.82 10.0016 1024.52 5.96723C1031.39 2.30806 1038.98 0.18865 1046.75 -0.243795Z" fill="#F2CA6B" fill-opacity="0.1"/>
</g>
<path opacity="0.2" d="M1017.52 100.99C1017.12 101.003 1016.72 101.003 1016.33 100.99C1015.93 100.976 1015.54 100.954 1015.16 100.921C1014.78 100.886 1014.4 100.839 1014.03 100.779C1013.66 100.719 1013.29 100.647 1012.93 100.563C1012.58 100.48 1012.24 100.386 1011.9 100.281C1011.56 100.175 1011.22 100.06 1010.89 99.9343C1010.56 99.8056 1010.24 99.6656 1009.92 99.514C1009.61 99.3625 1009.3 99.1996 1008.99 99.0251C1008.7 98.8541 1008.41 98.6719 1008.12 98.4786C1007.84 98.2854 1007.56 98.0816 1007.29 97.8675C1007.02 97.6527 1006.75 97.4277 1006.49 97.1927C1006.24 96.9577 1005.99 96.7125 1005.75 96.4573C1005.51 96.2041 1005.29 95.9411 1005.06 95.6684C1004.84 95.3956 1004.63 95.1131 1004.42 94.8208C1004.22 94.5286 1004.02 94.2275 1003.83 93.9178C1003.63 93.608 1003.46 93.2894 1003.29 92.9621C1003.12 92.6348 1002.96 92.2981 1002.8 91.952C1002.65 91.6058 1002.51 91.2533 1002.37 90.8943C1002.24 90.5334 1002.12 90.165 1002 89.7892C1001.89 89.4134 1001.78 89.0309 1001.69 88.6417C1001.59 88.2484 1001.5 87.848 1001.43 87.4406C1001.35 87.0332 1001.28 86.6193 1001.23 86.1991C1001.17 85.7789 1001.13 85.3529 1001.09 84.9213C1001.06 84.4896 1001.03 84.0518 1001.02 83.608C1001 83.1582 1001 82.7029 1001 82.2423C1001.01 81.7817 1001.03 81.318 1001.07 80.8513C1001.09 80.3799 1001.13 79.9061 1001.18 79.43C1001.23 78.9539 1001.29 78.4737 1001.36 77.9895C1001.44 77.4932 1001.52 76.9935 1001.62 76.4904C1001.71 75.9874 1001.82 75.4823 1001.94 74.9752C1002.06 74.4661 1002.19 73.9553 1002.33 73.4428C1002.47 72.9303 1002.62 72.4168 1002.79 71.9023C1002.95 71.3878 1003.12 70.8736 1003.31 70.3598C1003.49 69.8459 1003.68 69.3328 1003.89 68.8203C1004.09 68.3085 1004.31 67.7987 1004.53 67.2909C1004.76 66.7831 1004.99 66.2781 1005.23 65.7757C1005.47 65.2867 1005.72 64.8002 1005.97 64.316C1006.23 63.8318 1006.49 63.3509 1006.76 62.8735C1007.04 62.396 1007.32 61.9226 1007.61 61.4532C1007.9 60.9838 1008.2 60.5195 1008.5 60.0602C1008.8 59.609 1009.11 59.1625 1009.42 58.7207C1009.74 58.2789 1010.06 57.8412 1010.39 57.4075C1010.72 56.9765 1011.05 56.5512 1011.39 56.1317C1011.74 55.7121 1012.08 55.301 1012.44 54.8982C1012.79 54.4942 1013.14 54.0992 1013.51 53.7133C1013.87 53.3274 1014.23 52.9466 1014.61 52.5708C1014.98 52.1977 1015.36 51.8324 1015.74 51.4748C1016.12 51.1172 1016.5 50.7684 1016.89 50.4283C1017.28 50.0916 1017.67 49.7602 1018.07 49.4343C1018.47 49.1083 1018.87 48.7945 1019.27 48.4928C1019.67 48.1884 1020.08 47.8935 1020.48 47.6079C1020.89 47.3224 1021.3 47.0466 1021.71 46.7806C1022.13 46.5112 1022.54 46.2543 1022.96 46.0098C1023.38 45.7654 1023.8 45.5297 1024.22 45.3027C1024.64 45.0778 1025.06 44.8636 1025.48 44.6603C1025.9 44.4569 1026.32 44.2666 1026.74 44.0895C1027.16 43.9063 1027.59 43.735 1028.02 43.5753C1028.44 43.4157 1028.87 43.2679 1029.29 43.1319C1029.72 42.9972 1030.14 42.8733 1030.56 42.7601C1030.98 42.647 1031.4 42.5477 1031.82 42.4621C1032.24 42.3733 1032.67 42.2972 1033.09 42.2339C1033.51 42.1705 1033.93 42.12 1034.35 42.0823C1034.77 42.0446 1035.18 42.02 1035.59 42.0086C1036 41.9971 1036.4 41.9971 1036.8 42.0086C1037.2 42.0227 1037.6 42.0497 1037.99 42.0894C1038.39 42.1291 1038.78 42.1813 1039.15 42.246C1039.53 42.3133 1039.9 42.3908 1040.26 42.4783C1040.63 42.5659 1040.99 42.6669 1041.34 42.7814C1041.68 42.8932 1042.02 43.0167 1042.35 43.1521C1042.68 43.2875 1043 43.4343 1043.32 43.5925C1043.63 43.7508 1043.94 43.9191 1044.24 44.0976C1044.54 44.2761 1044.84 44.4673 1045.12 44.6714C1045.4 44.8694 1045.68 45.0781 1045.94 45.2977C1046.21 45.5172 1046.46 45.7465 1046.71 45.9856C1046.96 46.2247 1047.21 46.4735 1047.44 46.7321C1047.67 46.9907 1047.9 47.2584 1048.12 47.5352C1048.33 47.8093 1048.54 48.0925 1048.74 48.3847C1048.93 48.677 1049.12 48.9777 1049.3 49.2868C1049.49 49.5959 1049.66 49.9128 1049.82 50.2374C1049.98 50.562 1050.14 50.894 1050.28 51.2334C1050.43 51.5701 1050.57 51.9169 1050.69 52.2738C1050.82 52.6308 1050.94 52.9917 1051.05 53.3567C1051.16 53.7244 1051.26 54.0985 1051.35 54.479C1051.44 54.8595 1051.52 55.2451 1051.59 55.6357C1051.66 56.0303 1051.72 56.4307 1051.78 56.8367C1051.83 57.2428 1051.88 57.654 1051.91 58.0702C1051.94 58.4863 1051.97 58.9069 1051.98 59.3318C1052 59.7568 1052 60.1854 1052 60.6178C1051.99 61.0575 1051.98 61.5017 1051.96 61.9502C1051.93 62.3987 1051.9 62.8502 1051.86 63.3048C1051.81 63.7594 1051.76 64.217 1051.7 64.6776C1051.63 65.1383 1051.56 65.6002 1051.48 66.0636C1051.39 66.539 1051.3 67.0175 1051.19 67.499C1051.09 67.9805 1050.97 68.4634 1050.85 68.9476C1050.72 69.4318 1050.59 69.9173 1050.44 70.4042C1050.29 70.8911 1050.14 71.3794 1049.97 71.869C1049.81 72.3552 1049.64 72.8411 1049.45 73.3266C1049.27 73.8122 1049.08 74.2957 1048.88 74.7772C1048.68 75.2594 1048.47 75.7392 1048.25 76.2167C1048.03 76.6942 1047.81 77.1683 1047.57 77.639C1047.35 78.0976 1047.11 78.5545 1046.87 79.0098C1046.62 79.465 1046.37 79.9166 1046.11 80.3644C1045.85 80.8129 1045.59 81.2574 1045.31 81.6978C1045.04 82.1383 1044.76 82.576 1044.47 83.011C1044.19 83.4346 1043.9 83.8545 1043.6 84.2707C1043.31 84.6869 1043 85.098 1042.69 85.5041C1042.39 85.9082 1042.07 86.3096 1041.75 86.7082C1041.43 87.1069 1041.11 87.4968 1040.78 87.878C1040.45 88.2585 1040.11 88.6329 1039.78 89.0013C1039.44 89.3697 1039.1 89.7323 1038.75 90.0892C1038.4 90.4455 1038.05 90.795 1037.69 91.1378C1037.33 91.4806 1036.97 91.8173 1036.61 92.1479C1036.25 92.4759 1035.88 92.7965 1035.51 93.1096C1035.14 93.4228 1034.76 93.7282 1034.38 94.0258C1034.01 94.3235 1033.62 94.6127 1033.24 94.8936C1032.86 95.1744 1032.47 95.4461 1032.09 95.7088C1031.7 95.9741 1031.3 96.2307 1030.91 96.4785C1030.51 96.7263 1030.11 96.9647 1029.72 97.1937C1029.32 97.4227 1028.92 97.6422 1028.52 97.8523C1028.12 98.0625 1027.72 98.2621 1027.32 98.4514C1026.91 98.6446 1026.5 98.8271 1026.09 98.9989C1025.68 99.1706 1025.27 99.3322 1024.87 99.4837C1024.46 99.6346 1024.05 99.7747 1023.64 99.904C1023.23 100.033 1022.83 100.151 1022.42 100.258C1022.01 100.367 1021.59 100.464 1021.18 100.55C1020.77 100.637 1020.36 100.706 1019.95 100.76C1019.54 100.822 1019.13 100.872 1018.72 100.91C1018.32 100.948 1017.92 100.975 1017.52 100.99ZM1020.31 74.7782L1015.59 78.9613V78.9674L1021.05 90.0418L1033.62 78.8017L1031.71 74.7287L1023.73 81.8453L1020.31 74.7742L1020.31 74.7782ZM1028.39 67.6061L1024.88 70.7214L1024.47 71.081L1023.64 71.8225L1023.63 71.8275V71.8346L1025.63 76.0288L1030.36 71.8235L1028.39 67.6081L1028.39 67.6061ZM1039.58 67.7172L1034.98 71.8205L1036.86 75.9056L1041.44 71.8174L1039.58 67.7172ZM1016.85 67.6162L1012.07 71.8366L1014.14 76.0318L1018.89 71.8326L1016.85 67.6263L1016.85 67.6162ZM1030.32 61.7168L1033.64 68.9092L1038.26 64.7948L1033.06 53.3194L1020.21 64.6554L1022.23 68.8779L1030.31 61.7229L1030.32 61.7168Z" fill="#F3BA2F"/>
<g filter="url(#filter6_f)">
<path d="M26.2834 -21.0875C22.1728 -21.2639 18.1036 -20.204 14.6014 -18.0446C11.2245 -15.8471 8.54359 -12.7329 6.87271 -9.06669C4.92281 -4.77291 3.89297 -0.11861 3.84939 4.59698C3.76527 10.3575 4.59267 16.0952 6.30094 21.5973C8.12222 27.6287 10.7377 33.391 14.0785 38.7327C17.2588 43.8634 21.0922 48.5591 25.4826 52.7018C29.4397 56.4814 33.9684 59.613 38.9015 61.9813C43.2026 64.0848 47.93 65.1708 52.7179 65.1554C56.849 65.1296 60.8717 63.8304 64.2374 61.435C67.4824 59.0009 69.99 55.7159 71.4824 51.944C73.2216 47.5756 74.0756 42.9052 73.9947 38.204C73.9248 32.5755 73.0072 26.9896 71.2729 21.6345C69.4437 15.8502 66.884 10.3229 63.6559 5.18637C60.5869 0.263336 56.9166 -4.25817 52.7296 -8.27366C48.9142 -11.9694 44.5658 -15.0717 39.8296 -17.4768C35.6297 -19.6491 31.0073 -20.8812 26.2834 -21.0875Z" fill="#F2CA6B" fill-opacity="0.1"/>
</g>
<path opacity="0.2" d="M46.7621 42.9987C47.0429 42.9904 47.3168 42.9727 47.5836 42.9457C47.8505 42.9186 48.1162 42.884 48.381 42.8417C48.6422 42.7966 48.8992 42.7422 49.152 42.6784C49.4048 42.6147 49.6505 42.5426 49.8893 42.4621C50.1252 42.3831 50.3566 42.2954 50.5834 42.1991C50.8102 42.1027 51.0321 41.9987 51.2491 41.8871C51.466 41.7741 51.6767 41.6531 51.881 41.5242C52.0854 41.3953 52.2862 41.2566 52.4835 41.1083C52.6752 40.9661 52.8613 40.8161 53.0418 40.658C53.2222 40.4999 53.3978 40.335 53.5684 40.163C53.7383 39.9904 53.9023 39.8109 54.0603 39.6244C54.2183 39.4379 54.3703 39.2448 54.5164 39.0452C54.661 38.8476 54.8014 38.6431 54.9377 38.4317C55.0739 38.2202 55.2006 38.0026 55.3179 37.7787C55.4387 37.5547 55.5531 37.3249 55.6613 37.0892C55.7694 36.8535 55.8712 36.6109 55.9667 36.3613C56.0622 36.1152 56.1511 35.8633 56.2332 35.6054C56.3154 35.3475 56.3912 35.0851 56.4607 34.8182C56.5309 34.5506 56.5938 34.2785 56.6493 34.0019C56.7047 33.7253 56.7542 33.4446 56.7978 33.1596C56.8406 32.8719 56.8757 32.5801 56.9031 32.2841C56.9305 31.9881 56.9533 31.6882 56.9716 31.3846C56.9905 31.0837 57 30.7794 57 30.4716C57 30.1638 56.9954 29.8519 56.9863 29.5358C56.9744 29.2141 56.9558 28.8893 56.9305 28.5614C56.9052 28.2335 56.8722 27.9032 56.8315 27.5704C56.7914 27.2377 56.7448 26.9029 56.6914 26.5659C56.638 26.229 56.5776 25.8907 56.5102 25.551C56.44 25.2044 56.3635 24.854 56.2806 24.4998C56.1977 24.1455 56.1068 23.7916 56.0078 23.4381C55.9102 23.0831 55.8049 22.7272 55.6918 22.3701C55.5788 22.0131 55.4601 21.6561 55.3358 21.2991C55.2101 20.9421 55.0781 20.5854 54.9398 20.2291C54.8014 19.8728 54.6568 19.5175 54.5058 19.1632C54.3548 18.809 54.1979 18.4565 54.035 18.1057C53.8721 17.7549 53.7046 17.4056 53.5326 17.0575C53.3627 16.7206 53.1871 16.3851 53.0059 16.051C52.8248 15.7168 52.638 15.3851 52.4456 15.0558C52.2532 14.7266 52.0559 14.4 51.8536 14.0763C51.6514 13.7526 51.4443 13.4292 51.2322 13.1061C51.0216 12.7949 50.8091 12.4864 50.595 12.1806C50.3808 11.8749 50.1593 11.573 49.9303 11.2749C49.7042 10.9762 49.4743 10.6815 49.2404 10.3911C49.0066 10.1006 48.7689 9.8143 48.5274 9.53215C48.2886 9.25486 48.046 8.97999 47.7996 8.70755C47.5531 8.43511 47.3038 8.16891 47.0517 7.90894C46.7989 7.64759 46.5433 7.39144 46.2849 7.14049C46.0265 6.88954 45.766 6.64379 45.5034 6.40324C45.2401 6.16338 44.9746 5.92872 44.7071 5.69926C44.4396 5.4698 44.1696 5.24658 43.8971 5.0296C43.6247 4.81192 43.3508 4.60083 43.0756 4.39633C42.8003 4.19182 42.5236 3.99321 42.2456 3.80049C41.9647 3.60708 41.6838 3.41991 41.4029 3.23897C41.1221 3.05804 40.8384 2.88473 40.5519 2.71905C40.2675 2.55267 39.9828 2.39323 39.6977 2.24072C39.4126 2.08821 39.1275 1.94367 38.8424 1.8071C38.5524 1.66845 38.262 1.53639 37.9713 1.41092C37.6806 1.28544 37.3906 1.16898 37.1013 1.06153C36.8113 0.953383 36.5224 0.853211 36.2345 0.761011C35.9466 0.668811 35.6601 0.584929 35.375 0.509367C35.0822 0.431725 34.7904 0.362401 34.4997 0.301397C34.209 0.240392 33.9201 0.189093 33.6329 0.147499C33.3457 0.105212 33.0602 0.0705499 32.7765 0.0435137C32.4929 0.0164776 32.2113 0.0033062 31.9318 0.00399943C31.6509 -0.00293291 31.3757 -0.000853222 31.106 0.0102385C30.8364 0.0213303 30.5678 0.041434 30.3003 0.0705499C30.0355 0.0996657 29.7747 0.137794 29.5177 0.184933C29.2607 0.232073 29.0082 0.288225 28.7604 0.353389C28.5188 0.416474 28.2811 0.48857 28.0473 0.569678C27.8135 0.650786 27.5842 0.739867 27.3595 0.83692C27.1348 0.934666 26.9146 1.04038 26.6991 1.15407C26.4835 1.26776 26.2729 1.39012 26.0671 1.52114C25.8656 1.64939 25.6693 1.78561 25.4783 1.9298C25.2873 2.074 25.1009 2.22581 24.919 2.38526C24.7379 2.5447 24.5623 2.71177 24.3924 2.88647C24.2225 3.06116 24.0581 3.24313 23.8994 3.43239C23.7429 3.61956 23.5919 3.81436 23.4465 4.01678C23.3012 4.21921 23.1607 4.42718 23.0252 4.64069C22.8918 4.85629 22.7647 5.07847 22.6439 5.30724C22.5232 5.536 22.4087 5.77066 22.3006 6.01122C22.1924 6.25177 22.091 6.49891 21.9962 6.75263C21.9014 7.00635 21.8129 7.26528 21.7307 7.5294C21.6486 7.79421 21.5734 8.06423 21.5053 8.33944C21.4372 8.61466 21.3758 8.89472 21.321 9.17964C21.2662 9.46733 21.2185 9.76023 21.1778 10.0583C21.137 10.3564 21.1019 10.6587 21.0724 10.9651C21.0457 11.2722 21.0264 11.5841 21.0145 11.9009C21.0026 12.2177 20.998 12.5359 21.0008 12.8555C21.0008 13.1834 21.011 13.5151 21.0314 13.8506C21.0517 14.1862 21.077 14.5248 21.1072 14.8666C21.1402 15.2083 21.1806 15.5529 21.2283 15.9002C21.2761 16.2475 21.3329 16.5955 21.3989 16.9442C21.4636 17.304 21.5359 17.6666 21.6159 18.0319C21.696 18.3972 21.7845 18.7657 21.8814 19.1372C21.9776 19.5061 22.0811 19.8762 22.1921 20.2478C22.303 20.6194 22.4217 20.9913 22.5481 21.3636C22.6745 21.7358 22.8079 22.1081 22.9483 22.4804C23.0888 22.8526 23.2362 23.2239 23.3907 23.594C23.5452 23.9642 23.7063 24.3327 23.8742 24.6994C24.042 25.0661 24.2175 25.4308 24.4008 25.7933C24.5764 26.1462 24.7586 26.4977 24.9475 26.8477C25.1364 27.1978 25.3305 27.5444 25.5299 27.8876C25.7301 28.2342 25.9358 28.576 26.1472 28.9129C26.3585 29.2498 26.5748 29.585 26.796 29.9184C27.0137 30.2435 27.2363 30.5659 27.4638 30.8855C27.6913 31.2051 27.9223 31.5177 28.1568 31.8234C28.3942 32.1347 28.6357 32.4414 28.8815 32.7437C29.1273 33.0459 29.3769 33.3433 29.6304 33.6359C29.8811 33.9257 30.136 34.2106 30.3951 34.4906C30.6542 34.7707 30.9164 35.0456 31.1819 35.3153C31.4473 35.5849 31.7155 35.8487 31.9866 36.1066C32.2576 36.3645 32.5311 36.6164 32.8071 36.8625C33.083 37.108 33.3615 37.3475 33.6423 37.5811C33.9232 37.8147 34.2058 38.0414 34.4902 38.2611C34.7746 38.4816 35.0608 38.6948 35.3487 38.9007C35.6366 39.1065 35.9252 39.3055 36.2145 39.4975C36.5066 39.6909 36.7997 39.8771 37.094 40.0559C37.3882 40.2348 37.6827 40.406 37.9777 40.5696C38.2726 40.7332 38.5675 40.8888 38.8624 41.0365C39.1573 41.1842 39.4519 41.3228 39.7461 41.4524C40.0453 41.5855 40.344 41.7107 40.6425 41.8278C40.9409 41.945 41.2386 42.0531 41.5357 42.1523C41.832 42.2514 42.1273 42.3422 42.4215 42.4247C42.7157 42.5072 43.0075 42.5803 43.2968 42.6441C43.5938 42.7134 43.8894 42.7703 44.1836 42.8146C44.4778 42.859 44.7696 42.8971 45.0589 42.929C45.3482 42.9581 45.635 42.9779 45.9194 42.9883C46.2038 42.9987 46.4847 43.0022 46.7621 42.9987ZM43.9814 23.4006L47.3035 26.3944L43.9393 34.735L34.762 26.5046L36.0512 23.4381L41.8358 28.6373L43.9814 23.4006ZM38.2441 18.2159L40.751 20.4776L41.0385 20.7376L41.6315 21.2731H41.6368V21.2783L40.3581 24.3583L36.9507 21.2897L38.2399 18.2201L38.2441 18.2159ZM30.2813 18.2471L33.6708 21.2939L32.371 24.3573L28.9657 21.3033L30.2824 18.2471H30.2813ZM46.0806 18.2752L49.3742 21.2648L48.164 24.2668L44.8546 21.2741L46.0806 18.2783V18.2752ZM36.7801 13.9692L34.5819 19.1476L31.204 16.1061L34.7083 7.97029L43.7455 16.1622L42.5089 19.1528L36.779 13.9713L36.7801 13.9692Z" fill="#F3BA2F"/>
</g>
<defs>
<filter id="filter0_b" x="-20" y="-20" width="1110" height="218" filterUnits="userSpaceOnUse" color-interpolation-filters="sRGB">
<feFlood flood-opacity="0" result="BackgroundImageFix"/>
<feGaussianBlur in="BackgroundImage" stdDeviation="10"/>
<feComposite in2="SourceAlpha" operator="in" result="effect1_backgroundBlur"/>
<feBlend mode="normal" in="SourceGraphic" in2="effect1_backgroundBlur" result="shape"/>
</filter>
<filter id="filter1_f" x="186.378" y="79.0118" width="128.799" height="140.095" filterUnits="userSpaceOnUse" color-interpolation-filters="sRGB">
<feFlood flood-opacity="0" result="BackgroundImageFix"/>
<feBlend mode="normal" in="SourceGraphic" in2="BackgroundImageFix" result="shape"/>
<feGaussianBlur stdDeviation="10" result="effect1_foregroundBlur"/>
</filter>
<filter id="filter2_f" x="291.522" y="-35.894" width="136.245" height="91.8941" filterUnits="userSpaceOnUse" color-interpolation-filters="sRGB">
<feFlood flood-opacity="0" result="BackgroundImageFix"/>
<feBlend mode="normal" in="SourceGraphic" in2="BackgroundImageFix" result="shape"/>
<feGaussianBlur stdDeviation="10" result="effect1_foregroundBlur"/>
</filter>
<filter id="filter3_f" x="570.681" y="-23.9185" width="168.107" height="129.919" filterUnits="userSpaceOnUse" color-interpolation-filters="sRGB">
<feFlood flood-opacity="0" result="BackgroundImageFix"/>
<feBlend mode="normal" in="SourceGraphic" in2="BackgroundImageFix" result="shape"/>
<feGaussianBlur stdDeviation="10" result="effect1_foregroundBlur"/>
</filter>
<filter id="filter4_f" x="655.525" y="96.4243" width="157.474" height="109.114" filterUnits="userSpaceOnUse" color-interpolation-filters="sRGB">
<feFlood flood-opacity="0" result="BackgroundImageFix"/>
<feBlend mode="normal" in="SourceGraphic" in2="BackgroundImageFix" result="shape"/>
<feGaussianBlur stdDeviation="10" result="effect1_foregroundBlur"/>
</filter>
<filter id="filter5_f" x="950.01" y="-20.2964" width="154.962" height="183.02" filterUnits="userSpaceOnUse" color-interpolation-filters="sRGB">
<feFlood flood-opacity="0" result="BackgroundImageFix"/>
<feBlend mode="normal" in="SourceGraphic" in2="BackgroundImageFix" result="shape"/>
<feGaussianBlur stdDeviation="10" result="effect1_foregroundBlur"/>
</filter>
<filter id="filter6_f" x="-16.1565" y="-41.1064" width="110.156" height="126.262" filterUnits="userSpaceOnUse" color-interpolation-filters="sRGB">
<feFlood flood-opacity="0" result="BackgroundImageFix"/>
<feBlend mode="normal" in="SourceGraphic" in2="BackgroundImageFix" result="shape"/>
<feGaussianBlur stdDeviation="10" result="effect1_foregroundBlur"/>
</filter>
<linearGradient id="paint0_linear" x1="1" y1="29" x2="1" y2="149" gradientUnits="userSpaceOnUse">
<stop stop-color="#54CDEF" stop-opacity="0"/>
<stop offset="0.489" stop-color="#54CDEF"/>
<stop offset="1" stop-color="#54CDEF" stop-opacity="0"/>
</linearGradient>
<linearGradient id="paint1_linear" x1="1069" y1="29" x2="1069" y2="149" gradientUnits="userSpaceOnUse">
<stop stop-color="#54CDEF" stop-opacity="0"/>
<stop offset="0.489" stop-color="#54CDEF"/>
<stop offset="1" stop-color="#54CDEF" stop-opacity="0"/>
</linearGradient>
<clipPath id="clip0">
<rect width="1070" height="178" fill="white"/>
</clipPath>
</defs>
</svg>
