<svg xmlns="http://www.w3.org/2000/svg" width="62.919" height="60" viewBox="0 0 62.919 60">
  <g id="bonus_1_" data-name="bonus (1)" transform="translate(0 -11.878)">
    <path id="Контур_311" data-name="Контур 311" d="M111.169,240.169c-.265-.094-.536-.192-.806-.294v-4.311a2.78,2.78,0,0,1,1.119.537.912.912,0,0,0,1.23-1.346,4.706,4.706,0,0,0-2.349-1.047v-.881a.912.912,0,0,0-1.823,0v.951c-.135.03-.273.064-.413.106a3.713,3.713,0,0,0-2.543,2.913,3.269,3.269,0,0,0,1.07,3.221,8.8,8.8,0,0,0,1.886,1.08v5.467a3.746,3.746,0,0,1-1.992-.747.912.912,0,1,0-1,1.526,5.479,5.479,0,0,0,2.99,1.048v.986a.912.912,0,0,0,1.823,0v-1.058a4.466,4.466,0,0,0,3.505-3.664A3.922,3.922,0,0,0,111.169,240.169Zm-3.39-1.585a1.47,1.47,0,0,1-.4-1.449,1.93,1.93,0,0,1,1.164-1.465v3.4A5.477,5.477,0,0,1,107.779,238.583Zm4.291,5.77a2.681,2.681,0,0,1-1.707,2.072v-4.608l.2.071A2.127,2.127,0,0,1,112.07,244.353Z" transform="translate(-92.217 -192.997)"/>
    <path id="Контур_312" data-name="Контур 312" d="M62.869,46a2.118,2.118,0,0,0-1.344-1.54l-2.61-.959a.912.912,0,1,0-.629,1.711l2.61.959a.3.3,0,0,1,.11.5L37.712,69.965a.3.3,0,0,1-.5-.11l-3.274-8.907a2.124,2.124,0,0,0-1.263-1.263l-8.907-3.274a.3.3,0,0,1-.11-.5L46.953,32.617a.3.3,0,0,1,.5.11l3.274,8.907A2.124,2.124,0,0,0,51.99,42.9l2.265.833a.912.912,0,1,0,.629-1.711l-2.265-.833a.3.3,0,0,1-.18-.18L49.165,32.1a2.127,2.127,0,0,0-3.5-.77l-.882.882V23.164a2.13,2.13,0,0,0-2.127-2.127H33.368a4.391,4.391,0,0,0-5.234-6.2,4.389,4.389,0,0,0-8.3,0,4.393,4.393,0,0,0-5.236,6.2h-.765a.912.912,0,1,0,0,1.823h6.5v8.629a17.134,17.134,0,0,0-3.068-.279,16.93,16.93,0,0,0-5.4.866H5.009V23.164a.3.3,0,0,1,.3-.3H9.469a.912.912,0,0,0,0-1.823H5.312a2.13,2.13,0,0,0-2.127,2.127v15.31c0,.006,0,.011,0,.017A17.229,17.229,0,0,0,3.363,58.7.912.912,0,1,0,4.83,57.615a15.3,15.3,0,0,1-3.007-9.143,15.438,15.438,0,0,1,30.42-3.724L30.7,46.291a13.627,13.627,0,1,0-4.929,12.8l1.954.718a15.4,15.4,0,0,1-20.172.658.912.912,0,0,0-1.148,1.416,17.231,17.231,0,0,0,23.217-1.377l2.424.891a.3.3,0,0,1,.18.18L35.5,70.484a2.118,2.118,0,0,0,1.539,1.344,2.146,2.146,0,0,0,.461.05,2.117,2.117,0,0,0,1.5-.624L62.3,47.96A2.118,2.118,0,0,0,62.869,46ZM5.008,36.326V33.9H8.018A17.382,17.382,0,0,0,5.008,36.326Zm37.95-13.162v8.913H27.637V22.86H42.654A.3.3,0,0,1,42.958,23.164ZM31.281,17.211a2.57,2.57,0,0,1,0,3.63,1.678,1.678,0,0,1-.252.2H26.587a14.594,14.594,0,0,0,1.755-4.319,2.562,2.562,0,0,1,2.939.494Zm-7.3-3.51a2.57,2.57,0,0,1,2.567,2.567c0,.263-.15,1.381-2.04,4.768H23.456c-1.89-3.387-2.04-4.5-2.04-4.768A2.57,2.57,0,0,1,23.983,13.7Zm-7.3,7.14a2.567,2.567,0,0,1,2.939-4.123,14.592,14.592,0,0,0,1.755,4.319H16.938A1.675,1.675,0,0,1,16.686,20.841Zm5.467,2.019h3.662v9.217H22.645c-.163-.054-.328-.1-.493-.153Zm5.9,12.146A17.129,17.129,0,0,0,26.5,33.9H42.958v.132l-3.529,3.529h-8.8a17.329,17.329,0,0,0-2.575-2.556Zm3.877,4.38h5.679L33.72,43.271a17.269,17.269,0,0,0-1.793-3.886ZM17.261,60.263A11.791,11.791,0,1,1,29.04,47.952l-6.67,6.67a2.127,2.127,0,0,0,.77,3.5l.575.211A11.772,11.772,0,0,1,17.261,60.263Z"/>
    <path id="Контур_313" data-name="Контур 313" d="M319.8,290.419a.912.912,0,0,0,.844-1.257l-5.25-12.842a.912.912,0,1,0-1.688.69l5.25,12.842A.912.912,0,0,0,319.8,290.419Z" transform="translate(-275.095 -231.447)"/>
    <path id="Контур_314" data-name="Контур 314" d="M269.226,304.953a3.1,3.1,0,0,0-.88,2.47,3.992,3.992,0,0,0,3.6,3.6q.134.01.266.01a3.069,3.069,0,0,0,2.2-.89,3.1,3.1,0,0,0,.88-2.47,3.992,3.992,0,0,0-3.6-3.6A3.1,3.1,0,0,0,269.226,304.953Zm3.627,1.561a2.068,2.068,0,0,1,.623,1.293,1.237,1.237,0,0,1-1.4,1.4,2.172,2.172,0,0,1-1.916-1.916,1.307,1.307,0,0,1,.351-1.044,1.276,1.276,0,0,1,.92-.355c.041,0,.082,0,.124,0a2.067,2.067,0,0,1,1.293.622Z" transform="translate(-235.361 -256.279)"/>
    <path id="Контур_315" data-name="Контур 315" d="M364.288,319.666a3.069,3.069,0,0,0,2.2-.89,3.5,3.5,0,0,0-.272-4.916h0a3.3,3.3,0,1,0-4.644,4.644,3.89,3.89,0,0,0,2.446,1.151Q364.156,319.666,364.288,319.666Zm-1.695-4.788a1.278,1.278,0,0,1,.921-.359,2.051,2.051,0,0,1,1.416.63,1.689,1.689,0,0,1,.272,2.337,1.308,1.308,0,0,1-1.044.351,2.068,2.068,0,0,1-1.293-.623A1.689,1.689,0,0,1,362.593,314.877Z" transform="translate(-316.126 -263.856)"/>
  </g>
</svg>
