<svg width="231" height="200" viewBox="0 0 231 200" fill="none" xmlns="http://www.w3.org/2000/svg">
<path d="M73.5126 178.423C71.609 178.423 69.7919 178.013 68.4435 177.169L2.06225 136.005C0.728276 135.177 0 134.03 0 132.768C0 131.258 1.05275 129.732 2.89147 128.594L129.496 50.0852C132.936 47.9476 138.171 47.723 141.156 49.574L207.537 90.7373C208.871 91.566 209.599 92.7122 209.599 93.9746C209.599 95.4848 208.547 97.0105 206.708 98.149L80.1032 176.657C78.2212 177.819 75.8056 178.423 73.5126 178.423ZM68.5877 176.905C71.4936 178.71 76.5988 178.477 79.9589 176.394L206.564 97.8857C208.309 96.8014 209.311 95.3764 209.311 93.9823C209.311 92.8361 208.626 91.7828 207.393 91.0161L141.012 49.8528C138.106 48.0483 133 48.2806 129.64 50.364L3.02847 128.865C1.28349 129.949 0.281215 131.374 0.281215 132.768C0.281215 133.914 0.96623 134.967 2.19925 135.734L68.5877 176.905Z" fill="#42E8E0"/>
<path d="M209.455 74.9613L199.923 76.7271L141.084 40.2417C138.135 38.4139 132.979 38.6385 129.569 40.7528L17.003 110.556L0.144531 113.677V120.098H0.151749C0.144538 121.267 0.793497 122.39 2.13468 123.219L68.516 164.382C71.4651 166.21 76.6207 165.985 80.0314 163.871L206.636 85.3625C208.468 84.224 209.419 82.7757 209.448 81.3894H209.455V74.9613V74.9613Z" fill="url(#paint0_linear)"/>
<path d="M68.5153 157.915L2.13398 116.752C-0.815175 114.924 -0.447436 111.726 2.9632 109.611L129.568 31.0951C132.978 28.9808 138.134 28.7484 141.083 30.5839L207.465 71.7472C210.414 73.575 210.046 76.7735 206.635 78.8878L80.0307 157.404C76.62 159.511 71.4644 159.743 68.5153 157.915Z" fill="#24126A"/>
<path d="M206.635 78.8879L80.0304 157.404C76.6198 159.518 71.4641 159.751 68.515 157.915L2.13371 116.752C0.951163 116.016 0.309414 115.064 0.172412 114.049C-0.00785442 115.366 0.626684 116.651 2.13371 117.588L68.515 158.744C71.4641 160.572 76.6198 160.347 80.0304 158.233L206.635 79.7243C208.676 78.4619 209.62 76.8045 209.418 75.2866C209.245 76.5567 208.308 77.8501 206.635 78.8879Z" fill="white"/>
<path opacity="0.51" d="M68.6461 156.32L4.62995 116.612C1.77454 114.839 2.13507 111.749 5.43034 109.704L129.684 32.675C132.98 30.6304 137.969 30.4058 140.825 32.1794L204.841 71.8866C207.696 73.6602 207.336 76.7503 204.041 78.7949L79.7866 155.824C76.4913 157.869 71.5015 158.093 68.6461 156.32Z" fill="#453C9E"/>
<path opacity="0.8" d="M73.483 155.956C71.6299 155.956 69.8633 155.553 68.5437 154.74L4.52754 115.033C3.2152 114.219 2.49414 113.089 2.49414 111.842C2.49414 110.355 3.52526 108.86 5.32792 107.737L129.582 30.7079C132.928 28.6323 138.026 28.4077 140.931 30.2122L204.948 69.9195C206.26 70.7327 206.981 71.8634 206.981 73.1103C206.981 74.5973 205.95 76.092 204.147 77.215L79.8933 154.244C78.0618 155.375 75.7111 155.956 73.483 155.956ZM68.7456 154.353C71.5434 156.087 76.4466 155.863 79.6842 153.857L203.938 76.8278C205.604 75.79 206.563 74.4347 206.563 73.1103C206.563 72.026 205.914 71.0347 204.739 70.299L140.722 30.5917C137.925 28.8569 133.021 29.0815 129.784 31.0874L5.52982 108.117C3.86416 109.154 2.90514 110.51 2.90514 111.834C2.90514 112.918 3.5541 113.91 4.72944 114.645L68.7456 154.353Z" fill="url(#paint1_linear)"/>
<g opacity="0.1">
<path opacity="0.5" d="M68.6461 154.546L4.62995 114.839C1.77454 113.065 2.13507 109.975 5.43034 107.931L129.684 30.9015C132.98 28.8569 137.969 28.6323 140.825 30.4058L204.841 70.1131C207.696 71.8866 207.336 74.9768 204.041 77.0214L79.7866 154.051C76.4913 156.095 71.5015 156.32 68.6461 154.546Z" fill="url(#paint2_radial)"/>
<g opacity="0.1">
<path opacity="0.1" d="M139.35 139.638C139.35 131.002 133.704 120.5 126.738 116.179C123.248 114.018 120.09 113.817 117.812 115.242L115.425 116.736L116.117 116.806C114.862 118.456 114.127 120.895 114.127 124.001C114.127 132.636 119.773 143.138 126.738 147.46C129.132 148.947 131.368 149.504 133.271 149.249L133.221 149.938L135.644 148.42C135.651 148.412 135.665 148.405 135.672 148.405L135.773 148.343H135.766C137.987 146.887 139.35 143.882 139.35 139.638Z" fill="#9FFFF8"/>
<path opacity="0.1" d="M133.247 149.924C138.172 146.87 138.172 136.969 133.248 127.808C128.324 118.648 120.34 113.698 115.415 116.752C110.49 119.806 110.49 129.707 115.414 138.868C120.338 148.028 128.322 152.978 133.247 149.924Z" fill="#42E8E0"/>
</g>
</g>
<path opacity="0.4" d="M191.174 76.6962C190.194 77.3002 188.615 77.3002 187.634 76.6962C186.653 76.0921 186.653 75.1085 187.634 74.5044C188.615 73.9003 190.194 73.9003 191.174 74.5044C192.148 75.1085 192.148 76.0921 191.174 76.6962Z" fill="#24126A"/>
<path opacity="0.4" d="M177.67 66.1245L184.599 70.4228C185.443 70.9495 185.342 71.8634 184.362 72.4674C183.381 73.0715 181.903 73.1412 181.059 72.6146L174.13 68.3163C173.286 67.7896 173.387 66.8757 174.368 66.2717C175.341 65.6676 176.819 65.6056 177.67 66.1245Z" fill="#24126A"/>
<path opacity="0.4" d="M138.156 40.3656L145.086 44.6639C145.929 45.1905 145.829 46.1044 144.848 46.7085C143.867 47.3126 142.396 47.3823 141.545 46.8556L134.616 42.5573C133.772 42.0307 133.873 41.1168 134.854 40.5127C135.827 39.9009 137.306 39.8389 138.156 40.3656Z" fill="#24126A"/>
<path d="M191.174 74.0319C190.194 74.636 188.615 74.636 187.634 74.0319C186.653 73.4278 186.653 72.4442 187.634 71.8402C188.615 71.2361 190.194 71.2361 191.174 71.8402C192.155 72.4442 192.148 73.4278 191.174 74.0319Z" fill="#42E8E0"/>
<path d="M177.67 63.4604L184.599 67.7587C185.443 68.2853 185.342 69.1992 184.362 69.8033C183.381 70.4074 181.903 70.4771 181.059 69.9505L174.13 65.6521C173.286 65.1255 173.387 64.2116 174.368 63.6075C175.341 63.0034 176.819 62.9337 177.67 63.4604Z" fill="#42E8E0"/>
<path d="M138.156 37.6937L145.086 41.992C145.929 42.5186 145.829 43.4325 144.848 44.0366C143.867 44.6407 142.396 44.7104 141.545 44.1838L134.616 39.8854C133.772 39.3588 133.873 38.4449 134.854 37.8408C135.827 37.2367 137.306 37.1748 138.156 37.6937Z" fill="#42E8E0"/>
<g opacity="0.3">
<path opacity="0.3" d="M229.989 167.805V164.336L229.095 163.801C228.842 165.443 227.047 166.52 225.547 166.744L215.329 173.165L210.866 174.892L196.632 167L196.964 166.798C195.745 166.187 195.089 164.792 194.433 163.515L193.474 164.126L192.904 164.297V167.859C192.904 168.541 193.323 169.222 194.159 169.734L208.422 178.578C210.094 179.616 212.806 179.616 214.479 178.578L228.741 169.734C229.563 169.222 229.981 168.556 229.996 167.89C229.996 167.867 229.989 167.836 229.989 167.805Z" fill="url(#paint3_linear)"/>
<path opacity="0.3" d="M225.548 166.744L215.331 173.165L211.451 174.667V179.36C212.547 179.36 213.643 179.105 214.48 178.586L228.742 169.741C229.564 169.23 229.983 168.564 229.997 167.898C229.997 167.867 229.997 167.836 229.997 167.805V164.336L229.182 163.848H229.096C228.814 165.459 227.041 166.52 225.548 166.744Z" fill="#0F054C"/>
<g opacity="0.3">
<path opacity="0.3" d="M208.422 175.054L194.159 166.21C192.486 165.172 192.486 163.491 194.159 162.454L208.422 153.609C210.094 152.571 212.806 152.571 214.479 153.609L228.741 162.454C230.414 163.491 230.414 165.172 228.741 166.21L214.479 175.054C212.806 176.092 210.087 176.092 208.422 175.054Z" fill="url(#paint4_linear)"/>
</g>
<g opacity="0.3">
<path opacity="0.3" d="M208.422 175.054L194.159 166.21C192.486 165.172 192.486 163.491 194.159 162.454L208.422 153.609C210.094 152.571 212.806 152.571 214.479 153.609L228.741 162.454C230.414 163.491 230.414 165.172 228.741 166.21L214.479 175.054C212.806 176.092 210.087 176.092 208.422 175.054Z" fill="#0F054C"/>
</g>
</g>
<path d="M211.454 163.879C210.481 163.879 209.507 163.646 208.765 163.189L194.502 154.345C193.759 153.888 193.355 153.268 193.355 152.602C193.355 151.936 193.766 151.317 194.502 150.86L208.765 142.015C210.25 141.101 212.658 141.094 214.144 142.015L228.406 150.86C229.149 151.317 229.553 151.936 229.553 152.602C229.553 153.268 229.142 153.888 228.406 154.345L214.144 163.189C213.401 163.646 212.428 163.879 211.454 163.879ZM211.454 141.589C210.524 141.589 209.594 141.806 208.887 142.248L194.625 151.092C193.961 151.502 193.601 152.037 193.601 152.602C193.601 153.168 193.961 153.702 194.625 154.112L208.887 162.957C210.3 163.832 212.601 163.832 214.014 162.957L228.277 154.112C228.933 153.702 229.301 153.168 229.301 152.602C229.301 152.037 228.94 151.502 228.277 151.092L214.014 142.248C213.307 141.806 212.377 141.589 211.454 141.589Z" fill="#42E8E0"/>
<path opacity="0.4" d="M229.991 149.202V143.959L229.097 143.425C228.844 145.067 227.049 146.143 225.549 146.368L215.331 152.788L210.868 154.515L196.634 146.623L196.966 146.422C195.747 145.81 195.091 144.416 194.435 143.138L193.476 143.75L192.906 143.92V149.256C192.906 149.938 193.324 150.62 194.161 151.131L208.424 159.975C210.096 161.013 212.808 161.013 214.481 159.975L228.743 151.131C229.565 150.62 229.983 149.953 229.998 149.287C229.998 149.264 229.991 149.233 229.991 149.202Z" fill="#42E8E0"/>
<path d="M229.991 144.54V141.07L229.097 140.536C228.844 142.178 227.049 143.254 225.549 143.479L215.331 149.899L210.868 151.626L196.634 143.734L196.966 143.533C195.747 142.921 195.091 141.527 194.435 140.249L193.476 140.861L192.906 141.032V144.594C192.906 145.276 193.324 145.957 194.161 146.468L208.424 155.313C210.096 156.351 212.808 156.351 214.481 155.313L228.743 146.468C229.565 145.957 229.983 145.291 229.998 144.625C229.998 144.602 229.991 144.571 229.991 144.54Z" fill="url(#paint5_linear)"/>
<path opacity="0.3" d="M225.552 143.479L215.334 149.899L211.455 151.402V156.095C212.551 156.095 213.647 155.84 214.484 155.321L228.746 146.476C229.568 145.965 229.986 145.299 230.001 144.633C230.001 144.602 230.001 144.571 230.001 144.54V141.07L229.186 140.582H229.1C228.818 142.193 227.045 143.254 225.552 143.479Z" fill="#0F054C"/>
<path d="M208.424 151.797L194.161 142.952C192.488 141.914 192.488 140.234 194.161 139.196L208.424 130.352C210.096 129.314 212.808 129.314 214.481 130.352L228.743 139.196C230.416 140.234 230.416 141.914 228.743 142.952L214.481 151.797C212.808 152.827 210.089 152.827 208.424 151.797Z" fill="url(#paint6_linear)"/>
<path d="M228.744 142.952L214.481 151.797C212.808 152.835 210.097 152.835 208.424 151.797L194.161 142.952C193.411 142.488 193 141.899 192.921 141.287C192.82 142.038 193.238 142.805 194.161 143.378L208.424 152.223C210.097 153.261 212.808 153.261 214.481 152.223L228.744 143.378C229.667 142.805 230.077 142.031 229.984 141.287C229.897 141.891 229.486 142.488 228.744 142.952Z" fill="white"/>
<g opacity="0.3">
<path opacity="0.3" d="M166.493 188.445V184.975L165.598 184.441C165.346 186.083 163.551 187.159 162.051 187.384L151.833 193.804L147.37 195.531L133.136 187.639L133.468 187.438C132.249 186.826 131.593 185.432 130.937 184.154L129.978 184.766L129.408 184.937V188.499C129.408 189.181 129.826 189.862 130.663 190.373L144.926 199.218C146.598 200.256 149.31 200.256 150.982 199.218L165.245 190.373C166.067 189.862 166.485 189.196 166.5 188.53C166.493 188.507 166.485 188.476 166.493 188.445Z" fill="url(#paint7_linear)"/>
<path opacity="0.3" d="M162.052 187.384L151.834 193.804L147.955 195.307V200C149.051 200 150.147 199.744 150.984 199.226L165.246 190.381C166.068 189.87 166.486 189.204 166.501 188.538C166.501 188.507 166.501 188.476 166.501 188.445V184.975L165.686 184.487H165.6C165.311 186.098 163.537 187.159 162.052 187.384Z" fill="#0F054C"/>
<g opacity="0.3">
<path opacity="0.3" d="M144.922 195.702L130.659 186.857C128.986 185.819 128.986 184.139 130.659 183.101L144.922 174.257C146.594 173.219 149.306 173.219 150.979 174.257L165.241 183.101C166.914 184.139 166.914 185.819 165.241 186.857L150.979 195.702C149.306 196.732 146.587 196.732 144.922 195.702Z" fill="url(#paint8_linear)"/>
</g>
<g opacity="0.3">
<path opacity="0.3" d="M144.922 195.702L130.659 186.857C128.986 185.819 128.986 184.139 130.659 183.101L144.922 174.257C146.594 173.219 149.306 173.219 150.979 174.257L165.241 183.101C166.914 184.139 166.914 185.819 165.241 186.857L150.979 195.702C149.306 196.732 146.587 196.732 144.922 195.702Z" fill="#0F054C"/>
</g>
</g>
<path d="M147.948 182.83C146.975 182.83 146.001 182.598 145.259 182.141L130.996 173.296C130.253 172.839 129.85 172.22 129.85 171.554C129.85 170.888 130.261 170.268 130.996 169.811L145.259 160.967C146.744 160.045 149.153 160.045 150.638 160.967L164.901 169.811C165.643 170.268 166.047 170.888 166.047 171.554C166.047 172.22 165.636 172.839 164.901 173.296L150.638 182.141C149.895 182.605 148.922 182.83 147.948 182.83ZM145.381 181.908C146.795 182.784 149.095 182.784 150.508 181.908L164.771 173.064C165.434 172.653 165.795 172.119 165.795 171.554C165.795 170.988 165.434 170.454 164.771 170.043L150.508 161.199C149.095 160.324 146.795 160.324 145.381 161.199L131.119 170.043C130.455 170.454 130.095 170.988 130.095 171.554C130.095 172.119 130.455 172.653 131.119 173.064L145.381 181.908Z" fill="#42E8E0"/>
<path opacity="0.4" d="M166.491 168.161V162.918L165.596 162.384C165.344 164.026 163.549 165.102 162.049 165.327L151.831 171.747L147.368 173.474L133.134 165.582L133.466 165.381C132.247 164.769 131.591 163.375 130.935 162.097L129.976 162.709L129.406 162.88V168.216C129.406 168.897 129.824 169.579 130.661 170.09L144.924 178.934C146.596 179.972 149.308 179.972 150.981 178.934L165.243 170.09C166.065 169.579 166.483 168.913 166.498 168.247C166.491 168.216 166.483 168.185 166.491 168.161Z" fill="#42E8E0"/>
<path d="M166.491 163.491V160.022L165.596 159.487C165.344 161.129 163.549 162.206 162.049 162.43L151.831 168.851L147.368 170.578L133.134 162.686L133.466 162.485C132.247 161.873 131.591 160.479 130.935 159.201L129.976 159.813L129.406 159.983V163.546C129.406 164.227 129.824 164.909 130.661 165.42L144.924 174.264C146.596 175.302 149.308 175.302 150.981 174.264L165.243 165.42C166.065 164.909 166.483 164.243 166.498 163.577C166.491 163.553 166.483 163.522 166.491 163.491Z" fill="url(#paint9_linear)"/>
<path opacity="0.3" d="M162.052 162.43L151.834 168.851L147.955 170.353V175.047C149.051 175.047 150.147 174.791 150.984 174.272L165.246 165.428C166.068 164.916 166.486 164.25 166.501 163.584C166.501 163.553 166.501 163.522 166.501 163.491V160.022L165.686 159.534H165.6C165.311 161.145 163.537 162.214 162.052 162.43Z" fill="#0F054C"/>
<path d="M144.92 170.748L130.657 161.904C128.984 160.866 128.984 159.185 130.657 158.148L144.92 149.303C146.593 148.265 149.304 148.265 150.977 149.303L165.239 158.148C166.912 159.185 166.912 160.866 165.239 161.904L150.977 170.748C149.304 171.786 146.585 171.786 144.92 170.748Z" fill="url(#paint10_linear)"/>
<path d="M147.947 169.137C147.067 169.137 146.187 168.928 145.517 168.518L134.376 161.609C133.706 161.191 133.338 160.634 133.338 160.022C133.338 159.418 133.706 158.852 134.376 158.442L145.517 151.534C146.858 150.705 149.035 150.705 150.377 151.534L161.517 158.442C162.188 158.86 162.555 159.418 162.555 160.029C162.555 160.634 162.188 161.199 161.517 161.609L150.377 168.518C149.706 168.936 148.826 169.137 147.947 169.137ZM145.639 168.285C146.908 169.075 148.978 169.075 150.247 168.285L161.387 161.377C161.979 161.013 162.303 160.533 162.303 160.029C162.303 159.526 161.979 159.046 161.387 158.674L150.247 151.766C148.978 150.976 146.908 150.976 145.639 151.766L134.499 158.674C133.908 159.038 133.583 159.518 133.583 160.022C133.583 160.525 133.908 161.005 134.499 161.369L145.639 168.285Z" fill="#5351AF"/>
<path d="M165.24 161.904L150.977 170.748C149.304 171.786 146.593 171.786 144.92 170.748L130.657 161.904C129.907 161.439 129.496 160.85 129.417 160.239C129.316 160.99 129.734 161.757 130.657 162.33L144.92 171.174C146.593 172.212 149.304 172.212 150.977 171.174L165.24 162.33C166.163 161.757 166.574 160.982 166.48 160.239C166.393 160.85 165.982 161.439 165.24 161.904Z" fill="white"/>
<g opacity="0.3">
<path opacity="0.3" d="M44.5121 65.3191V61.8494L43.618 61.3151C43.3656 62.9569 41.5702 64.0335 40.0704 64.2581L29.8529 70.6784L25.3895 72.4055L11.1557 64.5136L11.4873 64.3123C10.2687 63.7004 9.61256 62.3064 8.95639 61.0285L7.99738 61.6403L7.42773 61.8107V65.3733C7.42773 66.0548 7.84595 66.7364 8.68238 67.2475L22.9451 76.092C24.6179 77.1298 27.3291 77.1298 29.002 76.092L43.2647 67.2475C44.0867 66.7364 44.5049 66.0703 44.5193 65.4043C44.5121 65.3733 44.5121 65.3501 44.5121 65.3191Z" fill="url(#paint11_linear)"/>
<path opacity="0.3" d="M40.0675 64.258L29.85 70.6784L25.9707 72.1809V76.8742C27.0667 76.8742 28.1628 76.6186 28.9992 76.0997L43.2619 67.2553C44.0839 66.7441 44.5021 66.0781 44.5165 65.412C44.5165 65.381 44.5165 65.3501 44.5165 65.3191V61.8494L43.7017 61.3615H43.6152C43.3267 62.9724 41.5529 64.0334 40.0675 64.258Z" fill="#0F054C"/>
<g opacity="0.3">
<path opacity="0.3" d="M22.9353 72.5682L8.67262 63.7237C6.99975 62.6859 6.99975 61.0053 8.67262 59.9675L22.9353 51.123C24.6082 50.0852 27.3194 50.0852 28.9922 51.123L43.2549 59.9675C44.9278 61.0053 44.9278 62.6859 43.2549 63.7237L28.9922 72.5682C27.3266 73.606 24.6082 73.606 22.9353 72.5682Z" fill="url(#paint12_linear)"/>
</g>
<g opacity="0.3">
<path opacity="0.3" d="M22.9353 72.5682L8.67262 63.7237C6.99975 62.6859 6.99975 61.0053 8.67262 59.9675L22.9353 51.123C24.6082 50.0852 27.3194 50.0852 28.9922 51.123L43.2549 59.9675C44.9278 61.0053 44.9278 62.6859 43.2549 63.7237L28.9922 72.5682C27.3266 73.606 24.6082 73.606 22.9353 72.5682Z" fill="#0F054C"/>
</g>
</g>
<path d="M25.964 61.9734C24.9905 61.9734 24.0171 61.741 23.2744 61.2841L9.01175 52.4396C8.26905 51.9827 7.86523 51.3631 7.86523 50.697C7.86523 50.031 8.27626 49.4114 9.01175 48.9545L23.2744 40.11C24.7598 39.1884 27.1682 39.1884 28.6536 40.11L42.9162 48.9545C43.6589 49.4114 44.0627 50.031 44.0627 50.697C44.0627 51.3631 43.6517 51.9827 42.9162 52.4396L28.6536 61.2841C27.9109 61.741 26.9374 61.9734 25.964 61.9734ZM25.964 39.6763C25.0338 39.6763 24.1108 39.8931 23.397 40.3346L9.13432 49.1791C8.47094 49.5895 8.11042 50.1239 8.11042 50.6893C8.11042 51.2547 8.47094 51.789 9.13432 52.1995L23.397 61.044C24.8103 61.9192 27.1105 61.9192 28.5238 61.044L42.7864 52.1995C43.4498 51.789 43.8103 51.2547 43.8103 50.6893C43.8103 50.1239 43.4498 49.5895 42.7864 49.1791L28.5238 40.3346C27.8243 39.9009 26.8942 39.6763 25.964 39.6763Z" fill="#42E8E0"/>
<path opacity="0.4" d="M44.5102 47.2971V42.0539L43.6161 41.5195C43.3637 43.1614 41.5682 44.2379 40.0684 44.4625L29.8509 50.8829L25.3875 52.61L11.1537 44.7181L11.4854 44.5167C10.2668 43.9049 9.61061 42.5109 8.95444 41.233L7.99543 41.8448L7.42578 42.0152V47.3513C7.42578 48.0329 7.84399 48.7144 8.68043 49.2255L22.9431 58.07C24.616 59.1078 27.3272 59.1078 29.0001 58.07L43.2627 49.2255C44.0848 48.7144 44.503 48.0483 44.5174 47.3823C44.5102 47.3591 44.5102 47.3281 44.5102 47.2971Z" fill="#42E8E0"/>
<path d="M44.5076 42.6348V39.1651L43.6135 38.6307C43.3611 40.2726 41.5657 41.3491 40.0659 41.5737L29.8412 47.9941L25.3778 49.7212L11.1439 41.8293L11.4756 41.6279C10.257 41.0161 9.60084 39.6221 8.94467 38.3442L7.98566 38.956L7.41602 39.1264V42.689C7.41602 43.3705 7.83425 44.052 8.67068 44.5632L22.9334 53.4154C24.6062 54.4532 27.3174 54.4532 28.9903 53.4154L43.253 44.5709C44.075 44.0598 44.4932 43.3937 44.5076 42.7277C44.5076 42.6967 44.5076 42.6657 44.5076 42.6348Z" fill="url(#paint13_linear)"/>
<path opacity="0.3" d="M40.0669 41.5738L29.8422 47.9942L25.9629 49.4966V54.19C27.0589 54.19 28.1549 53.9344 28.9914 53.4155L43.254 44.571C44.0761 44.0598 44.4943 43.3938 44.5087 42.7277C44.5087 42.6968 44.5087 42.6658 44.5087 42.6348V39.1652L43.6939 38.6772H43.6074C43.3261 40.2882 41.5523 41.3492 40.0669 41.5738Z" fill="#0F054C"/>
<path d="M11.4763 41.628L24.989 33.2482C25.5226 32.9152 26.3951 32.9152 26.9287 33.2482L40.2107 41.4808L40.0665 41.5738C41.5663 41.3492 43.3618 40.2727 43.6141 38.6308L28.7097 29.7243L24.3761 28.4929L20.8429 30.7234L8.94531 38.3442C9.60148 39.6221 10.2577 41.0162 11.4763 41.628Z" fill="url(#paint14_linear)"/>
<path opacity="0.3" d="M25.9618 28.9499L24.3683 28.5007L20.8351 30.7312L8.9375 38.352C9.59367 39.6221 10.2498 41.0239 11.4684 41.6357L24.9812 33.2559C25.248 33.0933 25.6013 33.0081 25.9546 33.0081V28.9499H25.9618Z" fill="#0F054C"/>
<path d="M22.9333 49.8839L8.67067 41.0394C6.9978 40.0016 6.9978 38.321 8.67067 37.2832L22.9333 28.4387C24.6062 27.4009 27.3174 27.4009 28.9903 28.4387L43.253 37.2832C44.9258 38.321 44.9258 40.0016 43.253 41.0394L28.9903 49.8839C27.3246 50.9217 24.6062 50.9217 22.9333 49.8839ZM26.9352 29.7166C26.4017 29.3835 25.5292 29.3835 24.9956 29.7166L10.7329 38.5611C10.1993 38.8941 10.1993 39.4285 10.7329 39.7615L24.9956 48.606C25.5292 48.939 26.4017 48.939 26.9352 48.606L41.1979 39.7615C41.7315 39.4285 41.7315 38.8941 41.1979 38.5611L26.9352 29.7166Z" fill="url(#paint15_linear)"/>
<path d="M41.2005 38.5611L26.9378 29.7166C26.4042 29.3836 25.5317 29.3836 24.9981 29.7166L10.7354 38.5611C10.3821 38.7857 10.2596 39.0955 10.3821 39.3821C10.4398 39.2426 10.5624 39.111 10.7354 38.9948L24.9981 30.1503C25.5317 29.8173 26.4042 29.8173 26.9378 30.1503L41.2005 38.9948C41.3807 39.1032 41.4961 39.2349 41.5538 39.3821C41.6691 39.0955 41.5538 38.7857 41.2005 38.5611Z" fill="white"/>
<path d="M43.2552 41.0394L28.9926 49.8839C27.3197 50.9217 24.6085 50.9217 22.9356 49.8839L8.67294 41.0394C7.92303 40.5747 7.51202 39.9861 7.4327 39.3743C7.33175 40.1255 7.74997 40.8922 8.67294 41.4653L22.9356 50.3176C24.6085 51.3554 27.3197 51.3554 28.9926 50.3176L43.2552 41.4731C44.1782 40.9 44.5892 40.1255 44.4955 39.382C44.4161 39.9861 44.0051 40.5824 43.2552 41.0394Z" fill="white"/>
<path d="M23.338 49.6361L9.07529 40.7916C7.62595 39.8932 7.62595 38.4294 9.07529 37.531L23.338 28.6865C24.7873 27.7882 27.1452 27.7882 28.5873 28.6865L42.85 37.531C44.2993 38.4294 44.2993 39.8932 42.85 40.7838L28.5873 49.6283C27.138 50.5345 24.7873 50.5345 23.338 49.6361ZM27.3326 29.4688C26.5755 28.9963 25.3425 28.9963 24.5854 29.4688L10.3227 38.3133C9.5656 38.7857 9.5656 39.5447 10.3227 40.0171L24.5854 48.8616C25.3425 49.334 26.5755 49.334 27.3326 48.8616L41.5953 40.0171C42.3524 39.5447 42.3524 38.7857 41.5953 38.3133L27.3326 29.4688Z" fill="url(#paint16_linear)"/>
<path opacity="0.4" d="M26.9365 29.7166C26.4029 29.3835 25.5304 29.3835 24.9968 29.7166L10.7342 38.5611C10.2006 38.8941 10.2006 39.4285 10.7342 39.7615L24.9968 48.606C25.5304 48.939 26.4029 48.939 26.9365 48.606L41.1992 39.7615C41.7328 39.4285 41.7328 38.8941 41.1992 38.5611L26.9365 29.7166Z" fill="#42E8E0"/>
<path opacity="0.9" d="M28.2295 34.0645C28.2295 34.5601 27.8546 34.9629 27.3931 34.9629C26.9316 34.9629 26.5566 34.5601 26.5566 34.0645C26.5566 33.5688 26.9316 33.1661 27.3931 33.1661C27.8546 33.1661 28.2295 33.5688 28.2295 34.0645Z" fill="#42E8E0"/>
<path opacity="0.3" d="M17.3911 26.9548C17.3911 27.2568 17.1604 27.5047 16.8791 27.5047C16.5979 27.5047 16.3672 27.2568 16.3672 26.9548C16.3672 26.6527 16.5979 26.4049 16.8791 26.4049C17.1604 26.4049 17.3911 26.6527 17.3911 26.9548Z" fill="#42E8E0"/>
<path opacity="0.2" d="M21.0039 20.6971C21.0039 21.0069 20.766 21.2624 20.4776 21.2624C20.1891 21.2624 19.9512 21.0069 19.9512 20.6971C19.9512 20.3873 20.1891 20.1317 20.4776 20.1317C20.766 20.1317 21.0039 20.3795 21.0039 20.6971Z" fill="#42E8E0"/>
<path opacity="0.2" d="M36.2102 18.6369C36.2102 18.8305 36.0588 18.9932 35.8786 18.9932C35.6983 18.9932 35.5469 18.8305 35.5469 18.6369C35.5469 18.4433 35.6983 18.2806 35.8786 18.2806C36.0588 18.2806 36.2102 18.4433 36.2102 18.6369Z" fill="#42E8E0"/>
<path opacity="0.2" d="M34.6526 17.5295C35.0388 17.5295 35.352 17.1931 35.352 16.7782C35.352 16.3633 35.0388 16.027 34.6526 16.027C34.2663 16.027 33.9531 16.3633 33.9531 16.7782C33.9531 17.1931 34.2663 17.5295 34.6526 17.5295Z" fill="#42E8E0"/>
<path opacity="0.2" d="M19.3829 19.5663C19.3829 19.7676 19.2315 19.9303 19.044 19.9303C18.8565 19.9303 18.7051 19.7676 18.7051 19.5663C18.7051 19.3649 18.8565 19.2023 19.044 19.2023C19.2315 19.2023 19.3829 19.3649 19.3829 19.5663Z" fill="#42E8E0"/>
<path opacity="0.3" d="M18.9692 37.0695C18.9692 37.3715 18.7385 37.6193 18.4573 37.6193C18.176 37.6193 17.9453 37.3715 17.9453 37.0695C17.9453 36.7674 18.176 36.5196 18.4573 36.5196C18.7385 36.5196 18.9692 36.7674 18.9692 37.0695Z" fill="#42E8E0"/>
<path opacity="0.2" d="M22.5782 30.8039C22.5782 31.1137 22.3402 31.3693 22.0518 31.3693C21.7634 31.3693 21.5254 31.1137 21.5254 30.8039C21.5254 30.4942 21.7634 30.2386 22.0518 30.2386C22.3474 30.2463 22.5782 30.4942 22.5782 30.8039Z" fill="#42E8E0"/>
<path opacity="0.2" d="M20.961 29.681C20.961 29.8823 20.8096 30.045 20.6221 30.045C20.4346 30.045 20.2832 29.8823 20.2832 29.681C20.2832 29.4796 20.4346 29.317 20.6221 29.317C20.8096 29.317 20.961 29.4796 20.961 29.681Z" fill="#42E8E0"/>
<path opacity="0.9" d="M25.4958 25.1347C25.5968 25.5607 26.0006 25.8163 26.3972 25.7078C26.7938 25.5994 27.0317 25.1657 26.9308 24.7397C26.8298 24.3138 26.426 24.0582 26.0294 24.1666C25.6328 24.2828 25.3949 24.7088 25.4958 25.1347Z" fill="#42E8E0"/>
<path opacity="0.3" d="M33.3603 16.4684C33.4252 16.7317 33.6704 16.8866 33.9155 16.8246C34.1607 16.7549 34.3049 16.4916 34.2472 16.2283C34.1823 15.9649 33.9372 15.8101 33.692 15.872C33.4469 15.934 33.3026 16.205 33.3603 16.4684Z" fill="#42E8E0"/>
<path opacity="0.2" d="M28.9799 11.93C29.0448 12.201 29.2971 12.3637 29.5495 12.294C29.8019 12.2243 29.9461 11.9532 29.8884 11.6821C29.8307 11.4111 29.5711 11.2484 29.3188 11.3181C29.0664 11.3878 28.915 11.6589 28.9799 11.93Z" fill="#42E8E0"/>
<path opacity="0.2" d="M15.4725 13.75C15.5158 13.9203 15.6744 14.021 15.8331 13.9823C15.9917 13.9358 16.0854 13.7654 16.0494 13.5951C16.0061 13.4247 15.8475 13.324 15.6888 13.3705C15.5302 13.4092 15.4365 13.5796 15.4725 13.75Z" fill="#42E8E0"/>
<path opacity="0.2" d="M15.8325 11.9454C15.9191 12.3016 16.2507 12.5185 16.5824 12.4256C16.9141 12.3326 17.116 11.9764 17.0295 11.6201C16.943 11.2639 16.6113 11.047 16.2796 11.1399C15.9479 11.2329 15.746 11.5891 15.8325 11.9454Z" fill="#42E8E0"/>
<path opacity="0.2" d="M30.1405 10.5746C30.1838 10.745 30.3424 10.8534 30.501 10.8069C30.6597 10.7605 30.7606 10.5901 30.7174 10.4197C30.6741 10.2493 30.5155 10.1409 30.3568 10.1874C30.1982 10.2338 30.1045 10.4042 30.1405 10.5746Z" fill="#42E8E0"/>
<path opacity="0.2" d="M33.7318 37.4179C33.5948 37.5418 33.3857 37.5263 33.2631 37.3792C33.1477 37.232 33.1622 37.0074 33.2992 36.8758C33.4362 36.7519 33.6453 36.7674 33.7679 36.9145C33.8904 37.0617 33.8688 37.2863 33.7318 37.4179Z" fill="#42E8E0"/>
<path opacity="0.2" d="M34.495 35.5049C34.1994 35.7682 33.7595 35.7295 33.5143 35.4197C33.2692 35.1022 33.3052 34.6297 33.5937 34.3664C33.8893 34.1031 34.3291 34.1418 34.5743 34.4516C34.8267 34.7691 34.7906 35.2416 34.495 35.5049Z" fill="#42E8E0"/>
<path opacity="0.3" d="M33.4321 33.6772C33.2879 33.9018 33.3312 34.2038 33.5403 34.3587C33.7494 34.5136 34.0306 34.4671 34.1748 34.2425C34.319 34.0179 34.2758 33.7159 34.0667 33.561C33.8648 33.4061 33.5763 33.4603 33.4321 33.6772Z" fill="#42E8E0"/>
<path opacity="0.2" d="M34.2552 27.9327C34.5126 27.9025 34.6984 27.6539 34.6703 27.3775C34.6422 27.1012 34.4108 26.9016 34.1534 26.9318C33.8961 26.962 33.7103 27.2105 33.7384 27.4869C33.7665 27.7633 33.9979 27.9628 34.2552 27.9327Z" fill="#42E8E0"/>
<path opacity="0.2" d="M35.5253 27.2258C35.4316 27.373 35.4604 27.5743 35.5974 27.675C35.7344 27.7757 35.9219 27.7447 36.0156 27.5976C36.1094 27.4504 36.0805 27.249 35.9435 27.1484C35.8137 27.0477 35.6262 27.0787 35.5253 27.2258Z" fill="#42E8E0"/>
<g opacity="0.9">
<path opacity="0.9" d="M23.4841 43.1413C23.5851 43.5673 23.9889 43.8229 24.3855 43.7144C24.782 43.606 25.02 43.1723 24.9191 42.7463C24.8181 42.3204 24.4143 42.0648 24.0177 42.1732C23.6211 42.2816 23.3832 42.7154 23.4841 43.1413Z" fill="#42E8E0"/>
<path opacity="0.9" d="M25.6282 38.8429C25.7003 39.145 25.9815 39.3231 26.2627 39.2457C26.5439 39.1682 26.7098 38.8662 26.6377 38.5641C26.5655 38.2621 26.2844 38.084 26.0031 38.1614C25.7219 38.2311 25.5561 38.5409 25.6282 38.8429Z" fill="#42E8E0"/>
</g>
<path opacity="0.9" d="M28.2295 23.8802C28.2295 24.3759 27.8546 24.7786 27.3931 24.7786C26.9316 24.7786 26.5566 24.3759 26.5566 23.8802C26.5566 23.3845 26.9316 22.9818 27.3931 22.9818C27.8546 22.9896 28.2295 23.3923 28.2295 23.8802Z" fill="#42E8E0"/>
<path opacity="0.3" d="M17.3911 16.7782C17.3911 17.0803 17.1604 17.3281 16.8791 17.3281C16.5979 17.3281 16.3672 17.0803 16.3672 16.7782C16.3672 16.4762 16.5979 16.2283 16.8791 16.2283C17.1604 16.2283 17.3911 16.4762 17.3911 16.7782Z" fill="#42E8E0"/>
<path opacity="0.2" d="M21.0039 10.5127C21.0039 10.8225 20.766 11.0781 20.4776 11.0781C20.1891 11.0781 19.9512 10.8225 19.9512 10.5127C19.9512 10.2029 20.1891 9.94733 20.4776 9.94733C20.766 9.95507 21.0039 10.2029 21.0039 10.5127Z" fill="#42E8E0"/>
<path opacity="0.2" d="M36.2102 8.46032C36.2102 8.65394 36.0588 8.81658 35.8786 8.81658C35.6983 8.81658 35.5469 8.65394 35.5469 8.46032C35.5469 8.2667 35.6983 8.10406 35.8786 8.10406C36.0588 8.10406 36.2102 8.2667 36.2102 8.46032Z" fill="#42E8E0"/>
<path opacity="0.2" d="M34.6526 7.35288C35.0388 7.35288 35.352 7.01654 35.352 6.60164C35.352 6.18674 35.0388 5.8504 34.6526 5.8504C34.2663 5.8504 33.9531 6.18674 33.9531 6.60164C33.9531 7.01654 34.2663 7.35288 34.6526 7.35288Z" fill="#42E8E0"/>
<path opacity="0.2" d="M19.3829 9.3897C19.3829 9.59106 19.2315 9.7537 19.044 9.7537C18.8565 9.7537 18.7051 9.59106 18.7051 9.3897C18.7051 9.18834 18.8565 9.0257 19.044 9.0257C19.2315 9.0257 19.3829 9.18834 19.3829 9.3897Z" fill="#42E8E0"/>
<path opacity="0.3" d="M18.9692 26.8928C18.9692 27.1949 18.7385 27.4427 18.4573 27.4427C18.176 27.4427 17.9453 27.1949 17.9453 26.8928C17.9453 26.5908 18.176 26.343 18.4573 26.343C18.7385 26.3352 18.9692 26.583 18.9692 26.8928Z" fill="#42E8E0"/>
<path opacity="0.2" d="M22.5782 20.6274C22.5782 20.9372 22.3402 21.1927 22.0518 21.1927C21.7634 21.1927 21.5254 20.9372 21.5254 20.6274C21.5254 20.3176 21.7634 20.062 22.0518 20.062C22.3474 20.062 22.5782 20.3176 22.5782 20.6274Z" fill="#42E8E0"/>
<path opacity="0.2" d="M20.961 19.4966C20.961 19.698 20.8096 19.8606 20.6221 19.8606C20.4346 19.8606 20.2832 19.698 20.2832 19.4966C20.2832 19.2953 20.4346 19.1326 20.6221 19.1326C20.8096 19.1404 20.961 19.303 20.961 19.4966Z" fill="#42E8E0"/>
<path opacity="0.9" d="M25.4958 14.9581C25.5968 15.3841 26.0006 15.6397 26.3972 15.5313C26.7938 15.4228 27.0317 14.9891 26.9308 14.5632C26.8298 14.1372 26.426 13.8816 26.0294 13.9901C25.6328 14.0985 25.3949 14.5322 25.4958 14.9581Z" fill="#42E8E0"/>
<path opacity="0.3" d="M33.3603 6.29178C33.4252 6.5551 33.6704 6.71 33.9155 6.64804C34.1607 6.57834 34.3049 6.31501 34.2472 6.05169C34.1823 5.78837 33.9372 5.63348 33.692 5.69543C33.4469 5.75739 33.3026 6.02846 33.3603 6.29178Z" fill="#42E8E0"/>
<path opacity="0.2" d="M28.9799 1.75335C29.0448 2.02441 29.2971 2.18705 29.5495 2.11735C29.8019 2.04765 29.9461 1.77658 29.8884 1.50552C29.8235 1.23445 29.5711 1.07956 29.3188 1.14152C29.0664 1.21122 28.915 1.48228 28.9799 1.75335Z" fill="#42E8E0"/>
<path opacity="0.2" d="M15.4725 3.57335C15.5158 3.74374 15.6744 3.84442 15.8331 3.79795C15.9917 3.75148 16.0854 3.5811 16.0494 3.41071C16.0061 3.24033 15.8475 3.13965 15.6888 3.17837C15.5302 3.23258 15.4365 3.40297 15.4725 3.57335Z" fill="#42E8E0"/>
<path opacity="0.2" d="M15.8325 1.76881C15.9191 2.12507 16.2507 2.34192 16.5824 2.24898C16.9141 2.15605 17.116 1.79979 17.0295 1.44353C16.943 1.08727 16.6113 0.870421 16.2796 0.963358C15.9479 1.04855 15.746 1.41255 15.8325 1.76881Z" fill="#42E8E0"/>
<path opacity="0.2" d="M30.1405 0.398029C30.1838 0.568413 30.3424 0.676842 30.501 0.630373C30.6597 0.583905 30.7606 0.413521 30.7174 0.243137C30.6741 0.0727524 30.5155 -0.0356762 30.3568 0.0107922C30.1982 0.0495159 30.1045 0.227645 30.1405 0.398029Z" fill="#42E8E0"/>
<path opacity="0.2" d="M33.7318 27.2335C33.5948 27.3574 33.3857 27.342 33.2631 27.1948C33.1477 27.0477 33.1622 26.8231 33.2992 26.6914C33.4362 26.5675 33.6453 26.583 33.7679 26.7301C33.8904 26.885 33.8688 27.1096 33.7318 27.2335Z" fill="#42E8E0"/>
<path opacity="0.2" d="M34.495 25.3283C34.1994 25.5916 33.7595 25.5529 33.5143 25.2431C33.2692 24.9256 33.3052 24.4532 33.5937 24.1898C33.8893 23.9265 34.3291 23.9652 34.5743 24.275C34.8267 24.5848 34.7906 25.0572 34.495 25.3283Z" fill="#42E8E0"/>
<path opacity="0.3" d="M33.4321 23.5006C33.2879 23.7252 33.3312 24.0273 33.5403 24.1821C33.7494 24.337 34.0306 24.2906 34.1748 24.066C34.319 23.8414 34.2758 23.5393 34.0667 23.3844C33.8648 23.2218 33.5763 23.276 33.4321 23.5006Z" fill="#42E8E0"/>
<path opacity="0.2" d="M33.8181 16.9718C33.6667 17.1964 33.7171 17.5062 33.9262 17.6688C34.1353 17.8315 34.431 17.7773 34.5752 17.5527C34.7266 17.3281 34.6761 17.0183 34.467 16.8556C34.2579 16.693 33.9695 16.7472 33.8181 16.9718Z" fill="#42E8E0"/>
<path opacity="0.2" d="M35.5253 17.0492C35.4316 17.1964 35.4604 17.3977 35.5974 17.4984C35.7344 17.5991 35.9219 17.5681 36.0156 17.421C36.1094 17.2738 36.0805 17.0725 35.9435 16.9718C35.8137 16.8711 35.6262 16.9021 35.5253 17.0492Z" fill="#42E8E0"/>
<g opacity="0.9">
<path opacity="0.9" d="M23.4841 32.9647C23.5851 33.3906 23.9889 33.6462 24.3855 33.5378C24.782 33.4294 25.02 32.9957 24.9191 32.5697C24.8181 32.1437 24.4143 31.8882 24.0177 31.9966C23.6211 32.105 23.3832 32.5387 23.4841 32.9647Z" fill="#42E8E0"/>
<path opacity="0.9" d="M25.6282 28.6585C25.7003 28.9606 25.9815 29.1387 26.2627 29.0613C26.5439 28.9838 26.7098 28.6818 26.6377 28.3797C26.5655 28.0777 26.2844 27.8996 26.0031 27.977C25.7219 28.0545 25.5561 28.3565 25.6282 28.6585Z" fill="#42E8E0"/>
</g>
<path d="M139.354 82.6596C139.354 74.0242 133.708 63.5223 126.742 59.2007C123.252 57.04 120.094 56.8386 117.815 58.2636L115.429 59.7584L116.121 59.8281C114.866 61.4777 114.131 63.9173 114.131 67.0229C114.131 75.6583 119.777 86.1602 126.742 90.4817C129.136 91.9687 131.372 92.5263 133.275 92.2708L133.225 92.9601L135.647 91.4421C135.655 91.4343 135.669 91.4266 135.676 91.4266L135.777 91.3646H135.77C137.991 89.9086 139.354 86.9114 139.354 82.6596Z" fill="#9FFFF8"/>
<path d="M133.247 92.9462C138.172 89.8922 138.172 79.9905 133.248 70.8302C128.324 61.6698 120.34 56.7197 115.415 59.7737C110.49 62.8277 110.49 72.7293 115.414 81.8897C120.338 91.05 128.322 96.0002 133.247 92.9462Z" fill="#42E8E0"/>
<path d="M109.899 45.3376C114.564 38.3054 115.646 26.2313 112.307 18.3782C110.634 14.4439 108.175 12.3063 105.543 12.043L102.796 11.7797L103.323 12.2676C101.405 12.833 99.4938 14.3587 97.8137 16.8834C93.1484 23.9157 92.0668 35.9897 95.3981 43.8429C96.5446 46.5458 98.0661 48.3968 99.7533 49.3726L99.3423 49.8993L102.133 50.1703C102.147 50.1703 102.154 50.1703 102.169 50.1703L102.284 50.1781L102.277 50.1703C104.866 50.3872 107.606 48.7918 109.899 45.3376Z" fill="#9FFFF8"/>
<path d="M111.321 31.898C112.262 21.3689 108.437 12.36 102.776 11.7761C97.1155 11.1922 91.7634 19.2543 90.8219 29.7834C89.8804 40.3126 93.706 49.3214 99.3666 49.9054C105.027 50.4893 110.379 42.4271 111.321 31.898Z" fill="#42E8E0"/>
<g opacity="0.1">
<path opacity="0.1" d="M114.135 102.192C114.135 93.5565 108.489 83.0546 101.524 78.733C98.0336 76.5723 94.8753 76.3709 92.5967 77.7959L90.21 79.2907L90.9022 79.3604C89.6476 81.01 88.9121 83.4496 88.9121 86.5552C88.9121 95.1906 94.558 105.692 101.524 110.014C103.917 111.501 106.153 112.059 108.056 111.803L108.006 112.492L110.429 110.974C110.436 110.967 110.45 110.959 110.458 110.959L110.558 110.897H110.551C112.772 109.441 114.135 106.436 114.135 102.192Z" fill="#9FFFF8"/>
<path opacity="0.1" d="M108.026 112.479C112.951 109.425 112.952 99.5229 108.027 90.3626C103.103 81.2023 95.1191 76.2521 90.1944 79.3061C85.2696 82.3601 85.2692 92.2617 90.1933 101.422C95.1175 110.582 103.102 115.533 108.026 112.479Z" fill="#42E8E0"/>
</g>
<path opacity="0.4" d="M99.9332 116.279C91.2371 116.279 82.5339 114.227 75.9145 110.122C69.4754 106.126 65.9277 100.813 65.9277 95.1518C65.9277 89.4904 69.4754 84.1776 75.9145 80.1813C89.1605 71.9641 110.706 71.9719 123.952 80.1813C130.391 84.1776 133.939 89.4904 133.939 95.1518C133.939 100.813 130.391 106.134 123.952 110.122L123.887 110.006L123.952 110.122C117.332 114.227 108.636 116.279 99.9332 116.279ZM99.9332 74.2875C91.2804 74.2875 82.6276 76.3321 76.0371 80.4136C69.6773 84.3557 66.1801 89.5911 66.1801 95.1518C66.1801 100.713 69.6845 105.948 76.0443 109.89C89.2181 118.061 110.655 118.061 123.829 109.89C130.189 105.948 133.686 100.713 133.686 95.1518C133.686 89.5911 130.182 84.3557 123.822 80.4136C117.239 76.3244 108.586 74.2875 99.9332 74.2875Z" fill="#42E8E0"/>
<path opacity="0.2" d="M99.9324 121.949C88.8929 121.949 77.8533 119.346 69.4529 114.134C61.2905 109.069 56.791 102.331 56.791 95.1596C56.791 87.988 61.2905 81.2423 69.4529 76.185C86.261 65.7606 113.604 65.7606 130.412 76.185C138.574 81.2501 143.074 87.988 143.074 95.1596C143.074 102.331 138.574 109.077 130.412 114.134C122.011 119.339 110.972 121.949 99.9324 121.949ZM99.9324 68.6184C88.9361 68.6184 77.9471 71.2129 69.5755 76.4019C61.4924 81.4127 57.0362 88.0732 57.0362 95.1441C57.0362 102.223 61.4852 108.876 69.5755 113.886C86.3114 124.264 113.546 124.264 130.282 113.886C138.365 108.876 142.821 102.215 142.821 95.1441C142.821 88.0654 138.372 81.4127 130.282 76.4019C121.918 71.2129 110.929 68.6184 99.9324 68.6184Z" fill="#42E8E0"/>
<path d="M99.9329 111.819C93.0755 111.819 86.2254 110.2 81.0049 106.963C75.9286 103.811 73.1309 99.6129 73.1309 95.1441C73.1309 90.6754 75.9286 86.4778 81.0049 83.3257C91.4459 76.8511 108.427 76.8511 118.861 83.3257C123.937 86.4778 126.735 90.6754 126.735 95.1441C126.735 99.6129 123.937 103.811 118.861 106.963L118.796 106.846L118.861 106.963C113.648 110.2 106.79 111.819 99.9329 111.819ZM99.9329 78.7485C93.126 78.7485 86.3119 80.3594 81.1275 83.5735C76.1305 86.6714 73.376 90.7839 73.376 95.1596C73.376 99.5354 76.1305 103.64 81.1275 106.746C91.4964 113.174 108.369 113.174 118.738 106.746C123.735 103.648 126.49 99.5354 126.49 95.1674C126.49 90.7994 123.735 86.6869 118.738 83.5813C113.554 80.3517 106.747 78.7485 99.9329 78.7485Z" fill="#42E8E0"/>
<path d="M114.135 102.192C114.135 93.5565 108.489 83.0546 101.524 78.733C98.0336 76.5723 94.8753 76.3709 92.5967 77.7959L90.21 79.2907L90.9022 79.3604C89.6476 81.01 88.9121 83.4496 88.9121 86.5552C88.9121 95.1906 94.558 105.692 101.524 110.014C103.917 111.501 106.153 112.059 108.056 111.803L108.006 112.492L110.429 110.974C110.436 110.967 110.45 110.959 110.458 110.959L110.558 110.897H110.551C112.772 109.441 114.135 106.436 114.135 102.192Z" fill="#9FFFF8"/>
<path d="M108.026 112.479C112.951 109.425 112.952 99.5229 108.027 90.3626C103.103 81.2023 95.1191 76.2521 90.1944 79.3061C85.2696 82.3601 85.2692 92.2617 90.1933 101.422C95.1175 110.582 103.102 115.533 108.026 112.479Z" fill="#42E8E0"/>
<path opacity="0.4" d="M66.0688 139.552L26.4679 114.994C25.2998 114.266 25.2998 112.461 26.4679 111.733L32.5104 107.954C34.5294 106.699 37.0243 106.699 39.0433 107.954L78.6442 132.512C79.8123 133.24 79.8123 135.045 78.6442 135.773L72.6016 139.552C70.5754 140.807 68.0878 140.807 66.0688 139.552Z" fill="#24126A"/>
<path d="M46.2483 114.452L39.9102 110.517L41.1648 109.735L47.503 113.669L46.2483 114.452Z" fill="#42E8E0"/>
<path d="M64.1168 125.806L62.1699 124.597L63.4246 123.815L65.3714 125.023L64.1168 125.806Z" fill="#42E8E0"/>
<path d="M49.9195 116.791L47.9727 115.582L49.2345 114.8L51.1814 116.008L49.9195 116.791Z" fill="#42E8E0"/>
<path d="M69.3372 134.658C68.1834 134.658 67.0298 134.34 65.9986 133.697L26.3977 109.139C25.8064 108.767 25.4531 108.109 25.4531 107.373C25.4531 106.637 25.8064 105.979 26.3977 105.607L32.4402 101.828C34.5025 100.55 37.0551 100.55 39.1173 101.828L78.7182 126.386C79.3095 126.75 79.6628 127.416 79.6628 128.152C79.6628 128.888 79.3095 129.546 78.7182 129.918L72.6757 133.697C71.6446 134.34 70.4909 134.658 69.3372 134.658ZM35.7788 101.185C34.6756 101.185 33.5723 101.487 32.5844 102.099L26.5419 105.878C26.0372 106.188 25.7343 106.753 25.7343 107.373C25.7343 108 26.0372 108.558 26.5419 108.868L66.1428 133.426C68.1113 134.65 70.563 134.65 72.5315 133.426L78.574 129.647C79.0788 129.337 79.3816 128.779 79.3816 128.152C79.3816 127.525 79.0788 126.967 78.574 126.657L38.9731 102.099C37.9925 101.495 36.8892 101.185 35.7788 101.185Z" fill="#42E8E0"/>
<g style="mix-blend-mode:overlay">
<path d="M96.657 95.035L97.404 89.7614L101.013 93.4301L101.448 90.3617L95.7398 84.5591L94.5582 92.9014L96.657 95.035ZM93.8165 98.137L94.2512 95.0685L96.3499 97.2021L95.9153 100.271L93.8165 98.137ZM97.8323 98.709L101.439 102.376L102.187 97.0993L104.285 99.2319L103.103 107.578L97.3976 101.777L97.3948 101.775L97.8323 98.709ZM102.493 94.9352L102.928 91.8667L105.027 94.0002L104.592 97.0687L102.493 94.9352ZM100.706 95.5923L100.707 95.5919L100.707 95.5942L100.266 98.7089L98.1391 96.5473L98.1353 96.5435L98.1365 96.5392L98.2132 95.9936L98.2507 95.7288L98.5771 93.4285L100.707 95.5933L100.706 95.5923Z" fill="white"/>
</g>
<g style="mix-blend-mode:overlay">
<path d="M121.171 75.2767L121.918 70.003L125.527 73.6718L125.961 70.6033L120.253 64.8007L119.072 73.143L121.171 75.2767ZM118.33 78.3786L118.765 75.3102L120.864 77.4437L120.429 80.5122L118.33 78.3786ZM122.346 78.9506L125.953 82.6173L126.7 77.341L128.799 79.4735L127.617 87.8196L121.911 82.0191L121.908 82.0162L122.346 78.9506ZM127.007 75.1768L127.442 72.1083L129.54 74.2419L129.106 77.3103L127.007 75.1768ZM125.219 75.8339L125.22 75.8335L125.221 75.8358L124.78 78.9506L122.653 76.7889L122.649 76.7851L122.65 76.7809L122.727 76.2352L122.764 75.9705L123.091 73.6701L125.22 75.8349L125.219 75.8339Z" fill="white"/>
</g>
<g style="mix-blend-mode:overlay">
<path d="M103.081 29.2242L101.448 24.1864L98.5249 28.5024L97.5749 25.5711L102.198 18.7449L104.781 26.7141L103.081 29.2242ZM106.402 31.7156L105.452 28.7844L103.752 31.2943L104.702 34.2256L106.402 31.7156ZM102.551 33.0671L99.6296 37.3807L97.996 32.3403L96.2963 34.8492L98.8797 42.8223L103.501 35.9983L103.503 35.995L102.551 33.0671ZM97.3258 30.2729L96.3758 27.3417L94.676 29.8517L95.626 32.7829L97.3258 30.2729ZM99.1953 30.5677L99.1941 30.5675L99.1937 30.5699L100.158 33.5454L101.881 31.0022L101.884 30.9977L101.882 30.9937L101.714 30.4724L101.632 30.2195L100.919 28.0221L99.1945 30.5689L99.1953 30.5677Z" fill="white"/>
</g>
<defs>
<linearGradient id="paint0_linear" x1="0.139989" y1="102.306" x2="209.457" y2="102.306" gradientUnits="userSpaceOnUse">
<stop stop-color="#BCBEFF"/>
<stop offset="0.151" stop-color="#A3A7F5"/>
<stop offset="0.3866" stop-color="#8289E8"/>
<stop offset="0.6124" stop-color="#6A73DF"/>
<stop offset="0.8221" stop-color="#5C66D9"/>
<stop offset="1" stop-color="#5761D7"/>
</linearGradient>
<linearGradient id="paint1_linear" x1="133.952" y1="134.112" x2="70.0995" y2="55.2203" gradientUnits="userSpaceOnUse">
<stop stop-color="#42E8E0"/>
<stop offset="0.1055" stop-color="#37B6BF"/>
<stop offset="0.2197" stop-color="#2C87A1"/>
<stop offset="0.338" stop-color="#235F87"/>
<stop offset="0.4587" stop-color="#1C3F72"/>
<stop offset="0.5824" stop-color="#162561"/>
<stop offset="0.7105" stop-color="#121355"/>
<stop offset="0.8458" stop-color="#10084E"/>
<stop offset="1" stop-color="#0F054C"/>
</linearGradient>
<radialGradient id="paint2_radial" cx="0" cy="0" r="1" gradientUnits="userSpaceOnUse" gradientTransform="translate(99.6043 94.5976) scale(163.834 175.969)">
<stop stop-color="#42E8E0"/>
<stop offset="0.1055" stop-color="#37B6BF"/>
<stop offset="0.2197" stop-color="#2C87A1"/>
<stop offset="0.338" stop-color="#235F87"/>
<stop offset="0.4587" stop-color="#1C3F72"/>
<stop offset="0.5824" stop-color="#162561"/>
<stop offset="0.7105" stop-color="#121355"/>
<stop offset="0.8458" stop-color="#10084E"/>
<stop offset="1" stop-color="#0F054C"/>
</radialGradient>
<linearGradient id="paint3_linear" x1="196.593" y1="157.437" x2="227.033" y2="173.8" gradientUnits="userSpaceOnUse">
<stop stop-color="#BCBEFF"/>
<stop offset="0.2271" stop-color="#AAADF8"/>
<stop offset="0.6802" stop-color="#7C83E5"/>
<stop offset="1" stop-color="#5761D7"/>
</linearGradient>
<linearGradient id="paint4_linear" x1="192.904" y1="164.335" x2="229.992" y2="164.335" gradientUnits="userSpaceOnUse">
<stop stop-color="#E9E9FD"/>
<stop offset="0.3601" stop-color="#D3D2F9"/>
<stop offset="0.7062" stop-color="#C5C4F7"/>
<stop offset="1" stop-color="#C0BFF6"/>
</linearGradient>
<linearGradient id="paint5_linear" x1="196.595" y1="134.173" x2="227.035" y2="150.536" gradientUnits="userSpaceOnUse">
<stop stop-color="#BCBEFF"/>
<stop offset="0.2271" stop-color="#AAADF8"/>
<stop offset="0.6802" stop-color="#7C83E5"/>
<stop offset="1" stop-color="#5761D7"/>
</linearGradient>
<linearGradient id="paint6_linear" x1="192.906" y1="141.071" x2="229.994" y2="141.071" gradientUnits="userSpaceOnUse">
<stop stop-color="#E9E9FD"/>
<stop offset="0.3601" stop-color="#D3D2F9"/>
<stop offset="0.7062" stop-color="#C5C4F7"/>
<stop offset="1" stop-color="#C0BFF6"/>
</linearGradient>
<linearGradient id="paint7_linear" x1="133.091" y1="178.079" x2="163.531" y2="194.441" gradientUnits="userSpaceOnUse">
<stop stop-color="#BCBEFF"/>
<stop offset="0.2271" stop-color="#AAADF8"/>
<stop offset="0.6802" stop-color="#7C83E5"/>
<stop offset="1" stop-color="#5761D7"/>
</linearGradient>
<linearGradient id="paint8_linear" x1="129.404" y1="184.976" x2="166.493" y2="184.976" gradientUnits="userSpaceOnUse">
<stop stop-color="#E9E9FD"/>
<stop offset="0.3601" stop-color="#D3D2F9"/>
<stop offset="0.7062" stop-color="#C5C4F7"/>
<stop offset="1" stop-color="#C0BFF6"/>
</linearGradient>
<linearGradient id="paint9_linear" x1="133.089" y1="153.126" x2="163.529" y2="169.489" gradientUnits="userSpaceOnUse">
<stop stop-color="#BCBEFF"/>
<stop offset="0.2271" stop-color="#AAADF8"/>
<stop offset="0.6802" stop-color="#7C83E5"/>
<stop offset="1" stop-color="#5761D7"/>
</linearGradient>
<linearGradient id="paint10_linear" x1="129.402" y1="160.024" x2="166.491" y2="160.024" gradientUnits="userSpaceOnUse">
<stop stop-color="#E9E9FD"/>
<stop offset="0.3601" stop-color="#D3D2F9"/>
<stop offset="0.7062" stop-color="#C5C4F7"/>
<stop offset="1" stop-color="#C0BFF6"/>
</linearGradient>
<linearGradient id="paint11_linear" x1="11.1125" y1="54.9488" x2="41.5524" y2="71.3113" gradientUnits="userSpaceOnUse">
<stop stop-color="#BCBEFF"/>
<stop offset="0.2271" stop-color="#AAADF8"/>
<stop offset="0.6802" stop-color="#7C83E5"/>
<stop offset="1" stop-color="#5761D7"/>
</linearGradient>
<linearGradient id="paint12_linear" x1="7.4202" y1="61.8464" x2="44.5086" y2="61.8464" gradientUnits="userSpaceOnUse">
<stop stop-color="#E9E9FD"/>
<stop offset="0.3601" stop-color="#D3D2F9"/>
<stop offset="0.7062" stop-color="#C5C4F7"/>
<stop offset="1" stop-color="#C0BFF6"/>
</linearGradient>
<linearGradient id="paint13_linear" x1="11.1081" y1="32.2668" x2="41.5479" y2="48.6293" gradientUnits="userSpaceOnUse">
<stop stop-color="#BCBEFF"/>
<stop offset="0.2271" stop-color="#AAADF8"/>
<stop offset="0.6802" stop-color="#7C83E5"/>
<stop offset="1" stop-color="#5761D7"/>
</linearGradient>
<linearGradient id="paint14_linear" x1="12.8747" y1="31.038" x2="40.021" y2="45.6301" gradientUnits="userSpaceOnUse">
<stop offset="0.2421" stop-color="#5761D7"/>
<stop offset="0.3923" stop-color="#7A82E5"/>
<stop offset="0.5463" stop-color="#979CF0"/>
<stop offset="0.7" stop-color="#ACAFF8"/>
<stop offset="0.8519" stop-color="#B8BAFD"/>
<stop offset="1" stop-color="#BCBEFF"/>
</linearGradient>
<linearGradient id="paint15_linear" x1="7.41825" y1="39.1644" x2="44.5067" y2="39.1644" gradientUnits="userSpaceOnUse">
<stop stop-color="#E9E9FD"/>
<stop offset="0.3601" stop-color="#D3D2F9"/>
<stop offset="0.7062" stop-color="#C5C4F7"/>
<stop offset="1" stop-color="#C0BFF6"/>
</linearGradient>
<linearGradient id="paint16_linear" x1="7.98843" y1="39.1645" x2="43.9381" y2="39.1645" gradientUnits="userSpaceOnUse">
<stop stop-color="#E9E9FD"/>
<stop offset="0.3601" stop-color="#D3D2F9"/>
<stop offset="0.7062" stop-color="#C5C4F7"/>
<stop offset="1" stop-color="#C0BFF6"/>
</linearGradient>
</defs>
</svg>
