<svg xmlns="http://www.w3.org/2000/svg" width="68" height="68" viewBox="0 0 68 68">
  <g id="Иконка_бонусы_" data-name="Иконка (бонусы)" transform="translate(-140 -848)">
    <rect id="Прямоугольник_155" data-name="Прямоугольник 155" width="68" height="68" rx="34" transform="translate(140 848)" fill="#f2ca6b"/>
    <g id="gift-card" transform="translate(155.362 788.878)">
      <path id="Контур_122" data-name="Контур 122" d="M353.828,175.846a1.247,1.247,0,1,0-2.495,0v1.247h1.247A1.249,1.249,0,0,0,353.828,175.846Z" transform="translate(-325.755 -87.403)" fill="#fff"/>
      <path id="Контур_123" data-name="Контур 123" d="M288.313,174.6a1.247,1.247,0,1,0,0,2.495h1.247v-1.247A1.249,1.249,0,0,0,288.313,174.6Z" transform="translate(-266.167 -87.404)" fill="#fff"/>
      <path id="Контур_124" data-name="Контур 124" d="M254.934,238.866h4.834v2.495h-4.834Z" transform="translate(-236.374 -146.991)" fill="#fff"/>
      <path id="Контур_125" data-name="Контур 125" d="M32.674,80.333H4.6a4.606,4.606,0,0,0-4.6,4.6V101.31a4.606,4.606,0,0,0,4.6,4.6H32.674a4.606,4.606,0,0,0,4.6-4.6V84.934A4.606,4.606,0,0,0,32.674,80.333Zm-26.9,6.356H9.28a1.092,1.092,0,0,1,0,2.184H5.771a1.092,1.092,0,0,1,0-2.184ZM9.28,98.716H5.771a1.092,1.092,0,1,1,0-2.184H9.28a1.092,1.092,0,1,1,0,2.184Zm3.509-4.679H5.771a1.092,1.092,0,1,1,0-2.184h7.018a1.092,1.092,0,1,1,0,2.184ZM32.6,95.462A1.092,1.092,0,0,1,31.5,96.554h-.078v3.587a1.092,1.092,0,0,1-1.092,1.092h-11.7a1.092,1.092,0,0,1-1.092-1.092V96.554h-.078a1.092,1.092,0,0,1-1.092-1.092V90.783a1.092,1.092,0,0,1,1.092-1.092h1.483a3.429,3.429,0,0,1,5.535-3.755,3.429,3.429,0,0,1,5.535,3.755H31.5A1.092,1.092,0,0,1,32.6,90.783v4.679Z" transform="translate(0 0)" fill="#fff"/>
      <path id="Контур_126" data-name="Контур 126" d="M351.333,303.134H355v2.495h-3.664Z" transform="translate(-325.755 -206.58)" fill="#fff"/>
      <path id="Контур_127" data-name="Контур 127" d="M271,303.134h3.664v2.495H271Z" transform="translate(-251.27 -206.58)" fill="#fff"/>
      <path id="Контур_128" data-name="Контур 128" d="M351.333,238.866h4.834v2.495h-4.834Z" transform="translate(-325.755 -146.991)" fill="#fff"/>
    </g>
  </g>
</svg>
