<svg xmlns="http://www.w3.org/2000/svg" width="40" height="40" viewBox="0 0 40 40">
  <g id="Сгруппировать_161" data-name="Сгруппировать 161" transform="translate(-1000 -7758)">
    <circle id="Эллипс_23" data-name="Эллипс 23" cx="20" cy="20" r="20" transform="translate(1000 7758)" fill="#f2ca6b"/>
    <g id="Лого" transform="translate(860.982 7403.124)">
      <g id="Сгруппировать_92" data-name="Сгруппировать 92" transform="translate(159.675 362.715)">
        <path id="Контур_210" data-name="Контур 210" d="M293.617,364.518l2.876-1.8,2.579,1.426,3.416,1.889v3.948l2.632,1.657v6.726l-2.632,1.462v3.412l-6.141,3.8-2.73-1.511Z" transform="translate(-293.617 -362.715)" fill="none" stroke="#fff" stroke-miterlimit="10" stroke-width="1"/>
        <path id="Контур_211" data-name="Контур 211" d="M332.234,389.79l-2.851-1.8v-6.995l2.287-2.181" transform="translate(-326.215 -377.385)" fill="none" stroke="#fff" stroke-miterlimit="10" stroke-width="1"/>
        <line id="Линия_12" data-name="Линия 12" y1="1.621" x2="3.119" transform="translate(5.752 7.263)" fill="none" stroke="#fff" stroke-miterlimit="10" stroke-width="1"/>
        <line id="Линия_13" data-name="Линия 13" y2="3.558" transform="translate(8.871 13.55)" fill="none" stroke="#fff" stroke-miterlimit="10" stroke-width="1"/>
        <line id="Линия_14" data-name="Линия 14" x2="3.168" y2="1.858" transform="translate(2.583 20.594)" fill="none" stroke="#fff" stroke-miterlimit="10" stroke-width="1"/>
        <path id="Контур_212" data-name="Контур 212" d="M326.216,523.213v-3.485l-3.436-2.12" transform="translate(-320.197 -503.887)" fill="none" stroke="#fff" stroke-miterlimit="10" stroke-width="1"/>
        <circle id="Эллипс_8" data-name="Эллипс 8" cx="0.478" cy="0.478" r="0.478" transform="translate(4.875 8.67)" fill="none" stroke="#fff" stroke-miterlimit="10" stroke-width="1"/>
        <circle id="Эллипс_9" data-name="Эллипс 9" cx="0.478" cy="0.478" r="0.478" transform="translate(5.881 12.263)" fill="none" stroke="#fff" stroke-miterlimit="10" stroke-width="1"/>
        <circle id="Эллипс_10" data-name="Эллипс 10" cx="0.478" cy="0.478" r="0.478" transform="translate(8.393 12.764)" fill="none" stroke="#fff" stroke-miterlimit="10" stroke-width="1"/>
        <circle id="Эллипс_11" data-name="Эллипс 11" cx="0.478" cy="0.478" r="0.478" transform="translate(5.541 19.326)" fill="none" stroke="#fff" stroke-miterlimit="10" stroke-width="1"/>
        <circle id="Эллипс_12" data-name="Эллипс 12" cx="0.478" cy="0.478" r="0.478" transform="translate(1.788 12.886)" fill="none" stroke="#fff" stroke-miterlimit="10" stroke-width="1"/>
        <circle id="Эллипс_13" data-name="Эллипс 13" cx="0.478" cy="0.478" r="0.478" transform="translate(1.731 19.82)" fill="none" stroke="#fff" stroke-miterlimit="10" stroke-width="1"/>
      </g>
      <g id="Сгруппировать_93" data-name="Сгруппировать 93" transform="translate(146.856 362.715)">
        <path id="Контур_213" data-name="Контур 213" d="M158.359,364.518l-2.876-1.8L152.9,364.14l-3.416,1.889v3.948l-2.632,1.657v6.726l2.632,1.462v3.412l6.141,3.8,2.73-1.511Z" transform="translate(-146.856 -362.715)" fill="none" stroke="#fff" stroke-miterlimit="10" stroke-width="1"/>
        <path id="Контур_214" data-name="Контур 214" d="M208.758,389.79l2.851-1.8v-6.995l-2.287-2.181" transform="translate(-203.274 -377.385)" fill="none" stroke="#fff" stroke-miterlimit="10" stroke-width="1"/>
        <line id="Линия_15" data-name="Линия 15" x1="3.119" y1="1.621" transform="translate(2.632 7.263)" fill="none" stroke="#fff" stroke-miterlimit="10" stroke-width="1"/>
        <line id="Линия_16" data-name="Линия 16" y2="3.558" transform="translate(2.632 13.55)" fill="none" stroke="#fff" stroke-miterlimit="10" stroke-width="1"/>
        <line id="Линия_17" data-name="Линия 17" x1="3.168" y2="1.858" transform="translate(5.752 20.594)" fill="none" stroke="#fff" stroke-miterlimit="10" stroke-width="1"/>
        <path id="Контур_215" data-name="Контур 215" d="M208.758,523.213v-3.485l3.436-2.12" transform="translate(-203.274 -503.887)" fill="none" stroke="#fff" stroke-miterlimit="10" stroke-width="1"/>
        <circle id="Эллипс_14" data-name="Эллипс 14" cx="0.478" cy="0.478" r="0.478" transform="translate(5.671 8.67)" fill="none" stroke="#fff" stroke-miterlimit="10" stroke-width="1"/>
        <circle id="Эллипс_15" data-name="Эллипс 15" cx="0.478" cy="0.478" r="0.478" transform="translate(4.666 12.263)" fill="none" stroke="#fff" stroke-miterlimit="10" stroke-width="1"/>
        <circle id="Эллипс_16" data-name="Эллипс 16" cx="0.478" cy="0.478" r="0.478" transform="translate(2.154 12.764)" fill="none" stroke="#fff" stroke-miterlimit="10" stroke-width="1"/>
        <circle id="Эллипс_17" data-name="Эллипс 17" cx="0.478" cy="0.478" r="0.478" transform="translate(5.005 19.326)" fill="none" stroke="#fff" stroke-miterlimit="10" stroke-width="1"/>
        <circle id="Эллипс_18" data-name="Эллипс 18" cx="0.478" cy="0.478" r="0.478" transform="translate(8.759 12.886)" fill="none" stroke="#fff" stroke-miterlimit="10" stroke-width="1"/>
        <circle id="Эллипс_19" data-name="Эллипс 19" cx="0.478" cy="0.478" r="0.478" transform="translate(8.815 19.82)" fill="none" stroke="#fff" stroke-miterlimit="10" stroke-width="1"/>
      </g>
    </g>
  </g>
</svg>
