<svg id="Иконка_скопировать_ссылку_" data-name="Иконка (скопировать ссылку)" xmlns="http://www.w3.org/2000/svg" width="18" height="18" viewBox="0 0 18 18">
  <g id="Сгруппировать_12" data-name="Сгруппировать 12" transform="translate(6.546)">
    <g id="Сгруппировать_11" data-name="Сгруппировать 11">
      <path id="Контур_98" data-name="Контур 98" d="M196.82,0h-6.545a.818.818,0,1,0,0,1.636h4.57l-8.421,8.421a.818.818,0,1,0,1.157,1.157L196,2.793v4.57a.818.818,0,0,0,1.636,0V.818A.818.818,0,0,0,196.82,0Z" transform="translate(-186.184)" fill="#fff"/>
    </g>
  </g>
  <g id="Сгруппировать_14" data-name="Сгруппировать 14" transform="translate(0 3.273)">
    <g id="Сгруппировать_13" data-name="Сгруппировать 13">
      <path id="Контур_99" data-name="Контур 99" d="M13.909,98a.818.818,0,0,0-.818.818v7.364H1.636V94.727H9a.818.818,0,1,0,0-1.636H.818A.818.818,0,0,0,0,93.909V107a.818.818,0,0,0,.818.818H13.909a.818.818,0,0,0,.818-.818V98.818A.818.818,0,0,0,13.909,98Z" transform="translate(0 -93.091)" fill="#fff"/>
    </g>
  </g>
</svg>
