<svg id="Иконка_ссылка_" data-name="Иконка (ссылка)" xmlns="http://www.w3.org/2000/svg" width="22" height="22" viewBox="0 0 22 22">
  <g id="Сгруппировать_12" data-name="Сгруппировать 12" transform="translate(7.913)">
    <g id="Сгруппировать_11" data-name="Сгруппировать 11">
      <path id="Контур_98" data-name="Контур 98" d="M199.264,0h-8.05a1.006,1.006,0,0,0,0,2.012h5.621L186.478,12.369a1.006,1.006,0,1,0,1.423,1.423L198.258,3.435V9.056a1.006,1.006,0,0,0,2.012,0V1.006A1.006,1.006,0,0,0,199.264,0Z" transform="translate(-186.184)" fill="#728ab3"/>
    </g>
  </g>
  <g id="Сгруппировать_14" data-name="Сгруппировать 14" transform="translate(0 3.888)">
    <g id="Сгруппировать_13" data-name="Сгруппировать 13">
      <path id="Контур_99" data-name="Контур 99" d="M17.106,99.128a1.006,1.006,0,0,0-1.006,1.006v9.056H2.012V95.1h9.056a1.006,1.006,0,1,0,0-2.012H1.006A1.006,1.006,0,0,0,0,94.1v16.1A1.006,1.006,0,0,0,1.006,111.2h16.1a1.006,1.006,0,0,0,1.006-1.006V100.135A1.006,1.006,0,0,0,17.106,99.128Z" transform="translate(0 -93.091)" fill="#728ab3"/>
    </g>
  </g>
</svg>
