<svg xmlns="http://www.w3.org/2000/svg" width="90" height="30" viewBox="0 0 90 30">
  <g id="Декор" transform="translate(-915 -5577)">
    <path id="Многоугольник_19" data-name="Многоугольник 19" d="M11.464,3.536a5,5,0,0,1,7.071,0l7.929,7.929a5,5,0,0,1,0,7.071l-7.929,7.929a5,5,0,0,1-7.071,0L3.536,18.536a5,5,0,0,1,0-7.071Z" transform="translate(945 5577)" fill="#fff"/>
    <path id="Многоугольник_20" data-name="Многоугольник 20" d="M7.172,2.828a4,4,0,0,1,5.657,0l4.343,4.343a4,4,0,0,1,0,5.657l-4.343,4.343a4,4,0,0,1-5.657,0L2.828,12.828a4,4,0,0,1,0-5.657Z" transform="translate(985 5582)" fill="#fff" opacity="0.6"/>
    <path id="Многоугольник_21" data-name="Многоугольник 21" d="M7.172,2.828a4,4,0,0,1,5.657,0l4.343,4.343a4,4,0,0,1,0,5.657l-4.343,4.343a4,4,0,0,1-5.657,0L2.828,12.828a4,4,0,0,1,0-5.657Z" transform="translate(915 5582)" fill="#fff" opacity="0.6"/>
  </g>
</svg>
