<svg width="230" height="200" viewBox="0 0 230 200" fill="none" xmlns="http://www.w3.org/2000/svg">
<path d="M103.856 200C103.089 200 102.288 199.813 101.666 199.456L0.996903 141.511C0.36639 141.146 0 140.653 0 140.152C0 139.727 0.255601 139.345 0.732746 139.073L60.8019 104.489C61.7988 103.911 63.5455 103.979 64.6957 104.642L165.365 162.587C165.995 162.953 166.362 163.445 166.362 163.947C166.362 164.371 166.106 164.754 165.629 165.025L105.56 199.609C105.108 199.873 104.495 200 103.856 200ZM62.506 104.438C61.9351 104.438 61.3813 104.557 60.9723 104.786L0.903165 139.37C0.545306 139.574 0.340813 139.854 0.340813 140.152C0.340813 140.525 0.639029 140.916 1.1673 141.214L101.836 199.159C102.893 199.762 104.486 199.83 105.389 199.312L165.458 164.728C165.816 164.524 166.021 164.244 166.021 163.947C166.021 163.573 165.723 163.182 165.194 162.885L64.5253 104.939C63.9459 104.608 63.2046 104.438 62.506 104.438Z" fill="#42E8E0"/>
<path opacity="0.5" d="M166.193 153.931L160.646 153.132L64.612 97.8542C63.5128 97.2171 61.8428 97.1491 60.8885 97.7013L3.6908 130.629L0.171875 130.127V134.783H0.180378C0.188898 135.199 0.487112 135.641 1.08354 135.98L101.753 193.926C102.852 194.563 104.522 194.631 105.476 194.079L165.545 159.495C165.988 159.24 166.184 158.9 166.176 158.544H166.184V153.931H166.193Z" fill="url(#paint0_linear)"/>
<path opacity="0.52" d="M1.08263 131.351L101.752 189.296C102.851 189.933 104.521 190.001 105.475 189.449L165.544 154.865C166.499 154.313 166.379 153.353 165.28 152.724L64.6111 94.779C63.5119 94.1418 61.8419 94.0738 60.8876 94.626L0.8185 129.21C-0.13579 129.753 -0.016506 130.713 1.08263 131.351Z" fill="url(#paint1_linear)"/>
<path opacity="0.3" d="M9.79881 132.48L99.7747 184.275C100.763 184.845 102.246 184.904 103.106 184.411L156.802 153.506C157.654 153.013 157.552 152.155 156.563 151.595L66.5876 99.7996C65.5992 99.2304 64.1166 99.171 63.2561 99.6637L9.56024 130.569C8.70819 131.062 8.81896 131.92 9.79881 132.48Z" fill="#24126A"/>
<path d="M165.553 154.364L105.484 188.948C104.53 189.5 102.86 189.432 101.761 188.795L1.09184 130.849C0.606174 130.569 0.324991 130.229 0.231267 129.889C0.0778986 130.382 0.367602 130.934 1.09184 131.351L101.761 189.296C102.86 189.933 104.53 190.001 105.484 189.449L165.553 154.865C166.09 154.559 166.278 154.118 166.15 153.684C166.065 153.939 165.877 154.177 165.553 154.364Z" fill="white"/>
<path d="M64.4309 76.7098L77.1605 1.43422L76.138 1.00098L77.6717 0.125969V0.134466C77.9699 -0.0609221 78.3959 -0.0524282 78.856 0.219417L180.556 58.7595C181.391 59.2437 182.022 60.4756 181.877 61.3336L169.053 137.204C168.985 137.603 168.789 137.858 168.517 137.977L167.009 138.843L166.753 137.442L166.838 137.467L65.7516 79.2753C64.9166 78.8081 64.2861 77.5763 64.4309 76.7098Z" fill="#B7BAFD"/>
<path d="M179.985 60.8238L181.655 60.0848C181.842 60.5095 181.936 60.9598 181.868 61.342L169.044 137.212C168.976 137.612 168.78 137.866 168.508 137.985L166.999 138.852L166.744 137.45L166.829 137.476L161.717 134.528L179.985 60.8238Z" fill="#8188E7"/>
<path d="M64.1579 80.2013L165.858 138.741C166.642 139.192 167.315 138.928 167.451 138.121L180.275 62.251C180.419 61.393 179.789 60.1527 178.954 59.677L77.2539 1.13692C76.47 0.686675 75.7969 0.950028 75.6605 1.75707L62.8373 77.6273C62.6839 78.4853 63.3229 79.7171 64.1579 80.2013Z" fill="#24126A"/>
<g opacity="0.2">
<path opacity="0.9" d="M76.9145 2.54706L179.1 61.3335L166.192 137.399L64.0742 78.6466L76.9145 2.54706Z" fill="#342B86"/>
<path opacity="0.15" d="M64.0312 79.7085L69.5781 82.5968L125.234 50.5616C126.162 50.0264 127.79 50.0944 128.863 50.7145L224.855 105.967C225.775 105.457 229.958 103.444 229.958 103.444L227.93 106.74L227.922 106.732C227.837 106.969 227.658 107.182 227.351 107.36L168.739 141.103C167.81 141.638 166.183 141.57 165.109 140.95L66.8856 84.4063C66.4425 84.1514 66.1699 83.8456 66.0591 83.5313L66.0506 83.5398L64.0312 79.7085Z" fill="url(#paint2_linear)"/>
<path opacity="0.15" d="M64.8937 80.626L165.563 138.571C166.662 139.209 168.332 139.277 169.286 138.724L229.355 104.141C230.31 103.588 230.19 102.628 229.091 102L128.422 44.0543C127.323 43.4172 125.653 43.3492 124.699 43.9014L64.6295 78.4852C63.6667 79.0289 63.786 79.9888 64.8937 80.626Z" fill="url(#paint3_linear)"/>
<path opacity="0.15" d="M229.091 102L128.422 44.0544C127.714 43.6466 126.769 43.4767 125.934 43.5531C126.556 43.6041 127.178 43.7655 127.68 44.0544L228.349 102C229.448 102.637 229.568 103.597 228.613 104.141L168.544 138.724C168.204 138.92 167.769 139.03 167.309 139.073C168.042 139.132 168.766 139.022 169.286 138.724L229.355 104.141C230.309 103.597 230.19 102.637 229.091 102Z" fill="white"/>
<path d="M117.617 70.6441L114.388 68.7837C114.132 68.6308 113.689 68.6478 113.408 68.8092L109.821 70.899C109.54 71.0604 109.523 71.3153 109.778 71.4682L113.008 73.3286C113.263 73.4815 113.706 73.4645 113.987 73.3031L117.574 71.2133C117.864 71.0519 117.881 70.7971 117.617 70.6441Z" fill="#24126A"/>
<path d="M122.599 73.5155L119.37 71.6551C119.115 71.5022 118.672 71.5191 118.39 71.6806L114.803 73.7704C114.522 73.9318 114.505 74.1866 114.761 74.3395L117.99 76.2C118.246 76.3529 118.689 76.3359 118.97 76.1745L122.557 74.0847C122.847 73.9148 122.864 73.6684 122.599 73.5155Z" fill="#24126A"/>
<path d="M127.584 76.3869L124.355 74.5265C124.099 74.3735 123.656 74.3905 123.375 74.5519L119.788 76.6417C119.506 76.8031 119.489 77.058 119.745 77.2109L122.974 79.0714C123.23 79.2243 123.673 79.2073 123.954 79.0459L127.541 76.9561C127.822 76.7862 127.848 76.5313 127.584 76.3869Z" fill="#24126A"/>
<path d="M123.792 80.2012L120.562 78.3408C120.307 78.1879 119.864 78.2048 119.583 78.3663L116.575 80.1163C116.294 80.2777 116.277 80.5325 116.532 80.6854L119.761 82.5459C120.017 82.6988 120.46 82.6818 120.741 82.5204L123.749 80.7704C124.03 80.6005 124.047 80.3541 123.792 80.2012Z" fill="#24126A"/>
<path d="M128.778 83.0726L125.549 81.2121C125.293 81.0592 124.85 81.0762 124.569 81.2376L121.561 82.9876C121.28 83.149 121.263 83.4039 121.518 83.5568L124.748 85.4172C125.003 85.5701 125.446 85.5531 125.728 85.3917L128.735 83.6417C129.016 83.4718 129.034 83.217 128.778 83.0726Z" fill="#24126A"/>
<path d="M133.762 85.9355L130.533 84.075C130.277 83.9221 129.834 83.9391 129.553 84.1005L126.545 85.8505C126.264 86.0119 126.247 86.2668 126.503 86.4197L129.732 88.2801C129.988 88.433 130.431 88.416 130.712 88.2546L133.72 86.5046C134.001 86.3432 134.018 86.0884 133.762 85.9355Z" fill="#24126A"/>
<path d="M138.747 88.8068L135.517 86.9464C135.262 86.7935 134.819 86.8104 134.538 86.9718L131.53 88.7218C131.249 88.8833 131.232 89.1381 131.487 89.291L134.716 91.1515C134.972 91.3044 135.415 91.2874 135.696 91.126L138.704 89.376C138.985 89.2061 139.002 88.9597 138.747 88.8068Z" fill="#24126A"/>
<path d="M143.723 91.6782L140.494 89.8177C140.238 89.6648 139.795 89.6818 139.514 89.8432L136.506 91.5932C136.225 91.7546 136.208 92.0095 136.464 92.1624L139.693 94.0228C139.949 94.1758 140.392 94.1588 140.673 93.9974L143.681 92.2474C143.97 92.0775 143.987 91.8226 143.723 91.6782Z" fill="#24126A"/>
<path d="M148.71 94.541L145.48 92.6806C145.225 92.5277 144.782 92.5447 144.5 92.7061L141.493 94.4561C141.212 94.6175 141.195 94.8723 141.45 95.0253L144.679 96.8857C144.935 97.0386 145.378 97.0216 145.659 96.8602L148.667 95.1102C148.957 94.9488 148.974 94.694 148.71 94.541Z" fill="#24126A"/>
<path d="M153.692 97.4124L150.463 95.552C150.207 95.3991 149.764 95.4161 149.483 95.5775L146.475 97.3275C146.194 97.4889 146.177 97.7437 146.433 97.8966L149.662 99.7571C149.917 99.91 150.36 99.893 150.642 99.7316L153.649 97.9816C153.931 97.8117 153.956 97.5653 153.692 97.4124Z" fill="#24126A"/>
<path d="M158.676 100.284L155.447 98.4233C155.192 98.2704 154.748 98.2874 154.467 98.4488L151.46 100.199C151.178 100.36 151.161 100.615 151.417 100.768L154.646 102.628C154.902 102.781 155.345 102.764 155.626 102.603L158.634 100.853C158.915 100.683 158.932 100.428 158.676 100.284Z" fill="#24126A"/>
<path d="M163.661 103.147L160.432 101.286C160.176 101.133 159.733 101.15 159.452 101.312L156.444 103.062C156.163 103.223 156.146 103.478 156.401 103.631L159.631 105.491C159.886 105.644 160.329 105.627 160.61 105.466L163.618 103.716C163.899 103.554 163.916 103.3 163.661 103.147Z" fill="#24126A"/>
<path d="M168.645 106.018L165.416 104.158C165.16 104.005 164.717 104.022 164.436 104.183L161.428 105.933C161.147 106.094 161.13 106.349 161.386 106.502L164.615 108.363C164.871 108.516 165.314 108.499 165.595 108.337L168.603 106.587C168.884 106.426 168.901 106.171 168.645 106.018Z" fill="#24126A"/>
<path d="M121.715 84.2959L118.486 82.4354C118.231 82.2825 117.788 82.2995 117.506 82.4609L114.499 84.2109C114.217 84.3723 114.2 84.6272 114.456 84.7801L117.685 86.6405C117.941 86.7934 118.384 86.7765 118.665 86.6151L121.673 84.8651C121.963 84.6951 121.98 84.4488 121.715 84.2959Z" fill="#24126A"/>
<path d="M116.665 81.3821L113.435 79.5216C113.18 79.3687 112.737 79.3857 112.456 79.5471L109.448 81.2971C109.167 81.4585 109.15 81.7134 109.405 81.8663L112.634 83.7267C112.89 83.8796 113.333 83.8626 113.614 83.7012L116.622 81.9512C116.903 81.7898 116.92 81.535 116.665 81.3821Z" fill="#24126A"/>
<path d="M111.593 78.4682L104.64 74.467C104.385 74.3141 103.942 74.3311 103.661 74.4925L100.653 76.2425C100.372 76.4039 100.355 76.6587 100.61 76.8117L107.563 80.8129C107.819 80.9658 108.262 80.9488 108.543 80.7874L111.551 79.0374C111.832 78.876 111.857 78.6211 111.593 78.4682Z" fill="#24126A"/>
<path d="M105.715 80.3796L100.074 77.1345C99.8185 76.9816 99.3754 76.9986 99.0942 77.16L96.0865 78.91C95.8053 79.0714 95.7883 79.3262 96.0439 79.4791L101.684 82.7243C101.94 82.8772 102.383 82.8602 102.664 82.6988L105.672 80.9488C105.962 80.7789 105.979 80.524 105.715 80.3796Z" fill="#24126A"/>
<path d="M126.698 87.1672L123.469 85.3068C123.213 85.1539 122.77 85.1709 122.489 85.3323L119.481 87.0823C119.2 87.2437 119.183 87.4986 119.438 87.6515L122.668 89.5119C122.923 89.6648 123.366 89.6478 123.648 89.4864L126.655 87.7364C126.936 87.5665 126.962 87.3117 126.698 87.1672Z" fill="#24126A"/>
<path d="M131.682 90.0301L128.453 88.1697C128.197 88.0168 127.754 88.0338 127.473 88.1952L124.465 89.9452C124.184 90.1066 124.167 90.3614 124.423 90.5143L127.652 92.3748C127.908 92.5277 128.351 92.5107 128.632 92.3493L131.64 90.5993C131.921 90.4379 131.938 90.183 131.682 90.0301Z" fill="#24126A"/>
<path d="M136.67 92.9015L133.441 91.041C133.186 90.8881 132.743 90.9051 132.461 91.0665L129.454 92.8165C129.173 92.9779 129.155 93.2328 129.411 93.3857L132.64 95.2461C132.896 95.399 133.339 95.3821 133.62 95.2206L136.628 93.4706C136.909 93.3092 136.926 93.0544 136.67 92.9015Z" fill="#24126A"/>
<path d="M141.653 95.7728L138.424 93.9124C138.168 93.7595 137.725 93.7765 137.444 93.9379L134.436 95.6879C134.155 95.8493 134.138 96.1041 134.394 96.2571L137.623 98.1175C137.878 98.2704 138.321 98.2534 138.603 98.092L141.61 96.342C141.892 96.1721 141.909 95.9173 141.653 95.7728Z" fill="#24126A"/>
<path d="M146.637 98.6357L143.408 96.7752C143.152 96.6223 142.709 96.6393 142.428 96.8007L139.42 98.5507C139.139 98.7122 139.122 98.967 139.378 99.1199L142.607 100.98C142.863 101.133 143.306 101.116 143.587 100.955L146.595 99.2049C146.876 99.0435 146.893 98.7886 146.637 98.6357Z" fill="#24126A"/>
<path d="M151.612 101.507L148.383 99.6467C148.127 99.4937 147.684 99.5107 147.403 99.6721L144.395 101.422C144.114 101.584 144.097 101.838 144.352 101.991L147.582 103.852C147.837 104.005 148.28 103.988 148.562 103.826L151.569 102.076C151.859 101.915 151.876 101.66 151.612 101.507Z" fill="#24126A"/>
<path d="M156.596 104.378L153.367 102.518C153.111 102.365 152.668 102.382 152.387 102.543L149.379 104.293C149.098 104.455 149.081 104.71 149.337 104.863L152.566 106.723C152.822 106.876 153.265 106.859 153.546 106.698L156.554 104.948C156.843 104.778 156.86 104.523 156.596 104.378Z" fill="#24126A"/>
<path d="M161.581 107.241L158.351 105.381C158.096 105.228 157.653 105.245 157.372 105.406L154.364 107.156C154.083 107.318 154.066 107.573 154.321 107.726L157.55 109.586C157.806 109.739 158.249 109.722 158.53 109.56L161.538 107.81C161.819 107.649 161.845 107.394 161.581 107.241Z" fill="#24126A"/>
<path d="M166.567 110.113L163.338 108.252C163.082 108.099 162.639 108.116 162.358 108.278L159.35 110.028C159.069 110.189 159.052 110.444 159.308 110.597L162.537 112.457C162.792 112.61 163.236 112.593 163.517 112.432L166.524 110.682C166.806 110.52 166.823 110.266 166.567 110.113Z" fill="#24126A"/>
<path d="M166.292 120.536L160.353 117.113C160.098 116.96 159.655 116.977 159.374 117.138L156.366 118.888C156.085 119.05 156.068 119.304 156.323 119.457L162.262 122.881C162.518 123.034 162.961 123.017 163.242 122.855L166.25 121.105C166.531 120.935 166.548 120.681 166.292 120.536Z" fill="#24126A"/>
<path d="M126.01 92.0605L122.781 90.2C122.525 90.0471 122.082 90.0641 121.801 90.2255L118.794 91.9755C118.512 92.1369 118.495 92.3918 118.751 92.5447L121.98 94.4051C122.236 94.558 122.679 94.541 122.96 94.3796L125.968 92.6296C126.249 92.4597 126.266 92.2049 126.01 92.0605Z" fill="#24126A"/>
<path d="M120.907 89.1126L117.678 87.2522C117.422 87.0993 116.979 87.1163 116.698 87.2777L113.69 89.0277C113.409 89.1891 113.392 89.4439 113.647 89.5969L116.877 91.4573C117.132 91.6102 117.575 91.5932 117.857 91.4318L120.864 89.6818C121.145 89.5204 121.162 89.2655 120.907 89.1126Z" fill="#24126A"/>
<path d="M115.794 86.1733L112.564 84.3129C112.309 84.16 111.866 84.177 111.584 84.3384L108.577 86.0884C108.296 86.2498 108.279 86.5047 108.534 86.6576L111.763 88.518C112.019 88.6709 112.462 88.6539 112.743 88.4925L115.751 86.7425C116.032 86.5811 116.058 86.3262 115.794 86.1733Z" fill="#24126A"/>
<path d="M110.688 83.234L107.459 81.3735C107.203 81.2206 106.76 81.2376 106.479 81.399L103.471 83.149C103.19 83.3104 103.173 83.5653 103.429 83.7182L106.658 85.5786C106.914 85.7315 107.357 85.7146 107.638 85.5531L110.645 83.8031C110.927 83.6417 110.944 83.3869 110.688 83.234Z" fill="#24126A"/>
<path d="M130.993 94.9234L127.764 93.0629C127.508 92.91 127.065 92.927 126.784 93.0884L123.776 94.8384C123.495 94.9998 123.478 95.2547 123.733 95.4076L126.963 97.268C127.218 97.4209 127.661 97.4039 127.942 97.2425L130.95 95.4925C131.231 95.3311 131.248 95.0763 130.993 94.9234Z" fill="#24126A"/>
<path d="M135.979 97.7947L132.75 95.9342C132.494 95.7813 132.051 95.7983 131.77 95.9597L128.762 97.7097C128.481 97.8711 128.464 98.126 128.72 98.2789L131.949 100.139C132.205 100.292 132.648 100.275 132.929 100.114L135.936 98.3639C136.218 98.194 136.235 97.9391 135.979 97.7947Z" fill="#24126A"/>
<path d="M140.962 100.666L137.732 98.8056C137.477 98.6527 137.034 98.6697 136.752 98.8311L133.745 100.581C133.464 100.743 133.446 100.997 133.702 101.15L136.931 103.011C137.187 103.164 137.63 103.147 137.911 102.985L140.919 101.235C141.2 101.065 141.217 100.81 140.962 100.666Z" fill="#24126A"/>
<path d="M145.938 103.529L142.709 101.668C142.453 101.516 142.01 101.533 141.729 101.694L138.721 103.444C138.44 103.605 138.423 103.86 138.679 104.013L141.908 105.874C142.164 106.026 142.607 106.009 142.888 105.848L145.895 104.098C146.185 103.937 146.202 103.682 145.938 103.529Z" fill="#24126A"/>
<path d="M150.922 106.4L147.693 104.54C147.438 104.387 146.995 104.404 146.713 104.565L143.706 106.315C143.424 106.477 143.407 106.732 143.663 106.885L146.892 108.745C147.148 108.898 147.591 108.881 147.872 108.719L150.88 106.969C151.17 106.8 151.187 106.545 150.922 106.4Z" fill="#24126A"/>
<path d="M155.911 109.272L152.681 107.411C152.426 107.258 151.983 107.275 151.702 107.437L148.694 109.187C148.413 109.348 148.396 109.603 148.651 109.756L151.881 111.616C152.136 111.769 152.579 111.752 152.86 111.591L155.868 109.841C156.149 109.671 156.175 109.416 155.911 109.272Z" fill="#24126A"/>
<path d="M160.893 112.135L157.664 110.274C157.408 110.121 156.965 110.138 156.684 110.3L153.676 112.05C153.395 112.211 153.378 112.466 153.634 112.619L156.863 114.479C157.119 114.632 157.562 114.615 157.843 114.454L160.851 112.704C161.132 112.542 161.149 112.287 160.893 112.135Z" fill="#24126A"/>
<path d="M165.878 115.006L162.648 113.145C162.393 112.992 161.95 113.009 161.668 113.171L158.661 114.921C158.38 115.082 158.363 115.337 158.618 115.49L161.847 117.35C162.103 117.503 162.546 117.486 162.827 117.325L165.835 115.575C166.116 115.405 166.133 115.15 165.878 115.006Z" fill="#24126A"/>
<path d="M170.86 117.877L167.631 116.017C167.375 115.864 166.932 115.881 166.651 116.042L163.643 117.792C163.362 117.954 163.345 118.209 163.601 118.361L166.83 120.222C167.085 120.375 167.528 120.358 167.81 120.196L170.817 118.446C171.099 118.276 171.116 118.022 170.86 117.877Z" fill="#24126A"/>
<path d="M113.971 90.4124L110.742 88.552C110.486 88.399 110.043 88.416 109.762 88.5774L106.754 90.3274C106.473 90.4888 106.456 90.7437 106.712 90.8966L109.941 92.7571C110.197 92.91 110.64 92.893 110.921 92.7316L113.929 90.9816C114.21 90.8202 114.227 90.5653 113.971 90.4124Z" fill="#24126A"/>
<path d="M109.012 87.5581L105.783 85.6976C105.527 85.5447 105.084 85.5617 104.803 85.7231L101.795 87.4731C101.514 87.6345 101.497 87.8894 101.753 88.0423L104.982 89.9027C105.238 90.0556 105.681 90.0386 105.962 89.8772L108.97 88.1272C109.251 87.9658 109.268 87.711 109.012 87.5581Z" fill="#24126A"/>
<path d="M104.051 84.7036L100.822 82.8432C100.566 82.6903 100.123 82.7073 99.8423 82.8687L96.8345 84.6187C96.5534 84.7801 96.5363 85.0349 96.7919 85.1878L100.021 87.0483C100.277 87.2012 100.72 87.1842 101.001 87.0228L104.009 85.2728C104.29 85.1114 104.307 84.8565 104.051 84.7036Z" fill="#24126A"/>
<path d="M99.0924 81.8493L95.8631 79.9888C95.6075 79.8359 95.1644 79.8529 94.8833 80.0143L91.8756 81.7643C91.5944 81.9257 91.5774 82.1806 91.833 82.3335L95.0622 84.1939C95.3178 84.3468 95.7609 84.3298 96.0421 84.1684L99.0498 82.4184C99.331 82.257 99.348 82.0022 99.0924 81.8493Z" fill="#24126A"/>
<path d="M94.2866 84.6441L91.0574 82.7837C90.8018 82.6308 90.3587 82.6478 90.0775 82.8092L89.0806 83.3869C88.7995 83.5483 88.7824 83.8031 89.038 83.956L92.2673 85.8165C92.5229 85.9694 92.966 85.9524 93.2471 85.791L94.244 85.2133C94.5337 85.0519 94.5508 84.7971 94.2866 84.6441Z" fill="#24126A"/>
<path d="M100.763 88.3735L97.5339 86.5131C97.2783 86.3602 96.8353 86.3772 96.5541 86.5386L95.5572 87.1163C95.276 87.2777 95.259 87.5325 95.5146 87.6854L98.7438 89.5459C98.9994 89.6988 99.4425 89.6818 99.7237 89.5204L100.721 88.9427C101.002 88.7728 101.019 88.518 100.763 88.3735Z" fill="#24126A"/>
<path d="M105.697 91.2194L102.468 89.359C102.212 89.206 101.769 89.223 101.488 89.3844L100.491 89.9621C100.21 90.1235 100.193 90.3784 100.448 90.5313L103.677 92.3917C103.933 92.5446 104.376 92.5277 104.657 92.3663L105.654 91.7886C105.944 91.6187 105.961 91.3638 105.697 91.2194Z" fill="#24126A"/>
<path d="M110.638 94.0568L107.409 92.1963C107.153 92.0434 106.71 92.0604 106.429 92.2218L105.432 92.7995C105.151 92.9609 105.134 93.2158 105.39 93.3687L108.619 95.2291C108.874 95.382 109.318 95.365 109.599 95.2036L110.596 94.626C110.877 94.4646 110.894 94.2097 110.638 94.0568Z" fill="#24126A"/>
<path d="M115.572 96.9027L112.343 95.0422C112.087 94.8893 111.644 94.9063 111.363 95.0677L110.366 95.6454C110.085 95.8068 110.068 96.0617 110.323 96.2146L113.552 98.075C113.808 98.2279 114.251 98.2109 114.532 98.0495L115.529 97.4719C115.819 97.302 115.836 97.0471 115.572 96.9027Z" fill="#24126A"/>
<path d="M143.144 112.772L139.915 110.911C139.659 110.758 139.216 110.775 138.935 110.937L137.938 111.514C137.657 111.676 137.64 111.931 137.895 112.084L141.125 113.944C141.38 114.097 141.823 114.08 142.105 113.918L143.101 113.341C143.383 113.171 143.4 112.916 143.144 112.772Z" fill="#24126A"/>
<path d="M148.08 115.609L144.85 113.749C144.595 113.596 144.152 113.613 143.871 113.774L142.874 114.352C142.592 114.513 142.575 114.768 142.831 114.921L146.06 116.781C146.316 116.934 146.759 116.917 147.04 116.756L148.037 116.178C148.327 116.017 148.344 115.762 148.08 115.609Z" fill="#24126A"/>
<path d="M153.017 118.455L149.788 116.594C149.532 116.442 149.089 116.459 148.808 116.62L147.811 117.198C147.53 117.359 147.513 117.614 147.768 117.767L150.998 119.627C151.253 119.78 151.696 119.763 151.978 119.602L152.975 119.024C153.256 118.854 153.273 118.599 153.017 118.455Z" fill="#24126A"/>
<path d="M157.953 121.292L154.723 119.432C154.468 119.279 154.025 119.296 153.744 119.457L152.747 120.035C152.465 120.196 152.448 120.451 152.704 120.604L155.933 122.465C156.189 122.617 156.632 122.6 156.913 122.439L157.91 121.861C158.2 121.7 158.217 121.445 157.953 121.292Z" fill="#24126A"/>
<path d="M118.946 93.2838L115.717 91.4234C115.461 91.2704 115.018 91.2874 114.737 91.4488L111.729 93.1988C111.448 93.3602 111.431 93.6151 111.686 93.768L114.916 95.6285C115.171 95.7814 115.614 95.7644 115.896 95.603L118.903 93.853C119.193 93.6831 119.21 93.4282 118.946 93.2838Z" fill="#24126A"/>
<path d="M123.928 96.1551L120.699 94.2947C120.443 94.1418 120 94.1588 119.719 94.3202L116.712 96.0702C116.43 96.2316 116.413 96.4864 116.669 96.6394L119.898 98.4998C120.154 98.6527 120.597 98.6357 120.878 98.4743L123.886 96.7243C124.175 96.5544 124.192 96.2995 123.928 96.1551Z" fill="#24126A"/>
<path d="M128.915 99.018L125.685 97.1576C125.43 97.0047 124.987 97.0217 124.706 97.1831L121.698 98.9331C121.417 99.0945 121.4 99.3493 121.655 99.5022L124.884 101.363C125.14 101.516 125.583 101.499 125.864 101.337L128.872 99.5872C129.153 99.4258 129.179 99.1709 128.915 99.018Z" fill="#24126A"/>
<path d="M133.901 101.889L130.672 100.029C130.416 99.876 129.973 99.893 129.692 100.054L126.684 101.804C126.403 101.966 126.386 102.221 126.642 102.374L129.871 104.234C130.126 104.387 130.569 104.37 130.851 104.209L133.858 102.459C134.14 102.289 134.157 102.034 133.901 101.889Z" fill="#24126A"/>
<path d="M138.883 104.761L135.654 102.9C135.399 102.747 134.955 102.764 134.674 102.926L131.667 104.676C131.385 104.837 131.368 105.092 131.624 105.245L134.853 107.105C135.109 107.258 135.552 107.241 135.833 107.08L138.841 105.33C139.122 105.16 139.139 104.905 138.883 104.761Z" fill="#24126A"/>
<path d="M143.87 107.624L140.64 105.763C140.385 105.61 139.942 105.627 139.661 105.789L136.653 107.539C136.372 107.7 136.355 107.955 136.61 108.108L139.84 109.968C140.095 110.121 140.538 110.104 140.819 109.943L143.827 108.193C144.108 108.031 144.125 107.776 143.87 107.624Z" fill="#24126A"/>
<path d="M148.852 110.495L145.623 108.635C145.367 108.482 144.924 108.499 144.643 108.66L141.635 110.41C141.354 110.571 141.337 110.826 141.593 110.979L144.822 112.84C145.078 112.993 145.521 112.976 145.802 112.814L148.81 111.064C149.091 110.894 149.108 110.639 148.852 110.495Z" fill="#24126A"/>
<path d="M153.827 113.366L150.598 111.506C150.342 111.353 149.899 111.37 149.618 111.531L146.61 113.281C146.329 113.443 146.312 113.698 146.567 113.851L149.797 115.711C150.052 115.864 150.495 115.847 150.776 115.685L153.784 113.935C154.074 113.766 154.091 113.511 153.827 113.366Z" fill="#24126A"/>
<path d="M158.811 116.229L155.582 114.369C155.326 114.216 154.883 114.233 154.602 114.394L151.594 116.144C151.313 116.306 151.296 116.56 151.552 116.713L154.781 118.574C155.037 118.727 155.48 118.71 155.761 118.548L158.769 116.798C159.058 116.637 159.075 116.382 158.811 116.229Z" fill="#24126A"/>
<path d="M118.715 77.2789L109.215 71.808C108.959 71.6551 108.516 71.6721 108.235 71.8335L105.227 73.5835C104.946 73.7449 104.929 73.9998 105.185 74.1527L114.685 79.6235C114.94 79.7765 115.383 79.7595 115.665 79.5981L118.672 77.8481C118.954 77.6781 118.971 77.4233 118.715 77.2789Z" fill="#24126A"/>
<path d="M170.691 101.193L167.462 99.3323C167.206 99.1794 166.763 99.1964 166.482 99.3578L162.895 101.448C162.614 101.609 162.597 101.864 162.852 102.017L166.082 103.877C166.337 104.03 166.78 104.013 167.062 103.852L170.649 101.762C170.938 101.601 170.955 101.346 170.691 101.193Z" fill="#24126A"/>
<path d="M134.504 80.3626L129.341 77.3893C129.085 77.2364 128.642 77.2534 128.361 77.4148L124.774 79.5046C124.493 79.666 124.476 79.9209 124.731 80.0738L129.895 83.0471C130.15 83.2 130.593 83.183 130.875 83.0216L134.462 80.9318C134.743 80.7704 134.76 80.5155 134.504 80.3626Z" fill="#24126A"/>
<path d="M165.893 98.4318L160.73 95.4585C160.474 95.3056 160.031 95.3226 159.75 95.484L156.163 97.5738C155.881 97.7352 155.864 97.9901 156.12 98.143L161.283 101.116C161.539 101.269 161.982 101.252 162.263 101.091L165.85 99.001C166.132 98.8396 166.149 98.5847 165.893 98.4318Z" fill="#24126A"/>
<path d="M141.696 84.5083L136.532 81.535C136.277 81.3821 135.834 81.399 135.553 81.5605L131.965 83.6503C131.684 83.8117 131.667 84.0665 131.923 84.2194L137.086 87.1927C137.342 87.3456 137.785 87.3287 138.066 87.1672L141.653 85.0774C141.934 84.9075 141.951 84.6527 141.696 84.5083Z" fill="#24126A"/>
<path d="M131.965 84.2364L154.399 97.1491C154.68 97.3105 155.115 97.319 155.379 97.1661L159.034 95.0338C159.298 94.8809 159.281 94.626 159.009 94.4646L136.566 81.552L131.965 84.2364Z" fill="#24126A"/>
</g>
<path d="M0.230469 116.119L5.77729 119.007L61.4328 86.9719C62.3616 86.4367 63.9889 86.5046 65.0625 87.1248L161.054 142.377C161.974 141.868 166.158 139.854 166.158 139.854L164.13 143.15L164.121 143.142C164.036 143.38 163.857 143.592 163.55 143.77L104.938 177.513C104.009 178.048 102.382 177.98 101.308 177.36L3.08482 120.817C2.64176 120.562 2.3691 120.256 2.25834 119.942L2.24981 119.95L0.230469 116.119Z" fill="url(#paint4_linear)"/>
<path d="M1.08263 117.036L101.752 174.982C102.851 175.619 104.521 175.687 105.475 175.135L165.544 140.551C166.499 139.999 166.379 139.039 165.28 138.41L64.6111 80.4646C63.5119 79.8275 61.8419 79.7595 60.8876 80.3117L0.8185 114.895C-0.13579 115.439 -0.016506 116.399 1.08263 117.036Z" fill="url(#paint5_linear)"/>
<path d="M1.08148 116.586L101.751 174.531C102.85 175.169 104.52 175.237 105.474 174.684L165.543 140.101C165.875 139.905 166.071 139.659 166.148 139.395C166.259 139.82 166.063 140.245 165.543 140.551L105.474 175.135C104.52 175.687 102.85 175.619 101.751 174.982L1.08148 117.036C0.365765 116.628 0.0760796 116.076 0.212407 115.592C0.297611 115.94 0.587297 116.297 1.08148 116.586Z" fill="white"/>
<path d="M47.3908 110.614L44.1956 108.77C43.94 108.626 43.9741 108.363 44.2638 108.193L48.0384 106.018C48.3366 105.848 48.7796 105.831 49.0352 105.976L52.2304 107.819C52.486 107.963 52.4519 108.227 52.1623 108.397L48.3877 110.571C48.098 110.741 47.6464 110.767 47.3908 110.614Z" fill="#180D5B"/>
<path d="M52.3225 113.46L49.1273 111.616C48.8717 111.472 48.9057 111.209 49.1954 111.039L52.97 108.864C53.2682 108.694 53.7113 108.677 53.9669 108.821L57.1621 110.665C57.4177 110.809 57.3836 111.073 57.0939 111.243L53.3193 113.417C53.0296 113.587 52.5781 113.604 52.3225 113.46Z" fill="#180D5B"/>
<path d="M57.258 116.297L54.0628 114.454C53.8072 114.309 53.8413 114.046 54.131 113.876L57.9055 111.701C58.2038 111.531 58.6468 111.514 58.9024 111.659L62.0976 113.502C62.3532 113.647 62.3191 113.91 62.0294 114.08L58.2549 116.255C57.9652 116.425 57.5221 116.442 57.258 116.297Z" fill="#180D5B"/>
<path d="M64.09 113.953L60.8949 112.109C60.6393 111.965 60.6733 111.701 60.963 111.531L64.1326 109.705C64.4308 109.535 64.8739 109.518 65.1295 109.662L68.3247 111.506C68.5803 111.65 68.5462 111.914 68.2565 112.084L65.0869 113.91C64.7887 114.08 64.3456 114.097 64.09 113.953Z" fill="#180D5B"/>
<path d="M69.0256 116.79L65.8304 114.946C65.5748 114.802 65.6089 114.539 65.8986 114.369L69.0682 112.542C69.3664 112.372 69.8095 112.355 70.0651 112.5L73.2602 114.343C73.5159 114.488 73.4818 114.751 73.1921 114.921L70.0225 116.747C69.7242 116.917 69.2812 116.943 69.0256 116.79Z" fill="#180D5B"/>
<path d="M73.9572 119.636L70.762 117.792C70.5064 117.648 70.5405 117.385 70.8302 117.215L73.9998 115.388C74.298 115.218 74.7411 115.201 74.9967 115.346L78.1919 117.189C78.4475 117.334 78.4134 117.597 78.1237 117.767L74.9541 119.593C74.6644 119.763 74.2128 119.78 73.9572 119.636Z" fill="#180D5B"/>
<path d="M78.8928 122.473L75.6976 120.63C75.442 120.485 75.4761 120.222 75.7658 120.052L78.9353 118.226C79.2336 118.056 79.6766 118.039 79.9322 118.183L83.1274 120.027C83.383 120.171 83.349 120.434 83.0593 120.604L79.8897 122.431C79.6 122.601 79.1484 122.618 78.8928 122.473Z" fill="#180D5B"/>
<path d="M83.8244 125.311L80.6292 123.467C80.3736 123.323 80.4077 123.059 80.6974 122.889L83.867 121.063C84.1652 120.893 84.6083 120.876 84.8639 121.02L88.0591 122.864C88.3147 123.008 88.2806 123.272 87.9909 123.442L84.8213 125.268C84.5316 125.446 84.0885 125.463 83.8244 125.311Z" fill="#180D5B"/>
<path d="M88.7678 128.156L85.5726 126.313C85.317 126.169 85.3511 125.905 85.6408 125.735L88.8104 123.909C89.1086 123.739 89.5516 123.722 89.8072 123.866L93.0024 125.71C93.258 125.854 93.224 126.118 92.9343 126.287L89.7647 128.114C89.4664 128.284 89.0234 128.301 88.7678 128.156Z" fill="#180D5B"/>
<path d="M93.6994 130.994L90.5042 129.15C90.2486 129.006 90.2827 128.743 90.5724 128.573L93.742 126.746C94.0402 126.576 94.4833 126.559 94.7389 126.704L97.9341 128.547C98.1897 128.692 98.1556 128.955 97.8659 129.125L94.6963 130.951C94.4066 131.121 93.955 131.147 93.6994 130.994Z" fill="#180D5B"/>
<path d="M98.633 133.84L95.4378 131.996C95.1822 131.852 95.2163 131.588 95.506 131.419L98.6756 129.592C98.9738 129.422 99.4169 129.405 99.6725 129.55L102.868 131.393C103.123 131.537 103.089 131.801 102.799 131.971L99.6299 133.797C99.3402 133.967 98.8886 133.984 98.633 133.84Z" fill="#180D5B"/>
<path d="M103.565 136.677L100.369 134.834C100.114 134.689 100.148 134.426 100.438 134.256L103.607 132.429C103.905 132.26 104.349 132.243 104.604 132.387L107.799 134.23C108.055 134.375 108.021 134.638 107.731 134.808L104.562 136.635C104.272 136.805 103.82 136.821 103.565 136.677Z" fill="#180D5B"/>
<path d="M108.51 139.515L105.315 137.671C105.059 137.527 105.093 137.263 105.383 137.093L108.553 135.267C108.851 135.097 109.294 135.08 109.549 135.224L112.745 137.068C113 137.212 112.966 137.476 112.676 137.646L109.507 139.472C109.209 139.65 108.766 139.667 108.51 139.515Z" fill="#180D5B"/>
<path d="M71.3596 112.602L68.1644 110.758C67.9088 110.614 67.9429 110.351 68.2325 110.181L71.4022 108.354C71.7004 108.184 72.1434 108.167 72.3991 108.312L75.5942 110.155C75.8498 110.3 75.8157 110.563 75.526 110.733L72.3565 112.559C72.0668 112.738 71.6152 112.755 71.3596 112.602Z" fill="#180D5B"/>
<path d="M66.3478 109.722L63.1527 107.878C62.8971 107.734 62.9311 107.471 63.2208 107.301L66.3904 105.474C66.6887 105.304 67.1317 105.287 67.3873 105.432L70.5825 107.275C70.8381 107.42 70.804 107.683 70.5143 107.853L67.3447 109.679C67.055 109.849 66.6034 109.866 66.3478 109.722Z" fill="#180D5B"/>
<path d="M61.3302 106.834L54.4456 102.875C54.19 102.73 54.2241 102.467 54.5138 102.297L57.6834 100.471C57.9816 100.301 58.4247 100.284 58.6803 100.428L65.5648 104.387C65.8204 104.531 65.7863 104.795 65.4967 104.965L62.327 106.791C62.0373 106.961 61.5858 106.978 61.3302 106.834Z" fill="#180D5B"/>
<path d="M64.8417 103.325L59.2523 100.114C58.9967 99.9695 59.0307 99.7062 59.3204 99.5363L62.49 97.7098C62.7883 97.5399 63.2313 97.5229 63.4869 97.6673L69.0764 100.878C69.332 101.023 69.2979 101.286 69.0082 101.456L65.8386 103.283C65.5489 103.453 65.0973 103.47 64.8417 103.325Z" fill="#180D5B"/>
<path d="M76.2912 115.448L73.096 113.604C72.8404 113.46 72.8745 113.196 73.1642 113.027L76.3338 111.2C76.632 111.03 77.0751 111.013 77.3307 111.158L80.5259 113.001C80.7815 113.145 80.7474 113.409 80.4577 113.579L77.2881 115.405C76.9984 115.575 76.5468 115.592 76.2912 115.448Z" fill="#180D5B"/>
<path d="M81.2267 118.285L78.0316 116.442C77.776 116.297 77.8101 116.034 78.0997 115.864L81.2694 114.037C81.5676 113.868 82.0106 113.851 82.2662 113.995L85.4614 115.838C85.717 115.983 85.6829 116.246 85.3932 116.416L82.2236 118.243C81.9339 118.412 81.4909 118.438 81.2267 118.285Z" fill="#180D5B"/>
<path d="M86.1682 121.131L82.973 119.288C82.7174 119.143 82.7514 118.88 83.0411 118.71L86.2107 116.883C86.509 116.713 86.952 116.696 87.2077 116.841L90.4028 118.684C90.6584 118.829 90.6243 119.092 90.3346 119.262L87.165 121.088C86.8668 121.258 86.4238 121.275 86.1682 121.131Z" fill="#180D5B"/>
<path d="M91.1017 123.968L87.9066 122.125C87.651 121.98 87.685 121.717 87.9747 121.547L91.1443 119.721C91.4426 119.551 91.8856 119.534 92.1412 119.678L95.3364 121.522C95.592 121.666 95.5579 121.929 95.2682 122.099L92.0986 123.926C91.8089 124.096 91.3574 124.113 91.1017 123.968Z" fill="#180D5B"/>
<path d="M96.0334 126.814L92.8382 124.971C92.5826 124.826 92.6167 124.563 92.9064 124.393L96.076 122.567C96.3742 122.397 96.8173 122.38 97.0729 122.524L100.268 124.368C100.524 124.512 100.49 124.775 100.2 124.945L97.0303 126.772C96.7406 126.942 96.289 126.959 96.0334 126.814Z" fill="#180D5B"/>
<path d="M100.969 129.652L97.7738 127.808C97.5182 127.664 97.5522 127.4 97.8419 127.23L101.012 125.404C101.31 125.234 101.753 125.217 102.008 125.361L105.204 127.205C105.459 127.349 105.425 127.613 105.135 127.783L101.966 129.609C101.676 129.779 101.225 129.796 100.969 129.652Z" fill="#180D5B"/>
<path d="M105.908 132.489L102.713 130.645C102.458 130.501 102.492 130.238 102.781 130.068L105.951 128.241C106.249 128.071 106.692 128.054 106.948 128.199L110.143 130.042C110.399 130.187 110.365 130.45 110.075 130.62L106.905 132.446C106.607 132.625 106.164 132.642 105.908 132.489Z" fill="#180D5B"/>
<path d="M110.842 135.335L107.647 133.491C107.391 133.347 107.425 133.084 107.715 132.914L110.885 131.087C111.183 130.917 111.626 130.9 111.89 131.045L115.085 132.888C115.341 133.033 115.307 133.296 115.017 133.466L111.847 135.292C111.541 135.462 111.098 135.479 110.842 135.335Z" fill="#180D5B"/>
<path d="M115.774 138.172L112.578 136.329C112.323 136.184 112.357 135.921 112.647 135.751L115.816 133.925C116.114 133.755 116.558 133.738 116.813 133.882L120.008 135.726C120.264 135.87 120.23 136.133 119.94 136.303L116.771 138.13C116.481 138.3 116.029 138.325 115.774 138.172Z" fill="#180D5B"/>
<path d="M124.552 143.227L117.582 139.217C117.327 139.073 117.361 138.809 117.651 138.639L120.82 136.813C121.118 136.643 121.561 136.626 121.817 136.77L128.787 140.78C129.042 140.925 129.008 141.188 128.719 141.358L125.549 143.184C125.251 143.354 124.808 143.371 124.552 143.227Z" fill="#180D5B"/>
<path d="M134.154 137.696L128.266 134.307C128.01 134.162 128.044 133.899 128.334 133.729L131.504 131.903C131.802 131.733 132.245 131.716 132.501 131.86L138.388 135.25C138.644 135.394 138.61 135.658 138.32 135.828L135.15 137.654C134.861 137.824 134.418 137.841 134.154 137.696Z" fill="#180D5B"/>
<path d="M84.9416 114.887L81.7464 113.044C81.4908 112.899 81.5249 112.636 81.8146 112.466L84.9842 110.639C85.2824 110.469 85.7255 110.453 85.9896 110.597L89.1848 112.44C89.4404 112.585 89.4063 112.848 89.1166 113.018L85.947 114.844C85.6403 115.023 85.1972 115.04 84.9416 114.887Z" fill="#180D5B"/>
<path d="M79.8791 111.982L76.6839 110.138C76.4283 109.994 76.4624 109.73 76.7521 109.561L79.9217 107.734C80.2199 107.564 80.663 107.547 80.9186 107.692L84.1138 109.535C84.3694 109.679 84.3353 109.943 84.0456 110.113L80.876 111.939C80.5863 112.109 80.1347 112.126 79.8791 111.982Z" fill="#180D5B"/>
<path d="M74.8185 109.068L71.6234 107.224C71.3678 107.08 71.4018 106.817 71.6915 106.647L74.8611 104.82C75.1594 104.65 75.6024 104.633 75.858 104.778L79.0532 106.621C79.3088 106.766 79.2747 107.029 78.9851 107.199L75.8154 109.025C75.5258 109.195 75.0742 109.212 74.8185 109.068Z" fill="#180D5B"/>
<path d="M69.7678 106.154L66.5726 104.311C66.317 104.166 66.3511 103.903 66.6408 103.733L69.8104 101.906C70.1086 101.737 70.5516 101.72 70.8073 101.864L74.0024 103.707C74.258 103.852 74.2239 104.115 73.9342 104.285L70.7646 106.112C70.4664 106.281 70.0234 106.307 69.7678 106.154Z" fill="#180D5B"/>
<path d="M89.8732 117.733L86.6781 115.889C86.4225 115.745 86.4565 115.482 86.7462 115.312L89.9158 113.485C90.214 113.315 90.6571 113.298 90.9127 113.443L94.1079 115.286C94.3635 115.431 94.3294 115.694 94.0397 115.864L90.8701 117.69C90.5719 117.86 90.1288 117.877 89.8732 117.733Z" fill="#180D5B"/>
<path d="M94.8088 120.57L91.6136 118.727C91.358 118.582 91.3921 118.319 91.6818 118.149L94.8514 116.323C95.1496 116.153 95.5927 116.136 95.8483 116.28L99.0434 118.124C99.299 118.268 99.265 118.531 98.9753 118.701L95.8057 120.528C95.516 120.698 95.0644 120.723 94.8088 120.57Z" fill="#180D5B"/>
<path d="M99.7404 123.416L96.5453 121.573C96.2896 121.428 96.3237 121.165 96.6134 120.995L99.783 119.169C100.081 118.999 100.524 118.982 100.78 119.126L103.975 120.97C104.231 121.114 104.197 121.377 103.907 121.547L100.737 123.374C100.448 123.544 99.996 123.561 99.7404 123.416Z" fill="#180D5B"/>
<path d="M104.676 126.254L101.481 124.41C101.225 124.266 101.259 124.002 101.549 123.832L104.719 122.006C105.017 121.836 105.46 121.819 105.715 121.963L108.911 123.807C109.166 123.951 109.132 124.215 108.842 124.385L105.673 126.211C105.383 126.381 104.94 126.398 104.676 126.254Z" fill="#180D5B"/>
<path d="M109.615 129.091L106.42 127.247C106.165 127.103 106.199 126.84 106.488 126.67L109.658 124.843C109.956 124.673 110.399 124.656 110.655 124.801L113.85 126.644C114.106 126.789 114.072 127.052 113.782 127.222L110.612 129.048C110.314 129.227 109.871 129.244 109.615 129.091Z" fill="#180D5B"/>
<path d="M114.549 131.937L111.354 130.093C111.098 129.949 111.132 129.686 111.422 129.516L114.592 127.689C114.89 127.519 115.333 127.502 115.589 127.647L118.784 129.49C119.039 129.635 119.005 129.898 118.715 130.068L115.546 131.894C115.256 132.064 114.805 132.081 114.549 131.937Z" fill="#180D5B"/>
<path d="M119.481 134.774L116.285 132.931C116.03 132.786 116.064 132.523 116.354 132.353L119.523 130.527C119.821 130.357 120.265 130.34 120.52 130.484L123.715 132.328C123.971 132.472 123.937 132.735 123.647 132.905L120.478 134.732C120.188 134.91 119.736 134.927 119.481 134.774Z" fill="#180D5B"/>
<path d="M124.416 137.62L121.221 135.777C120.965 135.632 121 135.369 121.289 135.199L124.459 133.372C124.757 133.203 125.2 133.186 125.456 133.33L128.651 135.173C128.906 135.318 128.872 135.581 128.583 135.751L125.413 137.578C125.123 137.747 124.672 137.764 124.416 137.62Z" fill="#180D5B"/>
<path d="M129.358 140.457L126.162 138.614C125.907 138.47 125.941 138.206 126.231 138.036L129.4 136.21C129.698 136.04 130.141 136.023 130.397 136.167L133.592 138.011C133.848 138.155 133.814 138.419 133.524 138.588L130.354 140.415C130.056 140.585 129.613 140.61 129.358 140.457Z" fill="#180D5B"/>
<path d="M82.342 107.862L79.1468 106.018C78.8912 105.874 78.9253 105.61 79.215 105.44L82.3846 103.614C82.6828 103.444 83.1259 103.427 83.3815 103.571L86.5766 105.415C86.8322 105.559 86.7982 105.823 86.5085 105.993L83.3389 107.819C83.0407 107.989 82.5976 108.014 82.342 107.862Z" fill="#180D5B"/>
<path d="M77.426 105.041L74.2308 103.198C73.9752 103.053 74.0093 102.79 74.299 102.62L77.4686 100.794C77.7668 100.624 78.2098 100.607 78.4655 100.751L81.6606 102.595C81.9162 102.739 81.8822 103.002 81.5925 103.172L78.4229 104.999C78.1332 105.169 77.6816 105.186 77.426 105.041Z" fill="#180D5B"/>
<path d="M72.5178 102.212L69.3226 100.369C69.067 100.224 69.1011 99.961 69.3908 99.7911L72.5604 97.9646C72.8586 97.7947 73.3016 97.7777 73.5572 97.9221L76.7524 99.7656C77.008 99.91 76.974 100.173 76.6843 100.343L73.5147 102.17C73.225 102.34 72.7734 102.357 72.5178 102.212Z" fill="#180D5B"/>
<path d="M67.6096 99.3833L64.4144 97.5399C64.1588 97.3955 64.1929 97.1321 64.4825 96.9622L67.6522 95.1357C67.9504 94.9658 68.3934 94.9488 68.6491 95.0933L71.8442 96.9367C72.0998 97.0811 72.0657 97.3445 71.776 97.5144L68.6064 99.3408C68.3082 99.5107 67.8652 99.5277 67.6096 99.3833Z" fill="#180D5B"/>
<path d="M72.6564 96.478L69.4613 94.6345C69.2056 94.4901 69.2397 94.2268 69.5294 94.0568L70.5774 93.4537C70.8757 93.2838 71.3187 93.2668 71.5743 93.4112L74.7695 95.2547C75.0251 95.3991 74.991 95.6624 74.7014 95.8323L73.6533 96.4355C73.3636 96.6054 72.912 96.6224 72.6564 96.478Z" fill="#180D5B"/>
<path d="M79.0607 100.165L75.8656 98.3214C75.61 98.177 75.644 97.9137 75.9337 97.7438L76.9817 97.1406C77.28 96.9707 77.723 96.9537 77.9786 97.0981L81.1738 98.9416C81.4294 99.086 81.3953 99.3494 81.1056 99.5193L80.0576 100.122C79.7679 100.292 79.3163 100.309 79.0607 100.165Z" fill="#180D5B"/>
<path d="M83.9514 102.977L80.7562 101.133C80.5006 100.989 80.5346 100.726 80.8243 100.556L81.8724 99.9525C82.1706 99.7826 82.6137 99.7656 82.8693 99.91L86.0644 101.753C86.3201 101.898 86.286 102.161 85.9963 102.331L84.9483 102.934C84.6586 103.113 84.207 103.13 83.9514 102.977Z" fill="#180D5B"/>
<path d="M88.8439 105.797L85.6488 103.954C85.3931 103.809 85.4272 103.546 85.7169 103.376L86.7649 102.773C87.0632 102.603 87.5062 102.586 87.7618 102.73L90.957 104.574C91.2126 104.718 91.1785 104.982 90.8889 105.152L89.8408 105.755C89.5511 105.925 89.0995 105.942 88.8439 105.797Z" fill="#180D5B"/>
<path d="M93.7346 108.609L90.5394 106.766C90.2838 106.621 90.3179 106.358 90.6075 106.188L91.6556 105.585C91.9538 105.415 92.3968 105.398 92.6524 105.542L95.8476 107.386C96.1032 107.53 96.0692 107.794 95.7795 107.963L94.7314 108.567C94.4417 108.736 93.9902 108.762 93.7346 108.609Z" fill="#180D5B"/>
<path d="M121.033 124.325L117.838 122.482C117.583 122.337 117.617 122.074 117.906 121.904L118.954 121.301C119.253 121.131 119.696 121.114 119.951 121.258L123.146 123.102C123.402 123.246 123.368 123.51 123.078 123.679L122.03 124.283C121.741 124.453 121.289 124.478 121.033 124.325Z" fill="#180D5B"/>
<path d="M125.924 127.145L122.729 125.302C122.473 125.158 122.507 124.894 122.797 124.724L123.845 124.121C124.143 123.951 124.586 123.934 124.842 124.079L128.037 125.922C128.293 126.067 128.259 126.33 127.969 126.5L126.921 127.103C126.631 127.273 126.18 127.29 125.924 127.145Z" fill="#180D5B"/>
<path d="M130.815 129.957L127.619 128.114C127.364 127.97 127.398 127.706 127.688 127.536L128.736 126.933C129.034 126.763 129.477 126.746 129.733 126.891L132.928 128.734C133.183 128.878 133.149 129.142 132.86 129.312L131.812 129.915C131.522 130.085 131.07 130.102 130.815 129.957Z" fill="#180D5B"/>
<path d="M135.703 132.769L132.508 130.926C132.253 130.781 132.287 130.518 132.576 130.348L133.624 129.745C133.923 129.575 134.366 129.558 134.621 129.703L137.816 131.546C138.072 131.69 138.038 131.954 137.748 132.124L136.7 132.727C136.411 132.897 135.959 132.922 135.703 132.769Z" fill="#180D5B"/>
<path d="M87.2736 110.707L84.0784 108.864C83.8228 108.719 83.8569 108.456 84.1466 108.286L87.3162 106.46C87.6144 106.29 88.0575 106.273 88.3131 106.417L91.5083 108.261C91.7639 108.405 91.7298 108.669 91.4401 108.838L88.2705 110.665C87.9723 110.835 87.5292 110.852 87.2736 110.707Z" fill="#180D5B"/>
<path d="M92.2092 113.545L89.014 111.701C88.7584 111.557 88.7925 111.294 89.0822 111.124L92.2518 109.297C92.55 109.127 92.9931 109.11 93.2487 109.255L96.4438 111.098C96.6994 111.243 96.6653 111.506 96.3757 111.676L93.206 113.502C92.9164 113.672 92.4648 113.689 92.2092 113.545Z" fill="#180D5B"/>
<path d="M97.1428 116.391L93.9476 114.547C93.692 114.403 93.7261 114.139 94.0158 113.97L97.1854 112.143C97.4836 111.973 97.9266 111.956 98.1823 112.101L101.377 113.944C101.633 114.088 101.599 114.352 101.309 114.522L98.1396 116.348C97.8499 116.518 97.3984 116.535 97.1428 116.391Z" fill="#180D5B"/>
<path d="M102.074 119.228L98.8792 117.385C98.6236 117.24 98.6577 116.977 98.9474 116.807L102.117 114.98C102.415 114.811 102.858 114.794 103.114 114.938L106.309 116.781C106.565 116.926 106.531 117.189 106.241 117.359L103.071 119.186C102.782 119.355 102.339 119.372 102.074 119.228Z" fill="#180D5B"/>
<path d="M107.018 122.065L103.823 120.222C103.567 120.078 103.601 119.814 103.891 119.644L107.06 117.818C107.359 117.648 107.802 117.631 108.066 117.775L111.261 119.619C111.517 119.763 111.482 120.027 111.193 120.196L108.023 122.023C107.716 122.201 107.273 122.218 107.018 122.065Z" fill="#180D5B"/>
<path d="M111.949 124.911L108.754 123.068C108.499 122.923 108.533 122.66 108.822 122.49L111.992 120.664C112.29 120.494 112.733 120.477 112.989 120.621L116.184 122.465C116.44 122.609 116.406 122.872 116.116 123.042L112.946 124.869C112.657 125.039 112.205 125.056 111.949 124.911Z" fill="#180D5B"/>
<path d="M116.885 127.749L113.69 125.905C113.434 125.761 113.468 125.497 113.758 125.328L116.928 123.501C117.226 123.331 117.669 123.314 117.924 123.459L121.12 125.302C121.375 125.446 121.341 125.71 121.051 125.88L117.882 127.706C117.592 127.876 117.141 127.902 116.885 127.749Z" fill="#180D5B"/>
<path d="M121.817 130.595L118.621 128.751C118.366 128.607 118.4 128.343 118.69 128.173L121.859 126.347C122.157 126.177 122.6 126.16 122.856 126.304L126.051 128.148C126.307 128.292 126.273 128.556 125.983 128.726L122.813 130.552C122.524 130.722 122.072 130.739 121.817 130.595Z" fill="#180D5B"/>
<path d="M126.758 133.432L123.563 131.588C123.307 131.444 123.341 131.181 123.631 131.011L126.801 129.184C127.099 129.014 127.542 128.997 127.797 129.142L130.993 130.985C131.248 131.13 131.214 131.393 130.924 131.563L127.755 133.389C127.457 133.559 127.014 133.576 126.758 133.432Z" fill="#180D5B"/>
<path d="M59.056 111.056L49.641 105.636C49.3853 105.491 49.4194 105.228 49.7091 105.058L52.8787 103.232C53.1769 103.062 53.62 103.045 53.8756 103.189L63.2907 108.609C63.5463 108.754 63.5122 109.017 63.2225 109.187L60.0529 111.013C59.7632 111.183 59.3117 111.2 59.056 111.056Z" fill="#180D5B"/>
<path d="M119.689 145.954L110.274 140.534C110.018 140.389 110.052 140.126 110.342 139.956L113.512 138.13C113.81 137.96 114.253 137.943 114.508 138.087L123.924 143.507C124.179 143.652 124.145 143.915 123.855 144.085L120.686 145.911C120.396 146.09 119.944 146.107 119.689 145.954Z" fill="#180D5B"/>
<path d="M99.9533 140.874L96.7581 139.03C96.5025 138.886 96.5366 138.622 96.8263 138.453L100.601 136.278C100.899 136.108 101.342 136.091 101.598 136.235L104.793 138.079C105.049 138.223 105.014 138.487 104.725 138.656L100.95 140.831C100.652 141.001 100.209 141.018 99.9533 140.874Z" fill="#180D5B"/>
<path d="M64.1087 120.239L58.9964 117.3C58.7408 117.155 58.7749 116.892 59.0646 116.722L62.8391 114.547C63.1374 114.377 63.5804 114.36 63.836 114.505L68.9483 117.444C69.2039 117.588 69.1698 117.852 68.8801 118.022L65.1056 120.196C64.8159 120.366 64.3728 120.392 64.1087 120.239Z" fill="#180D5B"/>
<path d="M95.1985 138.13L90.0863 135.19C89.8307 135.046 89.8647 134.783 90.1544 134.613L93.929 132.438C94.2272 132.268 94.6703 132.251 94.9259 132.396L100.038 135.335C100.294 135.479 100.26 135.743 99.97 135.913L96.1954 138.087C95.8972 138.266 95.4541 138.283 95.1985 138.13Z" fill="#180D5B"/>
<path d="M71.2337 124.342L66.1214 121.403C65.8658 121.258 65.8999 120.995 66.1896 120.825L69.9641 118.65C70.2623 118.48 70.7054 118.463 70.961 118.608L76.0733 121.547C76.3289 121.692 76.2948 121.955 76.0051 122.125L72.2306 124.3C71.9409 124.469 71.4893 124.486 71.2337 124.342Z" fill="#180D5B"/>
<path d="M71.0017 118.625L93.223 131.419C93.4957 131.58 93.4957 131.835 93.223 131.996L89.3803 134.213C89.1077 134.375 88.6561 134.375 88.3834 134.213L66.1621 121.42L71.0017 118.625Z" fill="#180D5B"/>
<path d="M113.748 146.022L117.309 148.069C117.522 148.188 117.497 148.4 117.249 148.545L115.707 149.437C115.46 149.573 115.094 149.59 114.889 149.471L111.328 147.423C111.115 147.304 111.14 147.092 111.387 146.948L112.93 146.056C113.168 145.92 113.535 145.903 113.748 146.022Z" fill="#180D5B"/>
<path d="M108.773 143.159L112.335 145.206C112.548 145.325 112.522 145.537 112.275 145.682L110.733 146.574C110.486 146.71 110.119 146.727 109.915 146.608L106.353 144.561C106.14 144.442 106.166 144.229 106.413 144.085L107.955 143.193C108.194 143.048 108.56 143.04 108.773 143.159Z" fill="#180D5B"/>
<path d="M103.832 140.313L107.393 142.36C107.606 142.479 107.581 142.692 107.333 142.836L105.791 143.728C105.544 143.864 105.178 143.881 104.973 143.762L101.412 141.715C101.199 141.596 101.224 141.383 101.471 141.239L103.014 140.347C103.261 140.211 103.627 140.194 103.832 140.313Z" fill="#180D5B"/>
<path d="M111.492 141.587L115.053 143.635C115.266 143.754 115.241 143.966 114.994 144.11L113.451 145.002C113.204 145.138 112.838 145.155 112.633 145.036L109.072 142.989C108.859 142.87 108.884 142.658 109.132 142.513L110.674 141.621C110.921 141.485 111.287 141.468 111.492 141.587Z" fill="#180D5B"/>
<path d="M161.847 65.0289C161.608 65.0289 161.344 64.961 161.105 64.8165C160.347 64.3833 159.887 63.3979 160.066 62.6248C160.151 62.251 160.373 61.9707 160.688 61.8348C161.037 61.6818 161.472 61.7328 161.872 61.9622C162.631 62.3954 163.099 63.3809 162.912 64.1539C162.827 64.5277 162.605 64.8081 162.29 64.944C162.145 65.0034 162 65.0289 161.847 65.0289ZM161.122 62.0811C161.012 62.0811 160.909 62.0981 160.816 62.1406C160.603 62.234 160.449 62.4294 160.39 62.7012C160.245 63.3384 160.637 64.1624 161.267 64.5277C161.574 64.7061 161.898 64.7401 162.145 64.6382C162.358 64.5447 162.511 64.3493 162.571 64.0775C162.716 63.4403 162.324 62.6163 161.693 62.251C161.506 62.1406 161.301 62.0811 161.122 62.0811Z" fill="#42E8E0"/>
<path d="M165.912 67.3736C165.665 67.3736 165.409 67.2971 165.171 67.1612C164.412 66.7279 163.944 65.7425 164.131 64.9695C164.216 64.5957 164.438 64.3153 164.753 64.1794C165.102 64.0265 165.537 64.0775 165.937 64.3068C166.704 64.7486 167.164 65.7085 166.977 66.4986C166.892 66.8724 166.67 67.1527 166.355 67.2886C166.219 67.3396 166.065 67.3736 165.912 67.3736ZM165.188 64.4258C165.077 64.4258 164.975 64.4427 164.881 64.4852C164.668 64.5787 164.515 64.7741 164.455 65.0459C164.31 65.683 164.702 66.5071 165.333 66.8724C165.639 67.0508 165.955 67.0847 166.21 66.9828C166.423 66.8894 166.577 66.694 166.636 66.4221C166.781 65.785 166.389 64.961 165.75 64.5957C165.571 64.4767 165.375 64.4258 165.188 64.4258Z" fill="#42E8E0"/>
<path d="M170.881 68.7923C170.719 69.4974 170.02 69.7522 169.321 69.3529C168.623 68.9537 168.197 68.0532 168.359 67.3481C168.52 66.643 169.219 66.3881 169.918 66.7874C170.616 67.1867 171.051 68.0872 170.881 68.7923Z" fill="#42E8E0"/>
<path d="M92.8563 24.0314L90.6836 22.7741L90.8455 21.7716L93.0267 23.0204L92.8563 24.0314Z" fill="#42E8E0"/>
<path d="M96.0184 25.8493L93.8457 24.592L94.0161 23.5896L96.1888 24.8469L96.0184 25.8493Z" fill="#42E8E0"/>
<path d="M89.7206 22.2219L84.9492 19.4779L85.1196 18.4755L89.8911 21.2194L89.7206 22.2219Z" fill="#42E8E0"/>
<path d="M136.924 85.6213C136.379 85.6213 135.816 85.4684 135.279 85.1541L104.981 67.7135C103.149 66.6601 102.126 64.1116 102.697 62.0387C102.987 61.0023 103.618 60.2378 104.478 59.881C105.313 59.5412 106.267 59.6346 107.162 60.1443L137.461 77.5849C139.293 78.6383 140.315 81.1868 139.744 83.2596C139.455 84.2961 138.824 85.0606 137.963 85.4174C137.631 85.5533 137.282 85.6213 136.924 85.6213ZM105.518 60.0254C105.202 60.0254 104.896 60.0849 104.606 60.2038C103.848 60.5181 103.285 61.1977 103.021 62.1322C102.484 64.0691 103.439 66.4392 105.143 67.4247L135.441 84.8652C136.242 85.324 137.086 85.4089 137.827 85.1116C138.585 84.7973 139.148 84.1176 139.412 83.1832C139.949 81.2463 138.994 78.8761 137.29 77.8907L106.992 60.4502C106.506 60.1698 106.003 60.0254 105.518 60.0254Z" fill="#42E8E0"/>
<path d="M73.166 69.1237V100.496C73.1745 101.176 73.592 101.821 74.4356 102.314L100.576 117.368C102.459 118.447 105.748 118.319 107.921 117.062C109.139 116.357 109.744 115.456 109.719 114.607V83.2256L73.166 69.1237Z" fill="url(#paint6_linear)"/>
<path opacity="0.3" d="M102.535 117.988C104.29 118.251 106.378 117.937 107.92 117.053C109.139 116.348 109.743 115.448 109.718 114.598V83.2171L102.671 80.4986H102.544V117.988H102.535V117.988Z" fill="#24126A"/>
<path d="M100.577 85.995L74.4363 70.9416C72.5533 69.8542 72.7919 67.9683 74.9646 66.7195C77.1373 65.4707 80.4262 65.3348 82.3093 66.4137L108.45 81.4586C110.333 82.546 110.094 84.4319 107.922 85.6807C105.749 86.938 102.46 87.0739 100.577 85.995Z" fill="url(#paint7_linear)"/>
<path opacity="0.2" d="M100.577 129.72L74.4363 114.666C72.5533 113.579 72.7919 111.693 74.9646 110.444C77.1373 109.195 80.4262 109.059 82.3093 110.138L108.45 125.192C110.333 126.279 110.094 128.165 107.922 129.414C105.749 130.663 102.46 130.798 100.577 129.72Z" fill="#24126A"/>
<path d="M103.184 83.9731C101.94 83.9731 100.926 82.9622 100.926 81.7219V67.7814C100.926 63.0241 97.4416 57.001 93.3091 54.6224L87.3107 51.1649C85.7259 50.2559 84.2945 50.0265 83.3828 50.5532C82.4711 51.0799 81.9514 52.4221 81.9514 54.2486V68.1891C81.9514 69.4294 80.9374 70.4404 79.6935 70.4404C78.4495 70.4404 77.4355 69.4294 77.4355 68.1891V54.2486C77.4355 50.7231 78.7477 48.0216 81.1249 46.6539C83.5021 45.2862 86.5013 45.4986 89.5687 47.2656L95.5671 50.7231C101.105 53.9088 105.442 61.4015 105.442 67.7814V81.7219C105.442 82.9622 104.437 83.9731 103.184 83.9731Z" fill="url(#paint8_linear)"/>
<g opacity="0.3">
<path opacity="0.3" d="M229.573 144.706V140.901L228.516 140.314C228.218 142.115 226.096 143.296 224.324 143.543L212.251 150.585L206.976 152.48L190.157 143.823L190.549 143.602C189.109 142.931 188.334 141.402 187.558 140L186.425 140.671L185.752 140.858V144.766C185.752 145.513 186.246 146.261 187.235 146.822L204.088 156.523C206.065 157.662 209.268 157.662 211.245 156.523L228.099 146.822C229.07 146.261 229.564 145.53 229.581 144.8C229.573 144.766 229.573 144.74 229.573 144.706Z" fill="url(#paint9_linear)"/>
<path opacity="0.3" d="M224.325 143.543L212.252 150.585L207.668 152.233V157.381C208.963 157.381 210.258 157.101 211.247 156.532L228.1 146.83C229.071 146.27 229.566 145.539 229.583 144.808C229.583 144.774 229.583 144.74 229.583 144.706V140.901L228.62 140.365H228.517C228.177 142.132 226.081 143.296 224.325 143.543Z" fill="#0F054C"/>
<g opacity="0.3">
<path opacity="0.3" d="M204.08 152.658L187.227 142.956C185.25 141.818 185.25 139.975 187.227 138.836L204.08 129.135C206.057 127.996 209.261 127.996 211.237 129.135L228.091 138.836C230.067 139.975 230.067 141.818 228.091 142.956L211.237 152.658C209.269 153.796 206.057 153.796 204.08 152.658Z" fill="url(#paint10_linear)"/>
</g>
<g opacity="0.3">
<path opacity="0.3" d="M204.08 152.658L187.227 142.956C185.25 141.818 185.25 139.975 187.227 138.836L204.08 129.135C206.057 127.996 209.261 127.996 211.237 129.135L228.091 138.836C230.067 139.975 230.067 141.818 228.091 142.956L211.237 152.658C209.269 153.796 206.057 153.796 204.08 152.658Z" fill="#0F054C"/>
</g>
</g>
<path d="M207.66 141.037C206.509 141.037 205.359 140.782 204.482 140.28L187.628 130.579C186.751 130.078 186.273 129.398 186.273 128.668C186.273 127.937 186.759 127.257 187.628 126.756L204.482 117.055C206.237 116.044 209.083 116.044 210.838 117.055L227.691 126.756C228.569 127.257 229.046 127.937 229.046 128.668C229.046 129.398 228.56 130.078 227.691 130.579L210.838 140.28C209.96 140.782 208.81 141.037 207.66 141.037ZM207.66 116.579C206.561 116.579 205.47 116.817 204.626 117.301L187.773 127.003C186.989 127.453 186.563 128.039 186.563 128.659C186.563 129.279 186.989 129.865 187.773 130.316L204.626 140.017C206.296 140.977 209.015 140.977 210.685 140.017L227.538 130.316C228.322 129.865 228.748 129.279 228.748 128.659C228.748 128.039 228.322 127.453 227.538 127.003L210.685 117.301C209.858 116.825 208.759 116.579 207.66 116.579Z" fill="#42E8E0"/>
<path opacity="0.4" d="M229.575 124.938V119.187L228.518 118.601C228.22 120.402 226.098 121.583 224.326 121.829L212.252 128.871L206.978 130.766L190.159 122.109L190.551 121.888C189.111 121.217 188.336 119.688 187.56 118.286L186.427 118.958L185.754 119.145V124.998C185.754 125.745 186.248 126.493 187.236 127.053L204.09 136.755C206.067 137.893 209.27 137.893 211.247 136.755L228.101 127.053C229.072 126.493 229.566 125.762 229.583 125.032C229.575 125.006 229.575 124.972 229.575 124.938Z" fill="#42E8E0"/>
<path d="M229.573 119.824V116.018L228.517 115.432C228.219 117.233 226.097 118.414 224.325 118.66L212.243 125.703L206.969 127.597L190.149 118.941L190.541 118.72C189.101 118.049 188.326 116.52 187.55 115.118L186.417 115.789L185.744 115.976V119.884C185.744 120.631 186.238 121.379 187.227 121.939L204.08 131.649C206.057 132.788 209.261 132.788 211.237 131.649L228.091 121.948C229.062 121.387 229.556 120.657 229.573 119.926C229.573 119.892 229.573 119.858 229.573 119.824Z" fill="url(#paint11_linear)"/>
<path opacity="0.3" d="M224.326 118.66L212.244 125.703L207.66 127.351V132.499C208.955 132.499 210.25 132.219 211.239 131.649L228.092 121.948C229.064 121.387 229.558 120.657 229.575 119.926C229.575 119.892 229.575 119.858 229.575 119.824V116.018L228.612 115.483H228.51C228.177 117.25 226.081 118.414 224.326 118.66Z" fill="#0F054C"/>
<path d="M190.543 118.72L206.511 109.528C207.141 109.163 208.172 109.163 208.803 109.528L224.497 118.558L224.327 118.66C226.099 118.414 228.221 117.233 228.519 115.432L210.907 105.663L205.787 104.312L201.611 106.759L187.553 115.118C188.328 116.52 189.103 118.049 190.543 118.72Z" fill="url(#paint12_linear)"/>
<path opacity="0.3" d="M207.66 104.813L205.777 104.32L201.602 106.767L187.543 115.126C188.318 116.52 189.094 118.057 190.534 118.728L206.501 109.537C206.816 109.358 207.234 109.265 207.651 109.265V104.813H207.66Z" fill="#0F054C"/>
<path d="M204.08 127.776L187.227 118.074C185.25 116.936 185.25 115.092 187.227 113.954L204.08 104.253C206.057 103.114 209.261 103.114 211.237 104.253L228.091 113.954C230.067 115.092 230.067 116.936 228.091 118.074L211.237 127.776C209.269 128.914 206.057 128.914 204.08 127.776ZM208.809 105.654C208.178 105.289 207.147 105.289 206.517 105.654L189.664 115.356C189.033 115.721 189.033 116.307 189.664 116.672L206.517 126.374C207.147 126.739 208.178 126.739 208.809 126.374L225.662 116.672C226.293 116.307 226.293 115.721 225.662 115.356L208.809 105.654Z" fill="url(#paint13_linear)"/>
<path d="M225.66 115.356L208.807 105.654C208.176 105.289 207.145 105.289 206.515 105.654L189.662 115.356C189.244 115.602 189.099 115.942 189.244 116.256C189.312 116.103 189.457 115.959 189.662 115.831L206.515 106.13C207.145 105.765 208.176 105.765 208.807 106.13L225.66 115.831C225.873 115.95 226.01 116.095 226.078 116.256C226.214 115.942 226.078 115.602 225.66 115.356Z" fill="white"/>
<path d="M228.091 118.074L211.238 127.776C209.261 128.914 206.057 128.914 204.081 127.776L187.227 118.074C186.341 117.564 185.855 116.919 185.762 116.248C185.642 117.072 186.136 117.913 187.227 118.541L204.081 128.251C206.057 129.39 209.261 129.39 211.238 128.251L228.091 118.55C229.182 117.921 229.667 117.072 229.557 116.256C229.463 116.919 228.977 117.573 228.091 118.074Z" fill="white"/>
<path d="M204.558 127.505L187.704 117.803C185.992 116.818 185.992 115.212 187.704 114.227L204.558 104.525C206.27 103.54 209.057 103.54 210.761 104.525L227.614 114.227C229.327 115.212 229.327 116.818 227.614 117.795L210.761 127.496C209.048 128.49 206.27 128.49 204.558 127.505ZM209.278 105.383C208.383 104.865 206.926 104.865 206.032 105.383L189.178 115.085C188.284 115.603 188.284 116.436 189.178 116.954L206.032 126.655C206.926 127.173 208.383 127.173 209.278 126.655L226.132 116.954C227.026 116.436 227.026 115.603 226.132 115.085L209.278 105.383Z" fill="url(#paint14_linear)"/>
<path opacity="0.4" d="M208.808 105.654C208.177 105.289 207.146 105.289 206.516 105.654L189.662 115.356C189.032 115.721 189.032 116.307 189.662 116.672L206.516 126.374C207.146 126.739 208.177 126.739 208.808 126.374L225.661 116.672C226.292 116.307 226.292 115.721 225.661 115.356L208.808 105.654Z" fill="#42E8E0"/>
<path opacity="0.9" d="M210.337 110.423C210.337 110.967 209.894 111.409 209.349 111.409C208.804 111.409 208.361 110.967 208.361 110.423C208.361 109.88 208.804 109.438 209.349 109.438C209.894 109.438 210.337 109.88 210.337 110.423Z" fill="#42E8E0"/>
<path opacity="0.3" d="M197.53 102.625C197.53 102.956 197.257 103.228 196.925 103.228C196.593 103.228 196.32 102.956 196.32 102.625C196.32 102.294 196.593 102.022 196.925 102.022C197.257 102.022 197.53 102.294 197.53 102.625Z" fill="#42E8E0"/>
<path opacity="0.2" d="M201.8 95.7608C201.8 96.1006 201.519 96.3809 201.178 96.3809C200.838 96.3809 200.557 96.1006 200.557 95.7608C200.557 95.421 200.838 95.1407 201.178 95.1407C201.519 95.1407 201.8 95.4125 201.8 95.7608Z" fill="#42E8E0"/>
<path opacity="0.2" d="M219.766 93.5011C219.766 93.7134 219.587 93.8918 219.374 93.8918C219.161 93.8918 218.982 93.7134 218.982 93.5011C218.982 93.2887 219.161 93.1103 219.374 93.1103C219.587 93.1103 219.766 93.2887 219.766 93.5011Z" fill="#42E8E0"/>
<path opacity="0.2" d="M217.93 92.2863C218.386 92.2863 218.756 91.9174 218.756 91.4623C218.756 91.0072 218.386 90.6382 217.93 90.6382C217.473 90.6382 217.104 91.0072 217.104 91.4623C217.104 91.9174 217.473 92.2863 217.93 92.2863Z" fill="#42E8E0"/>
<path opacity="0.2" d="M199.881 94.5205C199.881 94.7414 199.702 94.9198 199.48 94.9198C199.259 94.9198 199.08 94.7414 199.08 94.5205C199.08 94.2996 199.259 94.1212 199.48 94.1212C199.702 94.1212 199.881 94.2996 199.881 94.5205Z" fill="#42E8E0"/>
<path opacity="0.3" d="M199.395 113.72C199.395 114.051 199.122 114.323 198.79 114.323C198.458 114.323 198.186 114.051 198.186 113.72C198.186 113.388 198.458 113.116 198.79 113.116C199.122 113.116 199.395 113.388 199.395 113.72Z" fill="#42E8E0"/>
<path opacity="0.2" d="M203.654 106.847C203.654 107.187 203.373 107.467 203.032 107.467C202.691 107.467 202.41 107.187 202.41 106.847C202.41 106.507 202.691 106.227 203.032 106.227C203.381 106.235 203.654 106.507 203.654 106.847Z" fill="#42E8E0"/>
<path opacity="0.2" d="M201.748 105.615C201.748 105.836 201.569 106.014 201.348 106.014C201.126 106.014 200.947 105.836 200.947 105.615C200.947 105.394 201.126 105.216 201.348 105.216C201.569 105.216 201.748 105.394 201.748 105.615Z" fill="#42E8E0"/>
<path opacity="0.9" d="M207.107 100.628C207.227 101.096 207.704 101.376 208.172 101.257C208.64 101.138 208.921 100.662 208.802 100.195C208.683 99.728 208.206 99.4476 207.738 99.5666C207.269 99.694 206.988 100.161 207.107 100.628Z" fill="#42E8E0"/>
<path opacity="0.3" d="M216.404 91.1224C216.48 91.4112 216.77 91.5811 217.059 91.5132C217.349 91.4367 217.519 91.1479 217.451 90.859C217.374 90.5702 217.085 90.4003 216.795 90.4683C216.506 90.5362 216.336 90.8336 216.404 91.1224Z" fill="#42E8E0"/>
<path opacity="0.2" d="M211.223 86.1443C211.299 86.4416 211.598 86.62 211.896 86.5435C212.194 86.4671 212.364 86.1697 212.296 85.8724C212.228 85.5751 211.921 85.3967 211.623 85.4731C211.325 85.5496 211.146 85.8469 211.223 86.1443Z" fill="#42E8E0"/>
<path opacity="0.2" d="M195.263 88.1406C195.314 88.3275 195.501 88.4379 195.689 88.3954C195.876 88.3445 195.987 88.1576 195.944 87.9707C195.893 87.7838 195.706 87.6734 195.518 87.7243C195.331 87.7668 195.22 87.9537 195.263 88.1406Z" fill="#42E8E0"/>
<path opacity="0.2" d="M195.688 86.1612C195.79 86.552 196.182 86.7899 196.573 86.6879C196.965 86.586 197.204 86.1952 197.101 85.8044C196.999 85.4136 196.607 85.1758 196.216 85.2777C195.824 85.3797 195.586 85.7704 195.688 86.1612Z" fill="#42E8E0"/>
<path opacity="0.2" d="M212.595 84.6576C212.646 84.8445 212.833 84.9634 213.021 84.9124C213.208 84.8615 213.327 84.6746 213.276 84.4877C213.225 84.3008 213.038 84.1819 212.851 84.2328C212.663 84.2838 212.552 84.4707 212.595 84.6576Z" fill="#42E8E0"/>
<path opacity="0.2" d="M216.837 114.102C216.675 114.238 216.428 114.221 216.283 114.059C216.147 113.898 216.164 113.652 216.326 113.507C216.487 113.371 216.734 113.388 216.879 113.55C217.024 113.711 216.998 113.957 216.837 114.102Z" fill="#42E8E0"/>
<path opacity="0.2" d="M217.741 112.003C217.392 112.292 216.872 112.25 216.583 111.91C216.293 111.562 216.336 111.044 216.677 110.755C217.026 110.466 217.545 110.508 217.835 110.848C218.133 111.196 218.09 111.715 217.741 112.003Z" fill="#42E8E0"/>
<path opacity="0.3" d="M216.488 109.999C216.318 110.245 216.369 110.576 216.616 110.746C216.863 110.916 217.195 110.865 217.366 110.619C217.536 110.372 217.485 110.041 217.238 109.871C216.999 109.701 216.659 109.761 216.488 109.999Z" fill="#42E8E0"/>
<path opacity="0.2" d="M217.46 103.698C217.764 103.664 217.983 103.392 217.95 103.089C217.917 102.786 217.643 102.567 217.339 102.6C217.035 102.633 216.816 102.905 216.849 103.209C216.882 103.512 217.156 103.731 217.46 103.698Z" fill="#42E8E0"/>
<path opacity="0.2" d="M218.959 102.922C218.848 103.084 218.882 103.304 219.044 103.415C219.206 103.525 219.427 103.491 219.538 103.33C219.649 103.169 219.615 102.948 219.453 102.837C219.3 102.727 219.078 102.761 218.959 102.922Z" fill="#42E8E0"/>
<g opacity="0.9">
<path opacity="0.9" d="M204.731 120.38C204.85 120.847 205.327 121.127 205.795 121.008C206.263 120.889 206.544 120.414 206.425 119.946C206.306 119.479 205.829 119.199 205.361 119.318C204.892 119.437 204.611 119.913 204.731 120.38Z" fill="#42E8E0"/>
<path opacity="0.9" d="M207.26 115.665C207.345 115.996 207.677 116.192 208.01 116.107C208.342 116.022 208.538 115.69 208.452 115.359C208.367 115.028 208.035 114.832 207.703 114.917C207.371 114.994 207.175 115.334 207.26 115.665Z" fill="#42E8E0"/>
</g>
<path opacity="0.9" d="M210.337 99.2523C210.337 99.796 209.894 100.238 209.349 100.238C208.804 100.238 208.361 99.796 208.361 99.2523C208.361 98.7086 208.804 98.2668 209.349 98.2668C209.894 98.2753 210.337 98.7171 210.337 99.2523Z" fill="#42E8E0"/>
<path opacity="0.3" d="M197.53 91.4623C197.53 91.7936 197.257 92.0654 196.925 92.0654C196.593 92.0654 196.32 91.7936 196.32 91.4623C196.32 91.131 196.593 90.8591 196.925 90.8591C197.257 90.8591 197.53 91.131 197.53 91.4623Z" fill="#42E8E0"/>
<path opacity="0.2" d="M201.8 84.5896C201.8 84.9295 201.519 85.2098 201.178 85.2098C200.838 85.2098 200.557 84.9295 200.557 84.5896C200.557 84.2498 200.838 83.9695 201.178 83.9695C201.519 83.978 201.8 84.2498 201.8 84.5896Z" fill="#42E8E0"/>
<path opacity="0.2" d="M219.766 82.3384C219.766 82.5508 219.587 82.7292 219.374 82.7292C219.161 82.7292 218.982 82.5508 218.982 82.3384C218.982 82.126 219.161 81.9476 219.374 81.9476C219.587 81.9476 219.766 82.126 219.766 82.3384Z" fill="#42E8E0"/>
<path opacity="0.2" d="M217.93 81.1236C218.386 81.1236 218.756 80.7547 218.756 80.2996C218.756 79.8445 218.386 79.4756 217.93 79.4756C217.473 79.4756 217.104 79.8445 217.104 80.2996C217.104 80.7547 217.473 81.1236 217.93 81.1236Z" fill="#42E8E0"/>
<path opacity="0.2" d="M199.881 83.3578C199.881 83.5787 199.702 83.7571 199.48 83.7571C199.259 83.7571 199.08 83.5787 199.08 83.3578C199.08 83.137 199.259 82.9586 199.48 82.9586C199.702 82.9586 199.881 83.137 199.881 83.3578Z" fill="#42E8E0"/>
<path opacity="0.3" d="M199.395 102.557C199.395 102.888 199.122 103.16 198.79 103.16C198.458 103.16 198.186 102.888 198.186 102.557C198.186 102.226 198.458 101.954 198.79 101.954C199.122 101.945 199.395 102.217 199.395 102.557Z" fill="#42E8E0"/>
<path opacity="0.2" d="M203.654 95.6843C203.654 96.0241 203.373 96.3045 203.032 96.3045C202.691 96.3045 202.41 96.0241 202.41 95.6843C202.41 95.3445 202.691 95.0642 203.032 95.0642C203.381 95.0642 203.654 95.3445 203.654 95.6843Z" fill="#42E8E0"/>
<path opacity="0.2" d="M201.748 94.4441C201.748 94.6649 201.569 94.8433 201.348 94.8433C201.126 94.8433 200.947 94.6649 200.947 94.4441C200.947 94.2232 201.126 94.0448 201.348 94.0448C201.569 94.0533 201.748 94.2317 201.748 94.4441Z" fill="#42E8E0"/>
<path opacity="0.9" d="M207.107 89.4658C207.227 89.9331 207.704 90.2134 208.172 90.0945C208.64 89.9755 208.921 89.4998 208.802 89.0326C208.683 88.5653 208.206 88.285 207.738 88.4039C207.269 88.5229 206.988 88.9986 207.107 89.4658Z" fill="#42E8E0"/>
<path opacity="0.3" d="M216.404 79.9597C216.48 80.2486 216.77 80.4185 217.059 80.3505C217.349 80.2741 217.519 79.9852 217.451 79.6964C217.374 79.4076 217.085 79.2376 216.795 79.3056C216.506 79.3736 216.336 79.6709 216.404 79.9597Z" fill="#42E8E0"/>
<path opacity="0.2" d="M211.223 74.9816C211.299 75.2789 211.598 75.4573 211.896 75.3809C212.194 75.3044 212.364 75.0071 212.296 74.7098C212.219 74.4124 211.921 74.2425 211.623 74.3105C211.325 74.387 211.146 74.6843 211.223 74.9816Z" fill="#42E8E0"/>
<path opacity="0.2" d="M195.263 76.9779C195.314 77.1648 195.501 77.2752 195.689 77.2243C195.876 77.1733 195.987 76.9864 195.944 76.7995C195.893 76.6126 195.706 76.5022 195.518 76.5447C195.331 76.6041 195.22 76.791 195.263 76.9779Z" fill="#42E8E0"/>
<path opacity="0.2" d="M195.688 74.9986C195.79 75.3893 196.182 75.6272 196.573 75.5253C196.965 75.4233 197.204 75.0325 197.101 74.6418C196.999 74.251 196.607 74.0131 196.216 74.1151C195.824 74.2085 195.586 74.6078 195.688 74.9986Z" fill="#42E8E0"/>
<path opacity="0.2" d="M212.595 73.4949C212.646 73.6818 212.833 73.8007 213.021 73.7498C213.208 73.6988 213.327 73.5119 213.276 73.325C213.225 73.1381 213.038 73.0192 212.851 73.0702C212.663 73.1126 212.552 73.308 212.595 73.4949Z" fill="#42E8E0"/>
<path opacity="0.2" d="M216.837 102.931C216.675 103.067 216.428 103.05 216.283 102.888C216.147 102.727 216.164 102.48 216.326 102.336C216.487 102.2 216.734 102.217 216.879 102.378C217.024 102.548 216.998 102.795 216.837 102.931Z" fill="#42E8E0"/>
<path opacity="0.2" d="M217.741 100.841C217.392 101.13 216.872 101.087 216.583 100.747C216.293 100.399 216.336 99.8809 216.677 99.592C217.026 99.3032 217.545 99.3457 217.835 99.6855C218.133 100.025 218.09 100.543 217.741 100.841Z" fill="#42E8E0"/>
<path opacity="0.3" d="M216.488 98.836C216.318 99.0823 216.369 99.4137 216.616 99.5836C216.863 99.7535 217.195 99.7025 217.366 99.4561C217.536 99.2098 217.485 98.8785 217.238 98.7086C216.999 98.5302 216.659 98.5896 216.488 98.836Z" fill="#42E8E0"/>
<path opacity="0.2" d="M216.941 91.6746C216.763 91.921 216.822 92.2608 217.069 92.4392C217.316 92.6176 217.665 92.5581 217.836 92.3117C218.014 92.0654 217.955 91.7256 217.708 91.5472C217.461 91.3688 217.12 91.4282 216.941 91.6746Z" fill="#42E8E0"/>
<path opacity="0.2" d="M218.959 91.7595C218.848 91.9209 218.882 92.1418 219.044 92.2522C219.206 92.3627 219.427 92.3287 219.538 92.1673C219.649 92.0059 219.615 91.785 219.453 91.6746C219.3 91.5641 219.078 91.5981 218.959 91.7595Z" fill="#42E8E0"/>
<g opacity="0.9">
<path opacity="0.9" d="M204.731 109.217C204.85 109.684 205.327 109.965 205.795 109.846C206.263 109.727 206.544 109.251 206.425 108.784C206.306 108.317 205.829 108.036 205.361 108.155C204.892 108.274 204.611 108.75 204.731 109.217Z" fill="#42E8E0"/>
<path opacity="0.9" d="M207.26 104.494C207.345 104.825 207.677 105.02 208.01 104.936C208.342 104.851 208.538 104.519 208.452 104.188C208.367 103.857 208.035 103.661 207.703 103.746C207.371 103.831 207.175 104.162 207.26 104.494Z" fill="#42E8E0"/>
</g>
<defs>
<linearGradient id="paint0_linear" x1="163.077" y1="145.89" x2="-2.94406" y2="145.89" gradientUnits="userSpaceOnUse">
<stop stop-color="#201A6D"/>
<stop offset="0.1779" stop-color="#25357E"/>
<stop offset="0.3876" stop-color="#2B528F"/>
<stop offset="0.6134" stop-color="#306CA0"/>
<stop offset="0.849" stop-color="#3696B7"/>
<stop offset="1" stop-color="#3DD0D3"/>
</linearGradient>
<linearGradient id="paint1_linear" x1="166.149" y1="152.913" x2="0.0193989" y2="129.842" gradientUnits="userSpaceOnUse">
<stop stop-color="#C0BFF6"/>
<stop offset="1" stop-color="#E8E8FD"/>
</linearGradient>
<linearGradient id="paint2_linear" x1="229.958" y1="95.8323" x2="64.0312" y2="95.8323" gradientUnits="userSpaceOnUse">
<stop stop-color="#5761D7"/>
<stop offset="0.1779" stop-color="#5C66D9"/>
<stop offset="0.3876" stop-color="#6A73DF"/>
<stop offset="0.6134" stop-color="#8289E8"/>
<stop offset="0.849" stop-color="#A3A7F5"/>
<stop offset="1" stop-color="#BCBEFF"/>
</linearGradient>
<linearGradient id="paint3_linear" x1="174.212" y1="91.3129" x2="8.19044" y2="91.3129" gradientUnits="userSpaceOnUse">
<stop stop-color="#C0BFF6"/>
<stop offset="0.2938" stop-color="#C5C4F7"/>
<stop offset="0.6399" stop-color="#D3D2F9"/>
<stop offset="1" stop-color="#E9E9FD"/>
</linearGradient>
<linearGradient id="paint4_linear" x1="0.000816366" y1="115.959" x2="166.128" y2="140.738" gradientUnits="userSpaceOnUse">
<stop stop-color="#3ED7D6"/>
<stop offset="0.1779" stop-color="#3587B0"/>
<stop offset="0.3876" stop-color="#306B9F"/>
<stop offset="0.6134" stop-color="#2B5390"/>
<stop offset="0.849" stop-color="#25327C"/>
<stop offset="1" stop-color="#20196D"/>
</linearGradient>
<linearGradient id="paint5_linear" x1="166.149" y1="139.32" x2="0.018713" y2="116.677" gradientUnits="userSpaceOnUse">
<stop stop-color="#C0BFF6"/>
<stop offset="1" stop-color="#E8E8FC"/>
</linearGradient>
<linearGradient id="paint6_linear" x1="77.7434" y1="93.611" x2="114.297" y2="93.611" gradientUnits="userSpaceOnUse">
<stop stop-color="#3586B0"/>
<stop offset="0.1443" stop-color="#2F689D"/>
<stop offset="0.3696" stop-color="#2A4C8C"/>
<stop offset="0.6461" stop-color="#25327C"/>
<stop offset="0.873" stop-color="#222272"/>
</linearGradient>
<linearGradient id="paint7_linear" x1="73.2775" y1="69.2355" x2="109.886" y2="83.7517" gradientUnits="userSpaceOnUse">
<stop stop-color="#E7E7FC"/>
<stop offset="1" stop-color="#C0BFF6"/>
</linearGradient>
<linearGradient id="paint8_linear" x1="64.1478" y1="59.7404" x2="129.46" y2="70.9905" gradientUnits="userSpaceOnUse">
<stop stop-color="#3485AF"/>
<stop offset="1" stop-color="#212071"/>
</linearGradient>
<linearGradient id="paint9_linear" x1="190.106" y1="133.331" x2="224.826" y2="153.437" gradientUnits="userSpaceOnUse">
<stop stop-color="#BCBEFF"/>
<stop offset="0.2271" stop-color="#AAADF8"/>
<stop offset="0.6802" stop-color="#7C83E5"/>
<stop offset="1" stop-color="#5761D7"/>
</linearGradient>
<linearGradient id="paint10_linear" x1="185.747" y1="140.897" x2="229.572" y2="140.897" gradientUnits="userSpaceOnUse">
<stop stop-color="#E9E9FD"/>
<stop offset="0.3601" stop-color="#D3D2F9"/>
<stop offset="0.7062" stop-color="#C5C4F7"/>
<stop offset="1" stop-color="#C0BFF6"/>
</linearGradient>
<linearGradient id="paint11_linear" x1="190.107" y1="108.452" x2="224.827" y2="128.557" gradientUnits="userSpaceOnUse">
<stop stop-color="#BCBEFF"/>
<stop offset="0.2271" stop-color="#AAADF8"/>
<stop offset="0.6802" stop-color="#7C83E5"/>
<stop offset="1" stop-color="#5761D7"/>
</linearGradient>
<linearGradient id="paint12_linear" x1="192.196" y1="107.104" x2="223.159" y2="125.034" gradientUnits="userSpaceOnUse">
<stop offset="0.2421" stop-color="#5761D7"/>
<stop offset="0.3923" stop-color="#7A82E5"/>
<stop offset="0.5463" stop-color="#979CF0"/>
<stop offset="0.7" stop-color="#ACAFF8"/>
<stop offset="0.8519" stop-color="#B8BAFD"/>
<stop offset="1" stop-color="#BCBEFF"/>
</linearGradient>
<linearGradient id="paint13_linear" x1="185.747" y1="116.018" x2="229.572" y2="116.018" gradientUnits="userSpaceOnUse">
<stop stop-color="#E9E9FD"/>
<stop offset="0.3601" stop-color="#D3D2F9"/>
<stop offset="0.7062" stop-color="#C5C4F7"/>
<stop offset="1" stop-color="#C0BFF6"/>
</linearGradient>
<linearGradient id="paint14_linear" x1="186.42" y1="116.019" x2="228.9" y2="116.019" gradientUnits="userSpaceOnUse">
<stop stop-color="#E9E9FD"/>
<stop offset="0.3601" stop-color="#D3D2F9"/>
<stop offset="0.7062" stop-color="#C5C4F7"/>
<stop offset="1" stop-color="#C0BFF6"/>
</linearGradient>
</defs>
</svg>
