<svg id="edit" xmlns="http://www.w3.org/2000/svg" width="59.997" height="60" viewBox="0 0 59.997 60">
  <path id="Контур_282" data-name="Контур 282" d="M12.645,42.906a1.261,1.261,0,0,1-.885-.365,1.249,1.249,0,0,1-.342-1.127l1.767-8.838a1.225,1.225,0,0,1,.342-.64L32.973,12.491a3.757,3.757,0,0,1,5.3,0l3.535,3.535a3.753,3.753,0,0,1,0,5.3L22.365,40.774a1.243,1.243,0,0,1-.64.342l-8.838,1.767A1.327,1.327,0,0,1,12.645,42.906Zm2.92-9.472L14.24,40.061l6.627-1.325L40.045,19.559a1.251,1.251,0,0,0,0-1.767L36.51,14.256a1.251,1.251,0,0,0-1.768,0Zm5.918,6.455h.025Z" transform="translate(17.09 17.094)"/>
  <path id="Контур_283" data-name="Контур 283" d="M23.75,48H6.25A6.255,6.255,0,0,1,0,41.75V9.25A6.255,6.255,0,0,1,6.25,3h5a1.25,1.25,0,1,1,0,2.5h-5A3.755,3.755,0,0,0,2.5,9.25v32.5A3.755,3.755,0,0,0,6.25,45.5h17.5a1.25,1.25,0,1,1,0,2.5Z" transform="translate(0 4.5)"/>
  <path id="Контур_284" data-name="Контур 284" d="M23.25,25.5A1.25,1.25,0,0,1,22,24.25v-15A3.755,3.755,0,0,0,18.25,5.5h-5a1.25,1.25,0,1,1,0-2.5h5A6.255,6.255,0,0,1,24.5,9.25v15A1.25,1.25,0,0,1,23.25,25.5Z" transform="translate(18 4.5)"/>
  <path id="Контур_285" data-name="Контур 285" d="M22.75,15h-15A3.755,3.755,0,0,1,4,11.25v-5A1.25,1.25,0,0,1,5.25,5H9.125a6.252,6.252,0,0,1,12.25,0H25.25A1.25,1.25,0,0,1,26.5,6.25v5A3.755,3.755,0,0,1,22.75,15ZM6.5,7.5v3.75A1.254,1.254,0,0,0,7.75,12.5h15A1.254,1.254,0,0,0,24,11.25V7.5H20.25A1.25,1.25,0,0,1,19,6.25a3.75,3.75,0,1,0-7.5,0A1.25,1.25,0,0,1,10.25,7.5Z" transform="translate(6)"/>
  <path id="Контур_286" data-name="Контур 286" d="M29.25,10.5h-25a1.25,1.25,0,1,1,0-2.5h25a1.25,1.25,0,1,1,0,2.5Z" transform="translate(4.5 12)"/>
  <path id="Контур_287" data-name="Контур 287" d="M29.25,13.5h-25a1.25,1.25,0,1,1,0-2.5h25a1.25,1.25,0,1,1,0,2.5Z" transform="translate(4.5 16.5)"/>
  <path id="Контур_288" data-name="Контур 288" d="M29.25,16.5h-25a1.25,1.25,0,1,1,0-2.5h25a1.25,1.25,0,1,1,0,2.5Z" transform="translate(4.5 21)"/>
</svg>
