<svg xmlns="http://www.w3.org/2000/svg" width="50" height="50" viewBox="0 0 50 50">
  <g id="Сгруппировать_163" data-name="Сгруппировать 163" transform="translate(-588 -303)">
    <rect id="Прямоугольник_269" data-name="Прямоугольник 269" width="50" height="50" rx="25" transform="translate(588 303)" fill="#fff" opacity="0.1"/>
    <g id="profit_2_" data-name="profit (2)" transform="translate(600.208 314.732)">
      <path id="Контур_241" data-name="Контур 241" d="M1,392.25v1.474H11.519V391.5H1.75A.75.75,0,0,0,1,392.25Z" transform="translate(-0.95 -371.461)" fill="#fff"/>
      <path id="Контур_242" data-name="Контур 242" d="M1,467.524a.75.75,0,0,0,.75.75h9.769V466H1Z" transform="translate(-0.95 -442.239)" fill="#fff"/>
      <path id="Контур_243" data-name="Контур 243" d="M1.279,187.272l2.493-2.493,1.744,1.744a.75.75,0,0,0,1.06,0l2.468-2.468v.439a.75.75,0,0,0,1.5,0v-2.248a.751.751,0,0,0-.675-.746c-.071-.007-.228,0-2.273,0a.75.75,0,1,0,0,1.5h.389l-1.938,1.938L4.3,183.189a.75.75,0,0,0-1.06,0L.219,186.212a.75.75,0,0,0,1.06,1.06Z" transform="translate(0 -171.95)" fill="#fff"/>
      <path id="Контур_244" data-name="Контур 244" d="M262.509,12.518A6.009,6.009,0,1,0,256.5,6.509,6.016,6.016,0,0,0,262.509,12.518ZM260.45,8.351a.75.75,0,0,1,1.038-.217,1.328,1.328,0,0,0,.983.254.712.712,0,0,0,.712-.6.5.5,0,0,0-.376-.6,6.2,6.2,0,0,1-1.713-.827,1.878,1.878,0,0,1,.632-3.142V3.107a.75.75,0,1,1,1.5,0v.063a2.156,2.156,0,0,1,.954.554.75.75,0,0,1-1.016,1.1.827.827,0,0,0-.759-.242c-.471.073-.562.521-.154.745a7.4,7.4,0,0,0,1.057.443,2.106,2.106,0,0,1-.081,3.982v.157a.75.75,0,0,1-1.5,0V9.839a2.717,2.717,0,0,1-1.059-.451A.75.75,0,0,1,260.45,8.351Z" transform="translate(-243.683)" fill="#fff"/>
      <path id="Контур_245" data-name="Контур 245" d="M241.5,317.511h13.517V315.25H241.5Z" transform="translate(-229.432 -299.022)" fill="#fff"/>
      <path id="Контур_246" data-name="Контур 246" d="M241.5,392.761h13.517V390.5H241.5Z" transform="translate(-229.432 -370.511)" fill="#fff"/>
      <path id="Контур_247" data-name="Контур 247" d="M254.268,241.5H242.25a.75.75,0,0,0-.75.75v1.437h13.517V242.25A.75.75,0,0,0,254.268,241.5Z" transform="translate(-229.432 -228.957)" fill="#fff"/>
      <path id="Контур_248" data-name="Контур 248" d="M241.5,467.287a.75.75,0,0,0,.75.75h12.018a.75.75,0,0,0,.75-.75V465.75H241.5Z" transform="translate(-229.432 -442.001)" fill="#fff"/>
    </g>
  </g>
</svg>
