<svg xmlns="http://www.w3.org/2000/svg" width="24" height="22" viewBox="0 0 24 22">
  <g id="business-and-finance_1_" data-name="business-and-finance (1)" transform="translate(0 -1)">
    <path id="Контур_178" data-name="Контур 178" d="M3,11.019a1,1,0,0,1-.709-1.711L9.215,2.388A1,1,0,1,1,10.632,3.8L3.711,10.726A1,1,0,0,1,3,11.019Z" transform="translate(0.004 0.002)" fill="#fff"/>
    <path id="Контур_179" data-name="Контур 179" d="M11.259,6.011a.748.748,0,0,1-.531-.22L7.22,2.283A.751.751,0,0,1,7.752,1h3.508a.752.752,0,0,1,.752.752V5.259a.751.751,0,0,1-.752.752Z" transform="translate(-0.004)" fill="#fff"/>
    <path id="Контур_180" data-name="Контур 180" d="M7.013,15.253v5.763H1V15.253A1.253,1.253,0,0,1,2.253,14H5.76A1.253,1.253,0,0,1,7.013,15.253Z" transform="translate(0.002 -1.022)" fill="#fff"/>
    <path id="Контур_181" data-name="Контур 181" d="M15.013,11.253v9.771H9V11.253A1.253,1.253,0,0,1,10.253,10H13.76A1.253,1.253,0,0,1,15.013,11.253Z" transform="translate(-0.007 -1.031)" fill="#fff"/>
    <path id="Контур_182" data-name="Контур 182" d="M23.013,7.253v13.78H17V7.253A1.253,1.253,0,0,1,18.253,6H21.76A1.253,1.253,0,0,1,23.013,7.253Z" transform="translate(-0.015 -1.039)" fill="#fff"/>
    <path id="Контур_183" data-name="Контур 183" d="M23.25,24H.75a.752.752,0,0,1,0-1.5h22.5a.752.752,0,0,1,0,1.5Z" transform="translate(0 -1.003)" fill="#fff"/>
  </g>
</svg>
