<svg xmlns="http://www.w3.org/2000/svg" width="24" height="24" viewBox="0 0 24 24">
  <g id="teamwork" transform="translate(0.001 0.632)">
    <g id="Сгруппировать_40" data-name="Сгруппировать 40" transform="translate(9.158 -0.632)">
      <g id="Сгруппировать_39" data-name="Сгруппировать 39" transform="translate(0)">
        <circle id="Эллипс_4" data-name="Эллипс 4" cx="3" cy="3" r="3" fill="#fff"/>
      </g>
    </g>
    <g id="Сгруппировать_42" data-name="Сгруппировать 42" transform="translate(7.648 7.413)">
      <g id="Сгруппировать_41" data-name="Сгруппировать 41">
        <path id="Контур_129" data-name="Контур 129" d="M168.7,166.439l-.659-5.129A1.445,1.445,0,0,0,166.6,160H165.8a.73.73,0,0,0-.513.212l-.937.937-.937-.937A.73.73,0,0,0,162.9,160h-.793a1.442,1.442,0,0,0-1.442,1.287l-.66,5.149a.727.727,0,0,0,.719.817h.783l.606,7.4a1.445,1.445,0,0,0,1.443,1.305h1.588a1.45,1.45,0,0,0,1.445-1.318l.6-7.384h.782a.723.723,0,0,0,.544-.247A.714.714,0,0,0,168.7,166.439Z" transform="translate(-160 -160.005)" fill="#fff"/>
      </g>
    </g>
    <g id="Сгруппировать_44" data-name="Сгруппировать 44" transform="translate(16.836 -0.319)">
      <g id="Сгруппировать_43" data-name="Сгруппировать 43" transform="translate(0)">
        <circle id="Эллипс_5" data-name="Эллипс 5" cx="2.961" cy="2.961" r="2.961" fill="#fff"/>
      </g>
    </g>
    <g id="Сгруппировать_46" data-name="Сгруппировать 46" transform="translate(1.45 -0.079)">
      <g id="Сгруппировать_45" data-name="Сгруппировать 45">
        <path id="Контур_130" data-name="Контур 130" d="M34.9,0a2.9,2.9,0,1,0,2.9,2.9A2.9,2.9,0,0,0,34.9,0Z" transform="translate(-31.999 -0.005)" fill="#fff"/>
      </g>
    </g>
    <g id="Сгруппировать_48" data-name="Сгруппировать 48" transform="translate(16.931 7.413)">
      <g id="Сгруппировать_47" data-name="Сгруппировать 47">
        <path id="Контур_131" data-name="Контур 131" d="M363.125,166.439l-.659-5.127a1.444,1.444,0,0,0-1.442-1.307h-.795a.73.73,0,0,0-.513.212l-.937.937-.937-.937a.73.73,0,0,0-.512-.212h-.795a1.384,1.384,0,0,0-.257.048,2.823,2.823,0,0,1,.377,1.091l.657,5.112a2.171,2.171,0,0,1-.531,1.72,2.1,2.1,0,0,1-.719.511l.482,4.718a1.445,1.445,0,0,0,1.443,1.305h1.588a1.45,1.45,0,0,0,1.445-1.318l.6-5.934h.782a.723.723,0,0,0,.544-.247A.714.714,0,0,0,363.125,166.439Z" transform="translate(-356.063 -160.005)" fill="#fff"/>
      </g>
    </g>
    <g id="Сгруппировать_50" data-name="Сгруппировать 50" transform="translate(-0.001 7.413)">
      <g id="Сгруппировать_49" data-name="Сгруппировать 49">
        <path id="Контур_132" data-name="Контур 132" d="M6.344,167.968a2.173,2.173,0,0,1-.525-1.71l.66-5.151a2.682,2.682,0,0,1,.361-1.056A1.365,1.365,0,0,0,6.6,160H5.8a.73.73,0,0,0-.513.212l-.937.937-.937-.937A.73.73,0,0,0,2.9,160H2.107a1.442,1.442,0,0,0-1.442,1.287l-.66,5.149a.727.727,0,0,0,.719.817h.783l.606,5.947a1.445,1.445,0,0,0,1.443,1.305H5.146a1.45,1.45,0,0,0,1.445-1.318l.482-4.707A2.175,2.175,0,0,1,6.344,167.968Z" transform="translate(0.001 -160.005)" fill="#fff"/>
      </g>
    </g>
  </g>
</svg>
