<svg xmlns="http://www.w3.org/2000/svg" width="16" height="17" viewBox="0 0 16 17">
  <g id="Иконка_копировать_" data-name="Иконка (копировать)" transform="translate(1 1)">
    <path id="Контур_167" data-name="Контур 167" d="M6,116.614A2.919,2.919,0,0,1,3.087,113.7v-7.031h-1.2A1.888,1.888,0,0,0,0,108.554v9.26A1.888,1.888,0,0,0,1.886,119.7H10.46a1.888,1.888,0,0,0,1.886-1.886v-1.2Zm0,0" transform="translate(-1 -103.701)" fill="#5cd58e"/>
    <path id="Контур_168" data-name="Контур 168" d="M138.975,1.886A1.886,1.886,0,0,0,137.089,0h-7.2A1.886,1.886,0,0,0,128,1.886V10.46a1.886,1.886,0,0,0,1.886,1.886h7.2a1.886,1.886,0,0,0,1.886-1.886Zm0,0" transform="translate(-123.975 -1)" fill="#5cd58e"/>
  </g>
</svg>
