<svg width="100" height="100" viewBox="0 0 100 100" fill="none" xmlns="http://www.w3.org/2000/svg">
<g filter="url(#filter0_b)">
<rect width="100" height="100" rx="10" fill="white" fill-opacity="0.4"/>
</g>
<g clip-path="url(#clip0)">
<path d="M29.1132 70.4062L20.1522 54.4844C20.0752 54.3491 20.0259 54.1995 20.0077 54.0449C19.9895 53.8903 20.0027 53.7335 20.0463 53.584C20.1347 53.2851 20.3378 53.0333 20.6112 52.8838L29.7841 47.8984C29.7631 47.1279 29.967 46.3674 30.371 45.7109C30.8271 44.9705 31.5078 44.3951 32.3134 44.0674C32.4744 43.8794 32.6503 43.6918 32.8363 43.5068C32.6839 42.5663 32.8749 41.6025 33.3744 40.791C33.9457 39.866 34.8606 39.2055 35.9183 38.9541C35.9183 38.9431 35.912 38.9329 35.91 38.9229C35.7802 38.4085 35.7549 37.874 35.8353 37.3496C35.9157 36.8253 36.1004 36.322 36.3783 35.8701C36.9503 34.9457 37.8648 34.2854 38.9222 34.0332C38.9222 34.0222 38.9159 34.012 38.9139 34.002C38.7836 33.4877 38.7579 32.9522 38.8383 32.4277C38.9186 31.9033 39.1037 31.4008 39.3822 30.9492C39.7514 30.3531 40.2663 29.8609 40.8788 29.5195C41.4913 29.1781 42.181 28.9985 42.8822 28.998C43.6182 28.9989 44.3405 29.1963 44.975 29.5693C44.975 29.5693 48.6842 31.7466 50.9872 33.1006C53.8512 31.5606 55.878 30.4849 55.995 30.4229C56.9421 29.9029 58.0563 29.7782 59.0951 30.0752C59.6109 30.2173 60.0936 30.4603 60.515 30.79C60.9364 31.1198 61.2882 31.5296 61.5502 31.9961C61.9538 32.7075 62.1284 33.5257 62.0502 34.3398C62.3937 34.3475 62.735 34.3996 63.0653 34.4941C63.5933 34.6392 64.0863 34.8893 64.5145 35.2305C64.9427 35.5717 65.2968 35.9963 65.556 36.4785C65.8408 37.0105 66.0008 37.6012 66.0238 38.2041C66.0468 38.807 65.9327 39.4069 65.6893 39.959C66.5792 40.2934 67.3224 40.9305 67.7889 41.7588C68.2584 42.5887 68.4138 43.5601 68.2269 44.4951C68.4963 44.994 68.726 45.513 68.9139 46.0479C69.3062 46.366 69.6349 46.7559 69.8822 47.1963C69.987 47.3806 70.0763 47.5734 70.1493 47.7725L79.1649 53.0889C79.2986 53.1672 79.4154 53.2713 79.5082 53.3955C79.6009 53.5197 79.6678 53.6611 79.705 53.8115C79.7426 53.9618 79.7503 54.1183 79.7269 54.2715C79.7036 54.4246 79.6499 54.5719 79.5692 54.7041L76.6102 59.5527C76.506 59.7242 76.3592 59.8662 76.184 59.9639C76.0087 60.0615 75.8109 60.112 75.6102 60.1104C75.3965 60.1113 75.1867 60.0529 75.0043 59.9414C74.7414 59.78 74.553 59.5205 74.4803 59.2207C74.4077 58.9209 74.4564 58.6047 74.6161 58.3408L76.9574 54.5029L72.8671 52.1025L64.5673 65.6709L68.6532 68.1094L69.142 67.3086C69.2459 67.1368 69.3929 66.9953 69.5682 66.8975C69.7436 66.7996 69.9412 66.7492 70.142 66.751C70.3559 66.75 70.5657 66.8088 70.7479 66.9209C71.0113 67.0818 71.2002 67.3408 71.2733 67.6406C71.3464 67.9405 71.2978 68.2574 71.1381 68.5215L70.0472 70.3086C69.943 70.4802 69.7962 70.6218 69.621 70.7197C69.4457 70.8177 69.248 70.8692 69.0472 70.8682C68.8359 70.869 68.6283 70.8119 68.4471 70.7031L62.3553 67.0703C62.0886 66.9095 61.8964 66.6489 61.8212 66.3467C61.7476 66.0434 61.7974 65.7237 61.9593 65.457L63.1981 63.4316L60.3212 61.7119C58.7341 62.4459 57.0068 62.8275 55.2582 62.8301C53.662 62.8242 52.0812 62.5156 50.6 61.9209C48.7373 62.9012 46.6672 63.4203 44.5624 63.4355C42.6747 63.4355 40.8134 62.9923 39.1283 62.1416L36.1913 63.7646L37.3583 65.832C37.4337 65.9664 37.4817 66.1145 37.4999 66.2676C37.5181 66.4206 37.5061 66.5753 37.4642 66.7236C37.4219 66.8716 37.3504 67.0097 37.2543 67.1299C37.1581 67.25 37.0392 67.35 36.9042 67.4238L30.6874 70.8477C30.5152 70.9424 30.3219 70.9925 30.1254 70.9922C29.92 70.9922 29.7181 70.9379 29.5404 70.835C29.3627 70.7321 29.2154 70.5843 29.1132 70.4062ZM22.766 54.374L30.579 68.2539L34.7504 65.9541L26.9413 52.1094L22.766 54.374ZM28.9813 50.9824L35.0482 61.7354L37.5253 60.3691L32.6971 51.8096L31.7689 51.2637C31.2863 50.9776 30.8677 50.5953 30.5389 50.1406L28.9813 50.9824ZM68.2689 52.7188C68.2629 52.7188 65.5741 54.1191 65.5741 54.1191C65.5571 54.1551 61.9901 59.9893 61.9901 59.9893L64.4139 61.4404L70.85 50.8916L70.163 50.4922C69.833 51.4456 69.158 52.2401 68.2704 52.7197L68.2689 52.7188ZM39.5834 51.1982C39.2194 51.7889 38.7111 52.2773 38.1068 52.6182C37.5025 52.959 36.822 53.1414 36.1283 53.1475L39.973 59.9561C41.4966 60.759 43.201 61.1577 44.9227 61.1143C46.6444 61.0708 48.3258 60.5867 49.807 59.708C49.8135 59.7047 49.8199 59.7013 49.826 59.6973L67.161 50.667C67.565 50.4448 67.8646 50.0715 67.994 49.6289C68.0551 49.4161 68.0735 49.1935 68.0477 48.9736C68.022 48.7537 67.9527 48.5406 67.8441 48.3477C67.7312 48.148 67.5799 47.9728 67.3988 47.832C67.2177 47.6913 67.0103 47.5884 66.7889 47.5283C66.343 47.4013 65.8651 47.4518 65.4559 47.6699L58.9842 50.9775C58.8203 51.062 58.6384 51.1071 58.454 51.1074C58.2386 51.1076 58.0277 51.0472 57.8441 50.9346C57.6605 50.8219 57.5114 50.6608 57.4139 50.4688C57.3442 50.3326 57.3021 50.1838 57.2899 50.0312C57.2777 49.8787 57.2959 49.7257 57.3431 49.5801C57.3903 49.4345 57.4654 49.2999 57.5648 49.1836C57.6642 49.0672 57.7858 48.9717 57.9222 48.9023L65.0643 45.2334C65.2654 45.1238 65.4426 44.9746 65.5858 44.7959C65.729 44.6172 65.8352 44.4125 65.8983 44.1924C65.9599 43.9796 65.9783 43.7561 65.9525 43.5361C65.9268 43.3162 65.857 43.1039 65.7479 42.9111C65.6349 42.7123 65.4838 42.5377 65.3031 42.3975C65.1224 42.2572 64.9159 42.1538 64.6952 42.0938C64.244 41.9649 63.7602 42.0177 63.347 42.2402L56.2743 46.1016C56.1039 46.1961 55.912 46.2462 55.7172 46.2461C55.5075 46.2463 55.3018 46.1898 55.1215 46.083C54.9411 45.9762 54.7928 45.8226 54.6923 45.6387C54.6187 45.5043 54.5725 45.3574 54.556 45.2051C54.5395 45.0528 54.553 44.898 54.5961 44.751C54.6392 44.604 54.7109 44.467 54.807 44.3477C54.9031 44.2283 55.0217 44.1291 55.1561 44.0557L62.7342 39.9189C63.142 39.7097 63.4508 39.3485 63.5936 38.9131C63.7365 38.4776 63.7015 38.0029 63.4969 37.5928C63.3852 37.3868 63.2332 37.2053 63.0497 37.0596C62.8662 36.9139 62.655 36.8073 62.4291 36.7451C61.9745 36.618 61.4882 36.6739 61.0741 36.9004L53.4413 41.0645C53.2701 41.1591 53.0778 41.2085 52.8822 41.209C52.6725 41.209 52.4668 41.1529 52.2865 41.0459C52.1061 40.9389 51.9578 40.7846 51.8573 40.6006C51.7095 40.329 51.6757 40.0105 51.7631 39.7139C51.8504 39.4172 52.0517 39.1667 52.3231 39.0186L58.8231 35.4697C59.0253 35.3611 59.2034 35.2138 59.3475 35.0352C59.4916 34.8565 59.5986 34.6502 59.662 34.4297C59.7242 34.217 59.7429 33.9945 59.7172 33.7744C59.6914 33.5543 59.6217 33.342 59.5121 33.1494C59.3993 32.9501 59.248 32.7745 59.0673 32.6338C58.8865 32.4931 58.6802 32.3897 58.4593 32.3291C58.0046 32.1995 57.5171 32.2555 57.1034 32.4844L57.0902 32.4902L47.0721 37.8965C47.3789 38.3163 47.6008 38.7912 47.7259 39.2959C47.8554 39.8103 47.881 40.3458 47.8007 40.8701C47.7203 41.3944 47.5357 41.8966 47.2582 42.3486C46.7085 43.2525 45.8275 43.9062 44.8031 44.1699C44.8141 44.2079 44.8244 44.2442 44.8334 44.2822C44.9632 44.7966 44.9885 45.3311 44.9081 45.8555C44.8277 46.3798 44.643 46.8831 44.3651 47.335C43.9971 47.9321 43.4823 48.4244 42.8695 48.7656C42.2567 49.1069 41.5665 49.2858 40.8651 49.2842C40.6338 49.2825 40.4031 49.2613 40.1752 49.2217C40.1553 49.9215 39.9517 50.6042 39.5843 51.2002L39.5834 51.1982ZM53.6112 60.3564C55.634 60.7003 57.7136 60.4001 59.557 59.499L61.5673 56.2109L53.6112 60.3564ZM32.3612 46.9268C32.2446 47.1149 32.1665 47.3243 32.1322 47.543C32.0978 47.7616 32.1077 47.9854 32.161 48.2002C32.2157 48.4198 32.314 48.6257 32.4501 48.8066C32.5861 48.9875 32.7572 49.1394 32.953 49.2529L35.1752 50.5684C35.5744 50.805 36.0504 50.8753 36.5013 50.7656C36.9523 50.6559 37.3423 50.375 37.5883 49.9814C37.7045 49.7936 37.7818 49.5836 37.8153 49.3652C37.8488 49.1469 37.8376 48.924 37.7831 48.71C37.7287 48.4898 37.6306 48.283 37.4945 48.1016C37.3584 47.9201 37.1872 47.7681 36.9911 47.6543L34.7714 46.3389C34.4963 46.1773 34.1831 46.0917 33.8641 46.0908C33.5635 46.0914 33.2678 46.169 33.0052 46.3154C32.7426 46.4619 32.5217 46.6723 32.3632 46.9277L32.3612 46.9268ZM35.3612 42.0059C35.2446 42.194 35.167 42.4034 35.1327 42.6221C35.0983 42.8407 35.1078 43.0645 35.161 43.2793C35.2161 43.499 35.3145 43.7055 35.4506 43.8867C35.5866 44.0679 35.7573 44.2198 35.953 44.334L39.953 46.6982C40.352 46.9348 40.8279 47.0058 41.2787 46.8965C41.7295 46.7872 42.1197 46.5063 42.3661 46.1133C42.4822 45.925 42.5596 45.7148 42.5931 45.4961C42.6266 45.2774 42.6154 45.0543 42.5609 44.8398C42.5059 44.6201 42.4079 44.4136 42.2718 44.2324C42.1358 44.0512 41.9646 43.8994 41.7689 43.7852L37.7689 41.4209C37.4966 41.259 37.1858 41.1733 36.869 41.1729C36.5683 41.173 36.2726 41.2496 36.0096 41.3955C35.7467 41.5414 35.5253 41.7518 35.3661 42.0068L35.3612 42.0059ZM38.3612 37.0869C38.2446 37.275 38.1665 37.4845 38.1322 37.7031C38.0978 37.9218 38.1077 38.1456 38.161 38.3604C38.2157 38.58 38.314 38.7859 38.4501 38.9668C38.5861 39.1477 38.7572 39.2996 38.953 39.4131L42.9061 41.749C43.3041 41.9601 43.7671 42.0137 44.2025 41.8984C44.638 41.7831 45.0139 41.5073 45.2552 41.127C45.3715 40.9387 45.4488 40.7294 45.4823 40.5107C45.5158 40.292 45.5046 40.0679 45.4501 39.8535C45.3953 39.6339 45.2971 39.428 45.161 39.2471C45.025 39.0662 44.8539 38.9143 44.6581 38.8008L40.7714 36.501C40.4963 36.3394 40.1831 36.2538 39.8641 36.2529C39.5644 36.2522 39.2694 36.3284 39.0077 36.4746C38.746 36.6209 38.5264 36.8322 38.37 37.0879L38.3612 37.0869ZM41.3612 32.166C41.2446 32.3541 41.1665 32.5636 41.1322 32.7822C41.0978 33.0009 41.1077 33.2247 41.161 33.4395C41.2157 33.6591 41.314 33.865 41.4501 34.0459C41.5861 34.2268 41.7572 34.3787 41.953 34.4922L44.2391 35.8438C44.4752 35.9675 44.7356 36.0376 45.0018 36.0488C45.2681 36.0601 45.5336 36.0126 45.7792 35.9092C45.8852 35.8492 45.991 35.7934 46.099 35.7354C46.2963 35.5999 46.4632 35.4238 46.5883 35.2197C46.7046 35.0319 46.7824 34.8228 46.8168 34.6045C46.8511 34.3862 46.8411 34.1637 46.788 33.9492C46.7329 33.7295 46.6349 33.523 46.4989 33.3418C46.3629 33.1606 46.1916 33.0078 45.996 32.8936L43.7743 31.5811C43.4998 31.418 43.1863 31.3317 42.8671 31.3311C42.5673 31.3303 42.2726 31.4063 42.0111 31.5527C41.7496 31.6992 41.5304 31.911 41.3744 32.167L41.3612 32.166ZM71.6932 63.4355C71.6935 63.1261 71.8162 62.8301 72.035 62.6113C72.2538 62.3925 72.5508 62.2688 72.8602 62.2686C73.1697 62.2688 73.4661 62.3925 73.6849 62.6113C73.9037 62.8301 74.027 63.1261 74.0272 63.4355C74.0271 63.5887 73.9966 63.7404 73.9379 63.8818C73.8791 64.0233 73.7933 64.1516 73.6849 64.2598C73.5766 64.3679 73.448 64.4542 73.3065 64.5127C73.165 64.5712 73.0133 64.6007 72.8602 64.6006C72.5534 64.5974 72.2603 64.4738 72.0443 64.2559C71.8283 64.038 71.7064 63.7434 71.7059 63.4365L71.6932 63.4355Z" fill="#F2CA6B"/>
</g>
<defs>
<filter id="filter0_b" x="-10" y="-10" width="120" height="120" filterUnits="userSpaceOnUse" color-interpolation-filters="sRGB">
<feFlood flood-opacity="0" result="BackgroundImageFix"/>
<feGaussianBlur in="BackgroundImage" stdDeviation="5"/>
<feComposite in2="SourceAlpha" operator="in" result="effect1_backgroundBlur"/>
<feBlend mode="normal" in="SourceGraphic" in2="effect1_backgroundBlur" result="shape"/>
</filter>
<clipPath id="clip0">
<rect width="59.733" height="41.999" fill="white" transform="translate(20 29)"/>
</clipPath>
</defs>
</svg>
