<svg xmlns="http://www.w3.org/2000/svg" width="22" height="22" viewBox="0 0 22 22">
  <g id="Иконка_информация_" data-name="Иконка (информация)" transform="translate(-601 -1171)">
    <g id="Эллипс_1" data-name="Эллипс 1" transform="translate(601 1171)" fill="none" stroke="#fff" stroke-width="2">
      <circle cx="11" cy="11" r="11" stroke="none"/>
      <circle cx="11" cy="11" r="10" fill="none"/>
    </g>
    <g id="info" transform="translate(609.661 1176.707)">
      <path id="Контур_100" data-name="Контур 100" d="M35.676,9.443l-.148.6q-.666.263-1.062.4a2.8,2.8,0,0,1-.921.138,1.839,1.839,0,0,1-1.253-.393,1.272,1.272,0,0,1-.447-1,3.532,3.532,0,0,1,.033-.48q.034-.246.108-.555L32.541,6.2q.074-.282.125-.534a2.323,2.323,0,0,0,.05-.46.711.711,0,0,0-.155-.525.877.877,0,0,0-.593-.148,1.554,1.554,0,0,0-.441.067c-.151.045-.28.088-.388.128l.148-.605q.545-.222,1.043-.38a3.118,3.118,0,0,1,.943-.158,1.794,1.794,0,0,1,1.234.387,1.283,1.283,0,0,1,.434,1c0,.085-.009.236-.03.45a3.012,3.012,0,0,1-.111.592L34.247,7.97a5.191,5.191,0,0,0-.121.539,2.771,2.771,0,0,0-.054.457.658.658,0,0,0,.174.531.982.982,0,0,0,.6.141,1.744,1.744,0,0,0,.457-.071A2.554,2.554,0,0,0,35.676,9.443Zm.14-8.207a1.144,1.144,0,0,1-.386.871,1.315,1.315,0,0,1-.93.36,1.33,1.33,0,0,1-.935-.36,1.141,1.141,0,0,1-.39-.871,1.153,1.153,0,0,1,.39-.874,1.38,1.38,0,0,1,1.865,0A1.155,1.155,0,0,1,35.816,1.236Z" transform="translate(-31.139)" fill="#fff"/>
    </g>
  </g>
</svg>
