<svg xmlns="http://www.w3.org/2000/svg" width="18" height="18" viewBox="0 0 18 18">
  <path id="Иконка_язык_" data-name="Иконка (язык)" d="M17.5,11.961a9,9,0,0,0,0-5.922.648.648,0,0,0-.029-.081,9,9,0,0,0-16.941,0A.639.639,0,0,0,.5,6.039a9,9,0,0,0,0,5.922.648.648,0,0,0,.029.081,9,9,0,0,0,16.941,0A.643.643,0,0,0,17.5,11.961ZM9,16.71c-.343,0-.9-.62-1.357-2.006a14.129,14.129,0,0,1-.531-2.274h3.777a14.141,14.141,0,0,1-.531,2.274C9.9,16.09,9.345,16.71,9,16.71ZM6.957,11.14c-.062-.688-.095-1.406-.095-2.14s.033-1.452.095-2.14h4.09c.062.688.095,1.406.095,2.14s-.033,1.452-.095,2.14ZM1.292,9a7.688,7.688,0,0,1,.3-2.14H5.663c-.06.7-.091,1.422-.091,2.14s.031,1.438.091,2.14H1.594A7.688,7.688,0,0,1,1.292,9ZM9,1.29c.343,0,.9.62,1.357,2.006a14.13,14.13,0,0,1,.531,2.274H7.113A14.128,14.128,0,0,1,7.645,3.3C8.107,1.91,8.659,1.29,9,1.29Zm3.339,5.57h4.068a7.723,7.723,0,0,1,0,4.28H12.341c.06-.7.091-1.422.091-2.14S12.4,7.562,12.341,6.86Zm3.564-1.29H12.193a12.382,12.382,0,0,0-1.175-4.012A7.743,7.743,0,0,1,15.905,5.57ZM6.986,1.558A12.381,12.381,0,0,0,5.811,5.57H2.1A7.744,7.744,0,0,1,6.986,1.558ZM2.1,12.43H5.811a12.383,12.383,0,0,0,1.175,4.012A7.744,7.744,0,0,1,2.1,12.43Zm8.919,4.012a12.381,12.381,0,0,0,1.175-4.012h3.712A7.743,7.743,0,0,1,11.018,16.442Z" transform="translate(-0.002)" fill="#fff"/>
</svg>
