<svg width="264" height="256" viewBox="0 0 264 256" fill="none" xmlns="http://www.w3.org/2000/svg">
<g filter="url(#filter0_b)">
<path d="M143.273 20.685L173.073 2L199.795 16.773L235.19 36.341V77.247L262.461 94.417V164.108L235.19 179.258V214.608L171.556 253.999L143.275 238.344L143.273 20.685Z" fill="white" fill-opacity="0.2"/>
<path d="M120.188 20.685L90.388 2L63.666 16.773L28.271 36.341V77.247L1 94.417V164.108L28.271 179.258V214.608L91.903 253.999L120.184 238.344L120.188 20.685Z" fill="white" fill-opacity="0.2"/>
</g>
<path d="M143.273 20.685L173.073 2L199.795 16.773L235.19 36.341V77.247L262.461 94.417V164.108L235.19 179.258V214.608L171.556 253.999L143.275 238.344L143.273 20.685Z" stroke="#F2CA6B" stroke-width="2" stroke-miterlimit="10"/>
<path d="M205.642 130.525L176.099 111.84V39.37L199.791 16.77" stroke="#F2CA6B" stroke-width="2" stroke-miterlimit="10"/>
<path d="M202.864 94.038L235.185 77.246" stroke="#F2CA6B" stroke-width="2" stroke-miterlimit="10"/>
<path d="M235.185 142.392V179.258" stroke="#F2CA6B" stroke-width="2" stroke-miterlimit="10"/>
<path d="M170.039 215.366L202.865 234.616" stroke="#F2CA6B" stroke-width="2" stroke-miterlimit="10"/>
<path d="M205.642 202.236V166.128L170.042 144.16" stroke="#F2CA6B" stroke-width="2" stroke-miterlimit="10"/>
<path d="M198.74 101.74C201.477 101.74 203.695 99.5216 203.695 96.785C203.695 94.0484 201.477 91.83 198.74 91.83C196.003 91.83 193.785 94.0484 193.785 96.785C193.785 99.5216 196.003 101.74 198.74 101.74Z" fill="#F2CA6B" stroke="#F2CA6B" stroke-width="2" stroke-miterlimit="10"/>
<path d="M209.159 138.962C211.896 138.962 214.114 136.744 214.114 134.007C214.114 131.27 211.896 129.052 209.159 129.052C206.422 129.052 204.204 131.27 204.204 134.007C204.204 136.744 206.422 138.962 209.159 138.962Z" fill="#F2CA6B" stroke="#F2CA6B" stroke-width="2" stroke-miterlimit="10"/>
<path d="M235.185 144.159C237.922 144.159 240.14 141.941 240.14 139.204C240.14 136.467 237.922 134.249 235.185 134.249C232.448 134.249 230.23 136.467 230.23 139.204C230.23 141.941 232.448 144.159 235.185 144.159Z" fill="#F2CA6B" stroke="#F2CA6B" stroke-width="2" stroke-miterlimit="10"/>
<path d="M205.642 212.146C208.379 212.146 210.597 209.928 210.597 207.191C210.597 204.454 208.379 202.236 205.642 202.236C202.905 202.236 200.687 204.454 200.687 207.191C200.687 209.928 202.905 212.146 205.642 212.146Z" fill="#F2CA6B" stroke="#F2CA6B" stroke-width="2" stroke-miterlimit="10"/>
<path d="M166.751 145.419C169.488 145.419 171.706 143.201 171.706 140.464C171.706 137.727 169.488 135.509 166.751 135.509C164.014 135.509 161.796 137.727 161.796 140.464C161.796 143.201 164.014 145.419 166.751 145.419Z" fill="#F2CA6B" stroke="#F2CA6B" stroke-width="2" stroke-miterlimit="10"/>
<path d="M166.167 217.262C168.904 217.262 171.122 215.044 171.122 212.307C171.122 209.57 168.904 207.352 166.167 207.352C163.43 207.352 161.212 209.57 161.212 212.307C161.212 215.044 163.43 217.262 166.167 217.262Z" fill="#F2CA6B" stroke="#F2CA6B" stroke-width="2" stroke-miterlimit="10"/>
<path d="M120.188 20.685L90.388 2L63.666 16.773L28.271 36.341V77.247L1 94.417V164.108L28.271 179.258V214.608L91.903 253.999L120.184 238.344L120.188 20.685Z" stroke="#F2CA6B" stroke-width="2" stroke-miterlimit="10"/>
<path d="M57.819 130.525L87.361 111.839V39.37L63.669 16.77" stroke="#F2CA6B" stroke-width="2" stroke-miterlimit="10"/>
<path d="M60.597 94.038L28.276 77.246" stroke="#F2CA6B" stroke-width="2" stroke-miterlimit="10"/>
<path d="M28.276 142.392V179.258" stroke="#F2CA6B" stroke-width="2" stroke-miterlimit="10"/>
<path d="M93.4219 215.366L60.5959 234.616" stroke="#F2CA6B" stroke-width="2" stroke-miterlimit="10"/>
<path d="M57.819 202.236V166.128L93.419 144.16" stroke="#F2CA6B" stroke-width="2" stroke-miterlimit="10"/>
<path d="M64.72 101.74C67.4566 101.74 69.675 99.5216 69.675 96.785C69.675 94.0484 67.4566 91.83 64.72 91.83C61.9834 91.83 59.765 94.0484 59.765 96.785C59.765 99.5216 61.9834 101.74 64.72 101.74Z" fill="#F2CA6B" stroke="#F2CA6B" stroke-width="2" stroke-miterlimit="10"/>
<path d="M54.3009 138.962C57.0375 138.962 59.2559 136.744 59.2559 134.007C59.2559 131.27 57.0375 129.052 54.3009 129.052C51.5644 129.052 49.3459 131.27 49.3459 134.007C49.3459 136.744 51.5644 138.962 54.3009 138.962Z" fill="#F2CA6B" stroke="#F2CA6B" stroke-width="2" stroke-miterlimit="10"/>
<path d="M28.2749 144.159C31.0115 144.159 33.2299 141.941 33.2299 139.204C33.2299 136.467 31.0115 134.249 28.2749 134.249C25.5384 134.249 23.3199 136.467 23.3199 139.204C23.3199 141.941 25.5384 144.159 28.2749 144.159Z" fill="#F2CA6B" stroke="#F2CA6B" stroke-width="2" stroke-miterlimit="10"/>
<path d="M57.818 212.146C60.5546 212.146 62.773 209.928 62.773 207.191C62.773 204.454 60.5546 202.236 57.818 202.236C55.0815 202.236 52.863 204.454 52.863 207.191C52.863 209.928 55.0815 212.146 57.818 212.146Z" fill="#F2CA6B" stroke="#F2CA6B" stroke-width="2" stroke-miterlimit="10"/>
<path d="M96.709 145.418C99.4456 145.418 101.664 143.2 101.664 140.463C101.664 137.726 99.4456 135.508 96.709 135.508C93.9725 135.508 91.754 137.726 91.754 140.463C91.754 143.2 93.9725 145.418 96.709 145.418Z" fill="#F2CA6B" stroke="#F2CA6B" stroke-width="2" stroke-miterlimit="10"/>
<path d="M97.293 217.262C100.03 217.262 102.248 215.044 102.248 212.307C102.248 209.57 100.03 207.352 97.293 207.352C94.5564 207.352 92.338 209.57 92.338 212.307C92.338 215.044 94.5564 217.262 97.293 217.262Z" fill="#F2CA6B" stroke="#F2CA6B" stroke-width="2" stroke-miterlimit="10"/>
<defs>
<filter id="filter0_b" x="-19" y="-18" width="301.461" height="291.999" filterUnits="userSpaceOnUse" color-interpolation-filters="sRGB">
<feFlood flood-opacity="0" result="BackgroundImageFix"/>
<feGaussianBlur in="BackgroundImage" stdDeviation="10"/>
<feComposite in2="SourceAlpha" operator="in" result="effect1_backgroundBlur"/>
<feBlend mode="normal" in="SourceGraphic" in2="effect1_backgroundBlur" result="shape"/>
</filter>
</defs>
</svg>
