<svg xmlns="http://www.w3.org/2000/svg" width="72" height="72.319" viewBox="0 0 72 72.319">
  <g id="Лого" transform="translate(-145.856 -361.554)">
    <g id="Сгруппировать_92" data-name="Сгруппировать 92" transform="translate(183.749 362.715)">
      <path id="Контур_210" data-name="Контур 210" d="M293.617,367.905l8.277-5.19,7.423,4.1,9.832,5.435v11.363l7.575,4.77v19.359l-7.575,4.208v9.82l-17.675,10.942-7.856-4.349Z" transform="translate(-293.617 -362.715)" fill="none" stroke="#f2ca6b" stroke-miterlimit="10" stroke-width="2"/>
      <path id="Контур_211" data-name="Контур 211" d="M337.589,410.409l-8.206-5.19v-20.13l6.581-6.277" transform="translate(-320.265 -374.707)" fill="none" stroke="#f2ca6b" stroke-miterlimit="10" stroke-width="2"/>
      <line id="Линия_12" data-name="Линия 12" y1="4.664" x2="8.978" transform="translate(16.553 20.902)" fill="none" stroke="#f2ca6b" stroke-miterlimit="10" stroke-width="2"/>
      <line id="Линия_13" data-name="Линия 13" y2="10.24" transform="translate(25.531 38.998)" fill="none" stroke="#f2ca6b" stroke-miterlimit="10" stroke-width="2"/>
      <line id="Линия_14" data-name="Линия 14" x2="9.118" y2="5.347" transform="translate(7.435 59.269)" fill="none" stroke="#f2ca6b" stroke-miterlimit="10" stroke-width="2"/>
      <path id="Контур_212" data-name="Контур 212" d="M332.67,533.74V523.71l-9.89-6.1" transform="translate(-315.345 -478.119)" fill="none" stroke="#f2ca6b" stroke-miterlimit="10" stroke-width="2"/>
      <circle id="Эллипс_8" data-name="Эллипс 8" cx="1.377" cy="1.377" r="1.377" transform="translate(14.031 24.953)" fill="#f2ca6b" stroke="#f2ca6b" stroke-miterlimit="10" stroke-width="2"/>
      <circle id="Эллипс_9" data-name="Эллипс 9" cx="1.377" cy="1.377" r="1.377" transform="translate(16.925 35.292)" fill="#f2ca6b" stroke="#f2ca6b" stroke-miterlimit="10" stroke-width="2"/>
      <circle id="Эллипс_10" data-name="Эллипс 10" cx="1.377" cy="1.377" r="1.377" transform="translate(24.155 36.736)" fill="#f2ca6b" stroke="#f2ca6b" stroke-miterlimit="10" stroke-width="2"/>
      <circle id="Эллипс_11" data-name="Эллипс 11" cx="1.377" cy="1.377" r="1.377" transform="translate(15.948 55.621)" fill="#f2ca6b" stroke="#f2ca6b" stroke-miterlimit="10" stroke-width="2"/>
      <circle id="Эллипс_12" data-name="Эллипс 12" cx="1.377" cy="1.377" r="1.377" transform="translate(5.145 37.086)" fill="#f2ca6b" stroke="#f2ca6b" stroke-miterlimit="10" stroke-width="2"/>
      <circle id="Эллипс_13" data-name="Эллипс 13" cx="1.377" cy="1.377" r="1.377" transform="translate(4.983 57.042)" fill="#f2ca6b" stroke="#f2ca6b" stroke-miterlimit="10" stroke-width="2"/>
    </g>
    <g id="Сгруппировать_93" data-name="Сгруппировать 93" transform="translate(146.856 362.715)">
      <path id="Контур_213" data-name="Контур 213" d="M179.962,367.905l-8.277-5.19-7.423,4.1-9.832,5.435v11.363l-7.575,4.77v19.359l7.575,4.208v9.82l17.675,10.942,7.856-4.349Z" transform="translate(-146.856 -362.715)" fill="none" stroke="#fff" stroke-miterlimit="10" stroke-width="2"/>
      <path id="Контур_214" data-name="Контур 214" d="M208.758,410.409l8.206-5.19v-20.13l-6.581-6.277" transform="translate(-192.976 -374.707)" fill="none" stroke="#fff" stroke-miterlimit="10" stroke-width="2"/>
      <line id="Линия_15" data-name="Линия 15" x1="8.978" y1="4.664" transform="translate(7.575 20.902)" fill="none" stroke="#fff" stroke-miterlimit="10" stroke-width="2"/>
      <line id="Линия_16" data-name="Линия 16" y2="10.24" transform="translate(7.575 38.998)" fill="none" stroke="#fff" stroke-miterlimit="10" stroke-width="2"/>
      <line id="Линия_17" data-name="Линия 17" x1="9.118" y2="5.347" transform="translate(16.553 59.269)" fill="none" stroke="#fff" stroke-miterlimit="10" stroke-width="2"/>
      <path id="Контур_215" data-name="Контур 215" d="M208.758,533.74V523.71l9.89-6.1" transform="translate(-192.976 -478.119)" fill="none" stroke="#fff" stroke-miterlimit="10" stroke-width="2"/>
      <circle id="Эллипс_14" data-name="Эллипс 14" cx="1.377" cy="1.377" r="1.377" transform="translate(16.322 24.953)" fill="#fff" stroke="#fff" stroke-miterlimit="10" stroke-width="2"/>
      <circle id="Эллипс_15" data-name="Эллипс 15" cx="1.377" cy="1.377" r="1.377" transform="translate(13.428 35.292)" fill="#fff" stroke="#fff" stroke-miterlimit="10" stroke-width="2"/>
      <circle id="Эллипс_16" data-name="Эллипс 16" cx="1.377" cy="1.377" r="1.377" transform="translate(6.199 36.736)" fill="#fff" stroke="#fff" stroke-miterlimit="10" stroke-width="2"/>
      <circle id="Эллипс_17" data-name="Эллипс 17" cx="1.377" cy="1.377" r="1.377" transform="translate(14.405 55.621)" fill="#fff" stroke="#fff" stroke-miterlimit="10" stroke-width="2"/>
      <circle id="Эллипс_18" data-name="Эллипс 18" cx="1.377" cy="1.377" r="1.377" transform="translate(25.208 37.086)" fill="#fff" stroke="#fff" stroke-miterlimit="10" stroke-width="2"/>
      <circle id="Эллипс_19" data-name="Эллипс 19" cx="1.377" cy="1.377" r="1.377" transform="translate(25.37 57.042)" fill="#fff" stroke="#fff" stroke-miterlimit="10" stroke-width="2"/>
    </g>
  </g>
</svg>
