<svg xmlns="http://www.w3.org/2000/svg" width="68" height="68" viewBox="0 0 68 68">
  <g id="Иконка_упущенная_приибыль_" data-name="Иконка (упущенная приибыль)" transform="translate(-1340 -410)">
    <rect id="Прямоугольник_149" data-name="Прямоугольник 149" width="68" height="68" rx="34" transform="translate(1340 410)" fill="#728ab3"/>
    <g id="XMLID_90_" transform="translate(1356.698 412.929)">
      <path id="XMLID_91_" d="M11.838,25.151c6.776,0,11.839-2.679,11.839-5.074S18.614,15,11.838,15,0,17.683,0,20.077,5.063,25.151,11.838,25.151Z" transform="translate(-0.001 0)" fill="#fff"/>
      <path id="XMLID_92_" d="M11.838,234.427a24.791,24.791,0,0,0,2.846-.162,13.545,13.545,0,0,1-1.867-3.238c-.325.011-.651.018-.979.018a23.612,23.612,0,0,1-10.324-2.16A13.409,13.409,0,0,1,0,228v1.349C0,231.748,5.063,234.427,11.838,234.427Z" transform="translate(-0.001 -188.981)" fill="#fff"/>
      <path id="XMLID_93_" d="M11.838,174.436h.1a13.6,13.6,0,0,1,0-3.383h-.1a23.612,23.612,0,0,1-10.324-2.16A13.409,13.409,0,0,1,0,168.013v1.349C0,171.757,5.062,174.436,11.838,174.436Z" transform="translate(0 -135.755)" fill="#fff"/>
      <path id="XMLID_102_" d="M11.838,114.444q.5,0,.994-.02a13.55,13.55,0,0,1,2.117-3.533,28.426,28.426,0,0,1-3.111.171A23.612,23.612,0,0,1,1.514,108.9,13.416,13.416,0,0,1,0,108.021v1.349C0,111.765,5.062,114.444,11.838,114.444Z" transform="translate(0 -82.528)" fill="#fff"/>
      <path id="XMLID_103_" d="M136.658,124.5a10.128,10.128,0,0,0-.533,10.314,10.212,10.212,0,0,0,2.151,2.785,10.148,10.148,0,1,0-1.618-13.1Z" transform="translate(-120.659 -93.121)" fill="#fff"/>
    </g>
  </g>
</svg>
