<svg xmlns="http://www.w3.org/2000/svg" width="1011" height="180.641" viewBox="0 0 1011 180.641">
  <g id="Лого" transform="translate(-455 -455.359)">
    <g id="Лого-2" data-name="Лого" transform="translate(556.855 103.285)">
      <g id="Лого-3" data-name="Лого" transform="translate(171.288 -6)">
        <g id="Сгруппировать_92" data-name="Сгруппировать 92" transform="translate(237.184 362.715)">
          <path id="Контур_210" data-name="Контур 210" d="M293.617,374.578l18.918-11.864,16.966,9.38,22.473,12.424V410.49l17.315,10.9v44.249l-17.315,9.619V497.7l-40.4,25.01-17.956-9.94Z" transform="translate(-293.617 -362.715)" fill="none" stroke="#f2ca6b" stroke-miterlimit="10" stroke-width="8"/>
          <path id="Контур_211" data-name="Контур 211" d="M348.14,451.034l-18.758-11.864V393.159l15.042-14.348" transform="translate(-308.541 -369.431)" fill="none" stroke="#f2ca6b" stroke-miterlimit="10" stroke-width="8"/>
          <line id="Линия_12" data-name="Линия 12" y1="10.661" x2="20.521" transform="translate(37.836 47.776)" fill="none" stroke="#f2ca6b" stroke-miterlimit="10" stroke-width="8"/>
          <line id="Линия_13" data-name="Линия 13" y2="23.407" transform="translate(58.357 89.138)" fill="none" stroke="#f2ca6b" stroke-miterlimit="10" stroke-width="8"/>
          <line id="Линия_14" data-name="Линия 14" x2="20.842" y2="12.223" transform="translate(16.994 135.471)" fill="none" stroke="#f2ca6b" stroke-miterlimit="10" stroke-width="8"/>
          <path id="Контур_212" data-name="Контур 212" d="M345.385,554.482V531.556L322.78,517.608" transform="translate(-305.786 -427.347)" fill="none" stroke="#f2ca6b" stroke-miterlimit="10" stroke-width="8"/>
          <circle id="Эллипс_8" data-name="Эллипс 8" cx="3.146" cy="3.146" r="3.146" transform="translate(32.071 57.035)" fill="none" stroke="#f2ca6b" stroke-miterlimit="10" stroke-width="8"/>
          <circle id="Эллипс_9" data-name="Эллипс 9" cx="3.146" cy="3.146" r="3.146" transform="translate(38.686 80.668)" fill="none" stroke="#f2ca6b" stroke-miterlimit="10" stroke-width="8"/>
          <circle id="Эллипс_10" data-name="Эллипс 10" cx="3.146" cy="3.146" r="3.146" transform="translate(55.211 83.968)" fill="none" stroke="#f2ca6b" stroke-miterlimit="10" stroke-width="8"/>
          <circle id="Эллипс_11" data-name="Эллипс 11" cx="3.146" cy="3.146" r="3.146" transform="translate(36.453 127.135)" fill="none" stroke="#f2ca6b" stroke-miterlimit="10" stroke-width="8"/>
          <circle id="Эллипс_12" data-name="Эллипс 12" cx="3.146" cy="3.146" r="3.146" transform="translate(11.761 84.768)" fill="none" stroke="#f2ca6b" stroke-miterlimit="10" stroke-width="8"/>
          <circle id="Эллипс_13" data-name="Эллипс 13" cx="3.146" cy="3.146" r="3.146" transform="translate(11.39 130.383)" fill="none" stroke="#f2ca6b" stroke-miterlimit="10" stroke-width="8"/>
        </g>
        <g id="Сгруппировать_93" data-name="Сгруппировать 93" transform="translate(146.856 362.715)">
          <path id="Контур_213" data-name="Контур 213" d="M222.527,374.578l-18.918-11.864-16.966,9.38L164.17,384.518V410.49l-17.315,10.9v44.249l17.315,9.619V497.7l40.4,25.01,17.956-9.94Z" transform="translate(-146.856 -362.715)" fill="none" stroke="#fff" stroke-miterlimit="10" stroke-width="8"/>
          <path id="Контур_214" data-name="Контур 214" d="M208.758,451.034l18.758-11.864V393.159l-15.042-14.348" transform="translate(-172.686 -369.431)" fill="none" stroke="#fff" stroke-miterlimit="10" stroke-width="8"/>
          <line id="Линия_15" data-name="Линия 15" x1="20.521" y1="10.661" transform="translate(17.315 47.776)" fill="none" stroke="#fff" stroke-miterlimit="10" stroke-width="8"/>
          <line id="Линия_16" data-name="Линия 16" y2="23.407" transform="translate(17.315 89.138)" fill="none" stroke="#fff" stroke-miterlimit="10" stroke-width="8"/>
          <line id="Линия_17" data-name="Линия 17" x1="20.842" y2="12.223" transform="translate(37.836 135.471)" fill="none" stroke="#fff" stroke-miterlimit="10" stroke-width="8"/>
          <path id="Контур_215" data-name="Контур 215" d="M208.758,554.482V531.556l22.605-13.948" transform="translate(-172.686 -427.347)" fill="none" stroke="#fff" stroke-miterlimit="10" stroke-width="8"/>
          <circle id="Эллипс_14" data-name="Эллипс 14" cx="3.146" cy="3.146" r="3.146" transform="translate(37.308 57.035)" fill="none" stroke="#fff" stroke-miterlimit="10" stroke-width="8"/>
          <circle id="Эллипс_15" data-name="Эллипс 15" cx="3.146" cy="3.146" r="3.146" transform="translate(30.693 80.668)" fill="none" stroke="#fff" stroke-miterlimit="10" stroke-width="8"/>
          <circle id="Эллипс_16" data-name="Эллипс 16" cx="3.146" cy="3.146" r="3.146" transform="translate(14.168 83.968)" fill="none" stroke="#fff" stroke-miterlimit="10" stroke-width="8"/>
          <circle id="Эллипс_17" data-name="Эллипс 17" cx="3.146" cy="3.146" r="3.146" transform="translate(32.926 127.134)" fill="none" stroke="#fff" stroke-miterlimit="10" stroke-width="8"/>
          <circle id="Эллипс_18" data-name="Эллипс 18" cx="3.146" cy="3.146" r="3.146" transform="translate(57.618 84.768)" fill="none" stroke="#fff" stroke-miterlimit="10" stroke-width="8"/>
          <circle id="Эллипс_19" data-name="Эллипс 19" cx="3.146" cy="3.146" r="3.146" transform="translate(57.989 130.383)" fill="none" stroke="#fff" stroke-miterlimit="10" stroke-width="8"/>
        </g>
      </g>
      <g id="Smart" transform="translate(-555.33 0.352)">
        <path id="Объединение_1" data-name="Объединение 1" d="M7150.01-4269.287a52.773,52.773,0,0,1-14.535-11.594l15.338-12.151a25.622,25.622,0,0,0,8.537,9.112,20.827,20.827,0,0,0,11.256,3.162,16.041,16.041,0,0,0,5.875-.991,13.41,13.41,0,0,0,4.331-2.667,10.482,10.482,0,0,0,2.659-3.9,12.648,12.648,0,0,0,.865-4.587,7.444,7.444,0,0,0-1.609-4.839,14.039,14.039,0,0,0-4.2-3.409,35.748,35.748,0,0,0-6-2.542q-3.405-1.116-6.99-2.23-4.578-1.49-9.154-3.224a30.355,30.355,0,0,1-8.225-4.65,22.94,22.94,0,0,1-5.938-7.192,22.569,22.569,0,0,1-2.289-10.728,23.525,23.525,0,0,1,2.227-10.167,25.247,25.247,0,0,1,6.248-8.246,29.388,29.388,0,0,1,9.464-5.519,34.8,34.8,0,0,1,12-1.985,44.885,44.885,0,0,1,9.836.991,38.506,38.506,0,0,1,8.04,2.729,34.359,34.359,0,0,1,6.68,4.153,57.884,57.884,0,0,1,5.753,5.271l-13.855,10.539a18.562,18.562,0,0,0-16.329-8.68q-6.187,0-9.4,2.977a9.579,9.579,0,0,0-3.215,7.316,7.121,7.121,0,0,0,1.484,4.587,13.5,13.5,0,0,0,4.019,3.286,33.819,33.819,0,0,0,5.876,2.542l7.05,2.357q4.575,1.488,9.216,3.409a34.264,34.264,0,0,1,8.412,4.959,23.678,23.678,0,0,1,6.123,7.5,23.206,23.206,0,0,1,2.35,10.913,27.012,27.012,0,0,1-2.1,10.416,27.058,27.058,0,0,1-6.061,8.99,30.269,30.269,0,0,1-9.771,6.323,34.2,34.2,0,0,1-13.238,2.419Q7158.484-4264.637,7150.01-4269.287Zm334.4,3.413v-74.405h-24.122V-4356.4h65.19v16.122h-24.246v74.405Zm-44.306,0-14.473-27.656h-15.09v27.656h-16.824V-4356.4h28.945a41.287,41.287,0,0,1,14.288,2.295,30.015,30.015,0,0,1,10.577,6.448,27.778,27.778,0,0,1,6.618,9.921,34.516,34.516,0,0,1,2.289,12.835,31.434,31.434,0,0,1-3.9,15.315,27.16,27.16,0,0,1-11.317,11.1l18.059,32.613Zm-29.563-43.156h10.637a25.378,25.378,0,0,0,8.72-1.3,14.635,14.635,0,0,0,5.691-3.6,13.407,13.407,0,0,0,3.093-5.271,21.158,21.158,0,0,0,.927-6.325q0-6.943-4.391-11.035t-14.04-4.093h-10.637Zm-41.465,43.156L7363.506-4282H7328.5l-5.568,16.122h-17.564l32.162-90.527h16.945l32.164,90.527Zm-34.883-32.241h23.75l-11.874-34.353Zm-52.6,32.241v-63.493l-27.71,37.45-27.089-36.828v62.871h-16.824V-4356.4h16.7L7254-4318.332l28.452-38.069h15.958v90.527Z" transform="translate(-6682 4748)" fill="#f2ca6b"/>
      </g>
      <g id="Profit" transform="translate(55.846 -126.147)">
        <path id="Объединение_2" data-name="Объединение 2" d="M6694.7-4141.8a46.792,46.792,0,0,1-14.66-9.919,45.958,45.958,0,0,1-9.834-14.755,46.184,46.184,0,0,1-3.588-18.167,45.739,45.739,0,0,1,3.588-18.1,46.9,46.9,0,0,1,9.834-14.755,46.348,46.348,0,0,1,14.66-9.983,44.781,44.781,0,0,1,18.062-3.657,44.787,44.787,0,0,1,18.058,3.657,47.164,47.164,0,0,1,14.722,9.983,46.407,46.407,0,0,1,9.9,14.755,45.772,45.772,0,0,1,3.586,18.1,46.217,46.217,0,0,1-3.586,18.167,45.483,45.483,0,0,1-9.9,14.755,47.624,47.624,0,0,1-14.722,9.919,44.8,44.8,0,0,1-18.058,3.659A44.79,44.79,0,0,1,6694.7-4141.8Zm6.494-70.369a29.6,29.6,0,0,0-9.339,6.385,29.856,29.856,0,0,0-6.248,9.487,29.824,29.824,0,0,0-2.287,11.655,29.8,29.8,0,0,0,2.287,11.657,29.818,29.818,0,0,0,6.248,9.487,29.541,29.541,0,0,0,9.339,6.385,28.492,28.492,0,0,0,11.567,2.356,28.488,28.488,0,0,0,11.563-2.356,30.3,30.3,0,0,0,9.4-6.385,29.374,29.374,0,0,0,6.309-9.487,29.805,29.805,0,0,0,2.289-11.657,29.825,29.825,0,0,0-2.289-11.655,29.41,29.41,0,0,0-6.309-9.487,30.358,30.358,0,0,0-9.4-6.385,28.553,28.553,0,0,0-11.563-2.356A28.557,28.557,0,0,0,6701.2-4212.167Zm177.031,72.792v-74.4h-24.121V-4229.9H6919.3v16.122h-24.244v74.4Zm-50,0V-4229.9h16.822v90.526Zm-61.37,0V-4229.9h51.088v16.122H6783.68v20.833h34.265v16.122H6783.68v37.45Zm-124.269,0-14.472-27.654h-15.09v27.654H6596.2V-4229.9h28.946a41.268,41.268,0,0,1,14.286,2.3,29.979,29.979,0,0,1,10.577,6.448,27.785,27.785,0,0,1,6.62,9.921,34.525,34.525,0,0,1,2.287,12.834,31.423,31.423,0,0,1-3.9,15.314,27.162,27.162,0,0,1-11.319,11.1l18.062,32.614Zm-29.562-43.156h10.636a25.414,25.414,0,0,0,8.723-1.3,14.636,14.636,0,0,0,5.689-3.6,13.4,13.4,0,0,0,3.093-5.271,21.15,21.15,0,0,0,.927-6.324q0-6.945-4.39-11.038t-14.042-4.093h-10.636Zm-88.728,43.156V-4229.9h30.926a32.687,32.687,0,0,1,12.987,2.542,32.3,32.3,0,0,1,10.268,6.882,31.765,31.765,0,0,1,6.8,10.232,32.2,32.2,0,0,1,2.473,12.586,32.647,32.647,0,0,1-2.473,12.649,31.531,31.531,0,0,1-6.8,10.292,32.055,32.055,0,0,1-10.329,6.883,33.109,33.109,0,0,1-13.05,2.542h-13.979v25.917Zm16.823-41.543h12.864a17.354,17.354,0,0,0,6.8-1.3,15.911,15.911,0,0,0,5.319-3.6,16.508,16.508,0,0,0,3.464-5.331,17.11,17.11,0,0,0,1.236-6.512,17.113,17.113,0,0,0-1.236-6.51,15.826,15.826,0,0,0-3.464-5.27,16.46,16.46,0,0,0-5.319-3.536,17.38,17.38,0,0,0-6.8-1.3h-12.864Z" transform="translate(-6066 4748)" fill="#fff"/>
      </g>
    </g>
  </g>
</svg>
