<svg xmlns="http://www.w3.org/2000/svg" width="60" height="60" viewBox="0 0 60 60">
  <g id="XMLID_890_" transform="translate(0 0.001)">
    <g id="XMLID_1168_" transform="translate(0 -0.001)">
      <path id="XMLID_1308_" d="M146,25.958a2.365,2.365,0,0,0,.877,2.685l5.094,3.684-1.951,5.961a2.4,2.4,0,0,0,3.7,2.686l5.066-3.7,5.066,3.7a2.365,2.365,0,0,0,2.827,0,2.365,2.365,0,0,0,.87-2.689l-1.951-5.961,5.094-3.684a2.4,2.4,0,0,0-1.407-4.346h-6.289l-1.926-5.957a2.4,2.4,0,0,0-4.569,0L154.572,24.3h-6.289A2.365,2.365,0,0,0,146,25.958Zm9.426.682a1.172,1.172,0,0,0,1.115-.811l2.188-6.769a.1.1,0,0,1,.014-.031.1.1,0,0,1,.081,0,.1.1,0,0,1,.014.031l2.188,6.769a1.172,1.172,0,0,0,1.115.811h7.142a.1.1,0,0,1,.033,0,.055.055,0,0,1,0,.1l-5.787,4.185a1.172,1.172,0,0,0-.427,1.314l2.217,6.774a.1.1,0,0,1,.007.033c0,.018-.041.052-.065.048a.1.1,0,0,1-.03-.017l-5.757-4.2a1.172,1.172,0,0,0-1.382,0l-5.757,4.2a.109.109,0,0,1-.029.017c-.014,0-.061-.029-.066-.047a.1.1,0,0,1,.007-.033l2.217-6.774a1.172,1.172,0,0,0-.427-1.314l-5.787-4.185a.108.108,0,0,1-.025-.022.1.1,0,0,1,.025-.077.1.1,0,0,1,.034,0Z" transform="translate(-128.782 -14.723)"/>
      <path id="XMLID_1315_" d="M239.971,326h-2.2a1.172,1.172,0,1,0,0,2.344H238.8v9.141a1.172,1.172,0,0,0,2.344,0V327.172A1.172,1.172,0,0,0,239.971,326Z" transform="translate(-208.869 -287.797)"/>
      <path id="XMLID_1318_" d="M313.671,6.251a1.168,1.168,0,0,0,.829-.343L318.408,2A1.172,1.172,0,0,0,316.751.342l-3.909,3.909a1.172,1.172,0,0,0,.829,2Z" transform="translate(-275.878 0.001)"/>
      <path id="XMLID_1323_" d="M149.4,5.909a1.172,1.172,0,0,0,1.657-1.657L147.148.343A1.172,1.172,0,0,0,145.49,2Z" transform="translate(-128.138 0)"/>
      <path id="XMLID_1325_" d="M349.745,156.888a1.172,1.172,0,0,0,.551,1.563l4.315,2.067a1.172,1.172,0,0,0,1.012-2.114l-4.315-2.067A1.172,1.172,0,0,0,349.745,156.888Z" transform="translate(-308.657 -137.914)"/>
      <path id="XMLID_1326_" d="M106.718,160.634a1.168,1.168,0,0,0,.505-.115l4.315-2.067a1.172,1.172,0,0,0-1.013-2.114l-4.315,2.067a1.172,1.172,0,0,0,.507,2.229Z" transform="translate(-93.177 -137.915)"/>
      <path id="XMLID_1330_" d="M58.828,256.906H42.422v-6.562H44.18a1.172,1.172,0,0,0,0-2.344H15.82a1.172,1.172,0,0,0,0,2.344h1.758v6.563H1.172A1.172,1.172,0,0,0,0,258.078v19.687a1.172,1.172,0,0,0,1.172,1.172H58.828A1.172,1.172,0,0,0,60,277.766V258.078A1.172,1.172,0,0,0,58.828,256.906ZM2.344,259.25H17.578v17.344H2.344Zm55.312,17.344H42.422v-3.4a1.172,1.172,0,1,0-2.344,0v3.4H19.922v-26.25H40.078v12.3a1.172,1.172,0,1,0,2.344,0v-3.4H57.656Z" transform="translate(0 -218.937)"/>
      <path id="XMLID_1333_" d="M343.172,408a1.172,1.172,0,1,0,.828.343A1.18,1.18,0,0,0,343.172,408Z" transform="translate(-301.922 -360.187)"/>
    </g>
  </g>
</svg>
