<svg width="100" height="100" viewBox="0 0 100 100" fill="none" xmlns="http://www.w3.org/2000/svg">
<g filter="url(#filter0_b)">
<rect width="100" height="100" rx="10" fill="white" fill-opacity="0.4"/>
</g>
<g clip-path="url(#clip0)">
<path d="M79.916 52.425L68.587 23.749C68.5306 23.6046 68.4462 23.4728 68.3386 23.3611C68.2311 23.2495 68.1025 23.1602 67.9603 23.0985C67.818 23.0368 67.665 23.0038 67.51 23.0015C67.355 22.9992 67.201 23.0276 67.057 23.085V23.085L21.1 41.533C20.9123 41.6151 20.7497 41.7455 20.629 41.911C20.4407 42.0098 20.2827 42.1579 20.1719 42.3395C20.0611 42.5211 20.0017 42.7293 20 42.942V73.812C19.9989 74.1256 20.1224 74.4268 20.3433 74.6493C20.5642 74.8719 20.8644 74.9977 21.178 74.999H70.646C70.9596 74.9977 71.2598 74.8719 71.4807 74.6493C71.7016 74.4268 71.8251 74.1256 71.824 73.812V56.952L79.258 53.967C79.5488 53.8486 79.7811 53.6202 79.9043 53.3314C80.0275 53.0426 80.0317 52.7169 79.916 52.425V52.425ZM69.468 72.625H22.356V44.125H69.468V72.625ZM39.652 41.76L59.373 33.838C60.2407 34.7594 61.2867 35.4947 62.4474 35.9993C63.6082 36.5038 64.8594 36.7671 66.125 36.773L68.092 41.76H39.652ZM71.824 54.402V42.942C71.8251 42.6284 71.7016 42.3273 71.4807 42.1047C71.2598 41.8821 70.9596 41.7563 70.646 41.755H70.627L68.127 35.436C68.0983 35.3831 68.0649 35.3329 68.027 35.286C67.9672 35.0105 67.8094 34.766 67.5831 34.598C67.3567 34.4299 67.0771 34.3496 66.796 34.372C65.6245 34.4784 64.4451 34.2887 63.3661 33.8202C62.2871 33.3518 61.3431 32.6196 60.621 31.691C60.4446 31.4705 60.1938 31.3218 59.9157 31.2729C59.6376 31.2239 59.3511 31.278 59.11 31.425C59.0541 31.4318 58.9986 31.4421 58.944 31.456L34.875 41.12C34.7304 41.1773 34.5986 41.2629 34.4875 41.3717C34.3764 41.4806 34.2882 41.6106 34.228 41.754H26.916L66.835 25.731L77.293 52.203L71.824 54.402Z" fill="#F2CA6B"/>
<path d="M25.5271 64.739C26.6477 65.0702 27.6677 65.6761 28.4945 66.5019C29.3213 67.3276 29.9285 68.3468 30.2611 69.467C30.3334 69.7087 30.4817 69.9207 30.684 70.0715C30.8863 70.2223 31.1318 70.3038 31.3841 70.304C31.4451 70.3002 31.5057 70.2911 31.5651 70.277C31.6179 70.292 31.6717 70.3031 31.7261 70.31H59.8671C59.9154 70.3038 59.9632 70.2941 60.0101 70.281C60.2911 70.3495 60.5878 70.3037 60.835 70.1537C61.0823 70.0038 61.26 69.7618 61.3291 69.481V69.475C61.6608 68.3537 62.2677 67.3332 63.0946 66.5064C63.9214 65.6796 64.9419 65.0727 66.0631 64.741C66.3296 64.6585 66.5572 64.4826 66.7042 64.2455C66.8512 64.0085 66.9077 63.7263 66.8631 63.451C66.8788 63.3939 66.8902 63.3358 66.8971 63.277V53.893C66.8903 53.8341 66.8786 53.7759 66.8621 53.719C66.9069 53.4436 66.8505 53.1614 66.7035 52.9243C66.5565 52.6872 66.3287 52.5113 66.0621 52.429C64.9408 52.0977 63.9204 51.4907 63.094 50.6636C62.2676 49.8365 61.6615 48.8156 61.3311 47.694C61.2483 47.4257 61.0707 47.1967 60.8316 47.0495C60.5924 46.9023 60.308 46.8471 60.0311 46.894C59.977 46.8789 59.9219 46.8678 59.8661 46.861H31.7251C31.6659 46.8679 31.6074 46.8796 31.5501 46.896C31.2748 46.8517 30.9927 46.9082 30.7558 47.0552C30.5188 47.2021 30.3428 47.4297 30.2601 47.696C29.9283 48.8171 29.3213 49.8373 28.4945 50.664C27.6677 51.4906 26.6473 52.0974 25.5261 52.429C25.2597 52.5115 25.032 52.6874 24.885 52.9245C24.738 53.1615 24.6816 53.4437 24.7261 53.719C24.7108 53.7761 24.6998 53.8342 24.6931 53.893V63.274C24.6999 63.3291 24.7109 63.3836 24.7261 63.437C24.6794 63.7142 24.7348 63.999 24.8821 64.2384C25.0294 64.4779 25.2586 64.6557 25.5271 64.739ZM27.0351 54.37C28.2003 53.9022 29.2588 53.2034 30.1466 52.3155C31.0345 51.4277 31.7334 50.3692 32.2011 49.204H59.3901C59.8584 50.3692 60.5578 51.4276 61.4459 52.3154C62.3341 53.2032 63.3927 53.9021 64.5581 54.37V62.798C63.3933 63.2665 62.3353 63.9656 61.4475 64.8534C60.5598 65.7412 59.8606 66.7992 59.3921 67.964H32.2021C31.7336 66.7992 31.0345 65.7412 30.1467 64.8534C29.259 63.9656 28.2009 63.2665 27.0361 62.798L27.0351 54.37Z" fill="#F2CA6B"/>
<path d="M45.9061 65.457C47.2974 65.457 48.6575 65.0444 49.8144 64.2715C50.9713 63.4985 51.873 62.3998 52.4055 61.1144C52.938 59.829 53.0774 58.4145 52.806 57.0499C52.5346 55.6853 51.8647 54.4318 50.881 53.4478C49.8972 52.4639 48.6438 51.7939 47.2792 51.5223C45.9146 51.2507 44.5001 51.3899 43.2146 51.9222C41.9291 52.4545 40.8303 53.3561 40.0572 54.5128C39.2841 55.6696 38.8713 57.0296 38.8711 58.421C38.871 59.3449 39.0528 60.2598 39.4063 61.1135C39.7598 61.9671 40.278 62.7428 40.9312 63.3961C41.5845 64.0495 42.3601 64.5678 43.2137 64.9214C44.0673 65.275 44.9822 65.457 45.9061 65.457ZM45.9061 53.731C46.8337 53.731 47.7405 54.0061 48.5117 54.5214C49.283 55.0368 49.8841 55.7692 50.2391 56.6262C50.5941 57.4832 50.6869 58.4262 50.506 59.336C50.325 60.2457 49.8783 61.0814 49.2224 61.7373C48.5665 62.3932 47.7308 62.8399 46.8211 63.0209C45.9113 63.2018 44.9683 63.109 44.1113 62.754C43.2543 62.399 42.5218 61.7979 42.0065 61.0266C41.4912 60.2553 41.2161 59.3486 41.2161 58.421C41.2161 57.1771 41.7102 55.9842 42.5898 55.1047C43.4693 54.2251 44.6622 53.731 45.9061 53.731V53.731Z" fill="#F2CA6B"/>
<path d="M32.9509 60.145C33.2986 60.145 33.6386 60.042 33.9277 59.8489C34.2169 59.6557 34.4424 59.3812 34.5756 59.0601C34.7089 58.7389 34.7439 58.3854 34.6764 58.0443C34.6088 57.7032 34.4417 57.3898 34.1961 57.1436C33.9505 56.8975 33.6375 56.7296 33.2965 56.6613C32.9556 56.593 32.602 56.6272 32.2805 56.7598C31.959 56.8923 31.684 57.1171 31.4903 57.4059C31.2965 57.6946 31.1927 58.0343 31.1919 58.382C31.1914 58.6134 31.2365 58.8425 31.3246 59.0564C31.4128 59.2702 31.5423 59.4646 31.7057 59.6284C31.8691 59.7922 32.0632 59.9221 32.2768 60.0107C32.4905 60.0994 32.7196 60.145 32.9509 60.145ZM32.9509 57.8C33.0668 57.8 33.1801 57.8344 33.2765 57.8988C33.3728 57.9632 33.4479 58.0547 33.4923 58.1617C33.5366 58.2688 33.5483 58.3867 33.5256 58.5003C33.503 58.614 33.4472 58.7184 33.3653 58.8004C33.2833 58.8823 33.1789 58.9381 33.0652 58.9608C32.9515 58.9834 32.8337 58.9718 32.7266 58.9274C32.6196 58.8831 32.528 58.808 32.4637 58.7116C32.3993 58.6152 32.3649 58.5019 32.3649 58.386C32.3649 58.2306 32.4266 58.0816 32.5365 57.9717C32.6464 57.8618 32.7955 57.8 32.9509 57.8Z" fill="#F2CA6B"/>
<path d="M58.8711 60.145C59.2188 60.145 59.5587 60.042 59.8479 59.8489C60.1371 59.6557 60.3625 59.3812 60.4958 59.0601C60.629 58.7389 60.6641 58.3854 60.5965 58.0443C60.529 57.7032 60.3619 57.3898 60.1163 57.1436C59.8707 56.8975 59.5576 56.7296 59.2167 56.6613C58.8757 56.593 58.5222 56.6272 58.2007 56.7598C57.8792 56.8923 57.6042 57.1171 57.4105 57.4059C57.2167 57.6946 57.1129 58.0343 57.1121 58.382C57.1115 58.6134 57.1567 58.8425 57.2448 59.0564C57.333 59.2702 57.4625 59.4646 57.6258 59.6284C57.7892 59.7922 57.9833 59.9221 58.197 60.0107C58.4107 60.0994 58.6397 60.145 58.8711 60.145V60.145ZM58.8711 57.8C58.987 57.8 59.1003 57.8344 59.1966 57.8988C59.293 57.9632 59.3681 58.0547 59.4125 58.1617C59.4568 58.2688 59.4684 58.3867 59.4458 58.5003C59.4232 58.614 59.3674 58.7184 59.2854 58.8004C59.2035 58.8823 59.0991 58.9381 58.9854 58.9608C58.8717 58.9834 58.7539 58.9718 58.6468 58.9274C58.5397 58.8831 58.4482 58.808 58.3838 58.7116C58.3194 58.6152 58.2851 58.5019 58.2851 58.386C58.2851 58.2306 58.3468 58.0816 58.4567 57.9717C58.5666 57.8618 58.7157 57.8 58.8711 57.8V57.8Z" fill="#F2CA6B"/>
</g>
<defs>
<filter id="filter0_b" x="-10" y="-10" width="120" height="120" filterUnits="userSpaceOnUse" color-interpolation-filters="sRGB">
<feFlood flood-opacity="0" result="BackgroundImageFix"/>
<feGaussianBlur in="BackgroundImage" stdDeviation="5"/>
<feComposite in2="SourceAlpha" operator="in" result="effect1_backgroundBlur"/>
<feBlend mode="normal" in="SourceGraphic" in2="effect1_backgroundBlur" result="shape"/>
</filter>
<clipPath id="clip0">
<rect width="60" height="52" fill="white" transform="translate(20 23)"/>
</clipPath>
</defs>
</svg>
