<svg xmlns="http://www.w3.org/2000/svg" width="50" height="50" viewBox="0 0 50 50">
  <g id="Сгруппировать_162" data-name="Сгруппировать 162" transform="translate(-647 -303)">
    <g id="Сгруппировать_161" data-name="Сгруппировать 161">
      <rect id="Прямоугольник_268" data-name="Прямоугольник 268" width="50" height="50" rx="25" transform="translate(647 303)" fill="#fff" opacity="0.1"/>
      <g id="deal" transform="translate(654.227 273.061)">
        <path id="Контур_238" data-name="Контур 238" d="M173.493,51.219l-6.318-10.765a1.041,1.041,0,0,0-1.419-.375l-3.786,2.186-3.411-1.254a3.849,3.849,0,0,0-.381-.117,3.806,3.806,0,0,0-2.847.394l-5.638,3.255a2.6,2.6,0,1,0,2.6,4.509l6.186-3.572a2.083,2.083,0,0,1,2.083,0s12.464,7.2,12.5,7.223l.186-.153a1.041,1.041,0,0,0,.236-1.331Z" transform="translate(-138.089)" fill="#fff"/>
        <path id="Контур_239" data-name="Контур 239" d="M33.82,75.177l-12.383-7.15L15.25,71.6a4.659,4.659,0,0,1-2.336.63,4.716,4.716,0,0,1-1.221-.162,4.686,4.686,0,0,1-1.668-8.223L7.472,62.37a1.041,1.041,0,0,0-1.438.41L.124,73.8a1.041,1.041,0,0,0,.4,1.394l.541.312.95-1.646a4.432,4.432,0,0,1,7.074-.8,4.423,4.423,0,0,1,5.787,3.012c.034.126.061.252.083.378a4.426,4.426,0,0,1,3.281,3.167c.034.126.061.252.083.378a4.426,4.426,0,0,1,2.839,6.526l-1.3,2.247,2.781,1.606a2.343,2.343,0,0,0,2.343-4.058l1.8,1.041a2.343,2.343,0,0,0,2.343-4.058l1.2.694a2.343,2.343,0,1,0,2.343-4.058l-1.2-.694a2.343,2.343,0,0,0,2.343-4.058Z" transform="translate(0 -20.744)" fill="#fff"/>
        <path id="Контур_240" data-name="Контур 240" d="M31.7,236.388a2.343,2.343,0,0,0-3.2.858l.694-1.2a2.343,2.343,0,1,0-4.058-2.343l.694-1.2a2.343,2.343,0,0,0-4.058-2.343l-.694,1.2a2.343,2.343,0,0,0-4.058-2.343L14.5,233.373a2.343,2.343,0,1,0,4.058,2.343,2.343,2.343,0,1,0,4.058,2.343,2.343,2.343,0,1,0,4.058,2.343,2.343,2.343,0,1,0,4.058,2.343l1.822-3.157A2.343,2.343,0,0,0,31.7,236.388Z" transform="translate(-13.203 -174.858)" fill="#fff"/>
      </g>
    </g>
  </g>
</svg>
