<svg width="231" height="200" viewBox="0 0 231 200" fill="none" xmlns="http://www.w3.org/2000/svg">
<path opacity="0.4" d="M115.409 98.6939C155.49 98.6939 187.982 83.0038 187.982 63.649C187.982 44.2943 155.49 28.6041 115.409 28.6041C75.3279 28.6041 42.8359 44.2943 42.8359 63.649C42.8359 83.0038 75.3279 98.6939 115.409 98.6939Z" fill="#0F054C"/>
<path d="M115.409 84.6316C155.49 84.6316 187.982 68.9415 187.982 49.5867C187.982 30.232 155.49 14.5418 115.409 14.5418C75.3279 14.5418 42.8359 30.232 42.8359 49.5867C42.8359 68.9415 75.3279 84.6316 115.409 84.6316Z" fill="url(#paint0_linear)"/>
<path opacity="0.48" d="M187.981 38.0434L186.192 38.0291C183.274 31.7887 176.788 25.8561 166.725 20.9969C138.384 7.31384 92.432 7.31384 64.0909 20.9969C54.5925 25.5841 48.2773 31.1304 45.1454 36.9914L42.8692 36.9771V44.749C42.3045 54.0595 49.3726 63.4558 64.0909 70.5621C92.432 84.2452 138.384 84.2452 166.725 70.5621C180.895 63.7206 187.981 54.7536 187.981 45.7867V38.0434V38.0434Z" fill="url(#paint1_linear)"/>
<path opacity="0.48" d="M187.981 38.0434L186.192 38.0291C183.274 31.7887 176.788 25.8561 166.725 20.9969C138.384 7.31384 92.432 7.31384 64.0909 20.9969C54.5925 25.5841 48.2773 31.1304 45.1454 36.9914L42.8692 36.9771V44.749C42.3045 54.0595 49.3726 63.4558 64.0909 70.5621C92.432 84.2452 138.384 84.2452 166.725 70.5621C180.895 63.7206 187.981 54.7536 187.981 45.7867V38.0434V38.0434Z" fill="url(#paint2_linear)"/>
<path opacity="0.48" d="M187.981 38.0434L186.192 38.0291C183.274 31.7887 176.788 25.8561 166.725 20.9969C138.384 7.31384 92.432 7.31384 64.0909 20.9969C54.5925 25.5841 48.2773 31.1304 45.1454 36.9914L42.8692 36.9771V44.749C42.3045 54.0595 49.3726 63.4558 64.0909 70.5621C92.432 84.2452 138.384 84.2452 166.725 70.5621C180.895 63.7206 187.981 54.7536 187.981 45.7867V38.0434V38.0434Z" fill="url(#paint3_linear)"/>
<path d="M187.981 35.0449L186.192 35.0306C183.274 28.7902 176.788 22.8575 166.725 17.9983C138.384 4.31531 92.432 4.31531 64.0909 17.9983C54.5925 22.5856 48.2773 28.1318 45.1454 33.9929L42.8692 33.9786V41.7504C42.3045 51.0609 49.3726 60.4573 64.0909 67.5636C92.432 81.2466 138.384 81.2466 166.725 67.5636C180.895 60.7221 187.981 51.7551 187.981 42.7881V35.0449V35.0449Z" fill="url(#paint4_linear)"/>
<path opacity="0.48" d="M186.194 35.0306C186.091 34.8159 185.98 34.594 185.868 34.3793V29.2768H182.069V28.9119C181.111 27.8312 180.032 26.7721 178.834 25.7344V29.2768H176.652V23.9668C175.643 23.201 174.556 22.4496 173.409 21.7125V29.2768H171.236V20.3957C170.2 19.7946 169.114 19.2078 167.984 18.6281V29.2768H165.819V17.5761C164.758 17.0823 163.671 16.5957 162.559 16.1377V29.2768H160.411V15.2861C159.341 14.8781 158.246 14.4774 157.142 14.1053V29.2768H155.003V16.9821H151.717V29.2768H149.586V20.3599H146.292V29.2768H144.17V23.7306H140.866V29.2768H138.753V27.1084H135.441V29.2768H95.3854V27.1084H92.0738V29.2768H89.9602V23.7306H86.6572V29.2768H84.535V20.3599H81.2405V29.2768H79.1098V16.9821H75.8239V29.2768H73.6846V14.0909C72.5721 14.4702 71.4854 14.8638 70.4158 15.2717V29.2768H68.2679V16.1234C67.1555 16.5814 66.0687 17.0608 65.0077 17.5546V29.2697H62.8427V18.6066C61.7132 19.1791 60.6264 19.766 59.591 20.3671V29.2697H57.4175V21.6839C56.2709 22.421 55.1927 23.1724 54.1744 23.9453V29.2768H51.9923V25.7058C50.7943 26.7363 49.7247 27.7954 48.7577 28.8689V29.2697H44.9584V33.9786L43.3496 33.9643V46.9889C43.9315 49.3291 45.0097 51.6477 46.5671 53.902V45.7652H48.7577V56.6644C49.7161 57.7378 50.7943 58.797 51.9923 59.8275V45.7652H54.1744V61.588C55.1841 62.3537 56.2709 63.1051 57.4175 63.8422V45.7652H59.591V65.1662C60.6264 65.7673 61.7132 66.3542 62.8427 66.9267V45.7652H65.0077V67.9787C66.0687 68.4725 67.1555 68.9519 68.2679 69.4099V45.7652H70.4158V70.2615C71.4854 70.6695 72.5807 71.0631 73.6846 71.4424V45.7652H75.8239V72.1437C76.902 72.48 77.9974 72.8092 79.1098 73.117V45.7652H81.2405V73.6895C82.3273 73.9686 83.4226 74.2334 84.535 74.4838V45.7652H86.6572V74.949C87.7525 75.178 88.8478 75.3927 89.9602 75.5931V45.7723H92.0738V75.958C93.1691 76.137 94.273 76.3015 95.3854 76.459V45.7723H97.4819V76.7309C98.5858 76.8669 99.6896 76.9886 100.802 77.0959V45.7723H102.89V77.2891C103.994 77.3822 105.106 77.4609 106.227 77.5325V45.7723H108.307V77.647C109.419 77.6971 110.532 77.74 111.652 77.7686V45.7795H113.723V77.8116C114.853 77.8259 115.974 77.8259 117.103 77.8116V45.7795H119.174V77.7686C120.287 77.74 121.408 77.7042 122.52 77.647V45.7795H124.599V77.5325C125.712 77.4609 126.824 77.3822 127.937 77.2891V45.7723H130.025V77.0959C131.137 76.9886 132.249 76.8598 133.345 76.7309V45.7795H135.441V76.459C136.554 76.3087 137.658 76.137 138.753 75.958V45.7795H140.866V75.6002C141.979 75.3998 143.074 75.1852 144.17 74.9562V45.7795H146.292V74.491C147.404 74.2405 148.499 73.9757 149.586 73.6895V45.7723H151.717V73.117C152.821 72.8092 153.916 72.48 155.003 72.1437V45.7723H157.142V71.4424C158.255 71.0631 159.341 70.6695 160.411 70.2615V45.7723H162.559V69.4099C163.671 68.9519 164.758 68.4724 165.819 67.9715V45.7723H167.984V66.9195C169.114 66.347 170.2 65.753 171.236 65.1519V45.7723H173.409V63.8351C174.556 63.098 175.643 62.3466 176.652 61.5808V45.7723H178.834V59.8204C180.032 58.7827 181.102 57.7235 182.069 56.6501V45.7795H184.26V53.8734C185.826 51.5976 186.904 49.2575 187.477 46.8959V35.0449L186.194 35.0306Z" fill="url(#paint5_linear)"/>
<path d="M115.409 70.0898C155.49 70.0898 187.982 54.3997 187.982 35.0449C187.982 15.6901 155.49 0 115.409 0C75.3279 0 42.8359 15.6901 42.8359 35.0449C42.8359 54.3997 75.3279 70.0898 115.409 70.0898Z" fill="url(#paint6_linear)"/>
<g style="mix-blend-mode:overlay">
<path d="M101.229 32.3555L115.521 24.0169L129.819 32.3598L138.135 27.508L115.521 14.3128L92.9132 27.5035L101.229 32.3555ZM78.7246 35.782L87.0401 30.9302L95.3556 35.782L87.0401 40.6338L78.7246 35.782ZM101.229 39.2087L115.521 47.5471L129.819 39.2042L138.135 44.0541L115.521 57.2512L92.9132 44.0605L92.9021 44.0541L101.229 39.2087ZM135.685 35.7822L144 30.9304L152.316 35.7822L144 40.6341L135.685 35.7822ZM123.954 35.778H123.962V35.7822L115.521 40.7073L107.091 35.7911L107.076 35.7825L107.091 35.776L108.566 34.9129L109.284 34.4943L115.521 30.8574L123.958 35.7802L123.954 35.778Z" fill="#B9C5C9"/>
</g>
<path opacity="0.3" d="M115.436 0C98.9894 0 82.5511 2.68365 69.1593 8.04379L47.5098 47.404C51.0353 51.9269 56.5546 56.1778 64.0935 59.8204C68.7742 62.0818 73.9427 63.9568 79.4278 65.4739L115.436 0Z" fill="#42E8E0"/>
<path opacity="0.3" d="M135.767 1.40265L98.5176 69.1237C107.417 70.147 116.642 70.3546 125.678 69.732L159.966 7.39256C152.59 4.61588 144.367 2.61208 135.767 1.40265Z" fill="#42E8E0"/>
<g opacity="0.05">
<path opacity="0.05" d="M115.411 66.0751C150.908 66.0751 179.684 52.1824 179.684 35.0449C179.684 17.9074 150.908 4.01476 115.411 4.01476C79.9144 4.01476 51.1387 17.9074 51.1387 35.0449C51.1387 52.1824 79.9144 66.0751 115.411 66.0751Z" fill="url(#paint7_linear)"/>
</g>
<path d="M69.9635 15.193C95.0615 3.07726 135.759 3.07726 160.857 15.193C172.854 20.9897 179.118 28.504 179.64 36.0897C180.213 27.8026 173.958 19.4225 160.857 13.1034C135.759 0.987592 95.0615 0.980435 69.9635 13.1034C56.8626 19.4296 50.6073 27.8026 51.1806 36.0897C51.7112 28.4968 57.9664 20.9826 69.9635 15.193Z" fill="url(#paint8_linear)"/>
<path d="M38.3359 200L0 181.494L38.3359 162.98L76.6718 181.494L38.3359 200Z" fill="#312A91"/>
<path d="M38.3359 194.676L0 176.169L38.3359 157.656L76.6718 176.169L38.3359 194.676Z" fill="#312A91"/>
<g opacity="0.9">
<path opacity="0.9" d="M38.3354 161.792L8.73633 147.501L38.3354 133.209L67.9344 147.501L38.3354 161.792Z" fill="url(#paint9_linear)"/>
<path opacity="0.9" d="M67.935 147.501V176.169L38.3359 190.461V161.792L67.935 147.501Z" fill="url(#paint10_linear)"/>
<path opacity="0.9" d="M8.73633 147.501V176.169L38.3354 190.461V161.792L8.73633 147.501Z" fill="url(#paint11_linear)"/>
</g>
<path opacity="0.7" d="M38.3373 190.461L8.73828 176.169L38.3373 161.878L67.9364 176.169L38.3373 190.461Z" fill="url(#paint12_linear)"/>
<path d="M76.6738 176.169V181.494L38.3379 200V194.676L76.6738 176.169Z" fill="url(#paint13_linear)"/>
<path d="M0 176.169V181.494L38.3359 200V194.676L0 176.169Z" fill="#312A91"/>
<path opacity="0.7" d="M0 176.169V181.494L38.3359 200V194.676L0 176.169Z" fill="url(#paint14_linear)"/>
<path d="M38.3359 155.487L0 136.981L38.3359 118.467L76.6718 136.981L38.3359 155.487Z" fill="#312A91"/>
<path d="M38.3359 150.163L0 131.656L38.3359 113.143L76.6718 131.656L38.3359 150.163Z" fill="#312A91"/>
<path opacity="0.7" d="M38.3359 150.163L0 131.656L38.3359 113.143L76.6718 131.656L38.3359 150.163Z" fill="url(#paint15_linear)"/>
<path opacity="0.3" d="M38.3381 138.505L24.1504 131.656L38.3381 124.801L52.5343 131.656L38.3381 138.505Z" fill="#42E8E0"/>
<path opacity="0.3" d="M38.3381 129.452L47.7167 133.982L52.5343 131.656L38.3381 124.801L24.1504 131.656L28.968 133.982L38.3381 129.452Z" fill="#42E8E0"/>
<path d="M38.3381 129.452L47.7167 133.982L52.5343 131.656L38.3381 124.801L24.1504 131.656L28.968 133.982L38.3381 129.452Z" fill="#42E8E0"/>
<path d="M76.6738 131.656V136.981L38.3379 155.487V150.163L76.6738 131.656Z" fill="url(#paint16_linear)"/>
<path d="M0 131.656V136.981L38.3359 155.487V150.163L0 131.656Z" fill="#312A91"/>
<path opacity="0.7" d="M0 131.656V136.981L38.3359 155.487V150.163L0 131.656Z" fill="url(#paint17_linear)"/>
<path opacity="0.3" d="M38.3359 155.487V194.676L0 176.169V136.981L38.3359 155.487Z" fill="#42E8E0"/>
<path opacity="0.3" d="M8.73828 141.196V176.169L38.3373 190.461L67.9364 176.169V141.196L38.3373 155.487L8.73828 141.196Z" fill="#42E8E0"/>
<path opacity="0.3" d="M38.3373 155.487V190.461L8.73828 176.169V141.196L38.3373 155.487Z" fill="#42E8E0"/>
<path opacity="0.5" d="M0 136.981V176.169L38.3359 194.676L76.6718 176.169V136.981L38.3359 155.487L0 136.981Z" fill="#5CFFF3"/>
<path d="M0.907052 131.656L38.7894 113.365L38.3359 113.143L0 131.656L38.3359 150.163L38.7894 149.948L0.907052 131.656Z" fill="url(#paint18_linear)"/>
<path opacity="0.5" d="M0 136.981V176.169L0.530537 176.42V137.231L0 136.981Z" fill="#42E8E0"/>
<path opacity="0.5" d="M76.6704 136.981V176.169L76.1484 176.42V137.231L76.6704 136.981Z" fill="#42E8E0"/>
<path opacity="0.5" d="M38.334 155.487L37.4355 155.051V194.246L38.334 194.676L39.2411 194.246V155.051L38.334 155.487Z" fill="#42E8E0"/>
<path opacity="0.9" d="M41.3301 122.296C41.3301 122.775 40.8595 123.169 40.2862 123.169C39.7128 123.169 39.2422 122.775 39.2422 122.296C39.2422 121.816 39.7128 121.423 40.2862 121.423C40.8595 121.423 41.3301 121.816 41.3301 122.296Z" fill="#42E8E0"/>
<path opacity="0.3" d="M27.1359 115.912C27.4904 115.912 27.7777 115.672 27.7777 115.376C27.7777 115.079 27.4904 114.839 27.1359 114.839C26.7815 114.839 26.4941 115.079 26.4941 115.376C26.4941 115.672 26.7815 115.912 27.1359 115.912Z" fill="#42E8E0"/>
<path opacity="0.2" d="M31.6296 109.822C31.9935 109.822 32.2885 109.575 32.2885 109.271C32.2885 108.967 31.9935 108.72 31.6296 108.72C31.2657 108.72 30.9707 108.967 30.9707 109.271C30.9707 109.575 31.2657 109.822 31.6296 109.822Z" fill="#42E8E0"/>
<path opacity="0.2" d="M51.3132 107.274C51.3132 107.468 51.125 107.625 50.8939 107.625C50.6629 107.625 50.4746 107.468 50.4746 107.274C50.4746 107.081 50.6629 106.924 50.8939 106.924C51.125 106.924 51.3132 107.081 51.3132 107.274Z" fill="#42E8E0"/>
<path opacity="0.2" d="M49.367 106.187C49.849 106.187 50.2398 105.86 50.2398 105.457C50.2398 105.054 49.849 104.727 49.367 104.727C48.8849 104.727 48.4941 105.054 48.4941 105.457C48.4941 105.86 48.8849 106.187 49.367 106.187Z" fill="#42E8E0"/>
<path opacity="0.2" d="M29.8451 108.527C30.0766 108.527 30.2644 108.37 30.2644 108.176C30.2644 107.983 30.0766 107.826 29.8451 107.826C29.6135 107.826 29.4258 107.983 29.4258 108.176C29.4258 108.37 29.6135 108.527 29.8451 108.527Z" fill="#42E8E0"/>
<path opacity="0.3" d="M29.7504 125.223C29.7504 125.523 29.4594 125.759 29.1086 125.759C28.7492 125.759 28.4668 125.516 28.4668 125.223C28.4668 124.922 28.7577 124.686 29.1086 124.686C29.4594 124.686 29.7504 124.929 29.7504 125.223Z" fill="#42E8E0"/>
<path opacity="0.2" d="M33.6062 119.677C33.9701 119.677 34.2651 119.43 34.2651 119.125C34.2651 118.821 33.9701 118.574 33.6062 118.574C33.2423 118.574 32.9473 118.821 32.9473 119.125C32.9473 119.43 33.2423 119.677 33.6062 119.677Z" fill="#42E8E0"/>
<path opacity="0.2" d="M31.8138 118.374C32.0454 118.374 32.2331 118.217 32.2331 118.023C32.2331 117.83 32.0454 117.673 31.8138 117.673C31.5823 117.673 31.3945 117.83 31.3945 118.023C31.3945 118.217 31.5823 118.374 31.8138 118.374Z" fill="#42E8E0"/>
<path opacity="0.9" d="M37.9067 113.601C38.035 114.016 38.5399 114.266 39.0362 114.159C39.5325 114.052 39.832 113.629 39.7037 113.214C39.5753 112.799 39.0704 112.549 38.5741 112.656C38.0778 112.763 37.7783 113.186 37.9067 113.601Z" fill="#42E8E0"/>
<path opacity="0.3" d="M47.7525 105.156C47.8296 105.414 48.1462 105.564 48.4457 105.5C48.7537 105.435 48.9334 105.17 48.8564 104.92C48.7794 104.67 48.4628 104.512 48.1633 104.576C47.8638 104.641 47.667 104.899 47.7525 105.156Z" fill="#42E8E0"/>
<path opacity="0.2" d="M42.2687 100.734C42.3457 100.991 42.6623 101.149 42.9789 101.084C43.287 101.02 43.4752 100.755 43.3982 100.49C43.3212 100.233 43.0046 100.075 42.688 100.14C42.3714 100.211 42.1831 100.476 42.2687 100.734Z" fill="#42E8E0"/>
<path opacity="0.2" d="M25.3713 102.515C25.4226 102.68 25.6194 102.78 25.8162 102.737C26.0131 102.694 26.1329 102.53 26.0815 102.365C26.0302 102.201 25.8333 102.1 25.6365 102.143C25.4397 102.179 25.3199 102.351 25.3713 102.515Z" fill="#42E8E0"/>
<path opacity="0.2" d="M25.8234 100.755C25.9261 101.098 26.354 101.313 26.7647 101.22C27.1755 101.134 27.4322 100.776 27.3209 100.433C27.2183 100.089 26.7904 99.8747 26.3797 99.9678C25.9604 100.054 25.7122 100.411 25.8234 100.755Z" fill="#42E8E0"/>
<path opacity="0.2" d="M43.713 99.4167C43.7644 99.5813 43.9697 99.6887 44.1666 99.6457C44.3634 99.6028 44.4917 99.431 44.4404 99.2664C44.389 99.1018 44.1837 98.9945 43.9869 99.0374C43.7815 99.0804 43.6617 99.2521 43.713 99.4167Z" fill="#42E8E0"/>
<path opacity="0.2" d="M48.2069 125.559C48.0357 125.681 47.7704 125.666 47.625 125.516C47.4795 125.373 47.4966 125.151 47.6763 125.03C47.8474 124.908 48.1127 124.922 48.2582 125.072C48.4037 125.216 48.3866 125.437 48.2069 125.559Z" fill="#42E8E0"/>
<path opacity="0.2" d="M49.1651 123.698C48.7971 123.956 48.2495 123.92 47.9414 123.613C47.6334 123.305 47.6761 122.847 48.0441 122.589C48.4121 122.332 48.9597 122.367 49.2678 122.675C49.5758 122.983 49.533 123.441 49.1651 123.698Z" fill="#42E8E0"/>
<path opacity="0.3" d="M47.8398 121.916C47.6601 122.131 47.72 122.432 47.9767 122.582C48.2334 122.732 48.5928 122.682 48.7725 122.468C48.9522 122.253 48.8923 121.952 48.6356 121.802C48.3789 121.652 48.0195 121.702 47.8398 121.916Z" fill="#42E8E0"/>
<path opacity="0.2" d="M48.3166 115.562C48.1283 115.783 48.1882 116.084 48.4535 116.241C48.7188 116.399 49.0782 116.349 49.2664 116.127C49.4547 115.905 49.3948 115.605 49.1295 115.447C48.8643 115.29 48.5049 115.347 48.3166 115.562Z" fill="#42E8E0"/>
<path opacity="0.2" d="M50.463 115.633C50.3432 115.776 50.386 115.969 50.5486 116.07C50.7198 116.17 50.9508 116.134 51.0706 115.998C51.1904 115.855 51.1476 115.662 50.985 115.562C50.8139 115.461 50.5828 115.497 50.463 115.633Z" fill="#42E8E0"/>
<g opacity="0.9">
<path opacity="0.9" d="M35.391 131.134C35.5194 131.549 36.0243 131.799 36.5206 131.692C37.0169 131.585 37.3164 131.163 37.188 130.747C37.0597 130.332 36.5548 130.082 36.0585 130.189C35.5622 130.304 35.2627 130.719 35.391 131.134Z" fill="#42E8E0"/>
<path opacity="0.9" d="M38.0691 126.947C38.1547 127.241 38.5141 127.42 38.8649 127.341C39.2158 127.269 39.4297 126.969 39.3355 126.675C39.25 126.382 38.8906 126.203 38.5397 126.282C38.1889 126.353 37.975 126.654 38.0691 126.947Z" fill="#42E8E0"/>
</g>
<path opacity="0.9" d="M41.3301 112.377C41.3301 112.856 40.8595 113.25 40.2862 113.25C39.7128 113.25 39.2422 112.856 39.2422 112.377C39.2422 111.897 39.7128 111.504 40.2862 111.504C40.8595 111.511 41.3301 111.897 41.3301 112.377Z" fill="#42E8E0"/>
<path opacity="0.3" d="M27.1359 105.993C27.4904 105.993 27.7777 105.753 27.7777 105.457C27.7777 105.16 27.4904 104.92 27.1359 104.92C26.7815 104.92 26.4941 105.16 26.4941 105.457C26.4941 105.753 26.7815 105.993 27.1359 105.993Z" fill="#42E8E0"/>
<path opacity="0.2" d="M31.6296 99.9105C31.9935 99.9105 32.2885 99.6638 32.2885 99.3595C32.2885 99.0551 31.9935 98.8084 31.6296 98.8084C31.2657 98.8084 30.9707 99.0551 30.9707 99.3595C30.9707 99.6638 31.2657 99.9105 31.6296 99.9105Z" fill="#42E8E0"/>
<path opacity="0.2" d="M51.3132 97.3557C51.3132 97.5489 51.125 97.7063 50.8939 97.7063C50.6629 97.7063 50.4746 97.5489 50.4746 97.3557C50.4746 97.1624 50.6629 97.005 50.8939 97.005C51.125 97.005 51.3132 97.1696 51.3132 97.3557Z" fill="#42E8E0"/>
<path opacity="0.2" d="M49.367 96.2751C49.849 96.2751 50.2398 95.9482 50.2398 95.5451C50.2398 95.142 49.849 94.8152 49.367 94.8152C48.8849 94.8152 48.4941 95.142 48.4941 95.5451C48.4941 95.9482 48.8849 96.2751 49.367 96.2751Z" fill="#42E8E0"/>
<path opacity="0.2" d="M30.2644 98.2574C30.2644 98.4506 30.0761 98.6081 29.8451 98.6081C29.614 98.6081 29.4258 98.4506 29.4258 98.2574C29.4258 98.0642 29.614 97.9067 29.8451 97.9067C30.0761 97.9067 30.2644 98.0642 30.2644 98.2574Z" fill="#42E8E0"/>
<path opacity="0.3" d="M29.1008 115.848C29.4552 115.848 29.7426 115.608 29.7426 115.311C29.7426 115.015 29.4552 114.774 29.1008 114.774C28.7463 114.774 28.459 115.015 28.459 115.311C28.459 115.608 28.7463 115.848 29.1008 115.848Z" fill="#42E8E0"/>
<path opacity="0.2" d="M33.6062 109.758C33.9701 109.758 34.2651 109.511 34.2651 109.207C34.2651 108.902 33.9701 108.656 33.6062 108.656C33.2423 108.656 32.9473 108.902 32.9473 109.207C32.9473 109.511 33.2423 109.758 33.6062 109.758Z" fill="#42E8E0"/>
<path opacity="0.2" d="M31.8138 108.462C32.0454 108.462 32.2331 108.305 32.2331 108.112C32.2331 107.918 32.0454 107.761 31.8138 107.761C31.5823 107.761 31.3945 107.918 31.3945 108.112C31.3945 108.305 31.5823 108.462 31.8138 108.462Z" fill="#42E8E0"/>
<path opacity="0.9" d="M37.9067 103.689C38.035 104.104 38.5399 104.355 39.0362 104.247C39.5325 104.14 39.832 103.718 39.7037 103.303C39.5753 102.888 39.0704 102.637 38.5741 102.744C38.0778 102.852 37.7783 103.274 37.9067 103.689Z" fill="#42E8E0"/>
<path opacity="0.3" d="M47.7525 95.2445C47.8296 95.5022 48.1462 95.6524 48.4457 95.588C48.7537 95.5236 48.9334 95.2588 48.8564 95.0084C48.7794 94.7579 48.4628 94.6005 48.1633 94.6649C47.8638 94.7293 47.667 94.9869 47.7525 95.2445Z" fill="#42E8E0"/>
<path opacity="0.2" d="M42.2687 90.8219C42.3457 91.0795 42.6623 91.2369 42.9789 91.1725C43.287 91.1081 43.4752 90.8433 43.3982 90.5785C43.3212 90.3209 43.0046 90.1635 42.688 90.2279C42.3714 90.2923 42.1831 90.5642 42.2687 90.8219Z" fill="#42E8E0"/>
<path opacity="0.2" d="M25.3713 92.5966C25.4226 92.7612 25.6194 92.8614 25.8162 92.8185C26.0131 92.7755 26.1329 92.6109 26.0815 92.4463C26.0302 92.2817 25.8333 92.1816 25.6365 92.2245C25.4397 92.2674 25.3199 92.432 25.3713 92.5966Z" fill="#42E8E0"/>
<path opacity="0.2" d="M25.8234 90.8434C25.9261 91.1869 26.354 91.4016 26.7647 91.3085C27.1755 91.2155 27.4322 90.8648 27.3209 90.5213C27.2183 90.1778 26.7904 89.9631 26.3797 90.0562C25.9604 90.142 25.7122 90.4927 25.8234 90.8434Z" fill="#42E8E0"/>
<path opacity="0.2" d="M43.713 89.5051C43.7644 89.6697 43.9697 89.777 44.1666 89.7341C44.3634 89.6912 44.4917 89.5194 44.4404 89.3548C44.389 89.1902 44.1837 89.0829 43.9869 89.1258C43.7815 89.1687 43.6617 89.3405 43.713 89.5051Z" fill="#42E8E0"/>
<path opacity="0.2" d="M48.2069 115.647C48.0357 115.769 47.7704 115.755 47.625 115.604C47.4795 115.461 47.4966 115.24 47.6763 115.118C47.856 114.996 48.1127 115.011 48.2582 115.161C48.4037 115.304 48.3866 115.519 48.2069 115.647Z" fill="#42E8E0"/>
<path opacity="0.2" d="M49.1651 113.787C48.7971 114.044 48.2495 114.009 47.9414 113.701C47.6334 113.393 47.6761 112.935 48.0441 112.678C48.4121 112.42 48.9597 112.456 49.2678 112.763C49.5758 113.064 49.533 113.529 49.1651 113.787Z" fill="#42E8E0"/>
<path opacity="0.3" d="M47.8398 112.005C47.6601 112.22 47.72 112.52 47.9767 112.67C48.2334 112.821 48.5928 112.771 48.7725 112.556C48.9522 112.341 48.8923 112.041 48.6356 111.89C48.3789 111.74 48.0195 111.79 47.8398 112.005Z" fill="#42E8E0"/>
<path opacity="0.2" d="M48.3166 105.65C48.1283 105.872 48.1882 106.172 48.4535 106.33C48.7188 106.487 49.0782 106.437 49.2664 106.215C49.4547 105.993 49.3948 105.693 49.1295 105.535C48.8643 105.378 48.5049 105.428 48.3166 105.65Z" fill="#42E8E0"/>
<path opacity="0.2" d="M50.463 105.721C50.3432 105.865 50.386 106.058 50.5486 106.158C50.7198 106.258 50.9508 106.222 51.0706 106.086C51.1904 105.943 51.1476 105.75 50.985 105.65C50.8139 105.55 50.5828 105.578 50.463 105.721Z" fill="#42E8E0"/>
<g opacity="0.9">
<path opacity="0.9" d="M35.391 121.222C35.5194 121.637 36.0243 121.888 36.5206 121.781C37.0169 121.673 37.3164 121.251 37.188 120.836C37.0597 120.421 36.5548 120.17 36.0585 120.278C35.5622 120.385 35.2627 120.807 35.391 121.222Z" fill="#42E8E0"/>
<path opacity="0.9" d="M38.0691 117.036C38.1547 117.329 38.5141 117.508 38.8649 117.429C39.2158 117.358 39.4297 117.057 39.3355 116.764C39.25 116.47 38.8906 116.292 38.5397 116.37C38.1889 116.442 37.975 116.742 38.0691 117.036Z" fill="#42E8E0"/>
</g>
<path opacity="0.9" d="M41.3301 102.465C41.3301 102.945 40.8595 103.338 40.2862 103.338C39.7128 103.338 39.2422 102.945 39.2422 102.465C39.2422 101.986 39.7128 101.592 40.2862 101.592C40.8595 101.592 41.3301 101.986 41.3301 102.465Z" fill="#42E8E0"/>
<path opacity="0.3" d="M27.1359 96.0819C27.4904 96.0819 27.7777 95.8416 27.7777 95.5451C27.7777 95.2487 27.4904 95.0084 27.1359 95.0084C26.7815 95.0084 26.4941 95.2487 26.4941 95.5451C26.4941 95.8416 26.7815 96.0819 27.1359 96.0819Z" fill="#42E8E0"/>
<path opacity="0.2" d="M31.6296 89.9989C31.9935 89.9989 32.2885 89.7522 32.2885 89.4479C32.2885 89.1435 31.9935 88.8968 31.6296 88.8968C31.2657 88.8968 30.9707 89.1435 30.9707 89.4479C30.9707 89.7522 31.2657 89.9989 31.6296 89.9989Z" fill="#42E8E0"/>
<path opacity="0.2" d="M51.3132 87.4441C51.3132 87.6373 51.125 87.7948 50.8939 87.7948C50.6629 87.7948 50.4746 87.6373 50.4746 87.4441C50.4746 87.2509 50.6629 87.0934 50.8939 87.0934C51.125 87.0934 51.3132 87.2509 51.3132 87.4441Z" fill="#42E8E0"/>
<path opacity="0.2" d="M49.367 86.3635C49.849 86.3635 50.2398 86.0367 50.2398 85.6335C50.2398 85.2304 49.849 84.9036 49.367 84.9036C48.8849 84.9036 48.4941 85.2304 48.4941 85.6335C48.4941 86.0367 48.8849 86.3635 49.367 86.3635Z" fill="#42E8E0"/>
<path opacity="0.2" d="M30.2644 88.3458C30.2644 88.539 30.0761 88.6965 29.8451 88.6965C29.614 88.6965 29.4258 88.539 29.4258 88.3458C29.4258 88.1526 29.614 87.9951 29.8451 87.9951C30.0761 87.9951 30.2644 88.1526 30.2644 88.3458Z" fill="#42E8E0"/>
<path opacity="0.3" d="M29.1008 105.929C29.4552 105.929 29.7426 105.689 29.7426 105.392C29.7426 105.096 29.4552 104.856 29.1008 104.856C28.7463 104.856 28.459 105.096 28.459 105.392C28.459 105.689 28.7463 105.929 29.1008 105.929Z" fill="#42E8E0"/>
<path opacity="0.2" d="M33.6062 99.8461C33.9701 99.8461 34.2651 99.5994 34.2651 99.2951C34.2651 98.9908 33.9701 98.744 33.6062 98.744C33.2423 98.744 32.9473 98.9908 32.9473 99.2951C32.9473 99.5994 33.2423 99.8461 33.6062 99.8461Z" fill="#42E8E0"/>
<path opacity="0.2" d="M32.2429 98.193C32.2429 98.3863 32.0546 98.5437 31.8236 98.5437C31.5925 98.5437 31.4043 98.3863 31.4043 98.193C31.4043 97.9998 31.5925 97.8424 31.8236 97.8424C32.0546 97.8424 32.2429 97.9998 32.2429 98.193Z" fill="#42E8E0"/>
<path opacity="0.9" d="M37.9067 93.7703C38.035 94.1854 38.5399 94.4359 39.0362 94.3285C39.5325 94.2212 39.832 93.7989 39.7037 93.3839C39.5753 92.9688 39.0704 92.7183 38.5741 92.8257C38.0778 92.933 37.7783 93.3552 37.9067 93.7703Z" fill="#42E8E0"/>
<path opacity="0.3" d="M47.7525 85.3258C47.8296 85.5834 48.1462 85.7337 48.4457 85.6693C48.7537 85.6049 48.9334 85.3401 48.8564 85.0896C48.7794 84.832 48.4628 84.6817 48.1633 84.7461C47.8638 84.8105 47.667 85.0681 47.7525 85.3258Z" fill="#42E8E0"/>
<path opacity="0.2" d="M42.2687 80.9103C42.3457 81.1679 42.6623 81.3325 42.9789 81.2609C43.287 81.1965 43.4752 80.9317 43.3982 80.667C43.3212 80.4093 43.0046 80.2447 42.688 80.3163C42.3714 80.3807 42.1831 80.6455 42.2687 80.9103Z" fill="#42E8E0"/>
<path opacity="0.2" d="M25.3713 82.685C25.4226 82.8496 25.6194 82.9498 25.8162 82.9069C26.0131 82.8639 26.1329 82.6993 26.0815 82.5347C26.0302 82.3701 25.8333 82.27 25.6365 82.3129C25.4397 82.3487 25.3199 82.5204 25.3713 82.685Z" fill="#42E8E0"/>
<path opacity="0.2" d="M25.8234 80.9246C25.9261 81.2681 26.354 81.4828 26.7647 81.3898C27.1755 81.3039 27.4322 80.9461 27.3209 80.6026C27.2183 80.2591 26.7904 80.0444 26.3797 80.1374C25.9604 80.2304 25.7122 80.5811 25.8234 80.9246Z" fill="#42E8E0"/>
<path opacity="0.2" d="M43.713 79.5935C43.7644 79.7581 43.9697 79.8654 44.1666 79.8225C44.3634 79.7796 44.4917 79.6078 44.4404 79.4432C44.389 79.2786 44.1837 79.1713 43.9869 79.2142C43.7815 79.25 43.6617 79.4217 43.713 79.5935Z" fill="#42E8E0"/>
<path opacity="0.2" d="M48.2069 105.729C48.0357 105.85 47.7704 105.836 47.625 105.686C47.4795 105.543 47.4966 105.321 47.6763 105.199C47.856 105.077 48.1127 105.092 48.2582 105.242C48.4037 105.385 48.3866 105.607 48.2069 105.729Z" fill="#42E8E0"/>
<path opacity="0.2" d="M49.1651 103.868C48.7971 104.126 48.2495 104.09 47.9414 103.782C47.6334 103.474 47.6761 103.016 48.0441 102.759C48.4121 102.501 48.9597 102.537 49.2678 102.845C49.5758 103.152 49.533 103.61 49.1651 103.868Z" fill="#42E8E0"/>
<path opacity="0.3" d="M47.8398 102.093C47.6601 102.308 47.72 102.608 47.9767 102.759C48.2334 102.909 48.5928 102.859 48.7725 102.644C48.9522 102.43 48.8923 102.129 48.6356 101.979C48.3789 101.821 48.0195 101.871 47.8398 102.093Z" fill="#42E8E0"/>
<path opacity="0.2" d="M48.3166 95.7312C48.1283 95.953 48.1882 96.2536 48.4535 96.411C48.7188 96.5685 49.0782 96.5184 49.2664 96.2965C49.4547 96.0747 49.3948 95.7741 49.1295 95.6167C48.8643 95.4592 48.5049 95.5165 48.3166 95.7312Z" fill="#42E8E0"/>
<path opacity="0.2" d="M50.463 95.8099C50.3432 95.953 50.386 96.1463 50.5486 96.2465C50.7198 96.3466 50.9508 96.3109 51.0706 96.1749C51.1904 96.0318 51.1476 95.8385 50.985 95.7383C50.8139 95.631 50.5828 95.6668 50.463 95.8099Z" fill="#42E8E0"/>
<g opacity="0.9">
<path opacity="0.9" d="M35.391 111.311C35.5194 111.726 36.0243 111.976 36.5206 111.869C37.0169 111.762 37.3164 111.339 37.188 110.924C37.0597 110.509 36.5548 110.259 36.0585 110.366C35.5622 110.473 35.2627 110.896 35.391 111.311Z" fill="#42E8E0"/>
<path opacity="0.9" d="M38.0691 107.117C38.1547 107.41 38.5141 107.589 38.8649 107.511C39.2158 107.439 39.4297 107.138 39.3355 106.845C39.25 106.552 38.8906 106.373 38.5397 106.451C38.1889 106.523 37.975 106.824 38.0691 107.117Z" fill="#42E8E0"/>
</g>
<path opacity="0.9" d="M41.3301 81.5901C41.3301 82.0696 40.8595 82.4632 40.2862 82.4632C39.7128 82.4632 39.2422 82.0696 39.2422 81.5901C39.2422 81.1107 39.7128 80.7171 40.2862 80.7171C40.8595 80.7171 41.3301 81.1035 41.3301 81.5901Z" fill="#42E8E0"/>
<path opacity="0.3" d="M27.1359 75.2066C27.4904 75.2066 27.7777 74.9663 27.7777 74.6699C27.7777 74.3735 27.4904 74.1332 27.1359 74.1332C26.7815 74.1332 26.4941 74.3735 26.4941 74.6699C26.4941 74.9663 26.7815 75.2066 27.1359 75.2066Z" fill="#42E8E0"/>
<path opacity="0.2" d="M31.6296 69.1165C31.9935 69.1165 32.2885 68.8698 32.2885 68.5655C32.2885 68.2611 31.9935 68.0144 31.6296 68.0144C31.2657 68.0144 30.9707 68.2611 30.9707 68.5655C30.9707 68.8698 31.2657 69.1165 31.6296 69.1165Z" fill="#42E8E0"/>
<path opacity="0.2" d="M51.3132 66.5689C51.3132 66.7621 51.125 66.9195 50.8939 66.9195C50.6629 66.9195 50.4746 66.7621 50.4746 66.5689C50.4746 66.3756 50.6629 66.2182 50.8939 66.2182C51.125 66.2182 51.3132 66.3756 51.3132 66.5689Z" fill="#42E8E0"/>
<path opacity="0.2" d="M49.367 65.4811C49.849 65.4811 50.2398 65.1543 50.2398 64.7511C50.2398 64.348 49.849 64.0212 49.367 64.0212C48.8849 64.0212 48.4941 64.348 48.4941 64.7511C48.4941 65.1543 48.8849 65.4811 49.367 65.4811Z" fill="#42E8E0"/>
<path opacity="0.2" d="M30.2644 67.4705C30.2644 67.6638 30.0761 67.8212 29.8451 67.8212C29.614 67.8212 29.4258 67.6638 29.4258 67.4705C29.4258 67.2773 29.614 67.1199 29.8451 67.1199C30.0761 67.1127 30.2644 67.2702 30.2644 67.4705Z" fill="#42E8E0"/>
<path opacity="0.3" d="M29.1008 85.0538C29.4552 85.0538 29.7426 84.8135 29.7426 84.5171C29.7426 84.2207 29.4552 83.9804 29.1008 83.9804C28.7463 83.9804 28.459 84.2207 28.459 84.5171C28.459 84.8135 28.7463 85.0538 29.1008 85.0538Z" fill="#42E8E0"/>
<path opacity="0.2" d="M33.6062 78.9709C33.9701 78.9709 34.2651 78.7242 34.2651 78.4199C34.2651 78.1155 33.9701 77.8688 33.6062 77.8688C33.2423 77.8688 32.9473 78.1155 32.9473 78.4199C32.9473 78.7242 33.2423 78.9709 33.6062 78.9709Z" fill="#42E8E0"/>
<path opacity="0.2" d="M32.2429 77.3177C32.2429 77.511 32.0546 77.6684 31.8236 77.6684C31.5925 77.6684 31.4043 77.511 31.4043 77.3177C31.4043 77.1245 31.5925 76.9671 31.8236 76.9671C32.0546 76.9671 32.2429 77.1245 32.2429 77.3177Z" fill="#42E8E0"/>
<path opacity="0.9" d="M37.9067 72.8951C38.035 73.3102 38.5399 73.5607 39.0362 73.4533C39.5325 73.346 39.832 72.9237 39.7037 72.5087C39.5753 72.0936 39.0704 71.8431 38.5741 71.9505C38.0778 72.0578 37.7783 72.48 37.9067 72.8951Z" fill="#42E8E0"/>
<path opacity="0.3" d="M47.7525 64.4505C47.8296 64.7082 48.1462 64.8585 48.4457 64.7941C48.7537 64.7296 48.9334 64.4649 48.8564 64.2144C48.7794 63.9568 48.4628 63.8065 48.1633 63.8709C47.8638 63.9353 47.667 64.1929 47.7525 64.4505Z" fill="#42E8E0"/>
<path opacity="0.2" d="M42.2687 60.0279C42.3457 60.2855 42.6623 60.4429 42.9789 60.3785C43.287 60.3141 43.4752 60.0493 43.3982 59.7846C43.3212 59.5269 43.0046 59.3623 42.688 59.4339C42.3714 59.5055 42.1831 59.7703 42.2687 60.0279Z" fill="#42E8E0"/>
<path opacity="0.2" d="M25.3713 61.8027C25.4226 61.9673 25.6194 62.0674 25.8162 62.0245C26.0131 61.9816 26.1329 61.817 26.0815 61.6524C26.0302 61.4878 25.8333 61.3876 25.6365 61.4305C25.4397 61.4735 25.3199 61.6381 25.3713 61.8027Z" fill="#42E8E0"/>
<path opacity="0.2" d="M25.8234 60.0494C25.9261 60.3929 26.354 60.6076 26.7647 60.5145C27.1755 60.4287 27.4322 60.0708 27.3209 59.7273C27.2183 59.3838 26.7904 59.1691 26.3797 59.2622C25.9604 59.348 25.7122 59.6987 25.8234 60.0494Z" fill="#42E8E0"/>
<path opacity="0.2" d="M43.713 58.7111C43.7644 58.8757 43.9697 58.9831 44.1666 58.9401C44.3634 58.8972 44.4917 58.7254 44.4404 58.5608C44.389 58.3962 44.1837 58.2889 43.9869 58.3318C43.7815 58.3748 43.6617 58.5465 43.713 58.7111Z" fill="#42E8E0"/>
<path opacity="0.2" d="M48.2069 84.8535C48.0357 84.9751 47.7704 84.9608 47.625 84.8105C47.4795 84.6674 47.4966 84.4455 47.6763 84.3239C47.856 84.2022 48.1127 84.2165 48.2582 84.3668C48.4037 84.51 48.3866 84.7318 48.2069 84.8535Z" fill="#42E8E0"/>
<path opacity="0.2" d="M49.1651 82.9928C48.7971 83.2504 48.2495 83.2146 47.9414 82.9069C47.6334 82.5992 47.6761 82.1412 48.0441 81.8835C48.4121 81.6259 48.9597 81.6617 49.2678 81.9694C49.5758 82.2771 49.533 82.7352 49.1651 82.9928Z" fill="#42E8E0"/>
<path opacity="0.3" d="M47.8398 81.2108C47.6601 81.4255 47.72 81.7261 47.9767 81.8764C48.2334 82.0267 48.5928 81.9766 48.7725 81.7619C48.9522 81.5472 48.8923 81.2466 48.6356 81.0963C48.3789 80.946 48.0195 80.9961 47.8398 81.2108Z" fill="#42E8E0"/>
<path opacity="0.2" d="M48.3166 74.8559C48.1283 75.0778 48.1882 75.3784 48.4535 75.5358C48.7188 75.6932 49.0782 75.6431 49.2664 75.4213C49.4547 75.1995 49.3948 74.8989 49.1295 74.7414C48.8643 74.584 48.5049 74.6341 48.3166 74.8559Z" fill="#42E8E0"/>
<path opacity="0.2" d="M50.463 74.9275C50.3432 75.0706 50.386 75.2639 50.5486 75.364C50.7198 75.4642 50.9508 75.4285 51.0706 75.2925C51.1904 75.1494 51.1476 74.9561 50.985 74.8559C50.8139 74.7558 50.5828 74.7915 50.463 74.9275Z" fill="#42E8E0"/>
<g opacity="0.9">
<path opacity="0.9" d="M35.391 90.4283C35.5194 90.8433 36.0243 91.0938 36.5206 90.9865C37.0169 90.8791 37.3164 90.4569 37.188 90.0418C37.0597 89.6267 36.5548 89.3763 36.0585 89.4836C35.5622 89.591 35.2627 90.0132 35.391 90.4283Z" fill="#42E8E0"/>
<path opacity="0.9" d="M38.0691 86.2418C38.1547 86.5352 38.5141 86.7141 38.8649 86.6354C39.2158 86.5638 39.4297 86.2633 39.3355 85.9698C39.25 85.6764 38.8906 85.4975 38.5397 85.5762C38.1889 85.6478 37.975 85.9484 38.0691 86.2418Z" fill="#42E8E0"/>
</g>
<path d="M114.996 200L76.6602 181.493L114.996 162.98L153.332 181.493L114.996 200Z" fill="#312A91"/>
<path d="M114.996 194.676L76.6602 176.169L114.996 157.656L153.332 176.169L114.996 194.676Z" fill="#312A91"/>
<g opacity="0.9">
<path opacity="0.9" d="M114.996 161.792L85.3965 147.501L114.996 133.209L144.595 147.501L114.996 161.792Z" fill="url(#paint19_linear)"/>
<path opacity="0.9" d="M144.595 147.501V176.169L114.996 190.46V161.792L144.595 147.501Z" fill="url(#paint20_linear)"/>
<path opacity="0.9" d="M85.3965 147.501V176.169L114.996 190.46V161.792L85.3965 147.501Z" fill="url(#paint21_linear)"/>
</g>
<path opacity="0.7" d="M114.997 190.461L85.3984 176.169L114.997 161.878L144.597 176.169L114.997 190.461Z" fill="url(#paint22_linear)"/>
<path d="M153.334 176.169V181.494L114.998 200V194.676L153.334 176.169Z" fill="url(#paint23_linear)"/>
<path d="M76.6602 176.169V181.494L114.996 200V194.676L76.6602 176.169Z" fill="#312A91"/>
<path opacity="0.7" d="M76.6602 176.169V181.494L114.996 200V194.676L76.6602 176.169Z" fill="url(#paint24_linear)"/>
<path d="M114.996 155.487L76.6602 136.981L114.996 118.467L153.332 136.981L114.996 155.487Z" fill="#312A91"/>
<path d="M114.996 150.163L76.6602 131.656L114.996 113.143L153.332 131.656L114.996 150.163Z" fill="#312A91"/>
<path opacity="0.7" d="M114.996 150.163L76.6602 131.656L114.996 113.143L153.332 131.656L114.996 150.163Z" fill="url(#paint25_linear)"/>
<path opacity="0.3" d="M114.997 138.505L100.801 131.656L114.997 124.801L129.193 131.656L114.997 138.505Z" fill="#42E8E0"/>
<path opacity="0.3" d="M114.997 129.452L124.376 133.982L129.193 131.656L114.997 124.801L100.801 131.656L105.618 133.982L114.997 129.452Z" fill="#42E8E0"/>
<path d="M114.997 129.452L124.376 133.982L129.193 131.656L114.997 124.801L100.801 131.656L105.618 133.982L114.997 129.452Z" fill="#42E8E0"/>
<path d="M153.334 131.656V136.981L114.998 155.487V150.163L153.334 131.656Z" fill="url(#paint26_linear)"/>
<path d="M76.6602 131.656V136.981L114.996 155.487V150.163L76.6602 131.656Z" fill="#312A91"/>
<path opacity="0.7" d="M76.6602 131.656V136.981L114.996 155.487V150.163L76.6602 131.656Z" fill="url(#paint27_linear)"/>
<path opacity="0.3" d="M114.996 155.487V194.676L76.6602 176.169V136.981L114.996 155.487Z" fill="#42E8E0"/>
<path opacity="0.3" d="M85.3984 141.196V176.169L114.997 190.46L144.597 176.169V141.196L114.997 155.487L85.3984 141.196Z" fill="#42E8E0"/>
<path opacity="0.3" d="M114.997 155.487V190.46L85.3984 176.169V141.196L114.997 155.487Z" fill="#42E8E0"/>
<path opacity="0.5" d="M76.6602 136.981V176.169L114.996 194.676L153.332 176.169V136.981L114.996 155.487L76.6602 136.981Z" fill="#5CFFF3"/>
<path d="M77.5672 131.656L115.45 113.365L114.996 113.143L76.6602 131.656L114.996 150.163L115.45 149.948L77.5672 131.656Z" fill="url(#paint28_linear)"/>
<path opacity="0.5" d="M76.6602 136.981V176.169L77.1907 176.42V137.231L76.6602 136.981Z" fill="#42E8E0"/>
<path opacity="0.5" d="M153.333 136.981V176.169L152.803 176.42V137.231L153.333 136.981Z" fill="#42E8E0"/>
<path opacity="0.5" d="M114.993 155.487L114.086 155.051V194.246L114.993 194.676L115.9 194.246V155.051L114.993 155.487Z" fill="#42E8E0"/>
<path opacity="0.9" d="M117.992 122.296C117.992 122.775 117.522 123.169 116.948 123.169C116.375 123.169 115.904 122.775 115.904 122.296C115.904 121.816 116.375 121.423 116.948 121.423C117.522 121.423 117.992 121.816 117.992 122.296Z" fill="#42E8E0"/>
<path opacity="0.3" d="M103.792 115.912C104.147 115.912 104.434 115.672 104.434 115.376C104.434 115.079 104.147 114.839 103.792 114.839C103.438 114.839 103.15 115.079 103.15 115.376C103.15 115.672 103.438 115.912 103.792 115.912Z" fill="#42E8E0"/>
<path opacity="0.2" d="M108.292 109.822C108.656 109.822 108.951 109.575 108.951 109.271C108.951 108.967 108.656 108.72 108.292 108.72C107.928 108.72 107.633 108.967 107.633 109.271C107.633 109.575 107.928 109.822 108.292 109.822Z" fill="#42E8E0"/>
<path opacity="0.2" d="M127.967 107.274C127.967 107.468 127.779 107.625 127.548 107.625C127.317 107.625 127.129 107.468 127.129 107.274C127.129 107.081 127.317 106.924 127.548 106.924C127.779 106.924 127.967 107.081 127.967 107.274Z" fill="#42E8E0"/>
<path opacity="0.2" d="M126.033 106.187C126.515 106.187 126.906 105.86 126.906 105.457C126.906 105.054 126.515 104.727 126.033 104.727C125.551 104.727 125.16 105.054 125.16 105.457C125.16 105.86 125.551 106.187 126.033 106.187Z" fill="#42E8E0"/>
<path opacity="0.2" d="M106.503 108.527C106.735 108.527 106.923 108.37 106.923 108.176C106.923 107.983 106.735 107.826 106.503 107.826C106.272 107.826 106.084 107.983 106.084 108.176C106.084 108.37 106.272 108.527 106.503 108.527Z" fill="#42E8E0"/>
<path opacity="0.3" d="M106.416 125.223C106.416 125.523 106.125 125.759 105.775 125.759C105.415 125.759 105.133 125.516 105.133 125.223C105.133 124.922 105.424 124.686 105.775 124.686C106.125 124.686 106.416 124.929 106.416 125.223Z" fill="#42E8E0"/>
<path opacity="0.2" d="M110.268 119.677C110.632 119.677 110.927 119.43 110.927 119.125C110.927 118.821 110.632 118.574 110.268 118.574C109.904 118.574 109.609 118.821 109.609 119.125C109.609 119.43 109.904 119.677 110.268 119.677Z" fill="#42E8E0"/>
<path opacity="0.2" d="M108.482 118.374C108.713 118.374 108.901 118.217 108.901 118.023C108.901 117.83 108.713 117.673 108.482 117.673C108.25 117.673 108.062 117.83 108.062 118.023C108.062 118.217 108.25 118.374 108.482 118.374Z" fill="#42E8E0"/>
<path opacity="0.9" d="M114.575 113.601C114.703 114.016 115.208 114.266 115.704 114.159C116.2 114.052 116.5 113.629 116.372 113.214C116.243 112.799 115.738 112.549 115.242 112.656C114.746 112.763 114.446 113.186 114.575 113.601Z" fill="#42E8E0"/>
<path opacity="0.3" d="M124.414 105.156C124.491 105.414 124.807 105.564 125.107 105.5C125.415 105.435 125.595 105.17 125.518 104.92C125.441 104.67 125.124 104.512 124.825 104.576C124.525 104.641 124.337 104.899 124.414 105.156Z" fill="#42E8E0"/>
<path opacity="0.2" d="M118.937 100.734C119.014 100.991 119.33 101.149 119.647 101.084C119.955 101.02 120.143 100.755 120.066 100.49C119.989 100.233 119.673 100.075 119.356 100.14C119.039 100.211 118.851 100.476 118.937 100.734Z" fill="#42E8E0"/>
<path opacity="0.2" d="M102.037 102.515C102.089 102.68 102.285 102.78 102.482 102.737C102.679 102.694 102.799 102.53 102.748 102.365C102.696 102.201 102.499 102.1 102.303 102.143C102.106 102.179 101.986 102.351 102.037 102.515Z" fill="#42E8E0"/>
<path opacity="0.2" d="M102.476 100.755C102.579 101.098 103.007 101.313 103.418 101.22C103.828 101.134 104.085 100.776 103.974 100.433C103.871 100.089 103.443 99.8747 103.033 99.9678C102.622 100.054 102.374 100.411 102.476 100.755Z" fill="#42E8E0"/>
<path opacity="0.2" d="M120.381 99.4167C120.432 99.5813 120.638 99.6887 120.835 99.6457C121.031 99.6028 121.16 99.431 121.108 99.2664C121.057 99.1018 120.852 98.9945 120.655 99.0374C120.449 99.0804 120.33 99.2521 120.381 99.4167Z" fill="#42E8E0"/>
<path opacity="0.2" d="M124.875 125.559C124.704 125.681 124.438 125.666 124.293 125.516C124.147 125.373 124.165 125.151 124.344 125.029C124.515 124.908 124.781 124.922 124.926 125.072C125.072 125.216 125.046 125.437 124.875 125.559Z" fill="#42E8E0"/>
<path opacity="0.2" d="M125.831 123.698C125.463 123.956 124.915 123.92 124.607 123.613C124.299 123.305 124.342 122.847 124.71 122.589C125.078 122.332 125.626 122.367 125.934 122.675C126.242 122.983 126.199 123.441 125.831 123.698Z" fill="#42E8E0"/>
<path opacity="0.3" d="M124.5 121.916C124.32 122.131 124.38 122.432 124.637 122.582C124.894 122.732 125.253 122.682 125.433 122.468C125.612 122.253 125.552 121.952 125.296 121.802C125.039 121.652 124.688 121.702 124.5 121.916Z" fill="#42E8E0"/>
<path opacity="0.2" d="M124.987 115.562C124.798 115.783 124.858 116.084 125.123 116.241C125.389 116.399 125.748 116.349 125.936 116.127C126.125 115.905 126.065 115.605 125.799 115.447C125.534 115.29 125.175 115.347 124.987 115.562Z" fill="#42E8E0"/>
<path opacity="0.2" d="M127.129 115.633C127.009 115.776 127.052 115.97 127.215 116.07C127.386 116.17 127.617 116.134 127.737 115.998C127.856 115.855 127.814 115.662 127.651 115.562C127.48 115.461 127.249 115.497 127.129 115.633Z" fill="#42E8E0"/>
<g opacity="0.9">
<path opacity="0.9" d="M112.053 131.134C112.182 131.549 112.686 131.799 113.183 131.692C113.679 131.585 113.979 131.163 113.85 130.747C113.722 130.332 113.217 130.082 112.721 130.189C112.224 130.304 111.925 130.719 112.053 131.134Z" fill="#42E8E0"/>
<path opacity="0.9" d="M114.733 126.947C114.819 127.241 115.178 127.42 115.529 127.341C115.88 127.269 116.094 126.969 116 126.675C115.914 126.382 115.555 126.203 115.204 126.282C114.853 126.353 114.639 126.654 114.733 126.947Z" fill="#42E8E0"/>
</g>
<path opacity="0.9" d="M117.992 112.377C117.992 112.856 117.522 113.25 116.948 113.25C116.375 113.25 115.904 112.856 115.904 112.377C115.904 111.897 116.375 111.504 116.948 111.504C117.522 111.511 117.992 111.897 117.992 112.377Z" fill="#42E8E0"/>
<path opacity="0.3" d="M103.792 105.993C104.147 105.993 104.434 105.753 104.434 105.457C104.434 105.16 104.147 104.92 103.792 104.92C103.438 104.92 103.15 105.16 103.15 105.457C103.15 105.753 103.438 105.993 103.792 105.993Z" fill="#42E8E0"/>
<path opacity="0.2" d="M108.292 99.9105C108.656 99.9105 108.951 99.6638 108.951 99.3595C108.951 99.0551 108.656 98.8084 108.292 98.8084C107.928 98.8084 107.633 99.0551 107.633 99.3595C107.633 99.6638 107.928 99.9105 108.292 99.9105Z" fill="#42E8E0"/>
<path opacity="0.2" d="M127.967 97.3557C127.967 97.5489 127.779 97.7063 127.548 97.7063C127.317 97.7063 127.129 97.5489 127.129 97.3557C127.129 97.1624 127.317 97.005 127.548 97.005C127.779 97.005 127.967 97.1696 127.967 97.3557Z" fill="#42E8E0"/>
<path opacity="0.2" d="M126.033 96.2751C126.515 96.2751 126.906 95.9482 126.906 95.5451C126.906 95.142 126.515 94.8152 126.033 94.8152C125.551 94.8152 125.16 95.142 125.16 95.5451C125.16 95.9482 125.551 96.2751 126.033 96.2751Z" fill="#42E8E0"/>
<path opacity="0.2" d="M106.928 98.2574C106.928 98.4506 106.74 98.608 106.509 98.608C106.278 98.608 106.09 98.4506 106.09 98.2574C106.09 98.0642 106.278 97.9067 106.509 97.9067C106.74 97.9067 106.928 98.0642 106.928 98.2574Z" fill="#42E8E0"/>
<path opacity="0.3" d="M105.767 115.848C106.121 115.848 106.409 115.608 106.409 115.311C106.409 115.015 106.121 114.774 105.767 114.774C105.412 114.774 105.125 115.015 105.125 115.311C105.125 115.608 105.412 115.848 105.767 115.848Z" fill="#42E8E0"/>
<path opacity="0.2" d="M110.268 109.758C110.632 109.758 110.927 109.511 110.927 109.207C110.927 108.902 110.632 108.656 110.268 108.656C109.904 108.656 109.609 108.902 109.609 109.207C109.609 109.511 109.904 109.758 110.268 109.758Z" fill="#42E8E0"/>
<path opacity="0.2" d="M108.482 108.462C108.713 108.462 108.901 108.305 108.901 108.112C108.901 107.918 108.713 107.761 108.482 107.761C108.25 107.761 108.062 107.918 108.062 108.112C108.062 108.305 108.25 108.462 108.482 108.462Z" fill="#42E8E0"/>
<path opacity="0.9" d="M114.575 103.689C114.703 104.104 115.208 104.355 115.704 104.247C116.2 104.14 116.5 103.718 116.372 103.303C116.243 102.888 115.738 102.637 115.242 102.744C114.746 102.852 114.446 103.274 114.575 103.689Z" fill="#42E8E0"/>
<path opacity="0.3" d="M124.414 95.2445C124.491 95.5022 124.807 95.6524 125.107 95.588C125.415 95.5236 125.595 95.2588 125.518 95.0084C125.441 94.7579 125.124 94.6005 124.825 94.6649C124.525 94.7221 124.337 94.9869 124.414 95.2445Z" fill="#42E8E0"/>
<path opacity="0.2" d="M118.937 90.8219C119.014 91.0795 119.33 91.237 119.647 91.1725C119.955 91.1081 120.143 90.8434 120.066 90.5786C119.989 90.3209 119.673 90.1635 119.356 90.2279C119.039 90.2923 118.851 90.5643 118.937 90.8219Z" fill="#42E8E0"/>
<path opacity="0.2" d="M102.037 92.5966C102.089 92.7612 102.285 92.8614 102.482 92.8185C102.679 92.7756 102.799 92.611 102.748 92.4464C102.696 92.2818 102.499 92.1816 102.303 92.2245C102.106 92.2675 101.986 92.4321 102.037 92.5966Z" fill="#42E8E0"/>
<path opacity="0.2" d="M102.476 90.8434C102.579 91.1869 103.007 91.4016 103.418 91.3085C103.828 91.2155 104.085 90.8648 103.974 90.5213C103.871 90.1778 103.443 89.9631 103.033 90.0562C102.622 90.142 102.374 90.4927 102.476 90.8434Z" fill="#42E8E0"/>
<path opacity="0.2" d="M120.381 89.5051C120.432 89.6697 120.638 89.7771 120.835 89.7341C121.031 89.6912 121.16 89.5194 121.108 89.3548C121.057 89.1902 120.852 89.0829 120.655 89.1258C120.449 89.1688 120.33 89.3405 120.381 89.5051Z" fill="#42E8E0"/>
<path opacity="0.2" d="M124.875 115.647C124.704 115.769 124.438 115.755 124.293 115.604C124.147 115.461 124.165 115.24 124.344 115.118C124.524 114.996 124.781 115.011 124.926 115.161C125.072 115.304 125.046 115.519 124.875 115.647Z" fill="#42E8E0"/>
<path opacity="0.2" d="M125.831 113.787C125.463 114.044 124.915 114.009 124.607 113.701C124.299 113.393 124.342 112.935 124.71 112.678C125.078 112.42 125.626 112.456 125.934 112.763C126.242 113.064 126.199 113.529 125.831 113.787Z" fill="#42E8E0"/>
<path opacity="0.3" d="M124.5 112.005C124.32 112.22 124.38 112.52 124.637 112.67C124.894 112.821 125.253 112.771 125.433 112.556C125.612 112.341 125.552 112.041 125.296 111.89C125.039 111.74 124.688 111.79 124.5 112.005Z" fill="#42E8E0"/>
<path opacity="0.2" d="M124.987 105.65C124.798 105.872 124.858 106.172 125.123 106.33C125.389 106.487 125.748 106.437 125.936 106.215C126.125 105.993 126.065 105.693 125.799 105.535C125.534 105.378 125.175 105.428 124.987 105.65Z" fill="#42E8E0"/>
<path opacity="0.2" d="M127.129 105.722C127.009 105.865 127.052 106.058 127.215 106.158C127.386 106.258 127.617 106.222 127.737 106.086C127.856 105.943 127.814 105.75 127.651 105.65C127.48 105.55 127.249 105.578 127.129 105.722Z" fill="#42E8E0"/>
<g opacity="0.9">
<path opacity="0.9" d="M112.053 121.222C112.182 121.637 112.686 121.888 113.183 121.781C113.679 121.673 113.979 121.251 113.85 120.836C113.722 120.421 113.217 120.17 112.721 120.278C112.224 120.385 111.925 120.807 112.053 121.222Z" fill="#42E8E0"/>
<path opacity="0.9" d="M114.733 117.036C114.819 117.329 115.178 117.508 115.529 117.429C115.88 117.351 116.094 117.057 116 116.764C115.914 116.47 115.555 116.292 115.204 116.37C114.853 116.442 114.639 116.742 114.733 117.036Z" fill="#42E8E0"/>
</g>
<path opacity="0.9" d="M117.992 102.465C117.992 102.945 117.522 103.338 116.948 103.338C116.375 103.338 115.904 102.945 115.904 102.465C115.904 101.986 116.375 101.592 116.948 101.592C117.522 101.592 117.992 101.986 117.992 102.465Z" fill="#42E8E0"/>
<path opacity="0.3" d="M103.792 96.0819C104.147 96.0819 104.434 95.8416 104.434 95.5451C104.434 95.2487 104.147 95.0084 103.792 95.0084C103.438 95.0084 103.15 95.2487 103.15 95.5451C103.15 95.8416 103.438 96.0819 103.792 96.0819Z" fill="#42E8E0"/>
<path opacity="0.2" d="M108.292 89.9989C108.656 89.9989 108.951 89.7522 108.951 89.4479C108.951 89.1436 108.656 88.8969 108.292 88.8969C107.928 88.8969 107.633 89.1436 107.633 89.4479C107.633 89.7522 107.928 89.9989 108.292 89.9989Z" fill="#42E8E0"/>
<path opacity="0.2" d="M127.967 87.4441C127.967 87.6373 127.779 87.7948 127.548 87.7948C127.317 87.7948 127.129 87.6373 127.129 87.4441C127.129 87.2509 127.317 87.0934 127.548 87.0934C127.779 87.0934 127.967 87.2509 127.967 87.4441Z" fill="#42E8E0"/>
<path opacity="0.2" d="M126.033 86.3635C126.515 86.3635 126.906 86.0367 126.906 85.6335C126.906 85.2304 126.515 84.9036 126.033 84.9036C125.551 84.9036 125.16 85.2304 125.16 85.6335C125.16 86.0367 125.551 86.3635 126.033 86.3635Z" fill="#42E8E0"/>
<path opacity="0.2" d="M106.928 88.3458C106.928 88.539 106.74 88.6965 106.509 88.6965C106.278 88.6965 106.09 88.539 106.09 88.3458C106.09 88.1526 106.278 87.9951 106.509 87.9951C106.74 87.9951 106.928 88.1526 106.928 88.3458Z" fill="#42E8E0"/>
<path opacity="0.3" d="M105.767 105.929C106.121 105.929 106.409 105.689 106.409 105.392C106.409 105.096 106.121 104.856 105.767 104.856C105.412 104.856 105.125 105.096 105.125 105.392C105.125 105.689 105.412 105.929 105.767 105.929Z" fill="#42E8E0"/>
<path opacity="0.2" d="M110.268 99.8461C110.632 99.8461 110.927 99.5994 110.927 99.2951C110.927 98.9908 110.632 98.744 110.268 98.744C109.904 98.744 109.609 98.9908 109.609 99.2951C109.609 99.5994 109.904 99.8461 110.268 99.8461Z" fill="#42E8E0"/>
<path opacity="0.2" d="M108.901 98.193C108.901 98.3863 108.713 98.5437 108.482 98.5437C108.251 98.5437 108.062 98.3863 108.062 98.193C108.062 97.9998 108.251 97.8424 108.482 97.8424C108.713 97.8424 108.901 97.9998 108.901 98.193Z" fill="#42E8E0"/>
<path opacity="0.9" d="M114.575 93.7703C114.703 94.1854 115.208 94.4359 115.704 94.3285C116.2 94.2212 116.5 93.799 116.372 93.3839C116.243 92.9688 115.738 92.7183 115.242 92.8257C114.746 92.933 114.446 93.3553 114.575 93.7703Z" fill="#42E8E0"/>
<path opacity="0.3" d="M124.414 85.3258C124.491 85.5834 124.807 85.7337 125.107 85.6693C125.415 85.6049 125.595 85.3401 125.518 85.0896C125.441 84.832 125.124 84.6817 124.825 84.7461C124.525 84.8105 124.337 85.0681 124.414 85.3258Z" fill="#42E8E0"/>
<path opacity="0.2" d="M118.937 80.9103C119.014 81.1679 119.33 81.3325 119.647 81.2609C119.955 81.1965 120.143 80.9318 120.066 80.667C119.989 80.4093 119.673 80.2447 119.356 80.3163C119.039 80.3807 118.851 80.6455 118.937 80.9103Z" fill="#42E8E0"/>
<path opacity="0.2" d="M102.037 82.685C102.089 82.8496 102.285 82.9498 102.482 82.9069C102.679 82.864 102.799 82.6994 102.748 82.5348C102.696 82.3702 102.499 82.27 102.303 82.3129C102.106 82.3487 101.986 82.5204 102.037 82.685Z" fill="#42E8E0"/>
<path opacity="0.2" d="M102.476 80.9246C102.579 81.2681 103.007 81.4828 103.418 81.3898C103.828 81.3039 104.085 80.9461 103.974 80.6026C103.871 80.2591 103.443 80.0444 103.033 80.1374C102.622 80.2304 102.374 80.5811 102.476 80.9246Z" fill="#42E8E0"/>
<path opacity="0.2" d="M120.381 79.5935C120.432 79.7581 120.638 79.8654 120.835 79.8225C121.031 79.7796 121.16 79.6078 121.108 79.4432C121.057 79.2786 120.852 79.1713 120.655 79.2142C120.449 79.25 120.33 79.4218 120.381 79.5935Z" fill="#42E8E0"/>
<path opacity="0.2" d="M124.875 105.729C124.704 105.85 124.438 105.836 124.293 105.686C124.147 105.543 124.165 105.321 124.344 105.199C124.524 105.077 124.781 105.092 124.926 105.242C125.072 105.385 125.046 105.607 124.875 105.729Z" fill="#42E8E0"/>
<path opacity="0.2" d="M125.831 103.868C125.463 104.126 124.915 104.09 124.607 103.782C124.299 103.474 124.342 103.016 124.71 102.759C125.078 102.501 125.626 102.537 125.934 102.845C126.242 103.152 126.199 103.61 125.831 103.868Z" fill="#42E8E0"/>
<path opacity="0.3" d="M125.419 102.651C125.614 102.442 125.568 102.141 125.318 101.979C125.068 101.816 124.708 101.854 124.514 102.063C124.32 102.272 124.365 102.573 124.615 102.736C124.865 102.898 125.225 102.861 125.419 102.651Z" fill="#42E8E0"/>
<path opacity="0.2" d="M124.987 95.7312C124.798 95.953 124.858 96.2536 125.123 96.411C125.389 96.5685 125.748 96.5184 125.936 96.2965C126.125 96.0747 126.065 95.7741 125.799 95.6167C125.534 95.4592 125.175 95.5165 124.987 95.7312Z" fill="#42E8E0"/>
<path opacity="0.2" d="M127.129 95.8099C127.009 95.953 127.052 96.1463 127.215 96.2465C127.386 96.3466 127.617 96.3109 127.737 96.1749C127.856 96.0318 127.814 95.8385 127.651 95.7383C127.48 95.631 127.249 95.6668 127.129 95.8099Z" fill="#42E8E0"/>
<g opacity="0.9">
<path opacity="0.9" d="M112.053 111.311C112.182 111.726 112.686 111.976 113.183 111.869C113.679 111.762 113.979 111.339 113.85 110.924C113.722 110.509 113.217 110.259 112.721 110.366C112.224 110.473 111.925 110.896 112.053 111.311Z" fill="#42E8E0"/>
<path opacity="0.9" d="M114.733 107.117C114.819 107.41 115.178 107.589 115.529 107.511C115.88 107.432 116.094 107.139 116 106.845C115.914 106.552 115.555 106.373 115.204 106.452C114.853 106.523 114.639 106.824 114.733 107.117Z" fill="#42E8E0"/>
</g>
<path opacity="0.9" d="M117.992 81.5901C117.992 82.0696 117.522 82.4632 116.948 82.4632C116.375 82.4632 115.904 82.0696 115.904 81.5901C115.904 81.1106 116.375 80.717 116.948 80.717C117.522 80.717 117.992 81.1035 117.992 81.5901Z" fill="#42E8E0"/>
<path opacity="0.3" d="M103.792 75.2067C104.147 75.2067 104.434 74.9664 104.434 74.6699C104.434 74.3735 104.147 74.1332 103.792 74.1332C103.438 74.1332 103.15 74.3735 103.15 74.6699C103.15 74.9664 103.438 75.2067 103.792 75.2067Z" fill="#42E8E0"/>
<path opacity="0.2" d="M108.292 69.1165C108.656 69.1165 108.951 68.8698 108.951 68.5655C108.951 68.2611 108.656 68.0144 108.292 68.0144C107.928 68.0144 107.633 68.2611 107.633 68.5655C107.633 68.8698 107.928 69.1165 108.292 69.1165Z" fill="#42E8E0"/>
<path opacity="0.2" d="M127.967 66.5689C127.967 66.7621 127.779 66.9195 127.548 66.9195C127.317 66.9195 127.129 66.7621 127.129 66.5689C127.129 66.3756 127.317 66.2182 127.548 66.2182C127.779 66.2182 127.967 66.3756 127.967 66.5689Z" fill="#42E8E0"/>
<path opacity="0.2" d="M126.033 65.4811C126.515 65.4811 126.906 65.1543 126.906 64.7511C126.906 64.348 126.515 64.0212 126.033 64.0212C125.551 64.0212 125.16 64.348 125.16 64.7511C125.16 65.1543 125.551 65.4811 126.033 65.4811Z" fill="#42E8E0"/>
<path opacity="0.2" d="M106.928 67.4706C106.928 67.6638 106.74 67.8212 106.509 67.8212C106.278 67.8212 106.09 67.6638 106.09 67.4706C106.09 67.2773 106.278 67.1199 106.509 67.1199C106.74 67.1127 106.928 67.2702 106.928 67.4706Z" fill="#42E8E0"/>
<path opacity="0.3" d="M105.767 85.0539C106.121 85.0539 106.409 84.8136 106.409 84.5171C106.409 84.2207 106.121 83.9804 105.767 83.9804C105.412 83.9804 105.125 84.2207 105.125 84.5171C105.125 84.8136 105.412 85.0539 105.767 85.0539Z" fill="#42E8E0"/>
<path opacity="0.2" d="M110.268 78.9709C110.632 78.9709 110.927 78.7242 110.927 78.4199C110.927 78.1155 110.632 77.8688 110.268 77.8688C109.904 77.8688 109.609 78.1155 109.609 78.4199C109.609 78.7242 109.904 78.9709 110.268 78.9709Z" fill="#42E8E0"/>
<path opacity="0.2" d="M108.901 77.3178C108.901 77.511 108.713 77.6684 108.482 77.6684C108.251 77.6684 108.062 77.511 108.062 77.3178C108.062 77.1245 108.251 76.9671 108.482 76.9671C108.713 76.9671 108.901 77.1245 108.901 77.3178Z" fill="#42E8E0"/>
<path opacity="0.9" d="M114.575 72.8951C114.703 73.3102 115.208 73.5607 115.704 73.4533C116.2 73.346 116.5 72.9237 116.372 72.5087C116.243 72.0936 115.738 71.8431 115.242 71.9505C114.746 72.0578 114.446 72.4801 114.575 72.8951Z" fill="#42E8E0"/>
<path opacity="0.3" d="M124.414 64.4506C124.491 64.7082 124.807 64.8585 125.107 64.7941C125.415 64.7297 125.595 64.4649 125.518 64.2144C125.441 63.9568 125.124 63.8065 124.825 63.8709C124.525 63.9353 124.337 64.1929 124.414 64.4506Z" fill="#42E8E0"/>
<path opacity="0.2" d="M118.937 60.0279C119.014 60.2855 119.33 60.443 119.647 60.3786C119.955 60.3141 120.143 60.0494 120.066 59.7846C119.989 59.5269 119.673 59.3624 119.356 59.4339C119.039 59.5055 118.851 59.7703 118.937 60.0279Z" fill="#42E8E0"/>
<path opacity="0.2" d="M102.037 61.8027C102.089 61.9673 102.285 62.0675 102.482 62.0245C102.679 61.9816 102.799 61.817 102.748 61.6524C102.696 61.4878 102.499 61.3876 102.303 61.4305C102.106 61.4735 101.986 61.6381 102.037 61.8027Z" fill="#42E8E0"/>
<path opacity="0.2" d="M102.476 60.0494C102.579 60.3929 103.007 60.6076 103.418 60.5145C103.828 60.4287 104.085 60.0708 103.974 59.7273C103.871 59.3838 103.443 59.1691 103.033 59.2622C102.622 59.3481 102.374 59.6987 102.476 60.0494Z" fill="#42E8E0"/>
<path opacity="0.2" d="M120.381 58.7111C120.432 58.8757 120.638 58.9831 120.835 58.9401C121.031 58.8972 121.16 58.7254 121.108 58.5608C121.057 58.3962 120.852 58.2889 120.655 58.3318C120.449 58.3748 120.33 58.5465 120.381 58.7111Z" fill="#42E8E0"/>
<path opacity="0.2" d="M124.875 84.8535C124.704 84.9751 124.438 84.9608 124.293 84.8105C124.147 84.6674 124.165 84.4456 124.344 84.3239C124.524 84.2023 124.781 84.2166 124.926 84.3669C125.072 84.51 125.046 84.7318 124.875 84.8535Z" fill="#42E8E0"/>
<path opacity="0.2" d="M125.831 82.9928C125.463 83.2504 124.915 83.2146 124.607 82.9069C124.299 82.5992 124.342 82.1412 124.71 81.8835C125.078 81.6259 125.626 81.6617 125.934 81.9694C126.242 82.2771 126.199 82.7351 125.831 82.9928Z" fill="#42E8E0"/>
<path opacity="0.3" d="M125.419 81.7757C125.614 81.5666 125.568 81.2654 125.318 81.1029C125.068 80.9405 124.708 80.9783 124.514 81.1874C124.32 81.3965 124.365 81.6978 124.615 81.8602C124.865 82.0227 125.225 81.9849 125.419 81.7757Z" fill="#42E8E0"/>
<path opacity="0.2" d="M124.987 74.856C124.798 75.0778 124.858 75.3784 125.123 75.5358C125.389 75.6933 125.748 75.6432 125.936 75.4213C126.125 75.1995 126.065 74.8989 125.799 74.7415C125.534 74.584 125.175 74.6341 124.987 74.856Z" fill="#42E8E0"/>
<path opacity="0.2" d="M127.129 74.9275C127.009 75.0706 127.052 75.2639 127.215 75.3641C127.386 75.4643 127.617 75.4285 127.737 75.2925C127.856 75.1494 127.814 74.9562 127.651 74.856C127.48 74.7558 127.249 74.7915 127.129 74.9275Z" fill="#42E8E0"/>
<g opacity="0.9">
<path opacity="0.9" d="M112.053 90.4283C112.182 90.8434 112.686 91.0938 113.183 90.9865C113.679 90.8791 113.979 90.4569 113.85 90.0418C113.722 89.6268 113.217 89.3763 112.721 89.4836C112.224 89.591 111.925 90.0132 112.053 90.4283Z" fill="#42E8E0"/>
<path opacity="0.9" d="M114.733 86.2418C114.819 86.5352 115.178 86.7141 115.529 86.6354C115.88 86.5567 116.094 86.2633 116 85.9699C115.914 85.6764 115.555 85.4975 115.204 85.5762C114.853 85.6478 114.639 85.9484 114.733 86.2418Z" fill="#42E8E0"/>
</g>
<path d="M191.672 200L153.336 181.494L191.663 162.98L229.999 181.494L191.672 200Z" fill="#312A91"/>
<path d="M191.672 194.676L153.336 176.169L191.663 157.656L229.999 176.169L191.672 194.676Z" fill="#312A91"/>
<g opacity="0.9">
<path opacity="0.9" d="M191.673 161.792L162.074 147.501L191.665 133.209L221.264 147.501L191.673 161.792Z" fill="url(#paint29_linear)"/>
<path opacity="0.9" d="M221.264 147.501V176.169L191.674 190.461V161.792L221.264 147.501Z" fill="url(#paint30_linear)"/>
<path opacity="0.9" d="M162.074 147.501V176.169L191.673 190.461V161.792L162.074 147.501Z" fill="url(#paint31_linear)"/>
</g>
<path opacity="0.7" d="M191.673 190.461L162.074 176.169L191.665 161.878L221.264 176.169L191.673 190.461Z" fill="url(#paint32_linear)"/>
<path d="M230.001 176.169V181.494L191.674 200V194.676L230.001 176.169Z" fill="url(#paint33_linear)"/>
<path d="M153.336 176.169V181.494L191.672 200V194.676L153.336 176.169Z" fill="#312A91"/>
<path opacity="0.7" d="M153.336 176.169V181.494L191.672 200V194.676L153.336 176.169Z" fill="url(#paint34_linear)"/>
<path d="M191.672 155.487L153.336 136.981L191.663 118.467L229.999 136.981L191.672 155.487Z" fill="#312A91"/>
<path d="M191.672 150.163L153.336 131.656L191.663 113.143L229.999 131.656L191.672 150.163Z" fill="#312A91"/>
<path opacity="0.7" d="M191.672 150.163L153.336 131.656L191.663 113.143L229.999 131.656L191.672 150.163Z" fill="url(#paint35_linear)"/>
<path opacity="0.3" d="M191.673 138.505L177.477 131.656L191.664 124.801L205.861 131.656L191.673 138.505Z" fill="#42E8E0"/>
<path opacity="0.3" d="M191.664 129.452L201.043 133.982L205.861 131.656L191.664 124.801L177.477 131.656L182.294 133.982L191.664 129.452Z" fill="#42E8E0"/>
<path d="M191.664 129.452L201.043 133.982L205.861 131.656L191.664 124.801L177.477 131.656L182.294 133.982L191.664 129.452Z" fill="#42E8E0"/>
<path d="M230.001 131.656V136.981L191.674 155.487V150.163L230.001 131.656Z" fill="url(#paint36_linear)"/>
<path d="M153.336 131.656V136.981L191.672 155.487V150.163L153.336 131.656Z" fill="#312A91"/>
<path opacity="0.7" d="M153.336 131.656V136.981L191.672 155.487V150.163L153.336 131.656Z" fill="url(#paint37_linear)"/>
<path opacity="0.3" d="M191.672 155.487V194.676L153.336 176.169V136.981L191.672 155.487Z" fill="#42E8E0"/>
<path opacity="0.3" d="M162.074 141.196V176.169L191.673 190.461L221.264 176.169V141.196L191.673 155.487L162.074 141.196Z" fill="#42E8E0"/>
<path opacity="0.3" d="M191.673 155.487V190.461L162.074 176.169V141.196L191.673 155.487Z" fill="#42E8E0"/>
<path opacity="0.5" d="M153.336 136.981V176.169L191.672 194.676L229.999 176.169V136.981L191.672 155.487L153.336 136.981Z" fill="#5CFFF3"/>
<path d="M154.234 131.656L192.117 113.365L191.663 113.143L153.336 131.656L191.672 150.163L192.117 149.948L154.234 131.656Z" fill="url(#paint38_linear)"/>
<path opacity="0.5" d="M153.336 136.981V176.169L153.858 176.42V137.231L153.336 136.981Z" fill="#42E8E0"/>
<path opacity="0.5" d="M229.999 136.981V176.169L229.477 176.42V137.231L229.999 136.981Z" fill="#42E8E0"/>
<path opacity="0.5" d="M191.669 155.487L190.762 155.051V194.246L191.669 194.676L192.567 194.246V155.051L191.669 155.487Z" fill="#42E8E0"/>
<path opacity="0.9" d="M194.658 122.296C194.658 122.775 194.188 123.169 193.614 123.169C193.041 123.169 192.57 122.775 192.57 122.296C192.57 121.816 193.041 121.423 193.614 121.423C194.196 121.423 194.658 121.816 194.658 122.296Z" fill="#42E8E0"/>
<path opacity="0.3" d="M180.466 115.912C180.82 115.912 181.108 115.672 181.108 115.376C181.108 115.079 180.82 114.839 180.466 114.839C180.112 114.839 179.824 115.079 179.824 115.376C179.824 115.672 180.112 115.912 180.466 115.912Z" fill="#42E8E0"/>
<path opacity="0.2" d="M184.966 109.822C185.329 109.822 185.624 109.575 185.624 109.271C185.624 108.967 185.329 108.72 184.966 108.72C184.602 108.72 184.307 108.967 184.307 109.271C184.307 109.575 184.602 109.822 184.966 109.822Z" fill="#42E8E0"/>
<path opacity="0.2" d="M204.639 107.274C204.639 107.468 204.451 107.625 204.22 107.625C203.989 107.625 203.801 107.468 203.801 107.274C203.801 107.081 203.989 106.924 204.22 106.924C204.451 106.924 204.639 107.081 204.639 107.274Z" fill="#42E8E0"/>
<path opacity="0.2" d="M202.705 106.187C203.187 106.187 203.578 105.86 203.578 105.457C203.578 105.054 203.187 104.727 202.705 104.727C202.223 104.727 201.832 105.054 201.832 105.457C201.832 105.86 202.223 106.187 202.705 106.187Z" fill="#42E8E0"/>
<path opacity="0.2" d="M183.175 108.527C183.407 108.527 183.594 108.37 183.594 108.176C183.594 107.983 183.407 107.826 183.175 107.826C182.944 107.826 182.756 107.983 182.756 108.176C182.756 108.37 182.944 108.527 183.175 108.527Z" fill="#42E8E0"/>
<path opacity="0.3" d="M183.078 125.223C183.078 125.523 182.788 125.759 182.437 125.759C182.077 125.759 181.795 125.516 181.795 125.223C181.795 124.922 182.086 124.686 182.437 124.686C182.788 124.686 183.078 124.929 183.078 125.223Z" fill="#42E8E0"/>
<path opacity="0.2" d="M187.593 119.125C187.593 119.426 187.302 119.677 186.934 119.677C186.575 119.677 186.275 119.433 186.275 119.125C186.275 118.818 186.566 118.574 186.934 118.574C187.302 118.574 187.593 118.818 187.593 119.125Z" fill="#42E8E0"/>
<path opacity="0.2" d="M185.154 118.374C185.385 118.374 185.573 118.217 185.573 118.023C185.573 117.83 185.385 117.673 185.154 117.673C184.922 117.673 184.734 117.83 184.734 118.023C184.734 118.217 184.922 118.374 185.154 118.374Z" fill="#42E8E0"/>
<path opacity="0.9" d="M191.239 113.601C191.368 114.016 191.873 114.266 192.369 114.159C192.865 114.052 193.165 113.629 193.036 113.214C192.908 112.799 192.403 112.549 191.907 112.656C191.419 112.763 191.119 113.186 191.239 113.601Z" fill="#42E8E0"/>
<path opacity="0.3" d="M201.084 105.156C201.161 105.414 201.477 105.564 201.777 105.5C202.085 105.435 202.265 105.171 202.188 104.92C202.111 104.662 201.794 104.512 201.494 104.577C201.195 104.641 201.007 104.899 201.084 105.156Z" fill="#42E8E0"/>
<path opacity="0.2" d="M195.597 100.734C195.674 100.991 195.991 101.149 196.308 101.084C196.616 101.02 196.812 100.755 196.727 100.49C196.65 100.233 196.333 100.075 196.017 100.14C195.709 100.211 195.52 100.476 195.597 100.734Z" fill="#42E8E0"/>
<path opacity="0.2" d="M178.707 102.516C178.759 102.68 178.955 102.78 179.152 102.737C179.349 102.694 179.469 102.53 179.417 102.365C179.366 102.201 179.169 102.1 178.972 102.143C178.776 102.179 178.656 102.351 178.707 102.516Z" fill="#42E8E0"/>
<path opacity="0.2" d="M179.154 100.755C179.257 101.099 179.685 101.313 180.095 101.22C180.506 101.134 180.763 100.776 180.652 100.433C180.549 100.089 180.121 99.8748 179.71 99.9678C179.299 100.054 179.051 100.411 179.154 100.755Z" fill="#42E8E0"/>
<path opacity="0.2" d="M197.051 99.4168C197.102 99.5814 197.308 99.6887 197.504 99.6458C197.701 99.6028 197.83 99.4311 197.778 99.2665C197.727 99.1019 197.522 98.9945 197.325 99.0375C197.119 99.0804 197 99.2522 197.051 99.4168Z" fill="#42E8E0"/>
<path opacity="0.2" d="M201.537 125.559C201.366 125.681 201.101 125.666 200.955 125.516C200.81 125.373 200.827 125.151 201.006 125.03C201.178 124.908 201.443 124.922 201.588 125.072C201.734 125.216 201.717 125.437 201.537 125.559Z" fill="#42E8E0"/>
<path opacity="0.2" d="M202.495 123.698C202.127 123.956 201.58 123.92 201.272 123.613C200.963 123.305 201.006 122.847 201.374 122.589C201.742 122.332 202.29 122.367 202.598 122.675C202.906 122.983 202.863 123.441 202.495 123.698Z" fill="#42E8E0"/>
<path opacity="0.3" d="M201.17 121.917C200.99 122.131 201.05 122.432 201.307 122.582C201.563 122.732 201.923 122.682 202.103 122.468C202.282 122.253 202.222 121.952 201.966 121.802C201.709 121.652 201.35 121.702 201.17 121.917Z" fill="#42E8E0"/>
<path opacity="0.2" d="M201.649 115.562C201.46 115.783 201.52 116.084 201.786 116.241C202.051 116.399 202.41 116.349 202.598 116.127C202.787 115.905 202.727 115.605 202.462 115.447C202.205 115.29 201.837 115.347 201.649 115.562Z" fill="#42E8E0"/>
<path opacity="0.2" d="M203.791 115.633C203.671 115.776 203.714 115.97 203.877 116.07C204.048 116.17 204.279 116.134 204.399 115.998C204.519 115.855 204.476 115.662 204.313 115.562C204.151 115.461 203.911 115.497 203.791 115.633Z" fill="#42E8E0"/>
<g opacity="0.9">
<path opacity="0.9" d="M188.719 131.134C188.848 131.549 189.352 131.799 189.849 131.692C190.345 131.585 190.645 131.163 190.516 130.748C190.388 130.332 189.883 130.082 189.387 130.189C188.89 130.304 188.591 130.719 188.719 131.134Z" fill="#42E8E0"/>
<path opacity="0.9" d="M191.4 126.947C191.486 127.241 191.845 127.42 192.196 127.341C192.547 127.269 192.761 126.969 192.667 126.676C192.581 126.382 192.222 126.203 191.871 126.282C191.52 126.353 191.315 126.654 191.4 126.947Z" fill="#42E8E0"/>
</g>
<path opacity="0.9" d="M194.658 112.377C194.658 112.856 194.188 113.25 193.614 113.25C193.041 113.25 192.57 112.856 192.57 112.377C192.57 111.897 193.041 111.504 193.614 111.504C194.196 111.511 194.658 111.897 194.658 112.377Z" fill="#42E8E0"/>
<path opacity="0.3" d="M180.466 105.993C180.82 105.993 181.108 105.753 181.108 105.457C181.108 105.16 180.82 104.92 180.466 104.92C180.112 104.92 179.824 105.16 179.824 105.457C179.824 105.753 180.112 105.993 180.466 105.993Z" fill="#42E8E0"/>
<path opacity="0.2" d="M184.966 99.9105C185.329 99.9105 185.624 99.6638 185.624 99.3595C185.624 99.0551 185.329 98.8084 184.966 98.8084C184.602 98.8084 184.307 99.0551 184.307 99.3595C184.307 99.6638 184.602 99.9105 184.966 99.9105Z" fill="#42E8E0"/>
<path opacity="0.2" d="M204.639 97.3557C204.639 97.5489 204.451 97.7063 204.22 97.7063C203.989 97.7063 203.801 97.5489 203.801 97.3557C203.801 97.1624 203.989 97.005 204.22 97.005C204.451 97.005 204.639 97.1696 204.639 97.3557Z" fill="#42E8E0"/>
<path opacity="0.2" d="M202.705 96.2751C203.187 96.2751 203.578 95.9482 203.578 95.5451C203.578 95.142 203.187 94.8152 202.705 94.8152C202.223 94.8152 201.832 95.142 201.832 95.5451C201.832 95.9482 202.223 96.2751 202.705 96.2751Z" fill="#42E8E0"/>
<path opacity="0.2" d="M183.594 98.2574C183.594 98.4506 183.406 98.6081 183.175 98.6081C182.944 98.6081 182.756 98.4506 182.756 98.2574C182.756 98.0642 182.944 97.9067 183.175 97.9067C183.406 97.9067 183.594 98.0642 183.594 98.2574Z" fill="#42E8E0"/>
<path opacity="0.3" d="M182.437 115.848C182.791 115.848 183.078 115.608 183.078 115.311C183.078 115.015 182.791 114.774 182.437 114.774C182.082 114.774 181.795 115.015 181.795 115.311C181.795 115.608 182.082 115.848 182.437 115.848Z" fill="#42E8E0"/>
<path opacity="0.2" d="M187.593 109.207C187.593 109.507 187.302 109.758 186.934 109.758C186.575 109.758 186.275 109.514 186.275 109.207C186.275 108.906 186.566 108.656 186.934 108.656C187.302 108.663 187.593 108.906 187.593 109.207Z" fill="#42E8E0"/>
<path opacity="0.2" d="M185.154 108.462C185.385 108.462 185.573 108.305 185.573 108.112C185.573 107.918 185.385 107.761 185.154 107.761C184.922 107.761 184.734 107.918 184.734 108.112C184.734 108.305 184.922 108.462 185.154 108.462Z" fill="#42E8E0"/>
<path opacity="0.9" d="M191.239 103.689C191.368 104.104 191.873 104.355 192.369 104.247C192.865 104.14 193.165 103.718 193.036 103.303C192.908 102.888 192.403 102.637 191.907 102.744C191.419 102.852 191.119 103.274 191.239 103.689Z" fill="#42E8E0"/>
<path opacity="0.3" d="M201.084 95.2446C201.161 95.5022 201.477 95.6525 201.777 95.5881C202.085 95.5237 202.265 95.2589 202.188 95.0084C202.111 94.7508 201.794 94.6005 201.494 94.6649C201.195 94.7293 201.007 94.9869 201.084 95.2446Z" fill="#42E8E0"/>
<path opacity="0.2" d="M195.597 90.8219C195.674 91.0795 195.991 91.237 196.308 91.1725C196.616 91.1081 196.812 90.8434 196.727 90.5786C196.65 90.3209 196.333 90.1635 196.017 90.2279C195.709 90.2923 195.52 90.5643 195.597 90.8219Z" fill="#42E8E0"/>
<path opacity="0.2" d="M178.707 92.5966C178.759 92.7612 178.955 92.8614 179.152 92.8185C179.349 92.7756 179.469 92.611 179.417 92.4464C179.366 92.2818 179.169 92.1816 178.972 92.2245C178.776 92.2675 178.656 92.4321 178.707 92.5966Z" fill="#42E8E0"/>
<path opacity="0.2" d="M179.154 90.8434C179.257 91.1869 179.685 91.4016 180.095 91.3085C180.506 91.2155 180.763 90.8648 180.652 90.5213C180.549 90.1778 180.121 89.9631 179.71 90.0562C179.299 90.142 179.051 90.4927 179.154 90.8434Z" fill="#42E8E0"/>
<path opacity="0.2" d="M197.051 89.5051C197.102 89.6697 197.308 89.7771 197.504 89.7341C197.701 89.6912 197.83 89.5194 197.778 89.3548C197.727 89.1902 197.522 89.0829 197.325 89.1258C197.119 89.1688 197 89.3405 197.051 89.5051Z" fill="#42E8E0"/>
<path opacity="0.2" d="M201.537 115.647C201.366 115.769 201.101 115.755 200.955 115.604C200.81 115.461 200.827 115.24 201.006 115.118C201.178 114.996 201.443 115.011 201.588 115.161C201.734 115.304 201.717 115.519 201.537 115.647Z" fill="#42E8E0"/>
<path opacity="0.2" d="M202.495 113.787C202.127 114.044 201.58 114.009 201.272 113.701C200.963 113.393 201.006 112.935 201.374 112.678C201.742 112.42 202.29 112.456 202.598 112.763C202.906 113.064 202.863 113.529 202.495 113.787Z" fill="#42E8E0"/>
<path opacity="0.3" d="M201.17 112.005C200.99 112.22 201.05 112.52 201.307 112.67C201.563 112.821 201.923 112.771 202.103 112.556C202.282 112.341 202.222 112.041 201.966 111.89C201.709 111.74 201.35 111.79 201.17 112.005Z" fill="#42E8E0"/>
<path opacity="0.2" d="M201.649 105.65C201.46 105.872 201.52 106.172 201.786 106.33C202.051 106.487 202.41 106.437 202.598 106.215C202.787 105.993 202.727 105.693 202.462 105.535C202.205 105.378 201.837 105.428 201.649 105.65Z" fill="#42E8E0"/>
<path opacity="0.2" d="M203.791 105.722C203.671 105.865 203.714 106.058 203.877 106.158C204.048 106.258 204.279 106.222 204.399 106.086C204.519 105.943 204.476 105.75 204.313 105.65C204.151 105.55 203.911 105.578 203.791 105.722Z" fill="#42E8E0"/>
<g opacity="0.9">
<path opacity="0.9" d="M188.719 121.222C188.848 121.637 189.352 121.888 189.849 121.781C190.345 121.673 190.645 121.251 190.516 120.836C190.388 120.421 189.883 120.17 189.387 120.278C188.89 120.385 188.591 120.807 188.719 121.222Z" fill="#42E8E0"/>
<path opacity="0.9" d="M191.4 117.036C191.486 117.329 191.845 117.508 192.196 117.429C192.547 117.358 192.761 117.057 192.667 116.764C192.581 116.47 192.222 116.292 191.871 116.37C191.52 116.442 191.315 116.742 191.4 117.036Z" fill="#42E8E0"/>
</g>
<path opacity="0.9" d="M194.658 102.465C194.658 102.945 194.188 103.338 193.614 103.338C193.041 103.338 192.57 102.945 192.57 102.465C192.57 101.986 193.041 101.592 193.614 101.592C194.196 101.592 194.658 101.986 194.658 102.465Z" fill="#42E8E0"/>
<path opacity="0.3" d="M180.466 96.0819C180.82 96.0819 181.108 95.8416 181.108 95.5451C181.108 95.2487 180.82 95.0084 180.466 95.0084C180.112 95.0084 179.824 95.2487 179.824 95.5451C179.824 95.8416 180.112 96.0819 180.466 96.0819Z" fill="#42E8E0"/>
<path opacity="0.2" d="M184.966 89.9989C185.329 89.9989 185.624 89.7522 185.624 89.4479C185.624 89.1435 185.329 88.8968 184.966 88.8968C184.602 88.8968 184.307 89.1435 184.307 89.4479C184.307 89.7522 184.602 89.9989 184.966 89.9989Z" fill="#42E8E0"/>
<path opacity="0.2" d="M204.639 87.4441C204.639 87.6373 204.451 87.7948 204.22 87.7948C203.989 87.7948 203.801 87.6373 203.801 87.4441C203.801 87.2509 203.989 87.0934 204.22 87.0934C204.451 87.0934 204.639 87.2509 204.639 87.4441Z" fill="#42E8E0"/>
<path opacity="0.2" d="M202.705 86.3635C203.187 86.3635 203.578 86.0367 203.578 85.6335C203.578 85.2304 203.187 84.9036 202.705 84.9036C202.223 84.9036 201.832 85.2304 201.832 85.6335C201.832 86.0367 202.223 86.3635 202.705 86.3635Z" fill="#42E8E0"/>
<path opacity="0.2" d="M183.594 88.3458C183.594 88.539 183.406 88.6965 183.175 88.6965C182.944 88.6965 182.756 88.539 182.756 88.3458C182.756 88.1526 182.944 87.9951 183.175 87.9951C183.406 87.9951 183.594 88.1526 183.594 88.3458Z" fill="#42E8E0"/>
<path opacity="0.3" d="M182.437 105.929C182.791 105.929 183.078 105.689 183.078 105.392C183.078 105.096 182.791 104.856 182.437 104.856C182.082 104.856 181.795 105.096 181.795 105.392C181.795 105.689 182.082 105.929 182.437 105.929Z" fill="#42E8E0"/>
<path opacity="0.2" d="M187.593 99.2951C187.593 99.5957 187.302 99.8461 186.934 99.8461C186.575 99.8461 186.275 99.6028 186.275 99.2951C186.275 98.9874 186.566 98.744 186.934 98.744C187.302 98.744 187.593 98.9945 187.593 99.2951Z" fill="#42E8E0"/>
<path opacity="0.2" d="M185.573 98.193C185.573 98.3863 185.385 98.5437 185.154 98.5437C184.923 98.5437 184.734 98.3863 184.734 98.193C184.734 97.9998 184.923 97.8424 185.154 97.8424C185.385 97.8424 185.573 97.9998 185.573 98.193Z" fill="#42E8E0"/>
<path opacity="0.9" d="M191.239 93.7703C191.368 94.1854 191.873 94.4359 192.369 94.3285C192.865 94.2212 193.165 93.799 193.036 93.3839C192.908 92.9688 192.403 92.7183 191.907 92.8257C191.419 92.933 191.119 93.3553 191.239 93.7703Z" fill="#42E8E0"/>
<path opacity="0.3" d="M201.084 85.3258C201.161 85.5834 201.477 85.7337 201.777 85.6693C202.085 85.6049 202.265 85.3401 202.188 85.0896C202.111 84.832 201.794 84.6817 201.494 84.7461C201.195 84.8105 201.007 85.0681 201.084 85.3258Z" fill="#42E8E0"/>
<path opacity="0.2" d="M195.597 80.9103C195.674 81.1679 195.991 81.3325 196.308 81.261C196.616 81.1966 196.812 80.9318 196.727 80.667C196.65 80.4094 196.333 80.2448 196.017 80.3163C195.709 80.3807 195.52 80.6455 195.597 80.9103Z" fill="#42E8E0"/>
<path opacity="0.2" d="M178.707 82.685C178.759 82.8496 178.955 82.9498 179.152 82.9069C179.349 82.864 179.469 82.6994 179.417 82.5348C179.366 82.3702 179.169 82.27 178.972 82.3129C178.776 82.3487 178.656 82.5205 178.707 82.685Z" fill="#42E8E0"/>
<path opacity="0.2" d="M179.154 80.9246C179.257 81.2681 179.685 81.4828 180.095 81.3898C180.506 81.3039 180.763 80.9461 180.652 80.6026C180.549 80.2591 180.121 80.0444 179.71 80.1374C179.299 80.2304 179.051 80.5811 179.154 80.9246Z" fill="#42E8E0"/>
<path opacity="0.2" d="M197.051 79.5935C197.102 79.7581 197.308 79.8654 197.504 79.8225C197.701 79.7796 197.83 79.6078 197.778 79.4432C197.727 79.2786 197.522 79.1713 197.325 79.2142C197.119 79.25 197 79.4218 197.051 79.5935Z" fill="#42E8E0"/>
<path opacity="0.2" d="M201.537 105.729C201.366 105.85 201.101 105.836 200.955 105.686C200.81 105.543 200.827 105.321 201.006 105.199C201.178 105.077 201.443 105.092 201.588 105.242C201.734 105.385 201.717 105.607 201.537 105.729Z" fill="#42E8E0"/>
<path opacity="0.2" d="M202.495 103.868C202.127 104.126 201.58 104.09 201.272 103.782C200.963 103.474 201.006 103.016 201.374 102.759C201.742 102.501 202.29 102.537 202.598 102.845C202.906 103.152 202.863 103.61 202.495 103.868Z" fill="#42E8E0"/>
<path opacity="0.3" d="M202.081 102.653C202.276 102.444 202.23 102.142 201.98 101.98C201.73 101.817 201.37 101.855 201.176 102.064C200.982 102.273 201.027 102.575 201.277 102.737C201.527 102.9 201.887 102.862 202.081 102.653Z" fill="#42E8E0"/>
<path opacity="0.2" d="M201.649 95.7312C201.46 95.953 201.52 96.2536 201.786 96.411C202.051 96.5685 202.41 96.5184 202.598 96.2965C202.787 96.0747 202.727 95.7741 202.462 95.6167C202.205 95.4592 201.837 95.5165 201.649 95.7312Z" fill="#42E8E0"/>
<path opacity="0.2" d="M203.791 95.8099C203.671 95.953 203.714 96.1463 203.877 96.2465C204.048 96.3466 204.279 96.3109 204.399 96.1749C204.519 96.0318 204.476 95.8385 204.313 95.7383C204.151 95.631 203.911 95.6668 203.791 95.8099Z" fill="#42E8E0"/>
<g opacity="0.9">
<path opacity="0.9" d="M188.719 111.311C188.848 111.726 189.352 111.976 189.849 111.869C190.345 111.762 190.645 111.339 190.516 110.924C190.388 110.509 189.883 110.259 189.387 110.366C188.89 110.473 188.591 110.896 188.719 111.311Z" fill="#42E8E0"/>
<path opacity="0.9" d="M191.4 107.117C191.486 107.41 191.845 107.589 192.196 107.511C192.547 107.439 192.761 107.139 192.667 106.845C192.581 106.552 192.222 106.373 191.871 106.452C191.52 106.523 191.315 106.824 191.4 107.117Z" fill="#42E8E0"/>
</g>
<path opacity="0.9" d="M194.658 81.5902C194.658 82.0696 194.188 82.4632 193.614 82.4632C193.041 82.4632 192.57 82.0696 192.57 81.5902C192.57 81.1107 193.041 80.7171 193.614 80.7171C194.196 80.7171 194.658 81.1035 194.658 81.5902Z" fill="#42E8E0"/>
<path opacity="0.3" d="M180.466 75.2067C180.82 75.2067 181.108 74.9664 181.108 74.6699C181.108 74.3735 180.82 74.1332 180.466 74.1332C180.112 74.1332 179.824 74.3735 179.824 74.6699C179.824 74.9664 180.112 75.2067 180.466 75.2067Z" fill="#42E8E0"/>
<path opacity="0.2" d="M184.966 69.1165C185.329 69.1165 185.624 68.8698 185.624 68.5655C185.624 68.2612 185.329 68.0145 184.966 68.0145C184.602 68.0145 184.307 68.2612 184.307 68.5655C184.307 68.8698 184.602 69.1165 184.966 69.1165Z" fill="#42E8E0"/>
<path opacity="0.2" d="M204.639 66.5689C204.639 66.7621 204.451 66.9195 204.22 66.9195C203.989 66.9195 203.801 66.7621 203.801 66.5689C203.801 66.3757 203.989 66.2182 204.22 66.2182C204.451 66.2182 204.639 66.3757 204.639 66.5689Z" fill="#42E8E0"/>
<path opacity="0.2" d="M202.705 65.4811C203.187 65.4811 203.578 65.1543 203.578 64.7512C203.578 64.348 203.187 64.0212 202.705 64.0212C202.223 64.0212 201.832 64.348 201.832 64.7512C201.832 65.1543 202.223 65.4811 202.705 65.4811Z" fill="#42E8E0"/>
<path opacity="0.2" d="M183.594 67.4706C183.594 67.6638 183.406 67.8212 183.175 67.8212C182.944 67.8212 182.756 67.6638 182.756 67.4706C182.756 67.2774 182.944 67.1199 183.175 67.1199C183.406 67.1128 183.594 67.2702 183.594 67.4706Z" fill="#42E8E0"/>
<path opacity="0.3" d="M182.437 85.0539C182.791 85.0539 183.078 84.8136 183.078 84.5171C183.078 84.2207 182.791 83.9804 182.437 83.9804C182.082 83.9804 181.795 84.2207 181.795 84.5171C181.795 84.8136 182.082 85.0539 182.437 85.0539Z" fill="#42E8E0"/>
<path opacity="0.2" d="M187.593 78.4199C187.593 78.7205 187.302 78.9709 186.934 78.9709C186.575 78.9709 186.275 78.7276 186.275 78.4199C186.275 78.1122 186.566 77.8688 186.934 77.8688C187.302 77.8688 187.593 78.1122 187.593 78.4199Z" fill="#42E8E0"/>
<path opacity="0.2" d="M185.573 77.3178C185.573 77.511 185.385 77.6684 185.154 77.6684C184.923 77.6684 184.734 77.511 184.734 77.3178C184.734 77.1246 184.923 76.9671 185.154 76.9671C185.385 76.9671 185.573 77.1246 185.573 77.3178Z" fill="#42E8E0"/>
<path opacity="0.9" d="M191.239 72.8951C191.368 73.3102 191.873 73.5607 192.369 73.4533C192.865 73.346 193.165 72.9237 193.036 72.5087C192.908 72.0936 192.403 71.8431 191.907 71.9505C191.419 72.0578 191.119 72.4801 191.239 72.8951Z" fill="#42E8E0"/>
<path opacity="0.3" d="M201.084 64.4506C201.161 64.7082 201.477 64.8585 201.777 64.7941C202.085 64.7297 202.265 64.4649 202.188 64.2144C202.111 63.9568 201.794 63.8065 201.494 63.8709C201.195 63.9353 201.007 64.1929 201.084 64.4506Z" fill="#42E8E0"/>
<path opacity="0.2" d="M195.597 60.0279C195.674 60.2855 195.991 60.443 196.308 60.3786C196.616 60.3142 196.812 60.0494 196.727 59.7846C196.65 59.527 196.333 59.3624 196.017 59.4339C195.709 59.5055 195.52 59.7703 195.597 60.0279Z" fill="#42E8E0"/>
<path opacity="0.2" d="M178.707 61.8027C178.759 61.9673 178.955 62.0675 179.152 62.0245C179.349 61.9816 179.469 61.817 179.417 61.6524C179.366 61.4878 179.169 61.3876 178.972 61.4306C178.776 61.4735 178.656 61.6381 178.707 61.8027Z" fill="#42E8E0"/>
<path opacity="0.2" d="M179.154 60.0494C179.257 60.3929 179.685 60.6076 180.095 60.5145C180.506 60.4287 180.763 60.0708 180.652 59.7273C180.549 59.3838 180.121 59.1691 179.71 59.2622C179.299 59.3481 179.051 59.6987 179.154 60.0494Z" fill="#42E8E0"/>
<path opacity="0.2" d="M197.051 58.7111C197.102 58.8757 197.308 58.9831 197.504 58.9401C197.701 58.8972 197.83 58.7254 197.778 58.5608C197.727 58.3962 197.522 58.2889 197.325 58.3318C197.119 58.3748 197 58.5465 197.051 58.7111Z" fill="#42E8E0"/>
<path opacity="0.2" d="M201.537 84.8535C201.366 84.9751 201.101 84.9608 200.955 84.8105C200.81 84.6674 200.827 84.4456 201.006 84.3239C201.178 84.2023 201.443 84.2166 201.588 84.3669C201.734 84.51 201.717 84.7318 201.537 84.8535Z" fill="#42E8E0"/>
<path opacity="0.2" d="M202.495 82.9928C202.127 83.2504 201.58 83.2147 201.272 82.9069C200.963 82.5992 201.006 82.1412 201.374 81.8836C201.742 81.6259 202.29 81.6617 202.598 81.9694C202.906 82.2772 202.863 82.7352 202.495 82.9928Z" fill="#42E8E0"/>
<path opacity="0.3" d="M202.081 81.7769C202.276 81.5678 202.23 81.2666 201.98 81.1041C201.73 80.9417 201.37 80.9795 201.176 81.1886C200.982 81.3977 201.027 81.699 201.277 81.8614C201.527 82.0239 201.887 81.986 202.081 81.7769Z" fill="#42E8E0"/>
<path opacity="0.2" d="M201.649 74.856C201.46 75.0778 201.52 75.3784 201.786 75.5358C202.051 75.6933 202.41 75.6432 202.598 75.4213C202.787 75.1995 202.727 74.8989 202.462 74.7415C202.205 74.584 201.837 74.6341 201.649 74.856Z" fill="#42E8E0"/>
<path opacity="0.2" d="M203.791 74.9275C203.671 75.0707 203.714 75.2639 203.877 75.3641C204.048 75.4643 204.279 75.4285 204.399 75.2925C204.519 75.1494 204.476 74.9562 204.313 74.856C204.151 74.7558 203.911 74.7916 203.791 74.9275Z" fill="#42E8E0"/>
<g opacity="0.9">
<path opacity="0.9" d="M188.719 90.4283C188.848 90.8434 189.352 91.0938 189.849 90.9865C190.345 90.8791 190.645 90.4569 190.516 90.0418C190.388 89.6268 189.883 89.3763 189.387 89.4836C188.89 89.591 188.591 90.0132 188.719 90.4283Z" fill="#42E8E0"/>
<path opacity="0.9" d="M191.4 86.2418C191.486 86.5352 191.845 86.7141 192.196 86.6354C192.547 86.5638 192.761 86.2633 192.667 85.9699C192.581 85.6764 192.222 85.4975 191.871 85.5762C191.52 85.6478 191.315 85.9484 191.4 86.2418Z" fill="#42E8E0"/>
</g>
<defs>
<linearGradient id="paint0_linear" x1="40.5542" y1="18.0636" x2="99.9952" y2="129.157" gradientUnits="userSpaceOnUse">
<stop stop-color="#42E8E0"/>
<stop offset="0.0157" stop-color="#40DDDA"/>
<stop offset="0.0921" stop-color="#3AAEC0"/>
<stop offset="0.173" stop-color="#3484A9"/>
<stop offset="0.2573" stop-color="#2F6195"/>
<stop offset="0.3458" stop-color="#2B4486"/>
<stop offset="0.44" stop-color="#282E79"/>
<stop offset="0.5425" stop-color="#261E71"/>
<stop offset="0.6594" stop-color="#24156C"/>
<stop offset="0.8226" stop-color="#24126A"/>
</linearGradient>
<linearGradient id="paint1_linear" x1="31.8791" y1="45.7781" x2="175.583" y2="45.7781" gradientUnits="userSpaceOnUse">
<stop stop-color="#42E8E0"/>
<stop offset="0.1507" stop-color="#43E3E0"/>
<stop offset="0.3285" stop-color="#45D5DF"/>
<stop offset="0.5199" stop-color="#49BDDD"/>
<stop offset="0.7209" stop-color="#4E9CDB"/>
<stop offset="0.9274" stop-color="#5472D8"/>
<stop offset="1" stop-color="#5761D7"/>
</linearGradient>
<linearGradient id="paint2_linear" x1="31.8791" y1="45.7781" x2="175.583" y2="45.7781" gradientUnits="userSpaceOnUse">
<stop stop-color="#42E8E0"/>
<stop offset="0.1507" stop-color="#43E3E0"/>
<stop offset="0.3285" stop-color="#45D5DF"/>
<stop offset="0.5199" stop-color="#49BDDD"/>
<stop offset="0.7209" stop-color="#4E9CDB"/>
<stop offset="0.9274" stop-color="#5472D8"/>
<stop offset="1" stop-color="#5761D7"/>
</linearGradient>
<linearGradient id="paint3_linear" x1="31.8791" y1="45.7781" x2="175.583" y2="45.7781" gradientUnits="userSpaceOnUse">
<stop stop-color="#42E8E0"/>
<stop offset="0.1507" stop-color="#43E3E0"/>
<stop offset="0.3285" stop-color="#45D5DF"/>
<stop offset="0.5199" stop-color="#49BDDD"/>
<stop offset="0.7209" stop-color="#4E9CDB"/>
<stop offset="0.9274" stop-color="#5472D8"/>
<stop offset="1" stop-color="#5761D7"/>
</linearGradient>
<linearGradient id="paint4_linear" x1="31.8791" y1="42.7748" x2="175.583" y2="42.7748" gradientUnits="userSpaceOnUse">
<stop stop-color="#42E8E0"/>
<stop offset="0.0157" stop-color="#40DDDA"/>
<stop offset="0.0921" stop-color="#3AAEC0"/>
<stop offset="0.173" stop-color="#3484A9"/>
<stop offset="0.2573" stop-color="#2F6195"/>
<stop offset="0.3458" stop-color="#2B4486"/>
<stop offset="0.44" stop-color="#282E79"/>
<stop offset="0.5425" stop-color="#261E71"/>
<stop offset="0.6594" stop-color="#24156C"/>
<stop offset="0.8226" stop-color="#24126A"/>
</linearGradient>
<linearGradient id="paint5_linear" x1="43.3665" y1="45.9539" x2="187.482" y2="45.9539" gradientUnits="userSpaceOnUse">
<stop stop-color="#42E8E0"/>
<stop offset="0.1507" stop-color="#43E3E0"/>
<stop offset="0.3285" stop-color="#45D5DF"/>
<stop offset="0.5199" stop-color="#49BDDD"/>
<stop offset="0.7209" stop-color="#4E9CDB"/>
<stop offset="0.9274" stop-color="#5472D8"/>
<stop offset="1" stop-color="#5761D7"/>
</linearGradient>
<linearGradient id="paint6_linear" x1="40.5542" y1="3.5228" x2="99.9953" y2="114.616" gradientUnits="userSpaceOnUse">
<stop stop-color="#42E8E0"/>
<stop offset="0.0157" stop-color="#40DDDA"/>
<stop offset="0.0921" stop-color="#3AAEC0"/>
<stop offset="0.173" stop-color="#3484A9"/>
<stop offset="0.2573" stop-color="#2F6195"/>
<stop offset="0.3458" stop-color="#2B4486"/>
<stop offset="0.44" stop-color="#282E79"/>
<stop offset="0.5425" stop-color="#261E71"/>
<stop offset="0.6594" stop-color="#24156C"/>
<stop offset="0.8226" stop-color="#24126A"/>
</linearGradient>
<linearGradient id="paint7_linear" x1="104.083" y1="-12.3062" x2="129.49" y2="139.526" gradientUnits="userSpaceOnUse">
<stop stop-color="#42E8E0"/>
<stop offset="0.0157" stop-color="#40DDDA"/>
<stop offset="0.0921" stop-color="#3AAEC0"/>
<stop offset="0.173" stop-color="#3484A9"/>
<stop offset="0.2573" stop-color="#2F6195"/>
<stop offset="0.3458" stop-color="#2B4486"/>
<stop offset="0.44" stop-color="#282E79"/>
<stop offset="0.5425" stop-color="#261E71"/>
<stop offset="0.6594" stop-color="#24156C"/>
<stop offset="0.8226" stop-color="#24126A"/>
</linearGradient>
<linearGradient id="paint8_linear" x1="51.1444" y1="20.0497" x2="179.676" y2="20.0497" gradientUnits="userSpaceOnUse">
<stop stop-color="#2B237C"/>
<stop offset="1" stop-color="#180D5B"/>
</linearGradient>
<linearGradient id="paint9_linear" x1="113.749" y1="160.476" x2="5.38179" y2="133.824" gradientUnits="userSpaceOnUse">
<stop stop-color="#180D5B"/>
<stop offset="0.095" stop-color="#1A1660"/>
<stop offset="0.2466" stop-color="#1E2D6E"/>
<stop offset="0.436" stop-color="#255385"/>
<stop offset="0.6555" stop-color="#2F87A5"/>
<stop offset="0.8978" stop-color="#3CCACE"/>
<stop offset="1" stop-color="#42E8E0"/>
</linearGradient>
<linearGradient id="paint10_linear" x1="80.1884" y1="183.675" x2="13.7594" y2="132.084" gradientUnits="userSpaceOnUse">
<stop stop-color="#180D5B"/>
<stop offset="0.095" stop-color="#1A1660"/>
<stop offset="0.2466" stop-color="#1E2D6E"/>
<stop offset="0.436" stop-color="#255385"/>
<stop offset="0.6555" stop-color="#2F87A5"/>
<stop offset="0.8978" stop-color="#3CCACE"/>
<stop offset="1" stop-color="#42E8E0"/>
</linearGradient>
<linearGradient id="paint11_linear" x1="59.2046" y1="184.888" x2="3.89084" y2="149.616" gradientUnits="userSpaceOnUse">
<stop stop-color="#180D5B"/>
<stop offset="0.095" stop-color="#1A1660"/>
<stop offset="0.2466" stop-color="#1E2D6E"/>
<stop offset="0.436" stop-color="#255385"/>
<stop offset="0.6555" stop-color="#2F87A5"/>
<stop offset="0.8978" stop-color="#3CCACE"/>
<stop offset="1" stop-color="#42E8E0"/>
</linearGradient>
<linearGradient id="paint12_linear" x1="89.0851" y1="199.441" x2="17.4088" y2="152.439" gradientUnits="userSpaceOnUse">
<stop stop-color="#180D5B"/>
<stop offset="0.095" stop-color="#1A1660"/>
<stop offset="0.2466" stop-color="#1E2D6E"/>
<stop offset="0.436" stop-color="#255385"/>
<stop offset="0.6555" stop-color="#2F87A5"/>
<stop offset="0.8978" stop-color="#3CCACE"/>
<stop offset="1" stop-color="#42E8E0"/>
</linearGradient>
<linearGradient id="paint13_linear" x1="25.5976" y1="188.084" x2="80.4002" y2="188.084" gradientUnits="userSpaceOnUse">
<stop stop-color="#2B237C"/>
<stop offset="1" stop-color="#180D5B"/>
</linearGradient>
<linearGradient id="paint14_linear" x1="42.3489" y1="199.103" x2="-2.82263" y2="168.399" gradientUnits="userSpaceOnUse">
<stop stop-color="#180D5B"/>
<stop offset="0.0951" stop-color="#1A1560"/>
<stop offset="0.2465" stop-color="#1E2D6E"/>
<stop offset="0.2819" stop-color="#1F3372"/>
<stop offset="0.3779" stop-color="#22447C"/>
<stop offset="0.5681" stop-color="#2B7097"/>
<stop offset="0.832" stop-color="#39B7C2"/>
<stop offset="1" stop-color="#42E8E0"/>
</linearGradient>
<linearGradient id="paint15_linear" x1="63.8987" y1="145.537" x2="6.87192" y2="101.248" gradientUnits="userSpaceOnUse">
<stop stop-color="#180D5B"/>
<stop offset="0.095" stop-color="#1A1660"/>
<stop offset="0.2466" stop-color="#1E2D6E"/>
<stop offset="0.436" stop-color="#255385"/>
<stop offset="0.6555" stop-color="#2F87A5"/>
<stop offset="0.8978" stop-color="#3CCACE"/>
<stop offset="1" stop-color="#42E8E0"/>
</linearGradient>
<linearGradient id="paint16_linear" x1="25.5976" y1="143.571" x2="80.4002" y2="143.571" gradientUnits="userSpaceOnUse">
<stop stop-color="#2B237C"/>
<stop offset="1" stop-color="#180D5B"/>
</linearGradient>
<linearGradient id="paint17_linear" x1="35.9632" y1="151.488" x2="-4.73676" y2="124.05" gradientUnits="userSpaceOnUse">
<stop stop-color="#180D5B"/>
<stop offset="0.0951" stop-color="#1A1560"/>
<stop offset="0.2465" stop-color="#1E2D6E"/>
<stop offset="0.2819" stop-color="#1F3372"/>
<stop offset="0.3779" stop-color="#22447C"/>
<stop offset="0.5681" stop-color="#2B7097"/>
<stop offset="0.832" stop-color="#39B7C2"/>
<stop offset="1" stop-color="#42E8E0"/>
</linearGradient>
<linearGradient id="paint18_linear" x1="51.1149" y1="134.066" x2="0.478029" y2="120.393" gradientUnits="userSpaceOnUse">
<stop stop-color="#180D5B"/>
<stop offset="0.095" stop-color="#1A1660"/>
<stop offset="0.2466" stop-color="#1E2D6E"/>
<stop offset="0.436" stop-color="#255385"/>
<stop offset="0.6555" stop-color="#2F87A5"/>
<stop offset="0.8978" stop-color="#3CCACE"/>
<stop offset="1" stop-color="#42E8E0"/>
</linearGradient>
<linearGradient id="paint19_linear" x1="190.407" y1="160.476" x2="82.0401" y2="133.824" gradientUnits="userSpaceOnUse">
<stop stop-color="#180D5B"/>
<stop offset="0.095" stop-color="#1A1660"/>
<stop offset="0.2466" stop-color="#1E2D6E"/>
<stop offset="0.436" stop-color="#255385"/>
<stop offset="0.6555" stop-color="#2F87A5"/>
<stop offset="0.8978" stop-color="#3CCACE"/>
<stop offset="1" stop-color="#42E8E0"/>
</linearGradient>
<linearGradient id="paint20_linear" x1="156.847" y1="183.675" x2="90.4177" y2="132.084" gradientUnits="userSpaceOnUse">
<stop stop-color="#180D5B"/>
<stop offset="0.095" stop-color="#1A1660"/>
<stop offset="0.2466" stop-color="#1E2D6E"/>
<stop offset="0.436" stop-color="#255385"/>
<stop offset="0.6555" stop-color="#2F87A5"/>
<stop offset="0.8978" stop-color="#3CCACE"/>
<stop offset="1" stop-color="#42E8E0"/>
</linearGradient>
<linearGradient id="paint21_linear" x1="135.863" y1="184.888" x2="80.5492" y2="149.616" gradientUnits="userSpaceOnUse">
<stop stop-color="#180D5B"/>
<stop offset="0.095" stop-color="#1A1660"/>
<stop offset="0.2466" stop-color="#1E2D6E"/>
<stop offset="0.436" stop-color="#255385"/>
<stop offset="0.6555" stop-color="#2F87A5"/>
<stop offset="0.8978" stop-color="#3CCACE"/>
<stop offset="1" stop-color="#42E8E0"/>
</linearGradient>
<linearGradient id="paint22_linear" x1="165.743" y1="199.441" x2="94.0672" y2="152.439" gradientUnits="userSpaceOnUse">
<stop stop-color="#180D5B"/>
<stop offset="0.095" stop-color="#1A1660"/>
<stop offset="0.2466" stop-color="#1E2D6E"/>
<stop offset="0.436" stop-color="#255385"/>
<stop offset="0.6555" stop-color="#2F87A5"/>
<stop offset="0.8978" stop-color="#3CCACE"/>
<stop offset="1" stop-color="#42E8E0"/>
</linearGradient>
<linearGradient id="paint23_linear" x1="102.256" y1="188.084" x2="157.059" y2="188.084" gradientUnits="userSpaceOnUse">
<stop stop-color="#2B237C"/>
<stop offset="1" stop-color="#180D5B"/>
</linearGradient>
<linearGradient id="paint24_linear" x1="119.007" y1="199.103" x2="73.8357" y2="168.399" gradientUnits="userSpaceOnUse">
<stop stop-color="#180D5B"/>
<stop offset="0.0951" stop-color="#1A1560"/>
<stop offset="0.2465" stop-color="#1E2D6E"/>
<stop offset="0.2819" stop-color="#1F3372"/>
<stop offset="0.3779" stop-color="#22447C"/>
<stop offset="0.5681" stop-color="#2B7097"/>
<stop offset="0.832" stop-color="#39B7C2"/>
<stop offset="1" stop-color="#42E8E0"/>
</linearGradient>
<linearGradient id="paint25_linear" x1="140.557" y1="145.537" x2="83.5303" y2="101.248" gradientUnits="userSpaceOnUse">
<stop stop-color="#180D5B"/>
<stop offset="0.095" stop-color="#1A1660"/>
<stop offset="0.2466" stop-color="#1E2D6E"/>
<stop offset="0.436" stop-color="#255385"/>
<stop offset="0.6555" stop-color="#2F87A5"/>
<stop offset="0.8978" stop-color="#3CCACE"/>
<stop offset="1" stop-color="#42E8E0"/>
</linearGradient>
<linearGradient id="paint26_linear" x1="102.256" y1="143.571" x2="157.059" y2="143.571" gradientUnits="userSpaceOnUse">
<stop stop-color="#2B237C"/>
<stop offset="1" stop-color="#180D5B"/>
</linearGradient>
<linearGradient id="paint27_linear" x1="112.622" y1="151.488" x2="71.9216" y2="124.05" gradientUnits="userSpaceOnUse">
<stop stop-color="#180D5B"/>
<stop offset="0.0951" stop-color="#1A1560"/>
<stop offset="0.2465" stop-color="#1E2D6E"/>
<stop offset="0.2819" stop-color="#1F3372"/>
<stop offset="0.3779" stop-color="#22447C"/>
<stop offset="0.5681" stop-color="#2B7097"/>
<stop offset="0.832" stop-color="#39B7C2"/>
<stop offset="1" stop-color="#42E8E0"/>
</linearGradient>
<linearGradient id="paint28_linear" x1="127.773" y1="134.066" x2="77.1364" y2="120.393" gradientUnits="userSpaceOnUse">
<stop stop-color="#180D5B"/>
<stop offset="0.095" stop-color="#1A1660"/>
<stop offset="0.2466" stop-color="#1E2D6E"/>
<stop offset="0.436" stop-color="#255385"/>
<stop offset="0.6555" stop-color="#2F87A5"/>
<stop offset="0.8978" stop-color="#3CCACE"/>
<stop offset="1" stop-color="#42E8E0"/>
</linearGradient>
<linearGradient id="paint29_linear" x1="267.081" y1="160.476" x2="158.713" y2="133.824" gradientUnits="userSpaceOnUse">
<stop stop-color="#180D5B"/>
<stop offset="0.095" stop-color="#1A1660"/>
<stop offset="0.2466" stop-color="#1E2D6E"/>
<stop offset="0.436" stop-color="#255385"/>
<stop offset="0.6555" stop-color="#2F87A5"/>
<stop offset="0.8978" stop-color="#3CCACE"/>
<stop offset="1" stop-color="#42E8E0"/>
</linearGradient>
<linearGradient id="paint30_linear" x1="233.52" y1="183.675" x2="167.091" y2="132.084" gradientUnits="userSpaceOnUse">
<stop stop-color="#180D5B"/>
<stop offset="0.095" stop-color="#1A1660"/>
<stop offset="0.2466" stop-color="#1E2D6E"/>
<stop offset="0.436" stop-color="#255385"/>
<stop offset="0.6555" stop-color="#2F87A5"/>
<stop offset="0.8978" stop-color="#3CCACE"/>
<stop offset="1" stop-color="#42E8E0"/>
</linearGradient>
<linearGradient id="paint31_linear" x1="212.536" y1="184.888" x2="157.222" y2="149.616" gradientUnits="userSpaceOnUse">
<stop stop-color="#180D5B"/>
<stop offset="0.095" stop-color="#1A1660"/>
<stop offset="0.2466" stop-color="#1E2D6E"/>
<stop offset="0.436" stop-color="#255385"/>
<stop offset="0.6555" stop-color="#2F87A5"/>
<stop offset="0.8978" stop-color="#3CCACE"/>
<stop offset="1" stop-color="#42E8E0"/>
</linearGradient>
<linearGradient id="paint32_linear" x1="242.415" y1="199.441" x2="170.738" y2="152.439" gradientUnits="userSpaceOnUse">
<stop stop-color="#180D5B"/>
<stop offset="0.095" stop-color="#1A1660"/>
<stop offset="0.2466" stop-color="#1E2D6E"/>
<stop offset="0.436" stop-color="#255385"/>
<stop offset="0.6555" stop-color="#2F87A5"/>
<stop offset="0.8978" stop-color="#3CCACE"/>
<stop offset="1" stop-color="#42E8E0"/>
</linearGradient>
<linearGradient id="paint33_linear" x1="178.927" y1="188.084" x2="233.73" y2="188.084" gradientUnits="userSpaceOnUse">
<stop stop-color="#2B237C"/>
<stop offset="1" stop-color="#180D5B"/>
</linearGradient>
<linearGradient id="paint34_linear" x1="195.678" y1="199.103" x2="150.507" y2="168.399" gradientUnits="userSpaceOnUse">
<stop stop-color="#180D5B"/>
<stop offset="0.0951" stop-color="#1A1560"/>
<stop offset="0.2465" stop-color="#1E2D6E"/>
<stop offset="0.2819" stop-color="#1F3372"/>
<stop offset="0.3779" stop-color="#22447C"/>
<stop offset="0.5681" stop-color="#2B7097"/>
<stop offset="0.832" stop-color="#39B7C2"/>
<stop offset="1" stop-color="#42E8E0"/>
</linearGradient>
<linearGradient id="paint35_linear" x1="217.228" y1="145.537" x2="160.201" y2="101.248" gradientUnits="userSpaceOnUse">
<stop stop-color="#180D5B"/>
<stop offset="0.095" stop-color="#1A1660"/>
<stop offset="0.2466" stop-color="#1E2D6E"/>
<stop offset="0.436" stop-color="#255385"/>
<stop offset="0.6555" stop-color="#2F87A5"/>
<stop offset="0.8978" stop-color="#3CCACE"/>
<stop offset="1" stop-color="#42E8E0"/>
</linearGradient>
<linearGradient id="paint36_linear" x1="178.927" y1="143.571" x2="233.73" y2="143.571" gradientUnits="userSpaceOnUse">
<stop stop-color="#2B237C"/>
<stop offset="1" stop-color="#180D5B"/>
</linearGradient>
<linearGradient id="paint37_linear" x1="189.293" y1="151.488" x2="148.593" y2="124.05" gradientUnits="userSpaceOnUse">
<stop stop-color="#180D5B"/>
<stop offset="0.0951" stop-color="#1A1560"/>
<stop offset="0.2465" stop-color="#1E2D6E"/>
<stop offset="0.2819" stop-color="#1F3372"/>
<stop offset="0.3779" stop-color="#22447C"/>
<stop offset="0.5681" stop-color="#2B7097"/>
<stop offset="0.832" stop-color="#39B7C2"/>
<stop offset="1" stop-color="#42E8E0"/>
</linearGradient>
<linearGradient id="paint38_linear" x1="204.444" y1="134.066" x2="153.808" y2="120.393" gradientUnits="userSpaceOnUse">
<stop stop-color="#180D5B"/>
<stop offset="0.095" stop-color="#1A1660"/>
<stop offset="0.2466" stop-color="#1E2D6E"/>
<stop offset="0.436" stop-color="#255385"/>
<stop offset="0.6555" stop-color="#2F87A5"/>
<stop offset="0.8978" stop-color="#3CCACE"/>
<stop offset="1" stop-color="#42E8E0"/>
</linearGradient>
</defs>
</svg>
