<svg xmlns="http://www.w3.org/2000/svg" width="68" height="68" viewBox="0 0 68 68">
  <g id="Сгруппировать_160" data-name="Сгруппировать 160" transform="translate(-790 -210)">
    <rect id="Прямоугольник_145" data-name="Прямоугольник 145" width="68" height="68" rx="34" transform="translate(790 210)" fill="#cd4929"/>
    <g id="business-and-finance" transform="translate(808.324 228.477)">
      <path id="Контур_133" data-name="Контур 133" d="M3.306,13.728a1.306,1.306,0,0,1-.924-2.23L11.4,2.477a1.306,1.306,0,0,1,1.847,1.847L4.23,13.346a1.3,1.3,0,0,1-.924.383Z" transform="translate(0.613 0.335)" fill="#fff"/>
      <path id="Контур_134" data-name="Контур 134" d="M12.552,7.532a.975.975,0,0,1-.692-.287L7.287,2.672A.979.979,0,0,1,7.98,1h4.572a.98.98,0,0,1,.98.98V6.552a.979.979,0,0,1-.98.98Z" transform="translate(2.144)" fill="#fff"/>
      <path id="Контур_135" data-name="Контур 135" d="M8.838,15.633v7.512H1V15.633A1.634,1.634,0,0,1,2.633,14H7.205A1.634,1.634,0,0,1,8.838,15.633Z" transform="translate(0.306 3.983)" fill="#fff"/>
      <path id="Контур_136" data-name="Контур 136" d="M16.838,11.633V24.37H9V11.633A1.634,1.634,0,0,1,10.633,10h4.572A1.634,1.634,0,0,1,16.838,11.633Z" transform="translate(2.757 2.757)" fill="#fff"/>
      <path id="Контур_137" data-name="Контур 137" d="M24.838,7.633V25.6H17V7.633A1.634,1.634,0,0,1,18.633,6h4.572A1.634,1.634,0,0,1,24.838,7.633Z" transform="translate(5.208 1.532)" fill="#fff"/>
      <path id="Контур_138" data-name="Контур 138" d="M30.373,24.46H.98a.98.98,0,1,1,0-1.96H30.373a.98.98,0,1,1,0,1.96Z" transform="translate(0 6.587)" fill="#fff"/>
    </g>
  </g>
</svg>
