<svg xmlns="http://www.w3.org/2000/svg" width="63.107" height="50.659" viewBox="0 0 63.107 50.659">
  <g id="friends" transform="translate(0 -50.498)">
    <path id="Контур_303" data-name="Контур 303" d="M304.912,130.552l-6.2-1.929a.31.31,0,0,1-.216-.276l-.058-.994,3.514-.327a2.584,2.584,0,0,0,2.223-1.765c2.17-6.635,2.484-12.137.935-16.352a12.793,12.793,0,0,0-3.18-4.839,11.969,11.969,0,0,0-8.82-3.061,12.653,12.653,0,0,0-4.065.765.924.924,0,1,0,.629,1.739,10.8,10.8,0,0,1,3.467-.655,10.089,10.089,0,0,1,10.234,6.689c1.4,3.815,1.08,8.909-.957,15.139a.736.736,0,0,1-.637.5l-3.45.321-.033-.566a10.543,10.543,0,0,0,1.687-2.193A17.724,17.724,0,0,0,302,113.253a2.425,2.425,0,0,0-2.271-2.42c-3.869-.364-7.139-2.038-8.333-4.267a.938.938,0,0,0-1.7.131,6.8,6.8,0,0,1-3.822,3.554c-.628.223-.8.852-.957,2.271a17.1,17.1,0,0,0,1.8,10.215,10.19,10.19,0,0,0,1.715,2.244l-.03.518-3.295-.315a.751.751,0,0,1-.634-.5c-2.213-6.242-2.545-11.054-1.045-15.143a9.68,9.68,0,0,1,2.827-4.047.924.924,0,1,0-1.2-1.4,11.507,11.507,0,0,0-3.358,4.813c-1.656,4.516-1.326,9.727,1.038,16.4a2.606,2.606,0,0,0,2.2,1.718l3.364.322-.054.923a.423.423,0,0,1-.3.378l-6.115,1.9a3.988,3.988,0,0,0-2.816,3.825v8.532a2.53,2.53,0,0,0,2.527,2.527H305.2a2.53,2.53,0,0,0,2.527-2.527v-8.531A3.988,3.988,0,0,0,304.912,130.552Zm-16.583-8.714a15.645,15.645,0,0,1-1.447-9.993,8.286,8.286,0,0,0,3.778-3.112c1.781,2.072,5.15,3.615,8.943,3.945a.576.576,0,0,1,.543.575,15.994,15.994,0,0,1-1.768,8.576c-1.332,2.331-3.9,3.878-5.014,3.878C292.217,125.707,289.623,124.164,288.329,121.838Zm.162,8.576a2.281,2.281,0,0,0,1.592-2.036l.114-1.967a4.906,4.906,0,0,0,6.332-.027l.121,2.071a2.167,2.167,0,0,0,1.513,1.934l.837.26c-.747,1.639-3.03,2.836-5.618,2.836-2.708,0-4.992-1.178-5.67-2.828Zm17.388,12.495a.679.679,0,0,1-.678.678H281.537a.679.679,0,0,1-.678-.678v-8.532a2.146,2.146,0,0,1,1.335-1.994c1.483,4.09,6.013,6.968,11.186,6.968.285,0,.573-.009.856-.026a.924.924,0,0,0-.112-1.846c-.246.015-.5.023-.744.023-4.368,0-8.177-2.343-9.422-5.678l1.983-.617c.9,2.439,3.852,4.127,7.439,4.127,3.454,0,6.423-1.718,7.391-4.133l2.027.631a8.659,8.659,0,0,1-4.819,4.743.924.924,0,1,0,.732,1.7,10.473,10.473,0,0,0,5.852-5.879,2.145,2.145,0,0,1,1.314,1.984v8.532Z" transform="translate(-244.62 -44.279)"/>
    <path id="Контур_304" data-name="Контур 304" d="M31.41,90.538a.925.925,0,0,0-.985.968c.017.429,0,6.749.006,7.124a.679.679,0,0,1-.678.678H2.527a.678.678,0,0,1-.678-.678V91.742a4.622,4.622,0,0,1,2.74-4.222l2.44-1.088c.546.265,1.536.734,2.693,1.234v3.2A2.158,2.158,0,0,0,7.7,93.017v1.775a2.157,2.157,0,0,0,2.157,2.157h1.577a2.157,2.157,0,0,0,2.157-2.157V93.017a2.158,2.158,0,0,0-2.021-2.15v-2.44a15.314,15.314,0,0,0,4.57,1.217,15.289,15.289,0,0,0,4.58-1.226v2.449a2.158,2.158,0,0,0-2.021,2.15v1.775a2.157,2.157,0,0,0,2.157,2.157h1.577a2.157,2.157,0,0,0,2.157-2.157V93.017a2.158,2.158,0,0,0-2.021-2.15V87.654c1.152-.5,2.137-.969,2.683-1.235l2.432,1.087a4.163,4.163,0,0,1,1.213.784.925.925,0,0,0,1.383-.108.945.945,0,0,0-.145-1.264,6.461,6.461,0,0,0-1.686-1.1l-2.389-1.067-.245-1.438A2.58,2.58,0,0,0,22.866,81.2a10.3,10.3,0,0,0-1.119.284l-.277-3.368a9.988,9.988,0,0,0,1.385-1.371,12.63,12.63,0,0,0,2.179-3.98c2.059-.3,4.566-1.811,4.566-4.7a3.1,3.1,0,0,0-2.311-2.976s.082-4.874.034-6.5a7.991,7.991,0,0,0-4.807-6.931A15.147,15.147,0,0,0,16.141,50.5a14.011,14.011,0,0,0-6.407,1.18.936.936,0,1,0,.823,1.655,12.328,12.328,0,0,1,5.584-.987,13.214,13.214,0,0,1,5.616,1,6.346,6.346,0,0,1,3.718,5.274l-.033,6.445-3.242-1.9c-.428-.247-.708-.525-.708-.867V57.083a2.729,2.729,0,0,0-2.73-2.73H13.507a2.73,2.73,0,0,0-2.73,2.73V62.3c0,.124-.058.5-.72.874L6.828,65.132,6.809,59.22a6.648,6.648,0,0,1,.837-3.228.948.948,0,0,0-.285-1.269.925.925,0,0,0-1.3.312,7.778,7.778,0,0,0-1.105,3.558c-.056,1.623.022,6.5.022,6.5a3.049,3.049,0,0,0-2.27,2.978,4.422,4.422,0,0,0,1.921,3.676,6.024,6.024,0,0,0,2.74,1.044,12.692,12.692,0,0,0,2.159,3.958,10.062,10.062,0,0,0,1.293,1.307l-.244,3.507A9.275,9.275,0,0,0,9.417,81.2a2.577,2.577,0,0,0-2.939,2.059l-.256,1.505L3.836,85.832A6.471,6.471,0,0,0,0,91.742V98.63a2.527,2.527,0,0,0,2.527,2.527H29.753A2.527,2.527,0,0,0,32.28,98.63v-6.9q0-.142-.006-.282a.944.944,0,0,0-.864-.911ZM11.743,93.017v1.775a.308.308,0,0,1-.308.308H9.857a.308.308,0,0,1-.308-.308V93.017a.308.308,0,0,1,.308-.308h1.577A.309.309,0,0,1,11.743,93.017Zm11,0v1.775a.308.308,0,0,1-.308.308H20.856a.308.308,0,0,1-.308-.308V93.017a.308.308,0,0,1,.308-.308h1.577A.308.308,0,0,1,22.742,93.017Zm5.009-24.95A2.858,2.858,0,0,1,25.6,70.733a22.4,22.4,0,0,0,.46-3.9c.073,0,.333,0,.4,0A1.253,1.253,0,0,1,27.751,68.067ZM12.625,61.622V59.865h7.018v1.757Zm.881-5.42h5.255a.882.882,0,0,1,.881.881v.934H12.625v-.934A.882.882,0,0,1,13.506,56.2ZM4.559,68.067a1.216,1.216,0,0,1,1.25-1.237c.065,0,.463,0,.536,0a22.4,22.4,0,0,0,.469,3.946A2.891,2.891,0,0,1,4.559,68.067Zm3.627-1.6L11,64.766a3.231,3.231,0,0,0,1.339-1.295h7.59a3.118,3.118,0,0,0,1.36,1.305l2.927,1.707a19.4,19.4,0,0,1-.837,5.468c-1.57,4.829-4.984,6.289-7.231,6.289-3.752,0-7.782-3.692-7.961-11.774ZM12.6,79.223a7.91,7.91,0,0,0,3.551.866,8.122,8.122,0,0,0,3.56-.841l.236,2.872c-1.3.5-2.642,1.1-3.565,1.519a.655.655,0,0,1-.522.009h0c-1.115-.464-2.36-.973-3.469-1.408ZM8.3,83.572a.687.687,0,0,1,.785-.55,62.021,62.021,0,0,1,6.06,2.333,2.508,2.508,0,0,0,2-.036,33.314,33.314,0,0,1,6.047-2.3.687.687,0,0,1,.785.549l.222,1.3c-2.141,1.028-6.422,2.921-8.063,2.921S10.22,85.91,8.078,84.886Z"/>
  </g>
</svg>
