<svg width="100" height="100" viewBox="0 0 100 100" fill="none" xmlns="http://www.w3.org/2000/svg">
<g filter="url(#filter0_b)">
<rect width="100" height="100" rx="10" fill="white" fill-opacity="0.4"/>
</g>
<g clip-path="url(#clip0)">
<path d="M60.292 51.534L55.207 49.169C55.0283 49.0827 54.8779 48.9474 54.7732 48.7788C54.6686 48.6103 54.6141 48.4154 54.616 48.217V46.756C55.5002 46.0109 56.2099 45.0805 56.6948 44.0307C57.1797 42.9809 57.428 41.8373 57.422 40.681V38.624C57.709 38.4533 57.9463 38.2104 58.1103 37.9195C58.2744 37.6287 58.3594 37.2999 58.357 36.966V36.766C58.3994 34.753 57.6421 32.8053 56.2511 31.3496C54.8601 29.894 52.9488 29.049 50.936 29H49.066C47.0531 29.049 45.1418 29.894 43.7508 31.3496C42.3598 32.8053 41.6026 34.753 41.645 36.766V38.577C41.639 38.8696 41.6988 39.1597 41.82 39.4261C41.9412 39.6924 42.1206 39.9282 42.345 40.116C42.4193 40.1762 42.4986 40.2301 42.582 40.277V40.677C42.576 41.8334 42.8242 42.9769 43.3091 44.0267C43.794 45.0765 44.5037 46.0068 45.388 46.752V48.216C45.3899 48.4144 45.3354 48.6093 45.2307 48.7778C45.1261 48.9464 44.9756 49.0817 44.797 49.168L39.712 51.533C38.8834 51.9329 38.1857 52.5603 37.7004 53.3419C37.215 54.1235 36.962 55.027 36.971 55.947V68.083C36.9653 68.2014 36.9837 68.3198 37.0252 68.4309C37.0666 68.542 37.1301 68.6435 37.2119 68.7293C37.2937 68.8151 37.3921 68.8834 37.5011 68.9301C37.6101 68.9768 37.7274 69.0008 37.846 69.0008C37.9645 69.0008 38.0819 68.9768 38.1909 68.9301C38.2998 68.8834 38.3982 68.8151 38.48 68.7293C38.5618 68.6435 38.6254 68.542 38.6668 68.4309C38.7082 68.3198 38.7266 68.2014 38.721 68.083V55.948C38.7217 55.8428 38.7277 55.7376 38.739 55.633L41.082 58.085C41.4479 58.4704 41.6504 58.9825 41.647 59.514V68.085C41.6413 68.2034 41.6597 68.3218 41.7012 68.4329C41.7426 68.544 41.8061 68.6455 41.8879 68.7313C41.9697 68.8171 42.0681 68.8854 42.1771 68.9321C42.2861 68.9788 42.4034 69.0028 42.522 69.0028C42.6405 69.0028 42.7579 68.9788 42.8668 68.9321C42.9758 68.8854 43.0742 68.8171 43.156 68.7313C43.2378 68.6455 43.3014 68.544 43.3428 68.4329C43.3842 68.3218 43.4026 68.2034 43.397 68.085V59.516C43.4034 58.5028 43.017 57.5264 42.319 56.792L39.526 53.869C39.7798 53.5921 40.0856 53.3678 40.426 53.209L45.426 50.884L49.133 54.763V68.085C49.1273 68.2034 49.1457 68.3218 49.1872 68.4329C49.2286 68.544 49.2921 68.6455 49.3739 68.7313C49.4557 68.8171 49.5541 68.8854 49.6631 68.9321C49.7721 68.9788 49.8894 69.0028 50.008 69.0028C50.1265 69.0028 50.2439 68.9788 50.3529 68.9321C50.4618 68.8854 50.5602 68.8171 50.642 68.7313C50.7238 68.6455 50.7874 68.544 50.8288 68.4329C50.8702 68.3218 50.8886 68.2034 50.883 68.085V54.762L54.59 50.883L59.59 53.208C59.9304 53.3668 60.2362 53.591 60.49 53.868L57.697 56.791C56.9989 57.5254 56.6125 58.5018 56.619 59.515V68.086C56.6133 68.2044 56.6317 68.3228 56.6732 68.4339C56.7146 68.545 56.7781 68.6465 56.8599 68.7323C56.9417 68.8181 57.0401 68.8864 57.1491 68.9331C57.2581 68.9798 57.3754 69.0039 57.494 69.0039C57.6125 69.0039 57.7299 68.9798 57.8388 68.9331C57.9478 68.8864 58.0462 68.8181 58.128 68.7323C58.2098 68.6465 58.2734 68.545 58.3148 68.4339C58.3562 68.3228 58.3746 68.2044 58.369 68.086V59.516C58.3654 58.9845 58.5679 58.4724 58.934 58.087L61.277 55.635C61.2883 55.7396 61.2943 55.8448 61.295 55.95V68.086C61.2893 68.2044 61.3077 68.3228 61.3492 68.4339C61.3906 68.545 61.4541 68.6465 61.5359 68.7323C61.6177 68.8181 61.7161 68.8864 61.8251 68.9331C61.9341 68.9798 62.0514 69.0039 62.17 69.0039C62.2885 69.0039 62.4059 68.9798 62.5149 68.9331C62.6238 68.8864 62.7222 68.8181 62.804 68.7323C62.8858 68.6465 62.9494 68.545 62.9908 68.4339C63.0322 68.3228 63.0506 68.2044 63.045 68.086V55.948C63.0527 55.0268 62.7979 54.1224 62.3103 53.3407C61.8228 52.559 61.1227 51.9323 60.292 51.534V51.534ZM50 53.088L46.747 49.688C47.0007 49.2411 47.134 48.7359 47.134 48.222V47.849C48.0371 48.2467 49.0132 48.452 50 48.452C50.9868 48.452 51.9628 48.2467 52.866 47.849V48.221C52.8657 48.7353 52.9991 49.2408 53.253 49.688L50 53.088ZM50 46.616C48.4618 46.5785 47.0011 45.9328 45.9381 44.8203C44.8751 43.7078 44.2965 42.2193 44.329 40.681V40.269C44.9217 40.0118 45.4607 39.6454 45.918 39.189C46.0891 39.02 46.1895 38.7921 46.1986 38.5517C46.2077 38.3113 46.1249 38.0765 45.967 37.895C45.8913 37.8072 45.7984 37.7358 45.694 37.6853C45.5897 37.6348 45.4761 37.6062 45.3602 37.6013C45.2444 37.5965 45.1288 37.6154 45.0206 37.657C44.9123 37.6985 44.8138 37.7618 44.731 37.843C44.372 38.2177 43.9252 38.4968 43.431 38.655H43.408C43.3969 38.6288 43.3918 38.6004 43.393 38.572V36.767C43.3605 35.2287 43.9391 33.7402 45.0021 32.6277C46.0651 31.5152 47.5258 30.8695 49.064 30.832H50.934C52.4722 30.8695 53.9328 31.5152 54.9958 32.6277C56.0588 33.7402 56.6375 35.2287 56.605 36.767V36.967C56.6059 36.9799 56.6027 36.9927 56.5956 37.0036C56.5886 37.0144 56.5781 37.0227 56.566 37.027C51.326 38.11 48.698 36.069 47.812 35.141C47.7327 35.0564 47.6369 34.9891 47.5305 34.943C47.4241 34.8969 47.3094 34.8731 47.1935 34.8731C47.0775 34.8731 46.9628 34.8969 46.8565 34.943C46.7501 34.9891 46.6543 35.0564 46.575 35.141C46.4103 35.3164 46.3187 35.5479 46.3187 35.7885C46.3187 36.0291 46.4103 36.2606 46.575 36.436C49.292 39.279 53.257 39.331 55.675 39.027V40.682C55.7072 42.2207 55.128 43.7093 54.0644 44.8217C53.0008 45.934 51.5395 46.5793 50.001 46.616H50Z" fill="#F2CA6B"/>
<path d="M35.7779 46.411V44.441C35.7847 43.3158 35.517 42.2059 34.9981 41.2075C34.4792 40.209 33.7247 39.3521 32.7999 38.711C32.9111 38.3357 32.9677 37.9464 32.9679 37.555C32.9921 36.5534 32.6183 35.583 31.9283 34.8564C31.2383 34.1299 30.2885 33.7065 29.2869 33.679C28.2854 33.7065 27.3355 34.1299 26.6456 34.8564C25.9556 35.583 25.5818 36.5534 25.6059 37.555C25.6057 37.9464 25.6623 38.3358 25.7739 38.711C24.8492 39.3534 24.095 40.2116 23.577 41.2113C23.0589 42.211 22.7925 43.3221 22.8009 44.448V46.411C22.7935 47.5023 23.0437 48.58 23.5313 49.5564C24.0189 50.5328 24.73 51.3803 25.6069 52.03V54.056C25.6096 54.2477 25.5598 54.4364 25.4628 54.6017C25.3659 54.7671 25.2255 54.9027 25.0569 54.994L22.0309 56.587C21.4078 56.9248 20.8891 57.4268 20.5311 58.0385C20.173 58.6502 19.9893 59.3483 19.9999 60.057V68.079C19.9943 68.317 20.0832 68.5476 20.2472 68.7202C20.4112 68.8929 20.6369 68.9935 20.8749 69C21.113 68.9935 21.3387 68.8929 21.5027 68.7202C21.6667 68.5476 21.7556 68.317 21.7499 68.079V60.456L23.1749 61.956C23.5414 62.3447 23.7437 62.8598 23.7399 63.394V68.079C23.7343 68.317 23.8232 68.5476 23.9872 68.7202C24.1512 68.8929 24.3769 68.9935 24.6149 69C24.853 68.9935 25.0787 68.8929 25.2427 68.7202C25.4067 68.5476 25.4956 68.317 25.4899 68.079V63.394C25.4966 62.376 25.1105 61.3946 24.4119 60.654L22.4279 58.565L22.3979 58.537C22.5234 58.419 22.664 58.3181 22.8159 58.237L25.8419 56.644C25.9952 56.5628 26.1405 56.4674 26.2759 56.359L28.4169 58.611V68.077C28.4113 68.1954 28.4297 68.3138 28.4711 68.4249C28.5126 68.536 28.5761 68.6375 28.6579 68.7233C28.7397 68.8091 28.8381 68.8774 28.9471 68.9241C29.0561 68.9708 29.1734 68.9949 29.2919 68.9949C29.4105 68.9949 29.5278 68.9708 29.6368 68.9241C29.7458 68.8774 29.8442 68.8091 29.926 68.7233C30.0078 68.6375 30.0713 68.536 30.1128 68.4249C30.1542 68.3138 30.1726 68.1954 30.1669 68.077V58.611L32.3059 56.358C32.4413 56.4665 32.5866 56.5619 32.7399 56.643L33.5749 57.082C33.6951 57.1468 33.8294 57.1811 33.9659 57.182C34.1313 57.1803 34.2928 57.1315 34.4314 57.0413C34.5701 56.9512 34.6802 56.8234 34.7489 56.673C34.8539 56.456 34.8719 56.2071 34.7992 55.9773C34.7265 55.7475 34.5686 55.5542 34.3579 55.437L33.5229 54.998C33.3545 54.9069 33.2141 54.7714 33.1172 54.6063C33.0202 54.4411 32.9703 54.2525 32.9729 54.061V52.035C33.8504 51.3847 34.5618 50.5364 35.0492 49.5591C35.5366 48.5817 35.7863 47.5031 35.7779 46.411V46.411ZM29.2919 35.511C29.8173 35.5254 30.3155 35.7475 30.6775 36.1285C31.0394 36.5096 31.2356 37.0186 31.2229 37.544C31.2228 37.6657 31.2124 37.7871 31.1919 37.907C29.9568 37.5075 28.6271 37.5075 27.3919 37.907C27.3708 37.7875 27.3597 37.6664 27.3589 37.545C27.3482 37.0205 27.5454 36.513 27.9076 36.1334C28.2698 35.7538 28.7675 35.5329 29.2919 35.519V35.511ZM29.2919 39.45C30.5805 39.4856 31.8025 40.0305 32.6901 40.9652C33.5778 41.8999 34.0589 43.1483 34.0279 44.437V44.771C32.9719 45.1106 31.8366 45.114 30.7785 44.7809C29.7205 44.4477 28.7919 43.7944 28.1209 42.911C28.048 42.8069 27.9531 42.7201 27.8428 42.6568C27.7325 42.5936 27.6097 42.5554 27.4829 42.545C27.3567 42.5363 27.23 42.5558 27.1122 42.6022C26.9944 42.6485 26.8884 42.7205 26.8019 42.813C26.186 43.4887 25.4163 44.006 24.5579 44.321C24.5578 43.0534 25.0524 41.8358 25.9367 40.9274C26.8209 40.0191 28.0248 39.4919 29.2919 39.458V39.45ZM29.2919 56.92L27.2699 54.799C27.3302 54.5573 27.3608 54.3091 27.3609 54.06V52.935C28.615 53.3469 29.9679 53.3469 31.2219 52.935V54.06C31.2221 54.3091 31.2527 54.5573 31.3129 54.799L29.2919 56.92ZM29.2919 51.393C28.0043 51.3574 26.7831 50.8132 25.8956 49.8796C25.008 48.946 24.5264 47.6988 24.5559 46.411V46.22C25.5955 45.9545 26.5586 45.4494 27.3679 44.745C27.853 45.228 28.3985 45.6461 28.9909 45.989C30.0064 46.5804 31.1598 46.8939 32.3349 46.898C32.9039 46.896 33.4704 46.8245 34.0219 46.685C33.9865 47.927 33.4764 49.1081 32.5965 49.9854C31.7167 50.8627 30.534 51.3693 29.2919 51.401V51.393Z" fill="#F2CA6B"/>
<path d="M77.9659 55.344L73.0659 52.896C72.9002 52.8138 72.7609 52.6869 72.6637 52.5296C72.5665 52.3723 72.5153 52.1909 72.5159 52.006V50.766C73.1038 50.2462 73.5746 49.6075 73.897 48.892C74.2194 48.1766 74.386 47.4008 74.3859 46.616V45.616H74.4459C74.678 45.616 74.9005 45.5238 75.0646 45.3597C75.2287 45.1956 75.3209 44.9731 75.3209 44.741V42.871C75.3193 41.3993 74.7339 39.9883 73.6933 38.9476C72.6526 37.9069 71.2416 37.3216 69.7699 37.32H67.8999C66.4281 37.3216 65.0172 37.9069 63.9765 38.9476C62.9358 39.9883 62.3505 41.3993 62.3489 42.871V44.741C62.3489 44.9731 62.4411 45.1956 62.6052 45.3597C62.7693 45.5238 62.9918 45.616 63.2239 45.616H63.2839V46.616C63.2837 47.401 63.4505 48.177 63.773 48.8927C64.0956 49.6083 64.5666 50.2472 65.1549 50.767V52.007C65.1555 52.1919 65.1043 52.3733 65.007 52.5306C64.9098 52.6879 64.7705 52.8148 64.6049 52.897C64.5012 52.9479 64.4086 53.0188 64.3325 53.1056C64.2563 53.1924 64.1981 53.2934 64.1612 53.4028C64.1243 53.5123 64.1094 53.6279 64.1174 53.7431C64.1254 53.8583 64.1561 53.9708 64.2078 54.0741C64.2594 54.1773 64.3311 54.2694 64.4185 54.3448C64.5059 54.4203 64.6073 54.4777 64.717 54.5138C64.8267 54.5499 64.9425 54.5639 65.0576 54.555C65.1728 54.5461 65.285 54.5145 65.3879 54.462C65.5406 54.3852 65.6859 54.2945 65.8219 54.191L67.9609 56.33V68.13C67.9609 68.3621 68.0531 68.5846 68.2172 68.7487C68.3813 68.9128 68.6038 69.005 68.8359 69.005C69.0679 69.005 69.2905 68.9128 69.4546 68.7487C69.6187 68.5846 69.7109 68.3621 69.7109 68.13V56.325L71.8499 54.186C71.9859 54.2895 72.1312 54.3802 72.2839 54.457L77.0219 56.826L75.5849 58.263C75.2424 58.6037 74.9708 59.0089 74.7857 59.4551C74.6007 59.9014 74.5059 60.3799 74.5069 60.863V68.125C74.5069 68.3571 74.5991 68.5796 74.7632 68.7437C74.9272 68.9078 75.1498 69 75.3819 69C75.614 69 75.8365 68.9078 76.0006 68.7437C76.1647 68.5796 76.2569 68.3571 76.2569 68.125V60.87C76.2562 60.6164 76.3057 60.3652 76.4027 60.1309C76.4997 59.8966 76.6422 59.6839 76.8219 59.505L78.1829 58.144C78.2252 58.3049 78.2467 58.4706 78.2469 58.637V68.125C78.2469 68.3571 78.3391 68.5796 78.5032 68.7437C78.6673 68.9078 78.8898 69 79.1219 69C79.354 69 79.5765 68.9078 79.7406 68.7437C79.9047 68.5796 79.9969 68.3571 79.9969 68.125V58.636C79.9996 57.9524 79.8108 57.2816 79.4518 56.6998C79.0929 56.1179 78.5781 55.6483 77.9659 55.344V55.344ZM64.1019 43.689V42.873C64.1032 41.8656 64.504 40.8998 65.2163 40.1875C65.9287 39.4751 66.8945 39.0743 67.9019 39.073H69.7719C70.7793 39.0743 71.7451 39.4751 72.4574 40.1875C73.1698 40.8998 73.5706 41.8656 73.5719 42.873V43.845C71.4247 43.7779 69.3252 43.1948 67.4509 42.145C67.283 42.0338 67.0819 41.984 66.8815 42.0038C66.6811 42.0237 66.4937 42.112 66.3509 42.254C65.7245 42.9026 64.954 43.3943 64.1019 43.689ZM68.8379 54.729L66.8159 52.707C66.8759 52.4785 66.9065 52.2433 66.9069 52.007V51.821C68.1524 52.2834 69.5224 52.2834 70.7679 51.821V52.007C70.7682 52.2433 70.7988 52.4785 70.8589 52.707L68.8379 54.729ZM68.8379 50.415C67.8305 50.4137 66.8647 50.0129 66.1523 49.3006C65.44 48.5882 65.0392 47.6224 65.0379 46.615V45.204C65.7859 44.901 66.4794 44.4778 67.0909 43.951C68.826 44.8183 70.708 45.3532 72.6399 45.528V46.614C72.6391 47.6221 72.2383 48.5887 71.5254 49.3015C70.8126 50.0144 69.846 50.4152 68.8379 50.416V50.415Z" fill="#F2CA6B"/>
</g>
<defs>
<filter id="filter0_b" x="-10" y="-10" width="120" height="120" filterUnits="userSpaceOnUse" color-interpolation-filters="sRGB">
<feFlood flood-opacity="0" result="BackgroundImageFix"/>
<feGaussianBlur in="BackgroundImage" stdDeviation="5"/>
<feComposite in2="SourceAlpha" operator="in" result="effect1_backgroundBlur"/>
<feBlend mode="normal" in="SourceGraphic" in2="effect1_backgroundBlur" result="shape"/>
</filter>
<clipPath id="clip0">
<rect width="60" height="40" fill="white" transform="translate(20 29)"/>
</clipPath>
</defs>
</svg>
