<svg xmlns="http://www.w3.org/2000/svg" width="21" height="22" viewBox="0 0 21 22">
  <g id="Иконка_включиить_" data-name="Иконка (включиить)" transform="translate(-32.45)">
    <path id="Контур_101" data-name="Контур 101" d="M35.526,107.8a10.514,10.514,0,0,0,3.336,2.2,10.771,10.771,0,0,0,8.177,0,10.448,10.448,0,0,0,3.336-2.2,10.236,10.236,0,0,0,2.25-3.257,10.059,10.059,0,0,0,0-7.982,10.173,10.173,0,0,0-2.25-3.257,10.513,10.513,0,0,0-3.336-2.2c-.177-.074-.357-.141-.539-.206v3.545a7.187,7.187,0,0,1,1.533,1.143,6.9,6.9,0,0,1,0,9.923,7.31,7.31,0,0,1-10.164,0,6.9,6.9,0,0,1,0-9.923A7.187,7.187,0,0,1,39.4,94.445V90.9c-.18.065-.36.132-.539.206a10.449,10.449,0,0,0-3.336,2.2,10.236,10.236,0,0,0-2.25,3.257,10.059,10.059,0,0,0,0,7.982A10.236,10.236,0,0,0,35.526,107.8Z" transform="translate(0 -88.8)" fill="#fff"/>
    <path id="Контур_102" data-name="Контур 102" d="M407.867,11.821a1.616,1.616,0,0,0,1.617-1.617V1.617a1.617,1.617,0,1,0-3.234,0v8.59A1.615,1.615,0,0,0,407.867,11.821Z" transform="translate(-364.917)" fill="#fff"/>
  </g>
</svg>
