<svg xmlns="http://www.w3.org/2000/svg" width="50" height="50" viewBox="0 0 50 50">
  <g id="Сгруппировать_160" data-name="Сгруппировать 160" transform="translate(-620 -303)">
    <rect id="Прямоугольник_267" data-name="Прямоугольник 267" width="50" height="50" rx="25" transform="translate(620 303)" fill="#fff" opacity="0.1"/>
    <g id="help" transform="translate(630 313)">
      <path id="Контур_236" data-name="Контур 236" d="M217.039,207.341a9.727,9.727,0,0,0-5.334-8.661A13.227,13.227,0,0,1,198.68,211.7a9.7,9.7,0,0,0,13.6,3.986L217,217l-1.306-4.721a9.663,9.663,0,0,0,1.348-4.934Zm0,0" transform="translate(-187.038 -187.039)" fill="#fff"/>
      <path id="Контур_237" data-name="Контур 237" d="M22.91,11.455A11.455,11.455,0,1,0,1.588,17.278L.042,22.868l5.59-1.546A11.457,11.457,0,0,0,22.91,11.455ZM9.7,8.789H7.939a3.516,3.516,0,1,1,5.888,2.594L12.334,12.75v1.371H10.576V11.976l2.065-1.89a1.74,1.74,0,0,0,.572-1.3,1.758,1.758,0,1,0-3.516,0Zm.879,7.09h1.758v1.758H10.576Zm0,0" fill="#fff"/>
    </g>
  </g>
</svg>
