<svg xmlns="http://www.w3.org/2000/svg" width="34" height="18" viewBox="0 0 34 18">
  <g id="XMLID_2534_" transform="translate(-10.677 -9.973)">
    <path id="XMLID_2638_" d="M18.432,107.249v-1.058a9.11,9.11,0,0,1,1.354-4.789,5.859,5.859,0,0,0-1.144-.612,3.172,3.172,0,1,0-4.3,0,5.824,5.824,0,0,0-3.666,5.4v1.058h7.755Z" transform="translate(0 -79.276)" fill="#fff"/>
    <path id="XMLID_2639_" d="M362.826,106.191v1.058h7.755v-1.058a5.824,5.824,0,0,0-3.666-5.4,3.173,3.173,0,1,0-4.3,0,5.867,5.867,0,0,0-1.144.612A9.11,9.11,0,0,1,362.826,106.191Z" transform="translate(-325.904 -79.275)" fill="#fff"/>
    <path id="XMLID_2731_" d="M164.777,26.914h0a7.061,7.061,0,0,0-4.558-6.6,5.464,5.464,0,1,0-4.984,0,7.061,7.061,0,0,0-4.558,6.6v1.059h14.1Z" transform="translate(-130.05)" fill="#fff"/>
  </g>
</svg>
