<svg xmlns="http://www.w3.org/2000/svg" width="18" height="18" viewBox="0 0 18 18">
  <g id="Solid" transform="translate(-24 -24)">
    <path id="Контур_103" data-name="Контур 103" d="M145.274,38a.931.931,0,0,0,1.317,0l3.511-3.511a.931.931,0,1,0-1.317-1.317L146.864,35.1V26.931a.931.931,0,0,0-1.862,0V35.1l-1.922-1.922a.931.931,0,1,0-1.317,1.317Z" transform="translate(-112.933 -2)" fill="#fff"/>
    <path id="Контур_104" data-name="Контур 104" d="M41.069,232a.931.931,0,0,0-.931.931v7.138H25.862v-7.138a.931.931,0,0,0-1.862,0v7.448a1.552,1.552,0,0,0,1.552,1.552h14.9A1.552,1.552,0,0,0,42,240.379v-7.448A.931.931,0,0,0,41.069,232Z" transform="translate(0 -199.931)" fill="#fff"/>
  </g>
</svg>
 