<svg width="100" height="100" viewBox="0 0 100 100" fill="none" xmlns="http://www.w3.org/2000/svg">
<g filter="url(#filter0_b)">
<rect width="100" height="100" rx="10" fill="white" fill-opacity="0.4"/>
</g>
<g clip-path="url(#clip0)">
<path d="M76.121 30.385C67.2087 28.0597 58.625 24.6203 50.573 20.148C50.3979 20.0504 50.2009 19.9992 50.0005 19.9992C49.8001 19.9992 49.603 20.0504 49.428 20.148C41.3898 24.6501 32.8019 28.0911 23.879 30.385C23.6277 30.4501 23.4052 30.5968 23.2463 30.802C23.0874 31.0073 23.0011 31.2594 23.001 31.519V44.456C22.9635 49.5663 24.0076 54.6267 26.0645 59.3048C28.1215 63.983 31.1448 68.1731 34.936 71.6C40.777 77.009 47.551 80 50.001 80C52.451 80 59.224 77.01 65.065 71.6C68.8563 68.1732 71.8797 63.9831 73.9369 59.3049C75.994 54.6268 77.0382 49.5663 77.001 44.456V31.519C77.0006 31.2592 76.9139 31.0069 76.7547 30.8017C76.5954 30.5964 76.3725 30.4499 76.121 30.385V30.385ZM63.468 69.885C60.9339 72.2382 58.0927 74.2374 55.022 75.828C53.4698 76.73 51.7697 77.3489 50.001 77.656C48.2322 77.349 46.5321 76.73 44.98 75.828C41.9093 74.2373 39.0682 72.2381 36.534 69.885C32.9814 66.6751 30.1481 62.75 28.2202 58.3673C26.2923 53.9847 25.3135 49.2438 25.348 44.456V32.422C33.9398 30.1383 42.2193 26.8098 50.001 22.511C57.7967 26.7796 66.072 30.1066 74.653 32.422V44.456C74.6874 49.2435 73.7086 53.9842 71.7809 58.3666C69.8532 62.7491 67.0202 66.6741 63.468 69.884V69.885Z" fill="#F2CA6B"/>
<path d="M72.062 33.51C64.6129 31.3487 57.4052 28.4291 50.552 24.797C50.3825 24.7073 50.1937 24.6605 50.002 24.6605C49.8103 24.6605 49.6214 24.7073 49.452 24.797C42.603 28.4392 35.3943 31.3605 27.942 33.514C27.6975 33.584 27.4824 33.7316 27.3291 33.9345C27.1758 34.1374 27.0926 34.3847 27.092 34.639V44.452C27.0634 48.891 27.9434 53.2889 29.678 57.375C31.4494 61.4402 34.0232 65.1061 37.245 68.153C39.615 70.4261 42.2767 72.3742 45.16 73.946C46.6218 74.7678 48.1755 75.4139 49.789 75.871C49.9298 75.8969 50.0742 75.8969 50.215 75.871C51.8284 75.4139 53.3822 74.7678 54.844 73.946C57.7272 72.374 60.3888 70.426 62.759 68.153C65.9809 65.1061 68.5546 61.4402 70.326 57.375C72.0606 53.2889 72.9406 48.891 72.912 44.452V34.636C72.9116 34.3815 72.8285 34.134 72.6752 33.9309C72.5219 33.7278 72.3066 33.5801 72.062 33.51ZM70.562 44.452C70.6175 48.5764 69.8067 52.6665 68.1822 56.4578C66.5577 60.2492 64.1555 63.6574 61.131 66.462C58.9152 68.5889 56.4268 70.4122 53.731 71.884C52.5458 72.5485 51.2985 73.0958 50.007 73.518C48.7154 73.0958 47.4682 72.5485 46.283 71.884C43.5872 70.4122 41.0988 68.5889 38.883 66.462C35.8585 63.6574 33.4563 60.2492 31.8318 56.4578C30.2072 52.6665 29.3965 48.5764 29.452 44.452V35.516C36.5606 33.4021 43.447 30.6022 50.014 27.156C56.5834 30.5929 63.4677 33.391 70.572 35.512V44.451L70.562 44.452Z" fill="#F2CA6B"/>
<path d="M40.2561 61.992L40.2331 61.967C40.0234 61.7432 39.7341 61.6109 39.4277 61.5984C39.1213 61.5859 38.8223 61.6943 38.5951 61.9003C38.3679 62.1062 38.2307 62.3932 38.2131 62.6994C38.1955 63.0056 38.2989 63.3064 38.5011 63.537L38.5241 63.562C38.7338 63.7857 39.023 63.9181 39.3295 63.9306C39.6359 63.943 39.9349 63.8346 40.1621 63.6287C40.3893 63.4227 40.5265 63.1357 40.5441 62.8296C40.5616 62.5234 40.4582 62.2226 40.2561 61.992V61.992Z" fill="#F2CA6B"/>
<path d="M46.573 67.31C45.1481 66.4086 43.8004 65.3905 42.544 64.266C42.4305 64.1586 42.2966 64.075 42.1502 64.0203C42.0039 63.9655 41.848 63.9406 41.6919 63.9471C41.5357 63.9536 41.3825 63.9914 41.2412 64.0581C41.0999 64.1249 40.9734 64.2193 40.8692 64.3358C40.765 64.4523 40.6852 64.5885 40.6346 64.7363C40.584 64.8842 40.5635 65.0407 40.5744 65.1966C40.5853 65.3525 40.6273 65.5046 40.698 65.644C40.7687 65.7834 40.8666 65.9071 40.986 66.008C42.3391 67.2189 43.7904 68.3154 45.325 69.286C45.4548 69.372 45.6005 69.4312 45.7535 69.4601C45.9065 69.489 46.0637 69.487 46.216 69.4543C46.3682 69.4216 46.5124 69.3589 46.64 69.2697C46.7677 69.1805 46.8762 69.0667 46.9593 68.935C47.0423 68.8033 47.0982 68.6564 47.1237 68.5028C47.1492 68.3492 47.1438 68.192 47.1077 68.0406C47.0716 67.8891 47.0057 67.7464 46.9137 67.6207C46.8217 67.4951 46.7055 67.3891 46.572 67.309L46.573 67.31Z" fill="#F2CA6B"/>
<path d="M56.182 44.501V40.653C56.182 39.0134 55.5307 37.441 54.3713 36.2817C53.212 35.1223 51.6396 34.471 50 34.471C48.3604 34.471 46.788 35.1223 45.6287 36.2817C44.4693 37.441 43.818 39.0134 43.818 40.653V44.5C43.1449 44.5244 42.5074 44.809 42.04 45.294C41.5725 45.779 41.3116 46.4264 41.312 47.1V56.072C41.312 56.7616 41.5859 57.4229 42.0735 57.9105C42.5611 58.3981 43.2224 58.672 43.912 58.672H56.087C56.7766 58.672 57.4379 58.3981 57.9255 57.9105C58.4131 57.4229 58.687 56.7616 58.687 56.072V47.1C58.6872 46.4268 58.4262 45.7797 57.959 45.295C57.4918 44.8102 56.8548 44.5256 56.182 44.501V44.501ZM46.158 40.653C46.158 39.6333 46.5631 38.6553 47.2842 37.9342C48.0053 37.2131 48.9832 36.808 50.003 36.808C51.0228 36.808 52.0008 37.2131 52.7218 37.9342C53.4429 38.6553 53.848 39.6333 53.848 40.653V44.498H46.158V40.653ZM56.358 56.071C56.3572 56.1408 56.3292 56.2075 56.2798 56.2568C56.2305 56.3062 56.1638 56.3342 56.094 56.335H43.912C43.8422 56.3342 43.7755 56.3062 43.7262 56.2568C43.6769 56.2075 43.6488 56.1408 43.648 56.071V47.099C43.6488 47.0292 43.6769 46.9625 43.7262 46.9132C43.7755 46.8638 43.8422 46.8358 43.912 46.835H56.087C56.1568 46.8358 56.2235 46.8638 56.2728 46.9132C56.3222 46.9625 56.3502 47.0292 56.351 47.099L56.358 56.071Z" fill="#F2CA6B"/>
<path d="M49.9999 49.262C49.6785 49.2616 49.3641 49.3561 49.0962 49.5336C48.8283 49.7112 48.6187 49.9639 48.4939 50.26C48.369 50.5562 48.3344 50.8826 48.3944 51.1984C48.4543 51.5142 48.6062 51.8052 48.8309 52.035V53.179C48.8263 53.3353 48.8531 53.491 48.9098 53.6367C48.9665 53.7825 49.0518 53.9154 49.1608 54.0276C49.2697 54.1398 49.4001 54.229 49.5441 54.2899C49.6882 54.3508 49.843 54.3822 49.9994 54.3822C50.1558 54.3822 50.3106 54.3508 50.4546 54.2899C50.5987 54.229 50.729 54.1398 50.838 54.0276C50.9469 53.9154 51.0323 53.7825 51.0889 53.6367C51.1456 53.491 51.1725 53.3353 51.1679 53.179V52.035C51.3926 51.8052 51.5444 51.5142 51.6044 51.1984C51.6643 50.8826 51.6297 50.5562 51.5049 50.26C51.38 49.9639 51.1705 49.7112 50.9026 49.5336C50.6346 49.3561 50.3203 49.2616 49.9989 49.262H49.9999Z" fill="#F2CA6B"/>
</g>
<defs>
<filter id="filter0_b" x="-10" y="-10" width="120" height="120" filterUnits="userSpaceOnUse" color-interpolation-filters="sRGB">
<feFlood flood-opacity="0" result="BackgroundImageFix"/>
<feGaussianBlur in="BackgroundImage" stdDeviation="5"/>
<feComposite in2="SourceAlpha" operator="in" result="effect1_backgroundBlur"/>
<feBlend mode="normal" in="SourceGraphic" in2="effect1_backgroundBlur" result="shape"/>
</filter>
<clipPath id="clip0">
<rect width="54" height="60" fill="white" transform="translate(23 20)"/>
</clipPath>
</defs>
</svg>
