<svg xmlns="http://www.w3.org/2000/svg" width="24" height="24" viewBox="0 0 24 24">
  <path id="Контур_177" data-name="Контур 177" d="M30.295,14.63l-2.265-1.725A8.46,8.46,0,0,0,28.083,12a8.2,8.2,0,0,0-.053-.906L30.3,9.367a1.063,1.063,0,0,0,.268-1.378L28.209,4.02a1.106,1.106,0,0,0-1.363-.477L24.173,4.588a9.227,9.227,0,0,0-1.605-.907L22.162.92A1.082,1.082,0,0,0,21.073,0H16.349a1.079,1.079,0,0,0-1.086.912l-.408,2.771a9.512,9.512,0,0,0-1.6.907l-2.68-1.048a1.128,1.128,0,0,0-1.352.469L6.862,7.985A1.056,1.056,0,0,0,7.129,9.37L9.394,11.1a7.706,7.706,0,0,0,0,1.811L7.127,14.632A1.063,1.063,0,0,0,6.86,16.01l2.356,3.969a1.1,1.1,0,0,0,1.363.477l2.673-1.045a9.309,9.309,0,0,0,1.6.907l.407,2.76A1.081,1.081,0,0,0,16.35,24h4.724a1.08,1.08,0,0,0,1.088-.912l.408-2.77a9.556,9.556,0,0,0,1.6-.908l2.68,1.048a1.13,1.13,0,0,0,.4.074,1.089,1.089,0,0,0,.95-.542L30.57,16A1.061,1.061,0,0,0,30.295,14.63ZM18.711,16a4,4,0,1,1,4.108-4A4.059,4.059,0,0,1,18.711,16Z" transform="translate(-6.71)" fill="#fff"/>
</svg>
