<svg id="system" xmlns="http://www.w3.org/2000/svg" width="60" height="60" viewBox="0 0 60 60">
  <g id="Сгруппировать_121" data-name="Сгруппировать 121" transform="translate(0 0)">
    <g id="Сгруппировать_120" data-name="Сгруппировать 120" transform="translate(0 0)">
      <path id="Контур_297" data-name="Контур 297" d="M59,192H58V161a1,1,0,0,0-1-1H3a1,1,0,0,0-1,1v31H1a1,1,0,0,0-1,1v2a5.006,5.006,0,0,0,5,5H55a5.006,5.006,0,0,0,5-5v-2A1,1,0,0,0,59,192ZM4,162H56v30H38a1.013,1.013,0,0,0-.708.294L35.586,194H24.414l-1.706-1.706A1.013,1.013,0,0,0,22,192H4Zm54,33a3,3,0,0,1-3,3H5a3,3,0,0,1-3-3v-1H21.586l1.707,1.707A1,1,0,0,0,24,196H36a1,1,0,0,0,.707-.293L38.414,194H58Z" transform="translate(0 -140)"/>
      <path id="Контур_298" data-name="Контур 298" d="M57.078,204.285l12.055-11.051,12,6.989L90,191.354V184H40v23.045l10.025-7.8ZM42,202.955V186H88v4.526l-7.191,7.193-11.942-6.953L56.922,201.715l-6.947-4.962Z" transform="translate(-35 -161)"/>
      <path id="Контур_299" data-name="Контур 299" d="M105,19a1,1,0,0,0,1-1V15.847l3.475-.58a1,1,0,0,0,.809-.763,10.793,10.793,0,0,1,1.373-3.322,1,1,0,0,0-.034-1.114l-2.047-2.861,1.631-1.631,2.861,2.047a1,1,0,0,0,1.114.034A10.792,10.792,0,0,1,118.5,6.284a1,1,0,0,0,.763-.809L119.847,2h2.306l.58,3.475a1,1,0,0,0,.763.809,10.793,10.793,0,0,1,3.322,1.373,1,1,0,0,0,1.114-.034l2.861-2.047,1.631,1.631-2.047,2.861a1,1,0,0,0-.034,1.114,10.791,10.791,0,0,1,1.373,3.318,1,1,0,0,0,.809.763l3.475.58V18a1,1,0,0,0,2,0V15a1,1,0,0,0-.835-.986L133.5,13.4a12.864,12.864,0,0,0-1.114-2.7l2.161-3.021a1,1,0,0,0-.107-1.289l-2.83-2.831a1,1,0,0,0-1.289-.106L127.3,5.617A12.868,12.868,0,0,0,124.6,4.5L123.987.832A1,1,0,0,0,123,0h-4a1,1,0,0,0-.986.835L117.4,4.5a12.864,12.864,0,0,0-2.7,1.114l-3.018-2.158a1,1,0,0,0-1.289.106l-2.831,2.831a1,1,0,0,0-.106,1.289l2.161,3.018a12.868,12.868,0,0,0-1.117,2.7l-3.668.613A1,1,0,0,0,104,15v3A1,1,0,0,0,105,19Z" transform="translate(-91 0)"/>
      <path id="Контур_300" data-name="Контур 300" d="M190,80a1,1,0,1,0,2,0,8,8,0,1,0-16,0,1,1,0,1,0,2,0,6,6,0,1,1,12,0Z" transform="translate(-154 -63)"/>
      <path id="Контур_301" data-name="Контур 301" d="M208,108a1,1,0,1,0,2,0,2,2,0,0,1,4,0,1,1,0,1,0,2,0,4,4,0,0,0-8,0Z" transform="translate(-182 -91)"/>
      <path id="Контур_302" data-name="Контур 302" d="M90,288V272H88v15H86V276H84v11H82v-8H80v8H78V277H76v10H74V275H72v12H70V273H68v14H66V277H64v10H62v-6H60v6H58v-4H56v4H54v-6H52v6H50v-7H48v7H46v-4H44v4H42v-1H40v3H90Z" transform="translate(-35 -238)"/>
    </g>
  </g>
</svg>
