<svg xmlns="http://www.w3.org/2000/svg" width="19" height="18" viewBox="0 0 19 18">
  <g id="Иконка_настройки_" data-name="Иконка (настройки)" transform="translate(0 -10.667)">
    <g id="Сгруппировать_6" data-name="Сгруппировать 6" transform="translate(0 23.189)">
      <g id="Сгруппировать_5" data-name="Сгруппировать 5">
        <path id="Контур_95" data-name="Контур 95" d="M18.208,353.957H16.1a2.762,2.762,0,0,0-5.284,0H.792a.783.783,0,1,0,0,1.565H10.817a2.762,2.762,0,0,0,5.284,0h2.108a.783.783,0,1,0,0-1.565Zm-4.75,1.957a1.174,1.174,0,1,1,1.187-1.174A1.182,1.182,0,0,1,13.458,355.913Z" transform="translate(0 -352)" fill="#f2ca6b"/>
      </g>
    </g>
    <g id="Сгруппировать_8" data-name="Сгруппировать 8" transform="translate(0 10.667)">
      <g id="Сгруппировать_7" data-name="Сгруппировать 7" transform="translate(0 0)">
        <path id="Контур_96" data-name="Контур 96" d="M18.208,12.624H16.1a2.762,2.762,0,0,0-5.284,0H.792a.783.783,0,1,0,0,1.565H10.817a2.762,2.762,0,0,0,5.284,0h2.108a.783.783,0,1,0,0-1.565Zm-4.75,1.957a1.174,1.174,0,1,1,1.187-1.174A1.182,1.182,0,0,1,13.458,14.58Z" transform="translate(0 -10.667)" fill="#f2ca6b"/>
      </g>
    </g>
    <g id="Сгруппировать_10" data-name="Сгруппировать 10" transform="translate(0 16.928)">
      <g id="Сгруппировать_9" data-name="Сгруппировать 9" transform="translate(0 0)">
        <path id="Контур_97" data-name="Контур 97" d="M18.208,183.291H8.183a2.762,2.762,0,0,0-5.284,0H.792a.783.783,0,1,0,0,1.565H2.9a2.762,2.762,0,0,0,5.284,0H18.208a.783.783,0,1,0,0-1.565ZM5.542,185.247a1.174,1.174,0,1,1,1.188-1.174A1.182,1.182,0,0,1,5.542,185.247Z" transform="translate(0 -181.334)" fill="#f2ca6b"/>
      </g>
    </g>
  </g>
</svg>
