<svg xmlns="http://www.w3.org/2000/svg" width="18.002" height="18" viewBox="0 0 18.002 18">
  <g id="Skype" transform="translate(-683.001 -619)">
    <path id="skype-2" data-name="skype" d="M17.48,10.909A8.526,8.526,0,0,0,7.627.752,4.986,4.986,0,0,0,0,4.909,4.841,4.841,0,0,0,.684,7.392a8.528,8.528,0,0,0,9.982,10.024A5.021,5.021,0,0,0,13.021,18,4.915,4.915,0,0,0,17.48,10.909Zm-8.409,4a5.158,5.158,0,0,1-4.488-1.874c-1.513-2.14.482-3.211,1.462-2.4.817.689.561,2.356,2.962,2.356,1.058,0,2.365-.451,2.365-1.5,0-2.111-4.683-1.112-6.546-3.414a2.824,2.824,0,0,1,.027-3.408c1.464-1.884,5.76-2,7.607-.576,1.705,1.32,1.245,3.072-.131,3.072C10.673,7.167,11.543,5,8.871,5,6.934,5,6.172,6.379,7.536,7.05c1.816.9,6.562.62,6.562,4.2C14.092,13.769,11.663,14.908,9.071,14.908Z" transform="translate(683.001 619.002)" fill="#03a9f4"/>
    <path id="skype-3" data-name="skype" d="M9.071,14.908a5.158,5.158,0,0,1-4.488-1.874c-1.513-2.14.482-3.211,1.462-2.4.817.689.561,2.356,2.962,2.356,1.058,0,2.365-.451,2.365-1.5,0-2.111-4.683-1.112-6.546-3.414a2.824,2.824,0,0,1,.027-3.408c1.464-1.884,5.76-2,7.607-.576,1.705,1.32,1.245,3.072-.131,3.072C10.673,7.167,11.543,5,8.871,5,6.934,5,6.172,6.379,7.536,7.05c1.816.9,6.562.62,6.562,4.2C14.092,13.769,11.663,14.908,9.071,14.908Z" transform="translate(683.001 619.002)" fill="#fff"/>
  </g>
</svg>
