<svg xmlns="http://www.w3.org/2000/svg" width="26" height="24" viewBox="0 0 26 24">
  <g id="solution" transform="translate(0 1.141)">
    <path id="Контур_184" data-name="Контур 184" d="M193.015,109.813a2.217,2.217,0,0,1-1.952-1.125c-.071,0-.14-.012-.211-.012h-.108a3.966,3.966,0,0,0-3.164,1.721,3.92,3.92,0,0,0-.708,2.26,3.98,3.98,0,1,0,6.757-2.843Z" transform="translate(-178.849 -104.756)" fill="#fff"/>
    <path id="Контур_185" data-name="Контур 185" d="M516.32-1.141h1.872V5.412H516.32Zm0,0" transform="translate(-492.192)" fill="#fff"/>
    <path id="Контур_186" data-name="Контур 186" d="M195.759,4.476c0,.709,1.159,1.4,2.34,1.4s2.34-.7,2.34-1.4a.468.468,0,0,1,.468-.468h.559V.263h-.557a.461.461,0,0,1-.184-.038l-3.188-1.366h-4.828a2.34,2.34,0,0,0-1.652.685l-3.811,3.808a.919.919,0,0,0-.166,1.115c0,.006.008.009.012.015a4.214,4.214,0,0,1,3.042-1.411h.008A1.872,1.872,0,0,1,192.014,1.2h5.148v.936h-5.148a.936.936,0,0,0,0,1.872h3.276A.468.468,0,0,1,195.759,4.476Zm0,0" transform="translate(-178.275)" fill="#fff"/>
    <path id="Контур_187" data-name="Контур 187" d="M71.633,347.941l2.639-.961,2.241,6.157-2.639.961Zm0,0" transform="translate(-68.275 -332.079)" fill="#fff"/>
    <path id="Контур_188" data-name="Контур 188" d="M0,384.629l2.639-.961,1.921,5.278-2.639.961Zm0,0" transform="translate(0 -367.047)" fill="#fff"/>
    <path id="Контур_189" data-name="Контур 189" d="M155.552,341.4a.468.468,0,0,1,.31,0l2.684.907,9.522-3.464a.936.936,0,0,0-.64-1.76l-3.038,1.1a1.955,1.955,0,0,1-.02.251,1.877,1.877,0,0,1-2.17,1.525l-5.268-.929.162-.922,5.269.93a.94.94,0,0,0,1.085-.761.857.857,0,0,0,0-.318,1.448,1.448,0,0,0-.04-.164.928.928,0,0,0-.717-.6l-6.237-1.1-2.939,1.069,1.6,4.4Zm0,0" transform="translate(-146.393 -321.707)" fill="#fff"/>
  </g>
</svg>
