<svg width="100" height="100" viewBox="0 0 100 100" fill="none" xmlns="http://www.w3.org/2000/svg">
<g filter="url(#filter0_b)">
<rect width="100" height="100" rx="10" fill="white" fill-opacity="0.4"/>
</g>
<g clip-path="url(#clip0)">
<path d="M77.5681 54.511H72.8191V48.443C72.8272 48.2894 72.8027 48.1358 72.7471 47.9924C72.6915 47.849 72.6061 47.7189 72.4966 47.6109C72.3871 47.5029 72.2559 47.4194 72.1117 47.3658C71.9675 47.3122 71.8136 47.2898 71.6601 47.3H51.1601V42.374H55.9091C56.2284 42.3835 56.5462 42.3282 56.8435 42.2114C57.1407 42.0945 57.4112 41.9186 57.6385 41.6943C57.8659 41.4699 58.0453 41.2018 58.1661 40.9061C58.2869 40.6105 58.3464 40.2934 58.3411 39.974V28.4C58.3464 28.0805 58.2868 27.7632 58.1659 27.4674C58.045 27.1716 57.8654 26.9034 57.6378 26.679C57.4103 26.4546 57.1396 26.2788 56.8421 26.1621C56.5446 26.0454 56.2265 25.9902 55.9071 26H44.0931C43.7739 25.9905 43.456 26.0458 43.1588 26.1627C42.8615 26.2795 42.591 26.4554 42.3637 26.6797C42.1364 26.9041 41.9569 27.1722 41.8361 27.4679C41.7154 27.7636 41.6558 28.0807 41.6611 28.4V40.084C41.6558 40.4034 41.7154 40.7205 41.8361 41.0161C41.9569 41.3118 42.1364 41.5799 42.3637 41.8043C42.591 42.0286 42.8615 42.2045 43.1588 42.3214C43.456 42.4382 43.7739 42.4935 44.0931 42.484H48.8421V47.3H28.3401C28.1865 47.2899 28.0325 47.3124 27.8883 47.3662C27.7441 47.42 27.613 47.5038 27.5035 47.612C27.3941 47.7202 27.3088 47.8504 27.2534 47.994C27.198 48.1376 27.1737 48.2913 27.1821 48.445V54.514H22.4321C22.1127 54.5045 21.7947 54.5599 21.4973 54.6768C21.1999 54.7938 20.9293 54.9699 20.702 55.1944C20.4746 55.419 20.2952 55.6874 20.1745 55.9833C20.0539 56.2792 19.9946 56.5965 20.0001 56.916V68.6C19.9948 68.9194 20.0544 69.2364 20.1751 69.5321C20.2959 69.8278 20.4754 70.0959 20.7027 70.3203C20.93 70.5446 21.2005 70.7205 21.4978 70.8373C21.795 70.9542 22.1129 71.0095 22.4321 71H34.2471C34.5664 71.0095 34.8842 70.9542 35.1815 70.8373C35.4787 70.7205 35.7492 70.5446 35.9765 70.3203C36.2039 70.0959 36.3833 69.8278 36.5041 69.5321C36.6249 69.2364 36.6844 68.9194 36.6791 68.6V56.916C36.6844 56.5967 36.6249 56.2796 36.5041 55.9839C36.3833 55.6882 36.2039 55.4201 35.9765 55.1957C35.7492 54.9714 35.4787 54.7955 35.1815 54.6787C34.8842 54.5618 34.5664 54.5065 34.2471 54.516H29.5001V49.588H48.8421V54.512H44.0931C43.7739 54.5025 43.456 54.5578 43.1588 54.6747C42.8615 54.7915 42.591 54.9674 42.3637 55.1918C42.1364 55.4161 41.9569 55.6842 41.8361 55.9799C41.7154 56.2756 41.6558 56.5927 41.6611 56.912V68.6C41.6558 68.9194 41.7154 69.2364 41.8361 69.5321C41.9569 69.8278 42.1364 70.0959 42.3637 70.3203C42.591 70.5446 42.8615 70.7205 43.1588 70.8373C43.456 70.9542 43.7739 71.0095 44.0931 71H55.9071C56.2264 71.0095 56.5442 70.9542 56.8415 70.8373C57.1387 70.7205 57.4092 70.5446 57.6365 70.3203C57.8639 70.0959 58.0433 69.8278 58.1641 69.5321C58.2849 69.2364 58.3444 68.9194 58.3391 68.6V56.916C58.3444 56.5967 58.2849 56.2796 58.1641 55.9839C58.0433 55.6882 57.8639 55.4201 57.6365 55.1957C57.4092 54.9714 57.1387 54.7955 56.8415 54.6787C56.5442 54.5618 56.2264 54.5065 55.9071 54.516H51.1581V49.588H70.5001V54.512H65.7531C65.4339 54.5025 65.116 54.5578 64.8188 54.6747C64.5215 54.7915 64.251 54.9674 64.0237 55.1918C63.7964 55.4161 63.6169 55.6842 63.4961 55.9799C63.3754 56.2756 63.3158 56.5927 63.3211 56.912V68.6C63.3158 68.9194 63.3754 69.2364 63.4961 69.5321C63.6169 69.8278 63.7964 70.0959 64.0237 70.3203C64.251 70.5446 64.5215 70.7205 64.8188 70.8373C65.116 70.9542 65.4339 71.0095 65.7531 71H77.5681C77.8874 71.0095 78.2052 70.9542 78.5025 70.8373C78.7997 70.7205 79.0702 70.5446 79.2975 70.3203C79.5249 70.0959 79.7043 69.8278 79.8251 69.5321C79.9459 69.2364 80.0054 68.9194 80.0001 68.6V56.916C79.9927 56.2758 79.7333 55.6643 79.278 55.214C78.8228 54.7638 78.2084 54.5112 77.5681 54.511V54.511ZM34.3681 56.911C34.2521 56.797 34.3681 56.797 34.3681 56.911V68.6C34.3681 68.715 34.3681 68.715 34.2521 68.715H22.4321C22.3161 68.715 22.3161 68.715 22.3161 68.6V56.916C22.3161 56.802 22.3161 56.802 22.4321 56.802L34.3681 56.911ZM56.0281 56.911C55.9121 56.797 56.0281 56.797 56.0281 56.911V68.6C56.0281 68.715 56.0281 68.715 55.9121 68.715H44.0931C43.9771 68.715 43.9771 68.715 43.9771 68.6V56.916C43.9771 56.802 43.9771 56.802 44.0931 56.802L56.0281 56.911ZM43.9771 39.969C44.0931 40.084 43.9771 40.084 43.9771 39.969V28.4C43.9771 28.285 43.9771 28.285 44.0931 28.285H55.9071C56.0231 28.285 56.0231 28.285 56.0231 28.4V40.084C56.0231 40.199 56.0231 40.199 55.9071 40.199L43.9771 39.969ZM77.6831 68.481C77.6831 68.596 77.5671 68.596 77.6831 68.481L65.7531 68.6C65.6371 68.6 65.6371 68.6 65.6371 68.485V56.916C65.6371 56.802 65.6371 56.802 65.7531 56.802H77.5681C77.6841 56.802 77.6841 56.802 77.6841 56.916L77.6831 68.481Z" fill="#F2CA6B"/>
</g>
<defs>
<filter id="filter0_b" x="-10" y="-10" width="120" height="120" filterUnits="userSpaceOnUse" color-interpolation-filters="sRGB">
<feFlood flood-opacity="0" result="BackgroundImageFix"/>
<feGaussianBlur in="BackgroundImage" stdDeviation="5"/>
<feComposite in2="SourceAlpha" operator="in" result="effect1_backgroundBlur"/>
<feBlend mode="normal" in="SourceGraphic" in2="effect1_backgroundBlur" result="shape"/>
</filter>
<clipPath id="clip0">
<rect width="60" height="45" fill="white" transform="translate(20 26)"/>
</clipPath>
</defs>
</svg>
