<svg xmlns="http://www.w3.org/2000/svg" width="72.958" height="67.468" viewBox="0 0 72.958 67.468">
  <g id="cooperation" transform="translate(0 -18.733)">
    <path id="Контур_305" data-name="Контур 305" d="M72.637,121.143,67.6,116.111a1.1,1.1,0,0,0-1.554,1.554l.7.7L49.856,135.261l-6.027-6.027,16.895-16.895,1.722,1.722A1.1,1.1,0,0,0,64,112.507l-2.493-2.493c-1.975-2.026-3.274-4.334-5.1-6.5a4.269,4.269,0,0,0-3.6-6.743,4.282,4.282,0,0,0-4.425-4.427,4.285,4.285,0,0,0-4.428-4.426c.19-4.032-4.85-5.845-7.472-2.933l-.259-.259a4.227,4.227,0,0,0-7.212,3.194,4.28,4.28,0,0,0-4.428,4.426,4.224,4.224,0,0,0-2.774.867,5.271,5.271,0,0,0-4.575.555,6.059,6.059,0,0,0-2.927,5l-1.245,9.636L.322,121.143a1.1,1.1,0,0,0,0,1.554l18.449,18.449a1.1,1.1,0,0,0,1.554,0l11.136-11.136a1.1,1.1,0,0,0,0-1.554l-1.871-1.871a21.108,21.108,0,0,1,6.889-4.376,21.285,21.285,0,0,1,6.889,4.376L41.5,128.457a1.1,1.1,0,0,0,0,1.554l11.136,11.136a1.1,1.1,0,0,0,1.555,0L72.637,122.7a1.1,1.1,0,0,0,0-1.554ZM53.006,98.964a2.066,2.066,0,0,1,1.857,2.854c-.883-.9-1.782-1.788-2.674-2.68l.817-.174Zm-4.427-4.427a2.06,2.06,0,0,1,1.858,2.853,12.372,12.372,0,0,0-3.207-2.334,2.017,2.017,0,0,1,1.35-.519Zm-29.8,8.152-.259-.259a2.031,2.031,0,0,1,2.872-2.872l.259.259-1.436,1.436Zm13.02-16.409a2.033,2.033,0,0,1,2.872,0l.259.259-2.872,2.872-.259-.259a2.033,2.033,0,0,1,0-2.872Zm-5.021,5.862a2.031,2.031,0,0,1,3.467-1.436l.259.259L29.063,92.4l-1.436,1.436-.259-.259a2.017,2.017,0,0,1-.595-1.436Zm-2.4,2.4a2.024,2.024,0,0,1,1.436.594l.259.259L23.2,98.264,22.942,98a2.03,2.03,0,0,1,1.436-3.466Zm-5.994,1.1a3.285,3.285,0,0,1,2.016-.5,4.251,4.251,0,0,0-.244,1.637,4.279,4.279,0,0,0-3.636,1.752A3.946,3.946,0,0,1,18.384,95.64Zm1.164,43.175L2.654,121.92l2-2,16.895,16.895ZM41.378,122.01a14.117,14.117,0,0,0-2.452-1.212,24.858,24.858,0,0,0,2.969-2.709,1.1,1.1,0,1,0-1.554-1.554,16.951,16.951,0,0,1-4.35,3.475c-3,1.5-5.537,2.6-7.954,5.022l-9.345-9.345a1.1,1.1,0,0,0-1.554,1.554L29.13,129.233,23.1,135.26l-16.9-16.895,6.027-6.027,1.088,1.088a1.1,1.1,0,0,0,1.554-1.554l-1.088-1.088,1.089-1.089a1.1,1.1,0,0,0,.313-.636l.838-6.486A7.762,7.762,0,0,0,18,105.019a1.109,1.109,0,0,0,1.556,0L38.293,86.28c1.831-1.831,4.71,1.035,2.872,2.872a1.1,1.1,0,1,0,1.554,1.554c1.853-1.853,4.724,1.019,2.871,2.871a1.1,1.1,0,0,0-.322.777c0-.254-8.731-.135-9.437-.135-4.785,0-5.579,7.086-.851,8.009l5.45,1.614a5.357,5.357,0,0,1,2.262,1.346l4.5,4.5-3.173,3.173a1.1,1.1,0,1,0,1.554,1.554l3.95-3.95a1.1,1.1,0,0,0,0-1.554l-5.273-5.273a7.563,7.563,0,0,0-3.192-1.9l-5.5-1.63c-2.028-.6-2.218-3.687.281-3.687h7.809a7.834,7.834,0,0,1,5.385,2.666s4.767,4.786,5.089,5.147c1.879,2.089,3.081,4.579,5.054,6.553L44.923,125.031a20.155,20.155,0,0,0-3.545-3.021Zm12.033,16.805-2-2L68.305,119.92l2,2Z" transform="translate(0 -55.267)"/>
    <path id="Контур_306" data-name="Контур 306" d="M242.527,23.178a1.1,1.1,0,0,0,1.1-1.1V19.832a1.1,1.1,0,1,0-2.2,0v2.247A1.1,1.1,0,0,0,242.527,23.178Z" transform="translate(-206.048)"/>
    <path id="Контур_307" data-name="Контур 307" d="M200.852,30.883A1.1,1.1,0,1,0,202.866,30l-.9-2.059a1.1,1.1,0,0,0-2.014.881Z" transform="translate(-170.571 -7.298)"/>
    <path id="Контур_308" data-name="Контур 308" d="M167.209,55.206a1.1,1.1,0,1,0,1.492-1.614l-1.65-1.526a1.1,1.1,0,1,0-1.492,1.614Z" transform="translate(-140.995 -28.199)"/>
    <path id="Контур_309" data-name="Контур 309" d="M277.507,31.449a1.1,1.1,0,0,0,1.447-.567l.9-2.059a1.1,1.1,0,0,0-2.014-.881L276.94,30A1.1,1.1,0,0,0,277.507,31.449Z" transform="translate(-236.277 -7.298)"/>
    <path id="Контур_310" data-name="Контур 310" d="M307.491,55.5a1.1,1.1,0,0,0,.746-.292l1.65-1.526a1.1,1.1,0,1,0-1.492-1.614l-1.65,1.526a1.1,1.1,0,0,0,.746,1.906Z" transform="translate(-261.491 -28.199)"/>
    <circle id="Эллипс_22" data-name="Эллипс 22" cx="1.239" cy="1.239" r="1.239" transform="translate(21.621 73.16) rotate(-13.3)"/>
  </g>
</svg>
