<svg xmlns="http://www.w3.org/2000/svg" width="68" height="68" viewBox="0 0 68 68">
  <g id="Иконка_Моя_команда_" data-name="Иконка (Моя команда)" transform="translate(-790 -410)">
    <rect id="Прямоугольник_151" data-name="Прямоугольник 151" width="68" height="68" rx="34" transform="translate(790 410)" fill="#3ba486"/>
    <g id="teamwork" transform="translate(808.325 428.319)">
      <g id="Сгруппировать_40" data-name="Сгруппировать 40" transform="translate(11.675 -0.32)">
        <g id="Сгруппировать_39" data-name="Сгруппировать 39" transform="translate(0)">
          <circle id="Эллипс_4" data-name="Эллипс 4" cx="4" cy="4" r="4" transform="translate(0 0)" fill="#fff"/>
        </g>
      </g>
      <g id="Сгруппировать_42" data-name="Сгруппировать 42" transform="translate(9.797 9.802)">
        <g id="Сгруппировать_41" data-name="Сгруппировать 41">
          <path id="Контур_129" data-name="Контур 129" d="M171.75,168.7l-.89-6.929A1.952,1.952,0,0,0,168.912,160h-1.074a.987.987,0,0,0-.694.286l-1.266,1.266-1.266-1.266a.987.987,0,0,0-.694-.286h-1.072a1.947,1.947,0,0,0-1.948,1.738l-.892,6.956a.982.982,0,0,0,.972,1.1h1.058l.819,9.993a1.953,1.953,0,0,0,1.95,1.764h2.146a1.959,1.959,0,0,0,1.952-1.781l.817-9.976h1.056a.977.977,0,0,0,.735-.333A.965.965,0,0,0,171.75,168.7Z" transform="translate(-160 -160.005)" fill="#fff"/>
        </g>
      </g>
      <g id="Сгруппировать_44" data-name="Сгруппировать 44" transform="translate(21.675 -0.32)">
        <g id="Сгруппировать_43" data-name="Сгруппировать 43" transform="translate(0)">
          <circle id="Эллипс_5" data-name="Эллипс 5" cx="4" cy="4" r="4" transform="translate(0 0)" fill="#fff"/>
        </g>
      </g>
      <g id="Сгруппировать_46" data-name="Сгруппировать 46" transform="translate(1.959 0.005)">
        <g id="Сгруппировать_45" data-name="Сгруппировать 45">
          <path id="Контур_130" data-name="Контур 130" d="M35.918,0a3.919,3.919,0,1,0,3.919,3.919A3.923,3.923,0,0,0,35.918,0Z" transform="translate(-31.999 -0.005)" fill="#fff"/>
        </g>
      </g>
      <g id="Сгруппировать_48" data-name="Сгруппировать 48" transform="translate(21.803 9.802)">
        <g id="Сгруппировать_47" data-name="Сгруппировать 47">
          <path id="Контур_131" data-name="Контур 131" d="M365.6,168.7l-.89-6.927a1.951,1.951,0,0,0-1.948-1.766h-1.074a.987.987,0,0,0-.694.286l-1.266,1.266-1.266-1.266a.986.986,0,0,0-.692-.286H356.7a1.869,1.869,0,0,0-.347.065,3.814,3.814,0,0,1,.51,1.474l.888,6.905a2.932,2.932,0,0,1-.717,2.324,2.839,2.839,0,0,1-.972.69l.651,6.374a1.952,1.952,0,0,0,1.95,1.764h2.146a1.959,1.959,0,0,0,1.952-1.781l.815-8.016h1.056a.977.977,0,0,0,.735-.333A.965.965,0,0,0,365.6,168.7Z" transform="translate(-356.063 -160.005)" fill="#fff"/>
        </g>
      </g>
      <g id="Сгруппировать_50" data-name="Сгруппировать 50" transform="translate(-0.001 9.802)">
        <g id="Сгруппировать_49" data-name="Сгруппировать 49">
          <path id="Контур_132" data-name="Контур 132" d="M8.57,170.763a2.935,2.935,0,0,1-.709-2.31l.892-6.958a3.623,3.623,0,0,1,.488-1.427A1.845,1.845,0,0,0,8.911,160H7.837a.987.987,0,0,0-.694.286l-1.266,1.266-1.266-1.266A.986.986,0,0,0,3.92,160H2.847A1.947,1.947,0,0,0,.9,161.743L.007,168.7a.982.982,0,0,0,.972,1.1H2.037l.819,8.034a1.953,1.953,0,0,0,1.95,1.764H6.952A1.959,1.959,0,0,0,8.9,177.819l.651-6.359A2.939,2.939,0,0,1,8.57,170.763Z" transform="translate(0.001 -160.005)" fill="#fff"/>
        </g>
      </g>
    </g>
  </g>
</svg>
