<svg xmlns="http://www.w3.org/2000/svg" width="68" height="68" viewBox="0 0 68 68">
  <g id="Иконка_Прибыль_с_уровней_" data-name="Иконка (Прибыль с уровней)" transform="translate(-1340 -210)">
    <rect id="Прямоугольник_147" data-name="Прямоугольник 147" width="68" height="68" rx="34" transform="translate(1340 210)" fill="#9a85df"/>
    <g id="wallet-filled-money-tool" transform="translate(1358 210.16)">
      <g id="Сгруппировать_51" data-name="Сгруппировать 51" transform="translate(0 17.84)">
        <path id="Контур_139" data-name="Контур 139" d="M161.271,23.769l12.935-3.531-.685-1.385a1.823,1.823,0,0,0-2.441-.823L159.5,23.769Z" transform="translate(-153.689 -17.84)" fill="#fff"/>
        <path id="Контур_140" data-name="Контур 140" d="M334.8,86.46a1.821,1.821,0,0,0-.481.066l-3.039.831L322,89.889h15.124l-.568-2.084A1.819,1.819,0,0,0,334.8,86.46Z" transform="translate(-310.268 -83.96)" fill="#fff"/>
        <path id="Контур_141" data-name="Контур 141" d="M28.755,215.56H1.825A1.824,1.824,0,0,0,.066,216.9a1.886,1.886,0,0,0-.066.477v20.3A1.822,1.822,0,0,0,1.822,239.5H28.751a1.822,1.822,0,0,0,1.822-1.822V232.6H19.763a3.1,3.1,0,0,1-3.1-3.1v-4.052a3.092,3.092,0,0,1,3.093-3.093H30.573v-4.973A1.817,1.817,0,0,0,28.755,215.56Z" transform="translate(0 -208.356)" fill="#fff"/>
        <path id="Контур_142" data-name="Контур 142" d="M506.311,437.238a1.82,1.82,0,0,0-.638-.379,1.858,1.858,0,0,0-.59-.1H494.222a1.822,1.822,0,0,0-1.822,1.822v4.055a1.822,1.822,0,0,0,1.822,1.822h10.861a1.857,1.857,0,0,0,.59-.1,1.767,1.767,0,0,0,.638-.379,1.815,1.815,0,0,0,.594-1.344v-4.055A1.815,1.815,0,0,0,506.311,437.238Zm-8.285,3.735a.911.911,0,0,1-.911.911h-.6a.911.911,0,0,1-.911-.911v-.6a.893.893,0,0,1,.35-.714.92.92,0,0,1,.561-.2h.6a.911.911,0,0,1,.911.911v.6Z" transform="translate(-474.459 -421.497)" fill="#fff"/>
      </g>
    </g>
  </g>
</svg>
