<svg xmlns="http://www.w3.org/2000/svg" width="28.826" height="24" viewBox="0 0 28.826 24">
  <g id="web" transform="translate(0 -0.5)">
    <path id="Контур_229" data-name="Контур 229" d="M95.255,27.543a.98.98,0,1,0,.911.978A.947.947,0,0,0,95.255,27.543Zm0,0" transform="translate(-88.192 -25.279)" fill="#fff"/>
    <path id="Контур_230" data-name="Контур 230" d="M155.783,169.5h-2.739v2.191a.463.463,0,0,1-.2.372.479.479,0,0,1-.271.084.457.457,0,0,1-.151-.026l-1.532-.537-1.533.537a.466.466,0,0,1-.618-.43V169.5H146v9.783h9.783Zm-7.458,4.3h3.364a.457.457,0,1,1,0,.913h-3.364a.457.457,0,0,1,0-.913Zm5.134,2.739h-5.134a.457.457,0,1,1,0-.913h5.134a.457.457,0,1,1,0,.913Zm0,0" transform="translate(-136.478 -157.978)" fill="#fff"/>
    <path id="Контур_231" data-name="Контур 231" d="M27.118,27.543a.98.98,0,1,0,.911.978A.947.947,0,0,0,27.118,27.543Zm0,0" transform="translate(-24.498 -25.279)" fill="#fff"/>
    <path id="Контур_232" data-name="Контур 232" d="M0,113.508a1.623,1.623,0,0,0,1.595,1.666H27.231a1.623,1.623,0,0,0,1.595-1.666V97.5H0Zm8.609-11.769a.456.456,0,0,1,.457-.457h10.7a.456.456,0,0,1,.457.457v10.7a.456.456,0,0,1-.457.457H9.065a.456.456,0,0,1-.457-.457Zm0,0" transform="translate(0 -90.674)" fill="#fff"/>
    <path id="Контур_233" data-name="Контур 233" d="M203.4,170.67l1.081.377V169.5H202v1.547l1.085-.377A.486.486,0,0,1,203.4,170.67Zm0,0" transform="translate(-188.826 -157.978)" fill="#fff"/>
    <path id="Контур_234" data-name="Контур 234" d="M27.231.5H1.594A1.623,1.623,0,0,0,0,2.166V5.913H28.826V2.166A1.623,1.623,0,0,0,27.231.5ZM2.62,5.132A1.86,1.86,0,0,1,.8,3.242,1.86,1.86,0,0,1,2.62,1.351,1.86,1.86,0,0,1,4.444,3.242,1.86,1.86,0,0,1,2.62,5.132Zm4.444,0A1.86,1.86,0,0,1,5.24,3.242,1.861,1.861,0,0,1,7.063,1.351,1.861,1.861,0,0,1,8.887,3.242,1.861,1.861,0,0,1,7.063,5.132Zm4.444,0A1.861,1.861,0,0,1,9.683,3.242a1.825,1.825,0,1,1,3.648,0A1.86,1.86,0,0,1,11.507,5.132Zm0,0" fill="#fff"/>
    <path id="Контур_235" data-name="Контур 235" d="M163.391,27.543a.98.98,0,1,0,.911.978A.947.947,0,0,0,163.391,27.543Zm0,0" transform="translate(-151.884 -25.279)" fill="#fff"/>
  </g>
</svg>
