<svg id="whatsapp" xmlns="http://www.w3.org/2000/svg" width="18" height="18" viewBox="0 0 18 18">
  <path id="Контур_171" data-name="Контур 171" d="M9,0H9A8.994,8.994,0,0,0,1.713,14.275L.592,17.619l3.459-1.106A9,9,0,1,0,9,0Z" fill="#4caf50"/>
  <path id="Контур_172" data-name="Контур 172" d="M117.732,125.681a2.54,2.54,0,0,1-1.766,1.27c-.47.1-1.085.18-3.152-.677a11.274,11.274,0,0,1-4.481-3.958,5.14,5.14,0,0,1-1.069-2.715,2.873,2.873,0,0,1,.92-2.19,1.308,1.308,0,0,1,.92-.323c.111,0,.212.006.3.01.264.011.4.027.572.444.217.523.746,1.815.809,1.947a.536.536,0,0,1,.038.487,1.555,1.555,0,0,1-.291.413c-.133.153-.259.27-.391.434-.122.143-.259.3-.106.56a7.988,7.988,0,0,0,1.46,1.815,6.616,6.616,0,0,0,2.11,1.3.569.569,0,0,0,.634-.1,10.886,10.886,0,0,0,.7-.932.5.5,0,0,1,.646-.2c.243.084,1.529.72,1.793.852s.439.2.5.307A2.241,2.241,0,0,1,117.732,125.681Z" transform="translate(-103.493 -112.972)" fill="#fafafa"/>
</svg>
